<svg width="25" height="43" viewBox="0 0 25 43" fill="none" xmlns="http://www.w3.org/2000/svg">
<path d="M11.4532 9.55117C12.5392 9.55117 13.4278 8.65884 13.4278 7.56823C13.4278 5.58529 15.0405 3.96588 17.0152 3.96588H22.5771C23.6632 3.96588 24.5518 3.07356 24.5518 1.98294C24.5518 0.892324 23.6632 0 22.5771 0H17.0152C12.8684 0 9.47852 3.40405 9.47852 7.56823C9.47852 8.69189 10.3671 9.55117 11.4532 9.55117Z" fill="white"/>
<path d="M22.1821 15.7646H1.97467C0.8886 15.7646 0 16.657 0 17.7476C0 18.8382 0.8886 19.7305 1.97467 19.7305H9.4784V40.287C9.4784 41.3776 10.367 42.27 11.4531 42.27C12.5391 42.27 13.4277 41.3776 13.4277 40.287V19.7305H22.1821C23.2681 19.7305 24.1567 18.8382 24.1567 17.7476C24.1567 16.657 23.2681 15.7646 22.1821 15.7646Z" fill="white"/>
</svg>
