<svg width="37" height="41" viewBox="0 0 37 41" fill="none" xmlns="http://www.w3.org/2000/svg">
<path d="M1.97467 9.48535C0.8886 9.48535 0 10.3777 0 11.4683V38.2711C0 39.3617 0.8886 40.254 1.97467 40.254C3.06073 40.254 3.94933 39.3617 3.94933 38.2711V11.4683C3.94933 10.3446 3.06073 9.48535 1.97467 9.48535Z" fill="white"/>
<path d="M16.0606 30.4053C14.9745 30.4053 14.0859 31.2976 14.0859 32.3882V38.2379C14.0859 39.3285 14.9745 40.2208 16.0606 40.2208C17.1467 40.2208 18.0353 39.3285 18.0353 38.2379V32.3882C18.0353 31.2976 17.1796 30.4053 16.0606 30.4053Z" fill="white"/>
<path d="M25.2428 11.6005C22.5112 11.6005 19.977 12.592 18.0353 14.2775V11.4683C18.0353 10.3777 17.1467 9.48535 16.0606 9.48535C14.9745 9.48535 14.0859 10.3777 14.0859 11.4683V22.8041C14.0859 23.8947 14.9745 24.7871 16.0606 24.7871C17.1467 24.7871 18.0353 23.8947 18.0353 22.8041C18.0353 18.8052 21.2606 15.5664 25.2428 15.5664C29.225 15.5664 32.4503 18.8052 32.4503 22.8041V38.2711C32.4503 39.3617 33.3389 40.254 34.425 40.254C35.5111 40.254 36.3997 39.3617 36.3997 38.2711V22.8041C36.3997 16.6239 31.3972 11.6005 25.2428 11.6005Z" fill="white"/>
<path d="M1.9754 3.96588C2.50198 3.96588 2.99564 3.76759 3.35766 3.371C3.7526 3.00746 3.95006 2.51173 3.95006 1.98294C3.95006 1.45416 3.7526 0.958422 3.35766 0.594882C2.99564 0.198294 2.50198 0 1.9754 0C1.44882 0 0.955154 0.198294 0.593132 0.594882C0.198199 0.958422 0.000732422 1.45416 0.000732422 1.98294C0.000732422 2.51173 0.198199 3.00746 0.593132 3.371C0.955154 3.76759 1.44882 3.96588 1.9754 3.96588Z" fill="white"/>
</svg>
