<svg width="53" height="43" viewBox="0 0 53 43" fill="none" xmlns="http://www.w3.org/2000/svg">
<path d="M51.9605 6.18031C51.3352 5.28799 50.1175 5.05664 49.2289 5.68457L43.1074 9.9479C42.548 10.3445 42.2188 10.9724 42.2518 11.6664C42.2847 12.063 42.2847 12.4596 42.2847 12.8232C42.2847 25.4148 32.7404 38.4362 16.7786 38.4362C13.5204 38.4362 10.328 37.8082 7.33308 36.6185L16.8115 33.9745C17.8646 33.6771 18.4899 32.5865 18.1937 31.5289C17.8975 30.4713 16.8115 29.8434 15.7583 30.1409L1.44199 34.1398C0.685039 34.3381 0.12555 34.9991 0.0268167 35.7592C-0.104828 36.5193 0.257194 37.3125 0.915416 37.7091C5.65461 40.7496 11.1508 42.369 16.7786 42.369C27.8367 42.369 34.7809 37.1142 38.6644 32.7187C43.4695 27.2325 46.234 19.9948 46.234 12.8232C46.234 12.7571 46.234 12.6579 46.234 12.5918L51.4998 8.92338C52.3555 8.29545 52.5858 7.07263 51.9605 6.18031Z" fill="white"/>
<path d="M4.33809 5.55224L24.2493 15.6652C24.5455 15.7974 24.8417 15.8635 25.1379 15.8635C25.5657 15.8635 25.9936 15.7313 26.3556 15.4339C26.948 14.9712 27.2442 14.178 27.0467 13.4179C26.9151 12.8561 26.8493 12.2612 26.8493 11.6663C26.8493 7.40298 30.3049 3.96588 34.5176 3.96588C36.6239 3.96588 38.6644 4.85821 40.1125 6.41151C40.639 7.00639 41.4947 7.20469 42.2188 6.90725L48.3731 4.65991C49.3934 4.29637 49.92 3.13966 49.5579 2.11514C49.1959 1.09062 48.044 0.561834 47.0238 0.925373L42.0542 2.77612C39.9808 0.991471 37.2821 0 34.5505 0C28.5277 0 23.5253 4.62686 22.9658 10.5426L6.1482 2.01599C5.16087 1.52026 3.97607 1.91684 3.4824 2.87527C2.98873 3.86674 3.38367 5.0565 4.33809 5.55224Z" fill="white"/>
<path d="M3.35077 17.4164L7.69503 18.6392C7.85959 18.6722 8.05705 18.7053 8.22161 18.7053C9.0773 18.7053 9.86716 18.1435 10.1305 17.2511C10.4267 16.1936 9.80134 15.103 8.74819 14.8055L4.37101 13.5827C3.31785 13.2853 2.23179 13.9132 1.93559 14.9708C1.6723 16.0283 2.29761 17.1189 3.35077 17.4164Z" fill="white"/>
<path d="M7.16855 23.3322C6.08248 23.3652 5.2268 24.2906 5.25971 25.3812C5.29262 26.4388 6.18122 27.2981 7.23437 27.2981C7.26728 27.2981 7.3002 27.2981 7.3002 27.2981L11.6774 27.1328C12.7634 27.0998 13.6191 26.1744 13.5862 25.0838C13.5533 23.9932 12.6318 23.1339 11.5457 23.1669L7.16855 23.3322Z" fill="white"/>
</svg>
