<?xml version="1.0" encoding="utf-8"?>
<!-- Generator: Adobe Illustrator 16.0.0, SVG Export Plug-In . SVG Version: 6.00 Build 0)  -->
<!DOCTYPE svg PUBLIC "-//W3C//DTD SVG 1.1//EN" "http://www.w3.org/Graphics/SVG/1.1/DTD/svg11.dtd">
<svg version="1.1" id="HSBC_MASTERBRAND_LOGO_WW_RGB"
	 xmlns="http://www.w3.org/2000/svg" xmlns:xlink="http://www.w3.org/1999/xlink" x="0px" y="0px" width="500px" height="134.694px"
	 viewBox="0 182.732 500 134.694" enable-background="new 0 182.732 500 134.694" xml:space="preserve">
<title>HSBC_MASTERBRAND_LOGO_WW_RGB</title>
<polygon fill="#4D4D4D" points="269.23,250.158 201.963,182.732 201.963,317.426 "/>
<polygon fill="#4D4D4D" points="134.694,250.158 201.963,182.732 67.426,182.732 "/>
<polygon fill="#4D4D4D" points="0,250.158 67.426,317.426 67.426,182.732 "/>
<polygon fill="#4D4D4D" points="134.694,250.158 67.426,317.426 201.963,317.426 "/>
<path fill="#4D4D4D" d="M328.269,254.115h-24.375v24.059h-12.188v-56.347h12.188v23.108h24.375v-23.108h12.188v56.347h-12.188
	V254.115z"/>
<path fill="#4D4D4D" d="M369.896,279.281c-12.188,0-22.159-4.906-22.317-18.359h12.188c0.158,6.014,3.641,9.654,10.288,9.654
	c4.906,0,10.604-2.532,10.604-8.072c0-4.432-3.799-5.697-10.13-7.598l-4.115-1.107c-8.863-2.533-17.727-6.015-17.727-16.145
	c0-12.504,11.712-16.777,22.317-16.777c10.921,0,20.417,3.799,20.576,16.303h-12.188c-0.476-5.065-3.482-8.072-9.181-8.072
	c-4.59,0-9.021,2.374-9.021,7.439c0,4.115,3.799,5.381,11.712,7.914l4.749,1.424c9.654,3.007,15.827,6.331,15.827,15.828
	C393.32,274.375,380.975,279.281,369.896,279.281z"/>
<path fill="#4D4D4D" d="M400.285,221.985h19.626c3.641-0.158,7.439,0,11.08,0.633c6.806,1.583,12.028,6.014,12.028,13.612
	c0,7.281-4.59,10.921-11.237,12.662c7.598,1.424,13.295,5.223,13.295,13.612c0,12.82-12.662,15.67-22.476,15.67h-22.158
	L400.285,221.985z M419.911,245.41c5.382,0,10.921-1.108,10.921-7.598c0-5.856-5.064-7.439-10.129-7.439h-8.547v15.037H419.911z
	 M421.02,269.785c5.698,0,11.237-1.267,11.237-8.23c0-6.965-4.748-8.23-10.604-8.23h-9.655v16.461H421.02z"/>
<path fill="#4D4D4D" d="M476.733,279.281c-18.202,0-26.274-11.555-26.274-28.807s9.021-29.756,26.907-29.756
	c11.238,0,22.159,5.065,22.476,17.727H487.18c-0.633-5.698-4.432-8.547-9.813-8.547c-11.079,0-14.403,11.871-14.403,20.892
	c0,9.022,3.324,19.469,13.929,19.469c5.54,0,9.655-3.008,10.446-8.705H500C498.733,274.533,488.445,279.281,476.733,279.281z"/>
</svg>
