<?xml version="1.0" encoding="utf-8"?>
<!-- Generator: Adobe Illustrator 16.0.0, SVG Export Plug-In . SVG Version: 6.00 Build 0)  -->
<!DOCTYPE svg PUBLIC "-//W3C//DTD SVG 1.1//EN" "http://www.w3.org/Graphics/SVG/1.1/DTD/svg11.dtd">
<svg version="1.1" id="Layer_1" xmlns="http://www.w3.org/2000/svg" xmlns:xlink="http://www.w3.org/1999/xlink" x="0px" y="0px"
	 width="138px" height="138px" viewBox="0 0 138 138" enable-background="new 0 0 138 138" xml:space="preserve">
<g>
	<g>
		<path fill-rule="evenodd" clip-rule="evenodd" fill="#4D4D4D" d="M43.376,57.398c0.025,0.028,0.048,0.056,0.072,0.084
			c0.545-0.412,1.086-0.83,1.637-1.233c0.57-0.416,1.164-0.8,1.72-1.233c0.304-0.236,0.545-0.246,0.9-0.088
			c7.709,3.433,15.753,4.46,24.089,3.282c4.208-0.594,8.269-1.746,12.206-3.343c0.265-0.106,0.581-0.155,0.864-0.129
			c5.974,0.527,11.909,1.347,17.811,2.424c11.312,2.068,22.357,5.091,33.095,9.223c0.111,0.043,0.228,0.07,0.343,0.104
			c-15.199-7.214-31.236-11.441-48.055-13.465c0.656-0.362,1.162-0.635,1.661-0.919c0.491-0.278,0.976-0.569,1.463-0.854
			c-0.954,0.336-1.844,0.791-2.746,1.213c-8.082,3.785-16.506,5.919-25.502,5.25c-3.734-0.277-7.356-1.072-10.813-2.537
			c-1.044-0.442-2.054-0.966-3.185-1.503c0.307-0.194,0.478-0.316,0.66-0.416c2.029-1.104,4.018-2.289,6.097-3.287
			c4.731-2.271,9.685-3.858,14.921-4.468c0.212-0.024,0.475-0.001,0.646,0.106c0.839,0.521,1.654,1.078,2.478,1.621
			c0.105,0.069,0.216,0.132,0.323,0.199c0.033-0.035,0.064-0.069,0.098-0.103c-0.533-0.653-1.066-1.307-1.641-2.011
			c6.605-0.272,12.774,1.186,18.652,4.022c-0.065-0.105-0.137-0.182-0.223-0.238c-6.01-3.978-12.601-5.782-19.806-5.282
			c-0.26,0.018-0.57-0.039-0.785-0.175c-2.138-1.37-4.484-2.028-7.005-2.076c-0.765-0.015-1.531,0.071-2.296,0.112
			c0.005,0.025,0.01,0.049,0.015,0.073c2.331,0.759,4.662,1.519,6.993,2.278c-0.01,0.052-0.019,0.104-0.027,0.155
			c-0.096,0.031-0.19,0.073-0.287,0.09c-4.075,0.748-7.902,2.191-11.563,4.103c-2.6,1.357-5.064,2.933-7.426,4.669
			c-0.193,0.142-0.365,0.339-0.643,0.114c-1.024-0.833-2.156-1.556-3.067-2.497c-2.062-2.129-2.091-4.433-0.203-6.724
			c1.394-1.691,3.208-2.849,5.093-3.903c0.532-0.299,1.072-0.58,1.608-0.868c-0.03-0.061-0.061-0.122-0.091-0.183
			c-2.013,0.965-4.052,1.88-6.031,2.911c-1.396,0.727-2.648,1.689-3.668,2.914c-0.653,0.784-1.156,1.645-1.271,2.685
			c-0.17,1.532,0.486,2.751,1.518,3.79c0.614,0.618,1.308,1.159,2.014,1.776c-7.472,0.932-14.813,2.344-22.045,4.305
			c-7.23,1.959-14.281,4.426-21.113,7.514c14.732-5.328,29.908-8.642,45.525-10.032C45.384,55.698,44.381,56.548,43.376,57.398z"/>
		<path fill-rule="evenodd" clip-rule="evenodd" fill="#4D4D4D" d="M3.963,85.194c0.386,1.442,0.776,2.886,1.177,4.372
			c1.158-0.31,2.272-0.606,3.437-0.917c-1.245-4.671-2.476-9.285-3.706-13.898c0.04-0.016,0.08-0.033,0.12-0.049
			c2.41,4.317,4.82,8.635,7.24,12.97c1.07-0.284,2.1-0.578,3.142-0.824c0.429-0.102,0.589-0.273,0.582-0.736
			c-0.068-3.915-0.109-7.83-0.154-11.748c-0.01-0.863-0.001-1.728-0.001-2.592c0.032-0.002,0.064-0.004,0.097-0.007
			c1.238,4.635,2.478,9.271,3.725,13.938c1.169-0.314,2.27-0.609,3.441-0.924c-1.594-5.968-3.177-11.896-4.773-17.872
			c-1.849,0.495-3.64,0.975-5.372,1.439c0,4.815,0,9.551,0,14.422c-0.159-0.272-0.248-0.425-0.336-0.576
			c-2.198-3.84-4.401-7.679-6.584-11.527c-0.187-0.331-0.364-0.396-0.708-0.297c-0.914,0.264-1.837,0.497-2.755,0.743
			c-1.432,0.385-1.974,1.325-1.594,2.749C1.949,77.637,2.955,81.415,3.963,85.194z"/>
		<path fill-rule="evenodd" clip-rule="evenodd" fill="#4D4D4D" d="M134.025,98.816c-8.378-3.52-16.964-6.421-25.769-8.674
			c-8.157-2.084-16.413-3.647-24.795-4.46c-4.192-0.405-8.398-0.732-12.606-0.884c-3.927-0.141-7.868-0.091-11.797,0.035
			c-3.487,0.111-6.974,0.367-10.449,0.688c-5.603,0.517-11.159,1.381-16.672,2.509c-8.612,1.765-17.04,4.156-25.208,7.423
			c-2.189,0.875-4.339,1.851-6.506,2.781c0.018,0.037,0.036,0.072,0.054,0.109c2.136-0.763,4.263-1.557,6.409-2.288
			c13.052-4.458,26.46-7.234,40.189-8.498c5.659-0.521,11.329-0.827,17.008-0.789c4.249,0.028,8.502,0.136,12.739,0.413
			c4.625,0.301,9.244,0.758,13.847,1.295c5.779,0.675,11.506,1.705,17.195,2.928c8.897,1.91,17.655,4.313,26.197,7.474
			c0.142,0.053,0.288,0.093,0.432,0.137C134.218,98.9,134.121,98.856,134.025,98.816z"/>
		<path fill-rule="evenodd" clip-rule="evenodd" fill="#4D4D4D" d="M95.342,63.616c-0.04-0.175-0.233-0.421-0.386-0.446
			c-0.922-0.147-1.852-0.247-2.78-0.348c-0.892-0.097-1.506,0.268-1.914,1.085c-2.629,5.266-5.274,10.522-7.912,15.785
			c-0.083,0.165-0.15,0.334-0.238,0.534c1.274,0.16,2.479,0.325,3.688,0.441c0.152,0.016,0.4-0.176,0.479-0.334
			c0.468-0.947,0.907-1.908,1.339-2.873c0.12-0.269,0.257-0.341,0.563-0.301c2.079,0.272,4.162,0.527,6.247,0.763
			c0.33,0.037,0.486,0.125,0.544,0.477c0.174,1.024,0.377,2.045,0.604,3.058c0.038,0.174,0.231,0.422,0.382,0.446
			c1.181,0.174,2.368,0.304,3.627,0.455c-0.03-0.195-0.04-0.301-0.062-0.402c-0.619-2.729-1.24-5.462-1.86-8.192
			C96.892,70.381,96.127,66.996,95.342,63.616z M89.164,74.131c1.146-2.48,2.263-4.897,3.381-7.316
			c0.041,0.004,0.08,0.01,0.12,0.015c0.51,2.609,1.02,5.219,1.546,7.912C92.503,74.535,90.871,74.337,89.164,74.131z"/>
		<path fill-rule="evenodd" clip-rule="evenodd" fill="#4D4D4D" d="M30.229,73.995c-0.566,0.312-1.179,0.538-1.778,0.786
			c-0.94,0.392-1.923,0.697-2.821,1.167c-1.632,0.855-2.345,2.251-2.191,4.106c0.173,2.095,1.515,3.727,3.515,3.999
			c2.37,0.318,4.509-0.279,6.292-1.943c0.082-0.077,0.173-0.144,0.292-0.24c0.082,0.321,0.15,0.59,0.229,0.899
			c0.84-0.167,1.646-0.327,2.479-0.494c-0.013-0.158-0.012-0.231-0.026-0.3c-0.462-2.33-0.928-4.662-1.388-6.994
			c-0.176-0.9-0.344-1.802-0.501-2.704c-0.333-1.904-1.34-2.97-3.254-3.227c-2.183-0.292-4.3,0.021-6.241,1.105
			c-1.445,0.807-2.257,2.471-1.988,3.926c0.95-0.169,1.899-0.341,2.851-0.505c0.354-0.062,0.642-0.14,0.788-0.557
			c0.082-0.23,0.36-0.443,0.6-0.561c0.839-0.408,1.734-0.575,2.668-0.452c0.511,0.067,0.908,0.314,1.039,0.841
			C30.923,73.372,30.644,73.768,30.229,73.995z M31.532,76.03c0.064,0.87,0.232,1.71,0.164,2.529
			c-0.129,1.576-1.893,2.799-3.457,2.507c-1.138-0.216-1.686-1.724-0.964-2.687c0.155-0.209,0.363-0.383,0.566-0.548
			c0.148-0.12,0.324-0.211,0.499-0.294C29.364,77.05,30.392,76.568,31.532,76.03z"/>
		<path fill-rule="evenodd" clip-rule="evenodd" fill="#4D4D4D" d="M77.023,69.94c0.078-2.059-0.746-3.296-2.704-3.957
			c-1.752-0.591-3.56-0.71-5.375-0.395c-1.94,0.336-3.239,1.661-3.547,3.563c0.937,0.041,1.833,0.074,2.73,0.123
			c0.458,0.026,0.906,0.1,1.182-0.425c0.076-0.146,0.309-0.247,0.488-0.292c0.98-0.252,1.956-0.221,2.902,0.158
			c0.461,0.184,0.775,0.521,0.768,1.038c-0.009,0.5-0.335,0.836-0.778,0.969c-0.569,0.169-1.164,0.25-1.751,0.359
			c-1.24,0.23-2.522,0.333-3.717,0.711c-1.655,0.522-2.432,1.853-2.566,3.539c-0.141,1.761,0.393,3.246,1.99,4.189
			c1.407,0.827,2.966,0.93,4.513,0.684c1.003-0.158,1.96-0.589,2.954-0.903c0,0.169,0,0.45,0,0.794c0.885,0,1.719,0,2.711,0
			c0-1.699-0.026-3.393,0.007-5.08C76.864,73.321,76.959,71.633,77.023,69.94z M73.145,75.261c-0.444,1.659-2.374,2.565-3.976,1.932
			c-1.135-0.448-1.323-2.154-0.293-2.926c0.327-0.244,0.74-0.415,1.141-0.513c1.087-0.268,2.188-0.479,3.416-0.739
			C73.341,73.779,73.336,74.544,73.145,75.261z"/>
		<path fill-rule="evenodd" clip-rule="evenodd" fill="#4D4D4D" d="M55.215,69.462c0.939-0.741,2.025-0.805,3.104-0.396
			c0.955,0.362,1.19,1.218,1.241,2.149c0.133,2.428,0.269,4.855,0.417,7.282c0.051,0.843,0.495,1.377,1.329,1.458
			c0.761,0.077,1.535,0.018,2.385,0.018c-0.048-0.895-0.086-1.669-0.132-2.44c-0.138-2.323-0.237-4.646-0.429-6.964
			c-0.199-2.416-1.491-4.075-3.548-4.627c-0.624-0.168-1.284-0.233-1.931-0.265c-1.309-0.063-2.588,0.138-3.833,0.655
			c-0.047-0.207-0.081-0.356-0.122-0.536c-1.022,0.063-2.03,0.125-3.078,0.19c0.279,4.92,0.554,9.75,0.829,14.623
			c1.244-0.072,2.43-0.141,3.654-0.215c-0.057-1.077-0.108-2.077-0.163-3.078c-0.113-2.039-0.234-4.082-0.337-6.122
			C54.57,70.541,54.675,69.888,55.215,69.462z"/>
		<path fill-rule="evenodd" clip-rule="evenodd" fill="#4D4D4D" d="M114.931,74.632c0.166-0.114,0.382-0.262,0.426-0.431
			c0.244-0.933,0.443-1.876,0.666-2.859c-3.863-0.863-7.666-1.713-11.494-2.57c-0.103,0.453-0.209,0.824-0.27,1.202
			c-0.175,1.091,0.382,1.902,1.461,2.152c0.944,0.219,1.891,0.424,2.835,0.639c0.757,0.171,1.515,0.347,2.365,0.542
			c-0.227,0.167-0.351,0.262-0.479,0.352c-2.836,2.007-5.671,4.01-8.5,6.022c-0.173,0.124-0.361,0.314-0.412,0.506
			c-0.213,0.815-0.373,1.645-0.567,2.537c4.07,0.91,8.081,1.807,12.126,2.71c0.236-1.057,0.455-2.031,0.684-3.049
			c-2.538-0.569-5.033-1.13-7.647-1.717c0.294-0.209,0.488-0.35,0.688-0.485C109.518,78.334,112.226,76.485,114.931,74.632z"/>
		<path fill-rule="evenodd" clip-rule="evenodd" fill="#4D4D4D" d="M116.861,86.164c1.183,1.026,2.527,1.679,4.068,1.868
			c3.432,0.422,4.986-0.323,6.163-3.597c0.716-1.984,1.29-4.022,1.925-6.038c0.29-0.919,0.578-1.84,0.883-2.812
			c-0.725-0.216-1.388-0.446-2.067-0.611c-0.876-0.213-1.466,0.116-1.792,0.97c-0.157,0.411-0.276,0.835-0.408,1.255
			c-0.669,2.115-1.329,4.231-2.001,6.347c-0.229,0.716-0.592,1.362-1.371,1.556c-1.084,0.269-2.073-0.041-2.889-0.78
			c-0.731-0.664-0.628-1.515-0.366-2.36c0.316-1.027,0.645-2.049,0.966-3.073c0.604-1.931,1.209-3.858,1.828-5.836
			c-1.153-0.363-2.271-0.715-3.45-1.085c-0.354,1.129-0.695,2.182-1.019,3.241c-0.641,2.105-1.332,4.196-1.888,6.324
			C114.977,83.319,115.407,84.902,116.861,86.164z"/>
		<path fill-rule="evenodd" clip-rule="evenodd" fill="#4D4D4D" d="M42.244,70.945c0.43-0.068,0.86-0.134,1.35-0.211
			c-0.165-1.243-0.323-2.44-0.488-3.689c-1.666,0.169-3.184,0.561-4.575,1.452c-0.065-0.269-0.117-0.478-0.172-0.708
			c-1.05,0.143-2.05,0.279-3.074,0.418c0.632,4.753,1.253,9.42,1.881,14.14c1.268-0.172,2.444-0.332,3.622-0.49
			c-0.009-0.165-0.008-0.253-0.02-0.341c-0.324-2.425-0.653-4.852-0.973-7.278C39.554,72.405,40.43,71.231,42.244,70.945z"/>
		<path fill-rule="evenodd" clip-rule="evenodd" fill="#4D4D4D" d="M131.604,87.388c1.493-3.877,2.987-7.755,4.476-11.635
			c0.394-1.026,0.086-1.998-0.789-2.405c-0.588-0.272-1.209-0.475-1.883-0.733c-2.226,5.781-4.425,11.498-6.643,17.265
			c1.139,0.439,2.244,0.863,3.378,1.299C130.644,89.883,131.123,88.635,131.604,87.388z"/>
		<path fill-rule="evenodd" clip-rule="evenodd" fill="#4D4D4D" d="M49.591,80.846c-0.019-0.274-0.027-0.501-0.05-0.725
			c-0.162-1.614-0.327-3.228-0.492-4.839c-0.245-2.402-0.482-4.805-0.743-7.205c-0.101-0.921-0.642-1.396-1.566-1.368
			c-0.699,0.021-1.396,0.113-2.177,0.181c0.487,4.809,0.968,9.56,1.451,14.326C47.246,81.088,48.399,80.969,49.591,80.846z"/>
		<path fill-rule="evenodd" clip-rule="evenodd" fill="#4D4D4D" d="M61.848,53.922c4.266,1.534,9.297,0.744,11.195-2.375
			c-1.733,0.588-3.554,1.265-5.411,1.819C65.753,53.926,63.804,54.01,61.848,53.922z"/>
		<path fill-rule="evenodd" clip-rule="evenodd" fill="#4D4D4D" d="M47.794,63.592c-0.148-0.62-0.613-0.965-1.23-0.964
			c-0.783,0.001-1.565,0.104-2.408,0.166c0.094,0.964,0.18,1.851,0.274,2.823c1.211-0.122,2.374-0.238,3.618-0.363
			C47.96,64.655,47.918,64.114,47.794,63.592z"/>
		<path fill-rule="evenodd" clip-rule="evenodd" fill="#4D4D4D" d="M135.566,88.226c-1.268-0.002-2.258,0.937-2.275,2.154
			c-0.019,1.233,0.985,2.198,2.281,2.191c1.264-0.007,2.216-0.958,2.204-2.202C137.764,89.157,136.806,88.228,135.566,88.226z
			 M135.561,92.143c-0.964-0.007-1.718-0.798-1.698-1.782c0.02-0.963,0.794-1.73,1.716-1.706c0.939,0.024,1.639,0.791,1.629,1.785
			C137.196,91.397,136.471,92.147,135.561,92.143z"/>
		<path fill-rule="evenodd" clip-rule="evenodd" fill="#4D4D4D" d="M82.07,49.371c-0.017,0.513,0.372,0.938,0.866,0.945
			c0.48,0.008,0.865-0.372,0.878-0.87c0.016-0.528-0.354-0.931-0.859-0.938C82.465,48.502,82.085,48.873,82.07,49.371z"/>
		<path fill-rule="evenodd" clip-rule="evenodd" fill="#4D4D4D" d="M136.474,89.896c-0.049-0.211-0.274-0.515-0.457-0.539
			c-0.411-0.053-0.844,0.037-1.268,0.075c-0.012,0-0.028,0.062-0.028,0.095c-0.002,0.6-0.011,1.197,0.009,1.793
			c0.001,0.066,0.158,0.161,0.252,0.172c0.059,0.009,0.179-0.104,0.192-0.176c0.037-0.205,0.033-0.413,0.046-0.638
			c0.404-0.058,0.645,0.053,0.703,0.459c0.053,0.365,0.262,0.464,0.642,0.297c-0.111-0.329-0.221-0.654-0.331-0.984
			C136.312,90.285,136.513,90.063,136.474,89.896z M135.399,90.391c-0.084-0.081-0.166-0.16-0.25-0.239
			c0.122-0.167,0.22-0.369,0.379-0.481c0.048-0.033,0.271,0.183,0.414,0.283C135.761,90.099,135.58,90.243,135.399,90.391z"/>
	</g>
</g>
<polygon fill="#4D4D4D" points="-74.77,29.76 -142.037,-37.667 -142.037,97.027 "/>
</svg>
