<?xml version="1.0" encoding="utf-8"?>
<!-- Generator: Adobe Illustrator 16.0.0, SVG Export Plug-In . SVG Version: 6.00 Build 0)  -->
<!DOCTYPE svg PUBLIC "-//W3C//DTD SVG 1.1//EN" "http://www.w3.org/Graphics/SVG/1.1/DTD/svg11.dtd">
<svg version="1.1" id="Layer_1" xmlns="http://www.w3.org/2000/svg" xmlns:xlink="http://www.w3.org/1999/xlink" x="0px" y="0px"
	 width="146.628px" height="146.277px" viewBox="0 0 146.628 146.277" enable-background="new 0 0 146.628 146.277"
	 xml:space="preserve">
<g>
	<path fill-rule="evenodd" clip-rule="evenodd" fill="#666666" d="M119.384,66.793c0.16,0.159,0.318,0.38,0.357,0.594
		c0.274,1.497,0.52,3,0.77,4.5c1.18,7.073,2.354,14.146,3.545,21.215c0.105,0.625,0.232,1.27,0.49,1.842
		c0.426,0.949,1.415,1.181,2.297,0.621c0.178-0.114,0.346-0.254,0.492-0.406c1.012-1.061,2.021-2.124,3.022-3.195
		c0.458-0.49,1.017-0.715,1.677-0.697c0.342,0.009,0.682,0.045,1.023,0.051c0.949,0.016,1.904,0.078,2.85,0.012
		c0.701-0.049,1.044-0.497,0.982-1.203c-0.051-0.588-0.18-1.183-0.367-1.742c-1.168-3.479-2.361-6.95-3.544-10.424
		c-0.044-0.129-0.075-0.262-0.151-0.523c3.192,2.135,6.314,4.14,9.652,5.986c-0.363-1.027-0.627-1.976-1.026-2.863
		c-2.778-6.16-5.54-12.329-8.394-18.453c-3.001-6.438-6.204-12.775-9.795-18.908c-1.242-2.123-2.604-4.178-3.899-6.271
		c-0.07-0.113-0.104-0.34-0.04-0.434c0.318-0.454,0.658-0.895,1.027-1.309c0.111-0.127,0.337-0.221,0.509-0.217
		c3.552,0.058,7.03,0.576,10.391,1.76c1.341,0.471,2.661,0.998,4.044,1.52c0.289-2.029,0.578-4.061,0.87-6.116
		c-0.673-0.141-1.285-0.255-1.892-0.399c-1.234-0.292-2.459-0.624-3.504-1.392c-0.22-0.161-0.404-0.368-0.676-0.62
		c3.988-1.174,7.941-1.82,11.988-1.945c0-2.543,0-5.026,0-7.557c-0.133,0.068-0.23,0.115-0.325,0.168
		c-1.747,0.988-3.592,1.73-5.573,2.069c-0.559,0.095-1.168,0.07-1.723-0.049c-0.595-0.128-0.736-0.627-0.375-1.122
		c0.24-0.329,0.527-0.653,0.861-0.877c1.016-0.68,2.063-1.311,3.1-1.959c0.127-0.08,0.258-0.153,0.434-0.257
		c-1.928-1.557-3.807-3.075-5.719-4.62c-0.121,0.172-0.219,0.308-0.315,0.444c-1.077,1.539-2.135,3.093-3.239,4.612
		c-0.898,1.238-1.931,2.361-3.262,3.158c-0.311,0.186-0.67,0.33-1.024,0.39c-0.579,0.099-0.97-0.183-1.001-0.771
		c-0.029-0.572,0-1.172,0.142-1.724c0.472-1.85,1.367-3.521,2.312-5.165c0.379-0.662,0.805-1.298,1.232-1.984
		c-2.572-0.217-5.109-0.43-7.666-0.645c-0.074,1.963-0.565,3.734-1.283,5.454c-1.614,3.87-3.987,7.11-7.652,9.296
		c-0.319,0.19-0.484,0.155-0.75-0.089c-2.414-2.213-4.795-4.466-7.283-6.591c-2.59-2.209-5.25-4.332-7.316-7.076
		c-0.043-0.057-0.096-0.105-0.143-0.158c-2.339-2.59-5.209-3.889-8.734-3.612c-3.418,0.267-5.93,1.856-7.295,5.058
		c-0.371,0.873-0.551,1.825-0.899,2.71c-0.241,0.611-0.548,1.224-0.95,1.739c-0.865,1.109-1.813,2.157-2.726,3.231
		c-0.198,0.233-0.393,0.471-0.658,0.79c1.513-0.11,2.917-0.212,4.431-0.322c-0.762,1.263-1.468,2.436-2.191,3.638
		c1.06-0.153,2.066-0.323,3.08-0.441c1.713-0.2,3.426-0.314,5.148-0.05c1.518,0.233,2.613,0.944,3.029,2.481
		c0.245,0.903,0.505,1.813,0.639,2.736c0.469,3.224,1.342,6.313,2.895,9.192c0.036,0.067,0.049,0.148,0.084,0.26
		c-0.168-0.015-0.293-0.023-0.416-0.037c-2.461-0.273-4.914-0.666-7.381-0.797c-3.951-0.211-7.91-0.302-11.867-0.344
		c-3.53-0.037-7.062,0.062-10.593,0.098c-0.143,0.002-0.285-0.014-0.535-0.028c2.726-2.724,5.962-4.297,9.565-5.391
		c-1.109-0.615-2.118-1.175-3.205-1.777c1.219-0.688,2.343-1.321,3.52-1.985c-0.172-0.077-0.282-0.135-0.397-0.176
		c-1.203-0.439-2.402-0.887-3.61-1.31c-0.49-0.171-0.912-0.419-1.321-0.744c-0.53-0.421-1.13-0.761-1.721-1.097
		c-0.303-0.173-0.653-0.263-1.02-0.404c0.074-0.204,0.136-0.391,0.209-0.57c0.74-1.83,1.973-3.283,3.484-4.516
		c2.075-1.69,4.445-2.856,6.905-3.861c0.436-0.178,0.874-0.35,1.387-0.555c-1.197-0.49-2.31-0.945-3.525-1.443
		c1.221-0.689,2.346-1.325,3.551-2.007c-1.747-0.561-3.387-1.074-5.017-1.62c-0.294-0.099-0.602-0.277-0.804-0.507
		c-1.594-1.802-3.604-2.335-5.912-2.001c-2.229,0.322-3.855,1.594-5.178,3.324c-1.354,1.773-2.367,3.752-3.363,5.736
		c-0.703,1.398-1.71,2.496-3.016,3.355c-5.005,3.291-9.565,7.12-13.726,11.426c-0.289,0.299-0.478,0.304-0.759,0.035
		c-1.571-1.507-3.22-2.939-4.703-4.527c-1.238-1.325-2.292-2.824-3.414-4.258c-0.212-0.271-0.356-0.595-0.595-0.999
		c-0.316,0.668-0.577,1.249-0.866,1.815c-0.15,0.293-0.072,0.475,0.148,0.699c1.917,1.949,3.829,3.902,5.724,5.874
		c0.955,0.994,1.868,2.028,2.895,3.147c-0.342,0.242-0.588,0.553-0.875,0.597c-3.407,0.52-6.823,0.949-10.284,0.788
		c-0.099-0.004-0.255,0.028-0.292,0.095c-0.334,0.601-0.647,1.214-1.007,1.899c3.486-0.354,6.87-0.696,10.254-1.039
		c-0.001,0.192-0.031,0.253-0.072,0.305c-0.669,0.832-1.329,1.673-2.02,2.486c-0.128,0.15-0.374,0.241-0.58,0.277
		c-2.309,0.413-4.63,0.758-6.927,1.228c-1.563,0.319-3.065,0.869-4.414,1.767c-1.163,0.773-1.729,1.808-1.477,3.234
		c0.23,1.299-0.092,2.358-1.335,3.035c-0.509,0.276-0.531,0.566-0.214,1.059c0.377,0.586,0.741,1.182,1.128,1.762
		c0.329,0.491,0.293,0.971-0.029,1.432c-0.26,0.372-0.542,0.731-0.842,1.072c-0.231,0.264-0.25,0.506-0.098,0.814
		c0.633,1.291,1.219,2.604,1.881,3.879c0.478,0.916,0.733,1.86,0.788,2.89c0.051,0.976,0.277,1.926,0.895,2.718
		c1.558,2,3.125,3.992,4.977,5.738c0.048,0.045,0.076,0.109,0.12,0.174c-0.068,0.042-0.113,0.079-0.164,0.1
		c-3.642,1.426-7.254,2.933-11.156,3.56c-1.278,0.205-2.235,0.856-2.644,2.257c-0.52,1.78-0.636,3.576-0.622,5.402
		c0.02,2.574,0.597,5.027,1.681,7.349c0.691,1.482,1.609,2.817,2.992,3.771c0.51,0.352,1.015,0.682,1.682,0.414
		c0.152-0.061,0.338-0.036,0.508-0.053c2.625-0.25,4.818,0.618,6.559,2.587c0.391,0.441,0.835,0.659,1.398,0.705
		c1.233,0.1,2.449-0.04,3.638-0.354c1.854-0.489,3.718-0.947,5.274-2.188c2.904-2.318,5.808-4.638,8.77-6.879
		c1.665-1.26,3.447-2.363,5.176-3.539c0.259-0.175,0.492-0.172,0.786-0.028c1.629,0.798,3.315,1.444,5.114,1.735
		c1.15,0.186,2.311,0.374,3.477,0.125c2.28-0.486,4.55-1.029,6.839-1.464c1.268-0.241,2.568-0.438,3.854-0.435
		c4.342,0.008,8.684,0.14,13.025,0.172c1.963,0.015,3.898-0.146,5.795-0.817c2.842-1.005,5.743-1.847,8.363-3.398
		c2.672-1.583,5.26-3.295,7.723-5.187c0.9-0.69,1.715-1.494,2.553-2.263c0.33-0.302,0.443-0.691,0.424-1.156
		c-0.059-1.308-0.087-2.618-0.09-3.927c-0.002-0.238,0.115-0.524,0.271-0.707c0.492-0.571,1.006-1.129,1.559-1.642
		c0.404-0.375,0.506-0.72,0.385-1.29c-0.41-1.946-0.385-3.932-0.336-5.912c0.002-0.077,0.041-0.153,0.076-0.277
		c0.576,0.244,1.115,0.499,1.672,0.702c1.09,0.396,1.945,1.061,2.758,1.908C114.888,62.43,117.162,64.586,119.384,66.793z
		 M127.25,92.826c-0.693,0.547-1.38,0.231-1.543-0.646c-0.384-2.068-0.741-4.143-1.102-6.217c-0.876-5.03-1.747-10.062-2.62-15.094
		c-0.108-0.627-0.213-1.255-0.319-1.882c0.032-0.02,0.065-0.041,0.098-0.061c0.31,0.263,0.614,0.536,0.932,0.792
		c0.731,0.591,1.456,1.188,2.208,1.752c0.283,0.213,0.426,0.454,0.498,0.795c1.184,5.521,2.305,11.057,3.611,16.548
		C129.423,90.533,128.364,91.948,127.25,92.826z M134.862,88.102c0.068,0.213,0.098,0.445,0.104,0.67
		c0.013,0.513-0.211,0.857-0.723,0.885c-0.715,0.036-1.448,0.016-2.15-0.109c-0.66-0.118-1.003-0.674-1.172-1.294
		c-0.297-1.097-0.571-2.2-0.846-3.304c-0.905-3.641-1.807-7.283-2.708-10.926c-0.04-0.16-0.071-0.323-0.12-0.547
		c0.129,0.059,0.195,0.078,0.248,0.116c1.107,0.801,2.215,1.6,3.313,2.413c0.125,0.092,0.221,0.26,0.27,0.412
		C132.346,80.311,133.607,84.205,134.862,88.102z M133.749,33.405c0.414,0.086,0.502,0.24,0.43,0.621
		c-0.115,0.607-0.191,1.222-0.293,1.884c-3.604-1.644-7.34-2.495-11.234-2.683c-0.01-0.043-0.018-0.087-0.025-0.131
		c0.59-0.355,1.158-0.758,1.777-1.059c1.059-0.516,2.145-0.975,3.229-1.435c0.13-0.056,0.38-0.027,0.478,0.065
		C129.7,32.183,131.647,32.961,133.749,33.405z M112.633,27.921c4.528-3.179,7.358-7.519,8.758-12.831
		c0.098-0.371,0.131-0.758,0.227-1.129c0.024-0.094,0.181-0.228,0.265-0.219c0.816,0.084,1.631,0.193,2.514,0.305
		c-0.097,0.204-0.166,0.354-0.236,0.502c-0.961,1.993-1.777,4.037-2.125,6.236c-0.066,0.417-0.061,0.85-0.047,1.274
		c0.051,1.54,1.873,2.515,3.236,2.079c1.104-0.354,1.988-1.033,2.825-1.789c1.394-1.26,2.466-2.791,3.579-4.287
		c0.432-0.58,0.863-1.162,1.336-1.799c0.815,0.698,1.579,1.352,2.393,2.048c-0.162,0.114-0.281,0.202-0.404,0.285
		c-0.889,0.602-1.724,1.263-2.33,2.166c-0.597,0.889-0.66,1.774-0.174,2.474c0.441,0.634,1.109,0.797,1.824,0.857
		c1.423,0.122,2.762-0.291,4.107-0.644c0.643-0.169,1.275-0.376,1.959-0.58c0.022,0.175,0.051,0.296,0.052,0.416
		c0.005,0.755-0.012,1.51,0.009,2.264c0.01,0.336-0.123,0.433-0.44,0.463c-3.953,0.37-7.815,1.181-11.575,2.456
		c-2.746,0.932-5.4,2.075-7.714,3.858c-0.962,0.742-1.816,1.626-2.706,2.433c-1.865-2.117-3.795-4.307-5.76-6.535
		C112.319,28.143,112.476,28.032,112.633,27.921z M106.667,57.844c-0.281,2.656-1.125,5.131-2.481,7.429
		c-0.085,0.145-0.286,0.276-0.454,0.31c-2.345,0.453-4.613,1.127-6.719,2.283c-0.674,0.369-1.307,0.795-1.854,1.406
		c0.492,0.176,0.891,0.264,1.371,0.007c1.908-1.02,3.939-1.453,6.103-1.102c0.112,0.018,0.222,0.049,0.33,0.084
		c0.841,0.266,0.977,0.555,0.708,1.394c-0.271,0.854-0.709,1.575-1.338,2.236c-3.98,4.184-8.754,7.05-14.263,8.718
		c-1.306,0.396-2.618,0.771-3.933,1.135c-0.226,0.063-0.48,0.032-0.721,0.027c-3.786-0.069-7.572-0.219-11.358-0.192
		c-3.986,0.028-7.962,0.347-11.91,0.925c-0.501,0.073-1.028,0.179-1.472,0.407c-1.329,0.687-2.689,0.604-4.079,0.309
		c-1.734-0.369-3.386-0.982-4.992-1.722c-0.325-0.149-0.615-0.161-0.939-0.026c-0.779,0.326-1.511,0.717-2.13,1.313
		c-0.718,0.689-1.461,1.354-2.21,2.011c-0.276,0.242-0.593,0.444-0.909,0.634c-0.62,0.373-1.27,0.584-1.994,0.201
		c-0.871,1.34-2.208,2.129-3.423,3.063c-0.896,0.689-1.758,1.424-2.639,2.143c0.046-0.25,0.096-0.557,0.159-0.859
		c0.512-2.436,1.021-4.871,1.541-7.305c0.118-0.553,0.02-1.015-0.339-1.465c-0.717-0.9-1.621-1.553-2.616-2.093
		c-1.448-0.784-2.991-1.302-4.592-1.687c-1.534-0.369-3.046-0.832-4.574-1.227c-0.27-0.069-0.592-0.059-0.861,0.016
		c-0.848,0.232-1.683,0.514-2.644,0.814c1.266,0.225,2.411,0.43,3.557,0.633c0.015,0.036,0.028,0.072,0.043,0.108
		c-1.437,0.972-2.872,1.942-4.308,2.913c0.009,0.019,0.017,0.037,0.025,0.056c1.094-0.322,2.187-0.65,3.282-0.966
		c0.998-0.287,1.995-0.574,3.001-0.83c0.266-0.066,0.578-0.076,0.842-0.006c1.374,0.365,2.75,0.728,4.104,1.162
		c1.283,0.412,2.294,1.921,2.437,3.26c0.302,2.83-0.545,5.361-1.69,7.897c-0.898,1.99-2.43,2.851-4.405,3.163
		c-0.875,0.139-1.779,0.125-2.669,0.111c-0.468-0.006-0.824-0.313-1.136-0.68c-1.852-2.176-4.245-3.017-7.045-2.756
		c-0.452,0.042-0.789-0.024-1.122-0.322c-1.354-1.21-2.174-2.753-2.828-4.413c-0.908-2.305-0.804-4.622-0.135-6.951
		c0.255-0.888,0.528-1.771,0.82-2.647c0.048-0.143,0.221-0.318,0.36-0.344c2.517-0.459,4.931-1.267,7.316-2.156
		c1.745-0.652,3.444-1.428,5.197-2.055c0.861-0.308,1.798-0.406,2.701-0.599c2.703-0.575,5.118,0.204,7.409,1.574
		c1.92,1.146,3.603,2.591,5.198,4.143c0.102,0.098,0.204,0.193,0.301,0.285c0.045-0.021,0.077-0.027,0.093-0.046
		c1.883-2.185,4.855-2.247,6.854-0.148c0.964,1.011,1.573,2.221,2.015,3.529c0.05,0.146,0.097,0.294,0.165,0.506
		c0.486-0.348,0.946-0.666,1.391-1.007c0.062-0.048,0.078-0.206,0.058-0.3c-0.853-4.011-3.881-6.797-8.029-6.202
		c-1.909,0.273-3.554-0.116-5.084-1.288c-1.863-1.427-3.907-2.547-6.156-3.264c-1.295-0.412-2.591-0.49-3.903-0.076
		c-0.81,0.255-1.635,0.359-2.483,0.193c-0.665-0.129-1.229-0.424-1.699-0.912c-0.878-0.911-1.734-1.845-2.653-2.712
		c-0.991-0.935-1.279-2.17-1.652-3.38c0.063-0.056,0.124-0.111,0.187-0.168c0.069,0.14,0.116,0.295,0.21,0.415
		c0.955,1.22,2.293,1.941,3.589,2.708c0.563,0.332,1.182,0.568,1.745,0.898c1.232,0.721,2.58,0.955,3.974,0.979
		c1.466,0.025,2.936-0.058,4.396,0.028c0.821,0.049,1.635,0.319,2.439,0.536c0.575,0.154,1.004,0.553,1.274,1.074
		c0.452,0.874,1.193,1.229,2.125,1.363c2.731,0.393,5.479,0.503,8.226,0.368c2.526-0.124,5.048-0.394,7.567-0.646
		c0.981-0.099,1.951-0.327,3.018-0.513c-0.445-0.518-0.806-0.972-1.21-1.384c-0.096-0.098-0.34-0.094-0.507-0.071
		c-3.273,0.438-6.55,0.853-9.855,0.924c-1.812,0.039-3.617-0.072-5.376-0.552c-0.502-0.137-1.001-0.338-1.452-0.596
		c-0.718-0.41-0.862-0.928-0.578-1.709c0.416-1.141,1.62-1.947,2.979-2.002c1.463-0.058,2.848,0.334,4.224,0.75
		c0.748,0.227,1.49,0.479,2.219,0.762c0.739,0.287,1.436,0.296,2.125-0.129c0.263-0.162,0.547-0.289,0.875-0.46
		c-0.167-0.085-0.273-0.151-0.389-0.197c-2.852-1.159-5.765-2.13-8.801-2.673c-0.607-0.109-1.246-0.075-1.868-0.061
		c-0.538,0.014-1.011,0.257-1.327,0.686c-0.909,1.233-2.229,1.723-3.636,2.047c-2.083,0.479-4.177,0.312-6.287,0.153
		c-2.681-0.202-4.796-1.579-6.901-3.025c-1.676-1.151-3.222-2.446-4.352-4.169c-0.218-0.332-0.432-0.672-0.6-1.03
		c-0.311-0.66-0.222-1.318,0.076-1.951c0.66,0.596,1.29,1.212,1.969,1.767c1.831,1.497,3.941,2.436,6.242,2.923
		c1.023,0.217,2.072,0.386,3.115,0.423c1.129,0.039,2.052-0.563,2.923-1.276c-0.355-0.388-0.669-0.757-1.016-1.093
		c-0.103-0.098-0.301-0.152-0.448-0.141c-3.551,0.27-6.719-0.773-9.585-2.813c-1.191-0.847-2.151-1.908-2.659-3.313
		c-0.064-0.181-0.063-0.407-0.024-0.598c0.095-0.468,0.229-0.927,0.357-1.427c0.092,0.057,0.156,0.083,0.203,0.128
		c1.08,1.025,2.39,1.686,3.7,2.346c0.826,0.417,1.645,0.848,2.477,1.25c0.146,0.071,0.366,0.095,0.514,0.038
		c0.861-0.331,1.761-0.608,2.557-1.062c2.544-1.447,5.169-1.483,7.822-0.482c1.873,0.706,3.702,1.538,5.516,2.389
		c0.598,0.28,1.087,0.361,1.668,0.049c0.385-0.207,0.81-0.339,1.264-0.523c-0.09-0.079-0.142-0.14-0.207-0.181
		c-3.392-2.147-6.989-3.812-10.939-4.643c-1.386-0.292-2.741-0.211-4.062,0.336c-0.709,0.294-1.427,0.568-2.145,0.841
		c-0.676,0.256-1.359,0.269-2.052,0.057c-1.64-0.503-3.139-1.271-4.442-2.389c-0.352-0.301-0.665-0.668-0.922-1.055
		c-0.525-0.789-0.411-1.501,0.37-2.041c0.483-0.334,1.039-0.595,1.598-0.786c1.691-0.579,3.456-0.82,5.223-1.032
		c0.28-0.033,0.562-0.059,0.919-0.095c-0.865,1.366-1.688,2.669-2.545,4.021c0.446,0.262,0.856,0.504,1.306,0.768
		c0.168-0.24,0.321-0.459,0.474-0.677c5.224-7.478,11.226-14.24,18.406-19.902c1.741-1.373,3.573-2.634,5.393-3.906
		c1.425-0.997,2.501-2.254,3.247-3.825c0.823-1.736,1.7-3.447,2.848-5.001c0.655-0.888,1.393-1.694,2.332-2.292
		c2.016-1.283,4.394-1.14,6.155,0.467c0.605,0.552,1.248,0.902,2.021,1.09c0.421,0.103,0.831,0.254,1.36,0.419
		c-0.931,0.623-1.764,1.181-2.665,1.785c0.881,0.374,1.705,0.724,2.613,1.108c-0.181,0.087-0.271,0.139-0.368,0.176
		c-4.475,1.691-7.736,4.692-9.77,9.029c-0.075,0.159-0.276,0.354-0.432,0.366c-1.856,0.144-3.309,1.034-4.412,2.466
		c-0.665,0.861-1.266,1.797-1.75,2.771c-0.69,1.388-1.701,2.407-2.966,3.274c-5.503,3.779-10.977,7.6-16.46,11.405
		c-0.044,0.03-0.079,0.073-0.173,0.161c0.674,0.105,1.286,0.211,1.902,0.287c0.105,0.014,0.236-0.083,0.34-0.152
		c4.837-3.24,9.681-6.469,14.497-9.739c0.949-0.644,1.814-1.421,2.673-2.188c0.769-0.688,1.331-1.539,1.807-2.465
		c0.427-0.83,0.899-1.659,1.483-2.382c1.542-1.905,3.828-2.353,6.03-1.265c0.268,0.132,0.558,0.254,0.771,0.452
		c0.837,0.774,1.887,1.072,2.936,1.382c0.136,0.04,0.269,0.093,0.401,0.144c0.022,0.009,0.038,0.039,0.099,0.105
		c-0.845,0.531-1.681,1.057-2.59,1.628c0.735,0.444,1.43,0.864,2.187,1.321c-0.168,0.079-0.26,0.135-0.359,0.167
		c-4.721,1.522-7.994,4.666-10.15,9.062c-0.999,2.037-1.73,4.17-2.324,6.412c0.479,0.101,0.931,0.219,1.388,0.272
		c0.099,0.012,0.279-0.188,0.329-0.325c0.544-1.512,1.029-3.045,1.614-4.541c0.376-0.964,0.893-1.873,1.342-2.809
		c0.11-0.23,0.267-0.325,0.534-0.326c5.396-0.014,10.793-0.086,16.189-0.038c3.072,0.026,6.145,0.201,9.213,0.395
		c2.655,0.167,5.3,0.475,7.897,1.095c0.343,0.082,0.569,0.239,0.761,0.541c1.641,2.589,3.465,5.044,5.439,7.387
		c0.187,0.223,0.202,0.383,0.084,0.639c-0.5,1.085-0.977,2.182-1.463,3.273c-0.057,0.126-0.121,0.248-0.209,0.429
		c-0.123-0.147-0.217-0.245-0.297-0.354c-1.681-2.314-3.361-4.63-5.04-6.946c-0.774-1.069-1.657-1.999-3.009-2.314
		c-1.459-0.342-2.657,0.169-3.42,1.458c-0.662,1.119-0.848,2.355-0.944,3.713c0.552-0.26,1.03-0.469,1.49-0.713
		c0.1-0.053,0.129-0.236,0.194-0.355c0.298-0.543,0.547-1.121,0.912-1.612c0.265-0.356,0.715-0.545,1.188-0.367
		c0.527,0.199,0.853,0.612,0.988,1.151c0.033,0.133-0.051,0.299-0.092,0.445c-0.237,0.848-0.478,1.694-0.717,2.541
		c-0.08,0.282,0.004,0.45,0.304,0.534c0.354,0.1,0.696,0.241,1.096,0.384c0.142-1.052,0.296-2.075,0.972-3.025
		c0.204,0.238,0.406,0.415,0.534,0.635c1.302,2.238,2.572,4.494,3.894,6.72c0.719,1.21,1.49,2.392,2.292,3.547
		c0.905,1.304,2.587,1.526,3.788,0.466c0.913-0.808,1.738-1.72,2.57-2.615c0.503-0.541,0.954-1.132,1.411-1.714
		c0.165-0.21,0.302-0.265,0.566-0.15C106.76,56.772,106.781,56.762,106.667,57.844z M105.376,47.971
		c-2.855-4.191-5.516-8.499-7.729-13.07c-0.391-0.806-0.705-1.648-1.098-2.453c-0.195-0.402-0.434-0.813-0.75-1.117
		c-0.518-0.499-1.115-0.268-1.26,0.437c-0.135,0.659,0.063,1.27,0.314,1.864c1,2.379,2.212,4.65,3.516,6.873
		c3.053,5.203,6.516,10.123,10.258,14.851c0.086,0.109,0.168,0.223,0.197,0.429c-1.293-0.58-2.586-1.16-3.896-1.748
		c-0.166,0.223-0.311,0.414-0.451,0.608c-1.109,1.538-2.492,2.806-3.963,3.986c-0.521,0.419-0.891,0.358-1.295-0.188
		c-0.127-0.172-0.241-0.352-0.357-0.531c-0.508-0.785-0.668-1.516-0.139-2.436c0.849-1.478,1.523-3.054,2.287-4.58
		c0.129-0.258,0.1-0.398-0.093-0.621c-3.302-3.825-6.337-7.836-8.493-12.442c-1.125-2.403-1.73-4.96-2.184-7.562
		c-0.152-0.881-0.36-1.757-0.609-2.615c-0.711-2.447-2.383-3.754-4.896-4.039c-1.554-0.176-3.097-0.108-4.637,0.139
		c-0.123,0.02-0.248,0.031-0.514,0.064c0.828-1.133,1.59-2.174,2.422-3.313c-1.444,0.145-2.766,0.277-4.23,0.425
		c0.355-0.417,0.608-0.751,0.898-1.049c0.963-0.985,1.604-2.125,2.012-3.459c0.654-2.136,1.913-3.884,4.029-4.774
		c2.739-1.152,5.354-0.818,7.709,1.037c0.645,0.509,1.252,1.089,1.775,1.721c1.891,2.283,4.105,4.215,6.363,6.115
		c5.146,4.334,10.049,8.925,14.526,13.957c1.854,2.082,3.384,4.396,4.839,6.764c3.178,5.17,5.947,10.563,8.62,16.004
		c1.462,2.976,2.88,5.973,4.316,8.959c0.073,0.151,0.142,0.305,0.212,0.457c-0.033,0.034-0.065,0.068-0.098,0.104
		c-0.613-0.35-1.241-0.676-1.837-1.053c-3.511-2.223-6.574-4.986-9.466-7.945c-3.032-3.102-5.84-6.393-8.088-10.119
		c-0.379-0.627-0.753-1.059-1.531-0.999c-0.234,0.019-0.474-0.042-0.838-0.079c0.494,0.851,0.916,1.619,1.379,2.361
		c3.02,4.842,6.737,9.099,10.912,12.969c3.341,3.097,6.939,5.854,10.887,8.142c0.15,0.088,0.305,0.227,0.379,0.379
		c1.39,2.869,2.768,5.742,4.147,8.615c0.022,0.047,0.03,0.102,0.071,0.246c-0.213-0.104-0.361-0.166-0.502-0.244
		c-3.489-1.952-6.705-4.304-9.824-6.791c-5.52-4.399-10.74-9.126-15.543-14.303C110.252,54.847,107.751,51.458,105.376,47.971z"/>
	<path fill-rule="evenodd" clip-rule="evenodd" fill="#666666" d="M86.032,113.234c0.785-0.037,1.368-0.615,1.385-1.397
		c0.016-0.726,0.02-1.452-0.002-2.179c-0.021-0.741-0.59-1.311-1.328-1.367c-0.156-0.012-0.313-0.008-0.469-0.008
		c-16.959,0-33.917,0-50.875,0c-0.185,0-0.37,0-0.555,0.012c-0.903,0.063-1.652,0.684-1.853,1.568
		c-0.062,0.274-0.071,0.564-0.069,0.848c0.03,6.479,0.065,12.956,0.099,19.435c0.001,0.155-0.014,0.311-0.021,0.466
		c-0.152-0.09-0.215-0.182-0.269-0.279c-1.461-2.655-2.92-5.312-4.381-7.967c-2.304-4.189-4.612-8.377-6.912-12.568
		c-0.659-1.2-1.655-1.951-3.015-2.026c-1.604-0.089-3.215-0.051-4.822-0.037c-0.512,0.005-0.963,0.234-1.326,0.609
		c-0.465,0.479-0.618,1.062-0.618,1.716c0.005,9.754,0.003,19.508,0.003,29.261c0,0.114-0.003,0.228,0.004,0.341
		c0.068,1.14,0.871,1.958,2.001,1.989c0.954,0.026,1.908,0.022,2.862,0.001c0.943-0.021,1.706-0.616,1.914-1.482
		c0.071-0.3,0.089-0.619,0.088-0.93c-0.03-6.635-0.066-13.27-0.102-19.904c0-0.152,0-0.304,0-0.455
		c0.171,0.094,0.234,0.187,0.289,0.285c1.352,2.439,2.693,4.885,4.054,7.319c2.5,4.472,5.009,8.938,7.517,13.404
		c0.553,0.983,1.396,1.628,2.516,1.691c1.604,0.091,3.215,0.092,4.82,0.046c0.877-0.026,1.554-0.67,1.736-1.472
		c0.072-0.315,0.087-0.649,0.087-0.974c0.004-8.444,0.004-16.888,0.004-25.331c0-0.182,0-0.362,0-0.61c0.273,0,0.497,0,0.721,0
		c15.32,0,30.641,0,45.962,0C85.663,113.238,85.848,113.242,86.032,113.234z"/>
	<path fill-rule="evenodd" clip-rule="evenodd" fill="#666666" d="M131.509,117.402c-2.385-1.035-4.885-1.275-7.445-0.916
		c-3.315,0.465-5.998,2.028-7.902,4.789c-2.389,3.465-2.941,7.31-1.938,11.34c1.486,5.977,6.035,9.46,12.15,9.523
		c1.027,0.011,2.07-0.194,3.082-0.412c2.416-0.52,4.576-1.551,6.268-3.415c0.855-0.944,1.444-2.036,1.756-3.278
		c0.184-0.733-0.271-1.619-1.227-1.584c-1.182,0.044-2.363,0.017-3.546,0.01c-0.664-0.004-1.188,0.249-1.563,0.798
		c-0.941,1.375-2.26,2.114-3.893,2.362c-2.594,0.396-4.887-0.635-6.125-2.785c-0.466-0.811-0.763-1.675-0.811-2.695
		c0.246,0,0.428,0,0.609,0c4.842,0,9.684,0,14.524,0c0.284,0,0.569,0.002,0.854-0.001c1.418-0.016,2.109-0.685,2.107-2.103
		c-0.002-1.531-0.201-3.039-0.676-4.5C136.675,121.273,134.704,118.789,131.509,117.402z M120.412,126.379
		c0.157-1.643,0.894-2.926,2.192-3.844c1.979-1.396,4.105-1.516,6.25-0.431c1.711,0.866,2.701,2.286,2.92,4.274
		C127.958,126.379,124.223,126.379,120.412,126.379z"/>
	<path fill-rule="evenodd" clip-rule="evenodd" fill="#666666" d="M58.968,117.463c-2.158-0.982-4.444-1.264-6.796-1.065
		c-3.677,0.312-6.659,1.896-8.747,4.959c-2.282,3.348-2.822,7.061-1.952,10.978c0.758,3.412,2.527,6.181,5.554,8.016
		c2.366,1.436,4.954,1.98,7.729,1.693c2.096-0.217,4.087-0.731,5.906-1.809c2.049-1.214,3.557-2.87,4.142-5.244
		c0.203-0.827-0.333-1.521-1.183-1.527c-1.181-0.01-2.362,0.006-3.544-0.006c-0.715-0.008-1.263,0.261-1.658,0.861
		c-1.988,3.015-7.064,3.209-9.38,0.355c-0.821-1.013-1.301-2.152-1.421-3.535c0.25,0,0.432,0,0.613,0c4.997,0,9.993,0,14.99,0
		c0.17,0,0.341,0.003,0.512-0.002c1.313-0.04,1.978-0.724,1.994-2.039c0.019-1.376-0.154-2.729-0.525-4.049
		C64.234,121.611,62.276,118.968,58.968,117.463z M47.804,126.378c-0.32-2.147,2.397-4.788,5.07-4.954
		c4.006-0.249,6.221,2.845,6.284,4.954C55.353,126.378,51.576,126.378,47.804,126.378z"/>
	<path fill-rule="evenodd" clip-rule="evenodd" fill="#666666" d="M83.519,127.544c-2.179-0.65-4.402-1.147-6.593-1.763
		c-0.841-0.237-1.667-0.566-2.449-0.956c-0.603-0.301-0.782-0.89-0.663-1.572c0.18-1.015,0.842-1.565,1.766-1.814
		c1.537-0.415,3.074-0.373,4.576,0.174c0.871,0.316,1.614,0.84,1.998,1.7c0.29,0.653,0.752,0.881,1.406,0.881
		c1.082-0.002,2.164,0.012,3.246-0.002c0.754-0.009,1.197-0.511,1.166-1.271c-0.039-0.985-0.391-1.859-0.957-2.651
		c-0.949-1.324-2.244-2.211-3.727-2.832c-2.858-1.195-5.82-1.363-8.84-0.803c-2.089,0.389-3.973,1.196-5.456,2.783
		c-2.186,2.337-2.617,6.804,0.526,9.336c1.333,1.073,2.856,1.734,4.508,2.146c2.111,0.526,4.219,1.067,6.317,1.638
		c0.415,0.112,0.816,0.34,1.173,0.588c0.51,0.354,0.682,0.885,0.596,1.502c-0.15,1.07-0.842,1.66-1.805,1.942
		c-1.68,0.491-3.371,0.508-5.037-0.081c-1.115-0.395-2.01-1.047-2.453-2.209c-0.198-0.521-0.641-0.762-1.175-0.783
		c-0.639-0.027-1.28-0.007-1.921-0.007c0-0.009,0-0.019,0-0.026c-0.598,0-1.196-0.016-1.794,0.003
		c-0.715,0.022-1.205,0.55-1.231,1.265c-0.045,1.189,0.32,2.242,1.029,3.184c1.125,1.492,2.634,2.471,4.35,3.121
		c2.47,0.937,5.018,1.32,7.662,0.959c1.937-0.265,3.787-0.756,5.482-1.768c4.129-2.463,4.1-7.382,2.254-9.912
		C86.469,128.938,85.116,128.021,83.519,127.544z"/>
	<path fill-rule="evenodd" clip-rule="evenodd" fill="#666666" d="M13.604,38.493c0.39-0.576,0.702-0.681,1.369-0.531
		c3.063,0.688,5.756-1.147,6.212-4.16c0.093-0.618,0.093-0.618,0.727-0.625c1.834-0.021,3.222-0.892,3.825-2.538
		c0.26-0.708,0.37-1.489,0.43-2.245c0.075-0.967,0.024-0.972-0.922-1.063c-0.039-0.004-0.08,0.015-0.171,0.033
		c-0.476,2.841-2.199,4.242-5.05,4.19c-0.038,0.087-0.057,0.111-0.06,0.138c-0.284,2.846-3.249,4.916-6.181,4.506
		c-0.309-0.044-0.476,0.033-0.644,0.312c-1.032,1.716-3.001,2.306-4.639,1.414c-1.313-0.715-2.107-2.152-1.95-3.53
		c0.178-1.564,1.139-2.685,2.685-3.128c0.239-0.069,0.468-0.075,0.485-0.454c0.084-1.825,1.037-3.121,2.578-4.015
		c1.523-0.884,3.201-1.155,4.932-1.135c0.417,0.005,0.679-0.12,0.937-0.433c0.969-1.179,2.185-1.846,3.759-1.719
		c0.094,0.008,0.19-0.018,0.294-0.028c0.027-0.159,0.057-0.297,0.072-0.437c0.016-0.137,0.019-0.274,0.026-0.395
		c-2.191-0.578-3.736-1.776-4.259-4.009c-0.71-0.049-1.41-0.052-2.096-0.151c-2.772-0.403-4.613-2.474-4.671-5.246
		c-0.007-0.318-0.154-0.442-0.389-0.58c-1.433-0.846-1.956-2.308-1.406-3.894c0.514-1.479,2.02-2.445,3.559-2.147
		c0.661,0.128,1.278,0.514,1.892,0.828c0.218,0.111,0.375,0.158,0.624,0.101c0.634-0.149,1.28-0.321,1.925-0.339
		c2.841-0.076,5.3,1.957,5.967,4.894c0.109,0.479,0.157,0.974,0.234,1.461c0.049,0.01,0.09,0.022,0.132,0.026
		c2.448,0.194,3.959,1.165,4.795,3.984c0.229,0.776,0.379,1.576,0.569,2.363c0.438,1.819,1.275,3.423,2.718,4.637
		c1.505,1.268,3.261,1.852,5.235,1.557c2.05-0.306,3.544-1.903,3.969-4.162c0.159-0.85,0.16-0.839,1.021-0.861
		c2.021-0.052,3.694-0.787,4.781-2.561c0.856-1.398,0.887-2.91,0.47-4.455c-0.058-0.215-0.102-0.377,0.119-0.558
		c1.562-1.276,2.06-2.949,1.73-4.891c-0.492-2.911-3.344-4.924-6.235-4.437c-1.833,0.309-3.196,1.284-4.113,2.886
		c-0.14,0.243-0.272,0.303-0.542,0.237c-0.301-0.072-0.619-0.098-0.931-0.104c-3.36-0.058-5.963,3.039-5.36,6.393
		c0.108,0.606,0.31,1.196,0.479,1.84c-1.167,0.164-1.893,0.888-2.383,1.916c-0.042-0.29-0.039-0.544-0.043-0.797
		c-0.035-2.665-1.885-4.545-4.539-4.59c-0.343-0.005-0.434-0.106-0.428-0.44c0.032-1.771-0.513-3.337-1.75-4.624
		c-1.815-1.89-4.651-2.418-7.222-1.301c-0.536,0.232-0.865,0.203-1.345-0.142c-1.762-1.265-3.655-1.528-5.609-0.437
		c-1.876,1.048-2.852,3.044-2.501,5.058c0.279,1.603,1.251,2.712,2.609,3.514c0.269,0.159,0.315,0.322,0.286,0.616
		c-0.05,0.506-0.105,1.031-0.028,1.527c0.47,3.055,3.108,5.006,6.178,4.592c0.272-0.036,0.408,0.005,0.481,0.301
		c0.179,0.723,0.673,1.203,1.309,1.553c0.196,0.107,0.398,0.205,0.602,0.311c-0.032,0.047-0.043,0.078-0.064,0.09
		c-0.036,0.021-0.078,0.037-0.119,0.045c-0.861,0.161-1.46,0.681-1.873,1.421c-0.146,0.261-0.288,0.313-0.576,0.247
		c-1.137-0.258-2.282-0.303-3.425-0.021c-2.332,0.575-4.033,2.692-4.168,5.241c-0.024,0.47-0.16,0.707-0.619,0.898
		c-2.3,0.961-3.536,3.303-3.057,5.729c0.315,1.592,1.284,2.734,2.597,3.609C9.176,41.333,12.035,40.813,13.604,38.493z
		 M33.231,16.555c0.655-0.382,0.804-0.704,0.68-1.462c-0.558-3.4,1.845-6.176,5.296-6.2c0.358-0.003,0.57-0.091,0.736-0.418
		c0.145-0.287,0.358-0.548,0.573-0.793c1.704-1.941,5.087-1.376,6.041,1.035c0.592,1.495,0.272,2.869-0.729,4.11
		c-0.126,0.155-0.231,0.403-0.209,0.592c0.3,2.515-1.903,6.124-5.454,6.184c-0.082,0.001-0.164,0.017-0.289,0.029
		c0.095,1.591-0.478,2.829-1.729,3.735c-2.567,1.857-6.178,0.543-6.887-2.501C30.879,19.229,31.608,17.5,33.231,16.555z"/>
	<path fill-rule="evenodd" clip-rule="evenodd" fill="#666666" d="M102.097,117.242c-1.182-0.008-2.362-0.001-3.544-0.003
		c-0.838-0.001-0.718,0.044-0.719-0.698c-0.005-2.191,0.004-4.384-0.004-6.576c-0.005-1.277-0.752-2.016-2.016-2.018
		c-0.74,0-1.48,0-2.221,0c-1.497,0.002-2.185,0.692-2.185,2.201c-0.002,2.205-0.01,4.412,0.008,6.618
		c0.002,0.382-0.12,0.506-0.488,0.479c-0.34-0.024-0.684-0.013-1.025,0c-0.719,0.027-1.246,0.518-1.275,1.231
		c-0.029,0.696-0.029,1.396-0.002,2.092c0.029,0.723,0.615,1.26,1.346,1.281c0.284,0.008,0.568,0.002,0.854,0.002
		c0.582,0.001,0.583,0.001,0.583,0.579c0.001,3.8-0.014,7.601,0.005,11.401c0.018,3.838,2.363,6.801,6.023,7.621
		c1.558,0.35,3.146,0.209,4.722,0.179c0.712-0.015,1.235-0.669,1.249-1.39c0.012-0.67,0.006-1.338,0.002-2.008
		c-0.006-1.01-0.508-1.5-1.523-1.542c-0.508-0.021-1.031-0.036-1.521-0.162c-1.558-0.402-2.497-1.685-2.522-3.438
		c-0.025-1.75-0.006-3.502-0.006-5.252c-0.002,0-0.003,0-0.004,0c0-1.836,0.009-3.673-0.008-5.509
		c-0.004-0.367,0.087-0.495,0.473-0.488c1.28,0.022,2.562,0.015,3.842,0.006c0.84-0.006,1.357-0.519,1.376-1.357
		c0.013-0.611,0.009-1.224,0.002-1.836C103.507,117.697,103.06,117.248,102.097,117.242z"/>
	<path fill-rule="evenodd" clip-rule="evenodd" fill="#666666" d="M109.663,107.951c-0.882-0.008-1.765-0.006-2.646-0.001
		c-1.271,0.006-2.07,0.811-2.065,2.088c0.034,9.892,0.069,19.783,0.107,29.675c0.005,1.154,0.777,1.933,1.925,1.943
		c0.854,0.008,1.709,0.004,2.563,0.001c1.35-0.005,2.146-0.805,2.146-2.152c0-4.896,0-9.792,0-14.688c0-4.938,0-9.877-0.001-14.816
		C111.69,108.787,110.874,107.961,109.663,107.951z"/>
	<path fill-rule="evenodd" clip-rule="evenodd" fill="#666666" d="M135.505,107.549c-3.225,0.344-6.451,0.662-9.678,0.991
		c-3.127,0.319-6.253,0.639-9.379,0.964c-0.696,0.072-1.066,0.469-1.105,1.178c-0.021,0.383-0.008,0.768-0.006,1.152
		c0.005,0.934,0.363,1.296,1.288,1.296c3.216,0.001,6.433,0.001,9.649,0.001c3.23,0,6.461-0.004,9.691,0.002
		c0.727,0.001,1.379-0.272,1.575-0.945c0.368-1.264,0.415-2.596-0.04-3.846C137.175,107.448,136.333,107.461,135.505,107.549z"/>
	<path fill-rule="evenodd" clip-rule="evenodd" fill="#666666" d="M15.811,10.892c-0.95-0.585-0.637-0.628-1.488,0.245
		c-0.009,0.01-0.01,0.027-0.04,0.121c2.531,2.91,5.479,5.404,8.639,7.707c0.318-0.396,0.583-0.728,0.86-1.072
		C22.477,16.172,18.063,12.28,15.811,10.892z"/>
	<path fill-rule="evenodd" clip-rule="evenodd" fill="#666666" d="M19.168,27.551c-2.842,1.406-5.376,3.237-7.596,5.526
		c0.239,0.314,0.436,0.574,0.65,0.857c0.207-0.112,0.371-0.196,0.529-0.29c2.292-1.343,4.386-2.952,6.35-4.734
		c0.6-0.544,0.595-0.55,0.188-1.243C19.27,27.633,19.23,27.61,19.168,27.551z"/>
	<path fill-rule="evenodd" clip-rule="evenodd" fill="#666666" d="M93.22,64.039c-1.639,0.188-2.969,0.872-4.029,2.145
		c-1,1.203-2.049,2.368-3.087,3.54c-1.305,1.472-2.636,2.91-4.377,3.902c-1.876,1.07-3.868,1.857-5.909,2.541
		c-0.341,0.115-0.541,0.063-0.746-0.232c-1.492-2.135-3-4.258-4.49-6.395c-0.193-0.277-0.421-0.441-0.742-0.388
		c-0.642,0.106-1.321,0.146-1.907,0.396c-2.772,1.183-5.528,2.405-8.27,3.661c-1.139,0.521-2.286,0.806-3.515,0.494
		c-1.114-0.284-2.212-0.633-3.317-0.946c-0.16-0.046-0.35-0.126-0.486-0.079c-0.437,0.148-0.854,0.35-1.33,0.555
		c0.123,0.093,0.183,0.152,0.253,0.189c2.075,1.091,4.244,1.934,6.536,2.438c0.928,0.204,1.803,0.007,2.632-0.453
		c1.194-0.662,2.381-1.344,3.609-1.938c1.07-0.519,2.184-0.953,3.298-1.372c0.509-0.19,1.028-0.104,1.497,0.239
		c1.397,1.021,2.504,2.27,3.166,3.888c0.313,0.766,0.122,1.158-0.684,1.327c-2.024,0.427-4.071,0.677-6.142,0.646
		c-1.112-0.018-2.223-0.12-3.32-0.184c0.389,0.387,0.826,0.791,1.227,1.23c0.252,0.276,0.534,0.395,0.898,0.397
		c2.646,0.024,5.294,0.062,7.941,0.081c0.904,0.008,1.78-0.166,2.628-0.493c3.421-1.324,6.844-2.646,10.271-3.953
		c0.262-0.101,0.586-0.142,0.858-0.092c2.013,0.37,4.019,0.784,6.033,1.15c0.359,0.065,0.784,0.061,1.116-0.071
		c0.961-0.385,1.92-0.795,2.824-1.298c1.361-0.757,2.432-1.858,3.377-3.165c-0.262-0.133-0.477-0.214-0.662-0.341
		c-0.29-0.199-0.493-0.123-0.74,0.099c-0.434,0.389-0.889,0.759-1.367,1.091c-2.076,1.441-4.334,2.12-6.863,1.547
		c-0.965-0.219-1.827-0.665-2.605-1.274c0.367-0.486,0.711-0.938,1.049-1.392c1.005-1.346,2.015-2.686,3.008-4.04
		c0.703-0.958,1.679-1.458,2.815-1.594c1.552-0.186,3.113-0.279,4.671-0.418c0.16-0.015,0.387-0.019,0.463-0.119
		c0.377-0.489,0.713-1.01,1.094-1.563c-0.148-0.02-0.217-0.033-0.285-0.035C97.474,63.696,95.345,63.795,93.22,64.039z"/>
	<path fill-rule="evenodd" clip-rule="evenodd" fill="#666666" d="M58.584,61.344c2.685-0.518,5.339-1.143,7.935-2.009
		c0.535-0.179,1.071-0.354,1.654-0.548c-0.297-0.521-0.563-0.986-0.805-1.409c-2.199,0.505-4.327,1.014-6.466,1.477
		c-1.804,0.391-3.603,0.851-5.484,0.573c-1.179-0.174-2.326-0.429-3.354-1.051c-1.353-0.82-1.332-2.434,0.069-3.175
		c0.555-0.293,1.194-0.508,1.815-0.573c1.298-0.137,2.609-0.146,3.914-0.218c0.16-0.009,0.376-0.024,0.465-0.126
		c0.372-0.422,0.706-0.878,1.078-1.352c-0.149-0.038-0.243-0.068-0.339-0.085c-1.552-0.26-3.111-0.359-4.678-0.173
		c-2.369,0.283-4.496,1.032-5.885,3.151c-0.336,0.514-0.803,0.64-1.373,0.491c-0.233-0.061-0.47-0.113-0.703-0.174
		c-0.971-0.255-1.943-0.354-2.957-0.26c-0.619,0.057-1.306,0.003-1.881-0.217c-1.138-0.433-2.257-0.948-3.316-1.548
		c-2.415-1.366-5.269-0.951-7.153,1.118c0.451,0.432,0.872,0.605,1.567,0.353c2.444-0.889,4.612-0.376,6.411,1.548
		c0.475,0.508,0.479,1.037-0.009,1.496c-1.132,1.064-2.394,1.914-3.884,2.406c-0.53,0.176-1.024,0.196-1.528-0.053
		c-0.093-0.045-0.239-0.1-0.309-0.06c-0.609,0.353-1.207,0.726-1.85,1.117c0.517,0.406,1.049,0.54,1.604,0.593
		c2.045,0.195,3.922-0.385,5.693-1.326c1.269-0.674,2.467-1.479,3.733-2.152c1.807-0.962,3.669-1.141,5.572-0.227
		c1.038,0.5,2.097,0.955,3.144,1.435C53.606,61.438,56.027,61.838,58.584,61.344z"/>
	<path fill-rule="evenodd" clip-rule="evenodd" fill="#666666" d="M69.462,63.834c1.316,0.08,2.327,0.59,2.902,1.823
		c0.03,0.064,0.068,0.125,0.105,0.186c0.63,1.038,1.609,1.539,2.791,1.257c0.861-0.206,1.709-0.534,2.509-0.921
		c2.895-1.399,5.766-2.849,8.646-4.276c0.141-0.069,0.291-0.121,0.437-0.18c-0.57,1.46-1.289,2.785-2.392,3.84
		c-2.11,2.02-4.56,3.585-7.019,5.134c-0.934,0.588-0.942,0.574-0.43,1.553c0.02,0.037,0.049,0.068,0.13,0.178
		c0.845-0.452,1.68-0.877,2.494-1.339c2.141-1.215,4.333-2.35,6.267-3.893c0.967-0.771,1.942-1.547,2.494-2.709
		c0.76-1.6,1.311-3.272,1.742-4.986c0.028-0.113,0.034-0.275-0.025-0.361c-0.257-0.374-1.185-0.604-1.596-0.417
		c-3.084,1.398-6.163,2.805-9.252,4.19c-0.83,0.372-1.682,0.696-2.533,1.016c-1.018,0.381-1.965,0.16-2.744-0.538
		c-0.512-0.457-0.944-1.023-1.326-1.597c-0.494-0.742-0.452-0.736-1.327-0.584c-1.653,0.288-3.326,0.476-4.968,0.815
		c-3.43,0.711-6.677,1.974-9.855,3.423c-0.03,0.014-0.05,0.054-0.096,0.105c0.687,0.327,1.35,0.652,2.023,0.951
		c0.102,0.045,0.281,0.008,0.383-0.056C62.082,64.402,65.642,63.604,69.462,63.834z"/>
	<path fill-rule="evenodd" clip-rule="evenodd" fill="#666666" d="M60.111,56.559c0.172,0.024,0.382-0.03,0.537-0.116
		c0.659-0.364,1.277-0.812,1.959-1.121c1.612-0.731,3.288-1.175,5.092-0.958c1.893,0.229,3.793,0.384,5.683,0.629
		c3.635,0.472,6.893-0.604,10-2.346c0.084-0.047,0.199-0.173,0.186-0.238c-0.107-0.52-0.243-1.033-0.35-1.465
		c-1.257,0.408-2.432,0.837-3.635,1.167c-1.275,0.351-2.57,0.639-3.914,0.327c-2.722-0.63-5.457-0.888-8.258-0.545
		c-1.83,0.223-3.602,0.523-5.202,1.49c-1.253,0.758-2.357,1.682-3.287,2.909C59.363,56.396,59.733,56.507,60.111,56.559z"/>
	<path fill-rule="evenodd" clip-rule="evenodd" fill="#666666" d="M79.382,57.206c-1.02,0.162-2.059,0.266-3.09,0.272
		c-1.15,0.007-2.301-0.133-3.452-0.188c-0.305-0.014-0.613,0.049-0.962,0.079c0.157,0.552,0.314,1.037,0.427,1.532
		c0.058,0.254,0.187,0.366,0.424,0.393c1.454,0.16,2.905,0.388,4.362,0.459c1.509,0.075,3.01-0.06,4.445-0.635
		c1.288-0.516,2.422-1.252,3.445-2.175c0.566-0.511,1.242-0.704,1.997-0.729c1.46-0.051,2.864,0.15,4.251,0.857
		c0.029-0.535,0.035-0.988,0.088-1.438c0.033-0.294-0.049-0.461-0.337-0.533c-1.171-0.291-2.325-0.677-3.513-0.86
		c-2.031-0.314-3.898,0.061-5.428,1.598C81.316,56.565,80.398,57.045,79.382,57.206z"/>
	<path fill-rule="evenodd" clip-rule="evenodd" fill="#666666" d="M48.64,48.012c1.461-1.167,2.848-2.416,3.845-4.016
		c0.377-0.604,0.673-1.287,0.85-1.976c0.18-0.698-0.431-1.201-1.142-1.046c-0.434,0.095-0.639,0.41-0.789,0.811
		c-0.264,0.701-0.5,1.429-0.881,2.065c-0.523,0.874-1.146,1.692-1.773,2.499c-0.441,0.567-0.96,1.075-1.438,1.602
		c0.188,0.207,0.365,0.403,0.574,0.633C48.166,48.372,48.407,48.197,48.64,48.012z"/>
	<path fill-rule="evenodd" clip-rule="evenodd" fill="#666666" d="M64.089,15.483c0.712,0.001,1.293-0.578,1.3-1.297
		c0.007-0.746-0.53-1.296-1.276-1.307c-0.761-0.01-1.336,0.554-1.33,1.305C62.788,14.893,63.379,15.481,64.089,15.483z"/>
	<path fill-rule="evenodd" clip-rule="evenodd" fill="#666666" d="M61.044,32.483c0.67,0.004,1.322-0.627,1.336-1.293
		c0.015-0.682-0.601-1.301-1.303-1.311c-0.738-0.012-1.297,0.537-1.303,1.277C59.77,31.882,60.34,32.479,61.044,32.483z"/>
	<path fill-rule="evenodd" clip-rule="evenodd" fill="#666666" d="M85.667,15.238c-0.889,0.003-1.542,0.66-1.529,1.54
		c0.012,0.854,0.674,1.507,1.528,1.511c0.904,0.005,1.667-0.712,1.653-1.551C87.306,15.903,86.569,15.235,85.667,15.238z"/>
	<path fill-rule="evenodd" clip-rule="evenodd" fill="#666666" d="M43.011,10.215c-0.672-0.654-0.724-0.695-1.279-0.025
		c-1.589,1.916-3.146,3.857-4.688,5.812c-0.517,0.654-0.95,1.374-1.434,2.081c0.307,0.268,0.572,0.5,0.871,0.761
		C39.226,16.368,41.396,13.5,43.011,10.215z"/>
</g>
</svg>
