<?xml version="1.0" encoding="utf-8"?>
<!-- Generator: Adobe Illustrator 16.0.0, SVG Export Plug-In . SVG Version: 6.00 Build 0)  -->
<!DOCTYPE svg PUBLIC "-//W3C//DTD SVG 1.1//EN" "http://www.w3.org/Graphics/SVG/1.1/DTD/svg11.dtd">
<svg version="1.1" id="Layer_1" xmlns="http://www.w3.org/2000/svg" xmlns:xlink="http://www.w3.org/1999/xlink" x="0px" y="0px"
	 width="146.628px" height="146.277px" viewBox="0 0 146.628 146.277" enable-background="new 0 0 146.628 146.277"
	 xml:space="preserve">
<g>
	<g>
		<path fill-rule="evenodd" clip-rule="evenodd" fill="#4D4D4D" d="M110.502,68.017c0.13,0.128,0.257,0.307,0.289,0.479
			c0.222,1.208,0.419,2.421,0.621,3.632c0.952,5.71,1.899,11.419,2.861,17.125c0.085,0.505,0.188,1.024,0.396,1.487
			c0.344,0.766,1.143,0.952,1.854,0.501c0.144-0.093,0.278-0.205,0.397-0.328c0.816-0.856,1.632-1.715,2.439-2.579
			c0.369-0.396,0.82-0.577,1.354-0.563c0.275,0.007,0.55,0.036,0.826,0.041c0.766,0.012,1.537,0.063,2.3,0.009
			c0.566-0.039,0.843-0.401,0.793-0.971c-0.041-0.475-0.145-0.955-0.296-1.406c-0.943-2.809-1.906-5.61-2.861-8.415
			c-0.035-0.104-0.061-0.211-0.122-0.422c2.577,1.723,5.098,3.342,7.792,4.832c-0.293-0.829-0.506-1.595-0.828-2.312
			c-2.243-4.973-4.473-9.951-6.776-14.895c-2.422-5.196-5.008-10.313-7.906-15.263c-1.003-1.713-2.102-3.372-3.147-5.062
			c-0.057-0.092-0.084-0.274-0.032-0.35c0.257-0.367,0.531-0.722,0.829-1.057c0.09-0.102,0.271-0.178,0.411-0.175
			c2.866,0.046,5.675,0.465,8.387,1.42c1.083,0.38,2.148,0.806,3.265,1.227c0.233-1.638,0.467-3.278,0.702-4.937
			c-0.543-0.113-1.037-0.206-1.526-0.322c-0.997-0.236-1.985-0.504-2.829-1.124c-0.177-0.13-0.326-0.297-0.545-0.5
			c3.219-0.947,6.41-1.469,9.677-1.57c0-2.053,0-4.057,0-6.1c-0.107,0.055-0.186,0.093-0.263,0.135
			c-1.41,0.798-2.899,1.397-4.498,1.67c-0.451,0.077-0.943,0.057-1.391-0.039c-0.48-0.104-0.595-0.506-0.303-0.906
			c0.193-0.266,0.426-0.527,0.695-0.708c0.819-0.549,1.665-1.058,2.502-1.582c0.103-0.064,0.208-0.124,0.35-0.207
			c-1.556-1.257-3.072-2.482-4.616-3.729c-0.098,0.139-0.177,0.248-0.255,0.358c-0.869,1.243-1.723,2.497-2.614,3.723
			c-0.726,1-1.559,1.906-2.633,2.549c-0.251,0.15-0.541,0.267-0.827,0.315c-0.468,0.08-0.783-0.147-0.808-0.622
			c-0.024-0.462,0-0.946,0.114-1.392c0.38-1.493,1.104-2.842,1.865-4.169c0.306-0.535,0.649-1.048,0.995-1.602
			c-2.076-0.175-4.124-0.347-6.188-0.52c-0.06,1.584-0.456,3.014-1.035,4.402c-1.304,3.124-3.219,5.74-6.178,7.504
			c-0.258,0.154-0.391,0.125-0.605-0.072c-1.948-1.786-3.87-3.605-5.879-5.32c-2.091-1.783-4.237-3.497-5.905-5.712
			c-0.035-0.046-0.078-0.085-0.115-0.127c-1.889-2.091-4.205-3.139-7.051-2.916c-2.759,0.215-4.786,1.499-5.889,4.083
			c-0.3,0.705-0.444,1.473-0.726,2.188c-0.195,0.494-0.442,0.988-0.768,1.404c-0.698,0.896-1.463,1.742-2.2,2.608
			c-0.16,0.188-0.316,0.38-0.531,0.638c1.222-0.089,2.354-0.171,3.577-0.26c-0.615,1.019-1.186,1.966-1.77,2.936
			c0.855-0.124,1.668-0.261,2.486-0.356c1.383-0.162,2.766-0.254,4.156-0.041c1.225,0.188,2.109,0.763,2.445,2.003
			c0.197,0.729,0.407,1.463,0.516,2.208c0.378,2.603,1.083,5.097,2.336,7.42c0.029,0.054,0.04,0.12,0.068,0.209
			c-0.136-0.012-0.237-0.019-0.336-0.03c-1.986-0.221-3.967-0.538-5.958-0.643c-3.189-0.17-6.386-0.244-9.579-0.278
			c-2.851-0.03-5.7,0.05-8.551,0.079c-0.115,0.001-0.23-0.011-0.433-0.023c2.2-2.199,4.813-3.469,7.722-4.352
			c-0.896-0.497-1.71-0.948-2.587-1.435c0.983-0.556,1.891-1.066,2.841-1.603c-0.139-0.063-0.228-0.109-0.321-0.142
			c-0.971-0.354-1.938-0.715-2.914-1.057c-0.396-0.138-0.736-0.338-1.066-0.601c-0.428-0.34-0.912-0.614-1.389-0.885
			c-0.245-0.139-0.527-0.212-0.823-0.326c0.06-0.165,0.109-0.315,0.169-0.46c0.598-1.477,1.592-2.65,2.813-3.645
			c1.675-1.365,3.588-2.306,5.574-3.117c0.352-0.144,0.705-0.282,1.119-0.448c-0.967-0.396-1.864-0.763-2.846-1.165
			c0.985-0.556,1.894-1.069,2.866-1.62c-1.41-0.453-2.734-0.867-4.05-1.308c-0.237-0.08-0.485-0.224-0.648-0.409
			c-1.287-1.454-2.909-1.885-4.772-1.615c-1.8,0.26-3.112,1.287-4.18,2.684c-1.093,1.432-1.911,3.029-2.715,4.63
			c-0.567,1.129-1.38,2.015-2.435,2.708c-4.04,2.657-7.721,5.748-11.079,9.223c-0.233,0.241-0.386,0.245-0.612,0.028
			c-1.269-1.216-2.6-2.373-3.797-3.654c-0.999-1.07-1.85-2.28-2.756-3.437c-0.171-0.219-0.287-0.48-0.479-0.807
			c-0.256,0.54-0.466,1.008-0.699,1.466c-0.122,0.236-0.059,0.383,0.119,0.564c1.548,1.573,3.091,3.15,4.62,4.741
			c0.771,0.803,1.509,1.637,2.337,2.541c-0.276,0.195-0.475,0.446-0.706,0.481c-2.751,0.419-5.508,0.766-8.302,0.636
			c-0.08-0.003-0.206,0.023-0.235,0.076c-0.27,0.485-0.523,0.98-0.813,1.534c2.814-0.286,5.546-0.563,8.277-0.839
			c-0.001,0.155-0.025,0.204-0.059,0.246c-0.54,0.672-1.072,1.351-1.63,2.007c-0.104,0.121-0.302,0.195-0.468,0.224
			c-1.864,0.333-3.737,0.612-5.592,0.991c-1.261,0.258-2.475,0.701-3.563,1.426c-0.938,0.625-1.396,1.459-1.191,2.611
			c0.186,1.048-0.074,1.904-1.078,2.45c-0.41,0.223-0.429,0.457-0.172,0.854c0.304,0.473,0.598,0.954,0.91,1.422
			c0.266,0.396,0.236,0.784-0.023,1.156c-0.21,0.3-0.438,0.59-0.68,0.866c-0.187,0.212-0.202,0.408-0.079,0.657
			c0.511,1.042,0.984,2.103,1.519,3.131c0.386,0.739,0.592,1.501,0.636,2.333c0.041,0.787,0.225,1.554,0.723,2.194
			c1.257,1.614,2.522,3.223,4.017,4.632c0.039,0.036,0.062,0.088,0.098,0.14c-0.056,0.034-0.092,0.064-0.133,0.081
			c-2.939,1.15-5.855,2.367-9.006,2.873c-1.031,0.165-1.804,0.691-2.134,1.821c-0.419,1.438-0.513,2.887-0.502,4.361
			c0.016,2.078,0.481,4.058,1.356,5.932c0.559,1.197,1.3,2.274,2.416,3.044c0.411,0.283,0.818,0.55,1.357,0.334
			c0.123-0.049,0.272-0.029,0.409-0.042c2.119-0.202,3.89,0.498,5.295,2.088c0.315,0.356,0.674,0.532,1.129,0.569
			c0.995,0.08,1.977-0.032,2.936-0.286c1.497-0.395,3.001-0.765,4.258-1.767c2.345-1.871,4.688-3.743,7.079-5.553
			c1.344-1.017,2.782-1.907,4.178-2.856c0.209-0.141,0.397-0.139,0.635-0.022c1.314,0.644,2.676,1.166,4.128,1.4
			c0.929,0.149,1.865,0.302,2.807,0.101c1.841-0.393,3.673-0.83,5.521-1.182c1.023-0.194,2.073-0.353,3.11-0.351
			c3.505,0.007,7.01,0.113,10.515,0.139c1.584,0.012,3.146-0.118,4.678-0.659c2.294-0.812,4.636-1.491,6.751-2.743
			c2.156-1.278,4.246-2.66,6.233-4.188c0.728-0.557,1.385-1.206,2.061-1.826c0.267-0.243,0.358-0.558,0.343-0.934
			c-0.048-1.056-0.07-2.112-0.073-3.17c-0.001-0.192,0.094-0.423,0.22-0.571c0.397-0.461,0.812-0.911,1.258-1.325
			c0.326-0.303,0.408-0.581,0.311-1.042c-0.331-1.571-0.311-3.174-0.271-4.772c0.001-0.062,0.032-0.124,0.062-0.224
			c0.465,0.197,0.899,0.403,1.349,0.566c0.88,0.32,1.57,0.856,2.227,1.541C106.873,64.495,108.709,66.235,110.502,68.017z
			 M116.852,89.03c-0.56,0.442-1.113,0.188-1.245-0.521c-0.31-1.67-0.599-3.344-0.89-5.019c-0.707-4.061-1.41-8.121-2.114-12.184
			c-0.088-0.506-0.172-1.013-0.258-1.52c0.025-0.016,0.053-0.033,0.078-0.049c0.25,0.213,0.496,0.433,0.752,0.639
			c0.591,0.478,1.176,0.959,1.783,1.414c0.229,0.172,0.344,0.367,0.401,0.643c0.956,4.457,1.86,8.925,2.915,13.357
			C118.605,87.18,117.751,88.322,116.852,89.03z M122.997,85.217c0.055,0.172,0.078,0.359,0.083,0.541
			c0.011,0.414-0.17,0.692-0.583,0.714c-0.577,0.029-1.169,0.013-1.736-0.088c-0.532-0.096-0.81-0.544-0.945-1.045
			c-0.24-0.885-0.462-1.775-0.683-2.667c-0.731-2.938-1.459-5.879-2.187-8.819c-0.032-0.129-0.058-0.261-0.097-0.441
			c0.104,0.048,0.157,0.063,0.2,0.094c0.894,0.646,1.788,1.292,2.674,1.948c0.101,0.074,0.178,0.21,0.218,0.333
			C120.965,78.928,121.983,82.071,122.997,85.217z M122.098,41.065c0.335,0.069,0.405,0.194,0.348,0.501
			c-0.094,0.49-0.155,0.986-0.237,1.521c-2.909-1.327-5.925-2.014-9.068-2.166c-0.008-0.035-0.014-0.07-0.021-0.105
			c0.477-0.287,0.936-0.612,1.435-0.854c0.854-0.417,1.731-0.787,2.607-1.158c0.104-0.045,0.307-0.022,0.386,0.053
			C118.83,40.079,120.401,40.707,122.098,41.065z M105.053,36.639c3.655-2.566,5.939-6.069,7.069-10.357
			c0.079-0.3,0.105-0.612,0.183-0.911c0.021-0.076,0.146-0.184,0.214-0.177c0.659,0.068,1.316,0.156,2.029,0.246
			c-0.078,0.165-0.134,0.285-0.19,0.405c-0.776,1.609-1.436,3.259-1.716,5.034c-0.054,0.337-0.049,0.686-0.038,1.029
			c0.041,1.243,1.513,2.03,2.612,1.678c0.892-0.285,1.605-0.834,2.281-1.444c1.125-1.017,1.99-2.253,2.889-3.461
			c0.349-0.468,0.697-0.938,1.078-1.452c0.658,0.564,1.275,1.091,1.932,1.653c-0.131,0.092-0.227,0.163-0.326,0.23
			c-0.718,0.486-1.392,1.02-1.881,1.749c-0.481,0.717-0.533,1.433-0.141,1.997c0.356,0.511,0.896,0.643,1.473,0.692
			c1.148,0.099,2.229-0.235,3.315-0.52c0.519-0.136,1.029-0.303,1.581-0.468c0.019,0.141,0.041,0.239,0.042,0.336
			c0.004,0.609-0.009,1.219,0.007,1.827c0.009,0.271-0.099,0.349-0.355,0.374c-3.19,0.299-6.309,0.953-9.343,1.983
			c-2.217,0.752-4.359,1.675-6.228,3.114c-0.776,0.599-1.466,1.313-2.184,1.964c-1.506-1.709-3.063-3.477-4.649-5.275
			C104.8,36.817,104.926,36.728,105.053,36.639z M100.237,60.793c-0.228,2.144-0.908,4.142-2.003,5.997
			c-0.069,0.117-0.231,0.223-0.367,0.25c-1.893,0.366-3.724,0.91-5.423,1.843c-0.544,0.298-1.055,0.642-1.496,1.134
			c0.396,0.143,0.719,0.213,1.106,0.006c1.54-0.823,3.18-1.172,4.926-0.89c0.091,0.015,0.179,0.04,0.267,0.068
			c0.679,0.214,0.788,0.447,0.571,1.125c-0.219,0.689-0.572,1.271-1.08,1.805c-3.213,3.378-7.066,5.691-11.513,7.037
			c-1.054,0.319-2.113,0.622-3.175,0.916c-0.182,0.051-0.388,0.026-0.581,0.022c-3.057-0.056-6.113-0.177-9.169-0.155
			c-3.218,0.022-6.427,0.28-9.614,0.746c-0.404,0.06-0.83,0.145-1.188,0.329c-1.073,0.554-2.172,0.487-3.293,0.249
			c-1.4-0.298-2.733-0.793-4.03-1.39c-0.262-0.121-0.496-0.13-0.758-0.021c-0.629,0.264-1.22,0.579-1.72,1.06
			c-0.579,0.557-1.179,1.094-1.783,1.623c-0.224,0.195-0.479,0.358-0.734,0.512c-0.501,0.301-1.024,0.472-1.609,0.162
			c-0.703,1.082-1.782,1.719-2.764,2.473c-0.724,0.557-1.419,1.149-2.13,1.729c0.037-0.202,0.077-0.449,0.129-0.694
			c0.413-1.966,0.823-3.932,1.244-5.896c0.095-0.445,0.016-0.818-0.273-1.182c-0.579-0.728-1.309-1.254-2.112-1.689
			c-1.169-0.633-2.414-1.051-3.706-1.361c-1.239-0.298-2.459-0.672-3.692-0.99c-0.218-0.056-0.479-0.048-0.695,0.013
			c-0.685,0.188-1.358,0.414-2.135,0.657c1.022,0.182,1.946,0.347,2.871,0.511c0.012,0.029,0.023,0.059,0.035,0.088
			c-1.16,0.784-2.318,1.567-3.478,2.352c0.007,0.015,0.014,0.029,0.021,0.045c0.883-0.261,1.766-0.525,2.649-0.78
			c0.806-0.231,1.61-0.463,2.423-0.67c0.214-0.054,0.467-0.062,0.68-0.005c1.108,0.295,2.22,0.588,3.313,0.938
			c1.035,0.332,1.852,1.551,1.967,2.631c0.243,2.285-0.44,4.328-1.365,6.375c-0.725,1.606-1.961,2.302-3.556,2.554
			c-0.706,0.111-1.437,0.101-2.154,0.09c-0.378-0.005-0.665-0.252-0.917-0.549c-1.494-1.756-3.427-2.435-5.687-2.225
			c-0.365,0.034-0.637-0.02-0.906-0.26c-1.093-0.977-1.755-2.223-2.282-3.563c-0.733-1.86-0.649-3.731-0.109-5.611
			c0.206-0.717,0.427-1.429,0.662-2.137c0.039-0.115,0.179-0.257,0.291-0.277c2.031-0.371,3.98-1.022,5.906-1.741
			c1.408-0.526,2.78-1.152,4.195-1.658c0.695-0.248,1.451-0.328,2.181-0.483c2.182-0.464,4.131,0.165,5.98,1.271
			c1.55,0.926,2.908,2.092,4.196,3.345c0.082,0.078,0.164,0.155,0.242,0.229c0.036-0.018,0.063-0.021,0.075-0.037
			c1.52-1.763,3.919-1.813,5.533-0.119c0.778,0.815,1.27,1.792,1.626,2.849c0.04,0.118,0.078,0.237,0.133,0.408
			c0.393-0.28,0.765-0.537,1.123-0.813c0.05-0.039,0.063-0.167,0.047-0.242c-0.688-3.237-3.133-5.486-6.481-5.007
			c-1.541,0.221-2.869-0.094-4.104-1.039c-1.504-1.152-3.153-2.057-4.969-2.635c-1.046-0.332-2.092-0.396-3.151-0.062
			c-0.653,0.206-1.319,0.29-2.005,0.156c-0.536-0.104-0.991-0.343-1.371-0.736c-0.709-0.735-1.4-1.489-2.142-2.189
			c-0.801-0.754-1.033-1.751-1.334-2.728c0.051-0.045,0.1-0.09,0.15-0.136c0.056,0.113,0.094,0.238,0.17,0.335
			c0.771,0.985,1.851,1.567,2.896,2.186c0.454,0.268,0.954,0.459,1.409,0.725c0.994,0.582,2.082,0.771,3.207,0.79
			c1.184,0.021,2.37-0.046,3.549,0.023c0.663,0.039,1.32,0.258,1.97,0.433c0.464,0.125,0.81,0.446,1.028,0.867
			c0.365,0.706,0.964,0.992,1.716,1.101c2.204,0.316,4.423,0.406,6.64,0.297c2.039-0.1,4.074-0.317,6.108-0.521
			c0.792-0.08,1.575-0.265,2.436-0.414c-0.359-0.418-0.65-0.784-0.977-1.117c-0.077-0.079-0.274-0.076-0.409-0.058
			c-2.643,0.354-5.287,0.688-7.955,0.746c-1.463,0.031-2.92-0.058-4.34-0.445c-0.405-0.111-0.808-0.273-1.172-0.481
			c-0.58-0.331-0.696-0.749-0.467-1.379c0.336-0.921,1.308-1.572,2.404-1.616c1.181-0.046,2.299,0.27,3.409,0.605
			c0.604,0.183,1.203,0.386,1.791,0.615c0.597,0.232,1.159,0.239,1.715-0.104c0.213-0.131,0.442-0.233,0.707-0.371
			c-0.135-0.068-0.221-0.122-0.314-0.159c-2.302-0.936-4.653-1.719-7.104-2.158c-0.49-0.088-1.006-0.061-1.508-0.049
			c-0.435,0.011-0.816,0.208-1.071,0.553c-0.734,0.996-1.799,1.391-2.936,1.652c-1.681,0.386-3.371,0.251-5.074,0.124
			c-2.164-0.163-3.872-1.275-5.571-2.442c-1.353-0.929-2.601-1.975-3.513-3.365c-0.176-0.268-0.349-0.542-0.484-0.832
			c-0.25-0.533-0.179-1.064,0.062-1.575c0.533,0.481,1.042,0.979,1.59,1.426c1.478,1.208,3.182,1.966,5.038,2.359
			c0.826,0.175,1.673,0.312,2.515,0.341c0.912,0.031,1.656-0.455,2.359-1.03c-0.286-0.313-0.54-0.611-0.819-0.882
			c-0.083-0.079-0.243-0.123-0.362-0.113c-2.866,0.217-5.423-0.625-7.736-2.271c-0.962-0.683-1.737-1.54-2.146-2.674
			c-0.053-0.146-0.052-0.329-0.021-0.482c0.077-0.377,0.186-0.748,0.289-1.152c0.074,0.046,0.126,0.067,0.164,0.104
			c0.871,0.828,1.929,1.36,2.986,1.894c0.667,0.336,1.328,0.684,1.999,1.009c0.118,0.058,0.296,0.077,0.415,0.031
			c0.695-0.267,1.421-0.491,2.063-0.857c2.054-1.168,4.173-1.197,6.314-0.389c1.512,0.57,2.988,1.242,4.452,1.928
			c0.482,0.226,0.878,0.292,1.347,0.039c0.311-0.167,0.653-0.273,1.02-0.422c-0.072-0.064-0.114-0.113-0.167-0.146
			c-2.737-1.733-5.642-3.077-8.83-3.748c-1.119-0.235-2.213-0.17-3.278,0.271c-0.572,0.237-1.152,0.458-1.731,0.679
			c-0.546,0.207-1.098,0.217-1.656,0.045c-1.323-0.406-2.533-1.026-3.586-1.928c-0.284-0.243-0.537-0.54-0.744-0.852
			c-0.424-0.637-0.332-1.211,0.299-1.647c0.391-0.27,0.839-0.48,1.29-0.635c1.365-0.467,2.789-0.662,4.216-0.833
			c0.226-0.027,0.453-0.047,0.741-0.077c-0.698,1.103-1.363,2.154-2.054,3.246c0.359,0.211,0.69,0.407,1.054,0.62
			c0.136-0.194,0.259-0.371,0.382-0.546c4.217-6.036,9.062-11.495,14.858-16.065c1.405-1.108,2.884-2.126,4.353-3.153
			c1.15-0.805,2.019-1.819,2.621-3.088c0.665-1.401,1.372-2.783,2.299-4.037c0.529-0.717,1.124-1.368,1.883-1.85
			c1.627-1.036,3.546-0.92,4.968,0.377c0.489,0.445,1.008,0.728,1.632,0.879c0.339,0.083,0.67,0.205,1.098,0.338
			c-0.751,0.503-1.424,0.953-2.151,1.441c0.711,0.302,1.376,0.584,2.109,0.895c-0.146,0.07-0.219,0.112-0.297,0.142
			c-3.612,1.365-6.245,3.788-7.886,7.289c-0.062,0.128-0.224,0.285-0.349,0.295c-1.499,0.116-2.671,0.835-3.562,1.991
			c-0.537,0.695-1.021,1.45-1.413,2.236c-0.558,1.12-1.373,1.943-2.394,2.643c-4.442,3.051-8.86,6.135-13.287,9.207
			c-0.035,0.024-0.063,0.059-0.14,0.13c0.544,0.085,1.038,0.17,1.536,0.232c0.085,0.011,0.19-0.067,0.274-0.123
			c3.904-2.615,7.813-5.222,11.702-7.861c0.766-0.52,1.464-1.147,2.157-1.766c0.62-0.555,1.074-1.242,1.458-1.99
			c0.345-0.67,0.727-1.339,1.198-1.922c1.244-1.538,3.09-1.899,4.867-1.021c0.216,0.106,0.45,0.205,0.622,0.365
			c0.676,0.625,1.523,0.865,2.369,1.115c0.11,0.032,0.217,0.075,0.324,0.116c0.019,0.007,0.031,0.032,0.08,0.085
			c-0.682,0.429-1.356,0.853-2.091,1.314c0.594,0.359,1.154,0.698,1.765,1.066c-0.135,0.064-0.209,0.109-0.29,0.135
			c-3.811,1.229-6.453,3.767-8.193,7.315c-0.807,1.644-1.396,3.366-1.876,5.176c0.387,0.081,0.751,0.177,1.12,0.22
			c0.08,0.01,0.226-0.152,0.266-0.262c0.439-1.22,0.831-2.458,1.303-3.666c0.304-0.778,0.721-1.512,1.083-2.267
			c0.09-0.186,0.216-0.263,0.432-0.264c4.356-0.011,8.712-0.069,13.068-0.031c2.48,0.021,4.96,0.163,7.437,0.319
			c2.144,0.135,4.278,0.383,6.375,0.883c0.277,0.066,0.46,0.193,0.614,0.437c1.324,2.09,2.797,4.071,4.391,5.962
			c0.15,0.18,0.163,0.309,0.068,0.516c-0.404,0.876-0.789,1.761-1.182,2.643c-0.045,0.102-0.098,0.2-0.168,0.346
			c-0.1-0.119-0.176-0.198-0.24-0.286c-1.356-1.868-2.713-3.737-4.068-5.607c-0.625-0.863-1.338-1.614-2.429-1.868
			c-1.178-0.276-2.145,0.136-2.761,1.177c-0.534,0.903-0.684,1.901-0.762,2.997c0.445-0.209,0.831-0.378,1.203-0.575
			c0.08-0.042,0.104-0.191,0.156-0.287c0.24-0.438,0.441-0.905,0.736-1.301c0.214-0.288,0.577-0.44,0.959-0.296
			c0.426,0.161,0.688,0.494,0.798,0.929c0.026,0.107-0.041,0.241-0.074,0.359c-0.191,0.685-0.386,1.368-0.579,2.051
			c-0.064,0.228,0.004,0.363,0.245,0.431c0.286,0.081,0.563,0.195,0.885,0.31c0.114-0.849,0.239-1.675,0.784-2.442
			c0.165,0.192,0.328,0.335,0.432,0.512c1.051,1.807,2.076,3.628,3.143,5.424c0.58,0.977,1.203,1.931,1.851,2.863
			c0.73,1.052,2.088,1.232,3.058,0.376c0.737-0.652,1.403-1.388,2.074-2.111c0.406-0.437,0.771-0.914,1.14-1.384
			c0.133-0.169,0.243-0.213,0.457-0.121C100.312,59.927,100.329,59.919,100.237,60.793z M99.195,52.823
			c-2.306-3.383-4.453-6.861-6.239-10.551c-0.315-0.65-0.569-1.331-0.886-1.98c-0.157-0.325-0.35-0.656-0.605-0.902
			c-0.418-0.403-0.9-0.216-1.017,0.353c-0.109,0.532,0.051,1.024,0.254,1.505c0.807,1.92,1.785,3.753,2.838,5.548
			c2.464,4.2,5.259,8.171,8.28,11.987c0.069,0.088,0.135,0.18,0.159,0.346c-1.044-0.468-2.088-0.937-3.146-1.411
			c-0.134,0.18-0.251,0.334-0.364,0.491c-0.896,1.242-2.012,2.265-3.199,3.218c-0.421,0.338-0.719,0.29-1.045-0.152
			c-0.103-0.139-0.195-0.284-0.289-0.429c-0.409-0.634-0.539-1.224-0.111-1.966c0.685-1.193,1.229-2.465,1.846-3.697
			c0.104-0.208,0.081-0.321-0.074-0.501c-2.666-3.088-5.115-6.326-6.856-10.044c-0.908-1.94-1.396-4.003-1.763-6.104
			c-0.123-0.711-0.291-1.418-0.491-2.111c-0.574-1.975-1.924-3.03-3.953-3.26c-1.254-0.142-2.499-0.087-3.742,0.112
			c-0.1,0.016-0.2,0.025-0.415,0.052c0.669-0.915,1.283-1.755,1.955-2.674c-1.166,0.117-2.232,0.224-3.415,0.343
			c0.287-0.337,0.491-0.606,0.726-0.847c0.777-0.795,1.294-1.715,1.624-2.792c0.527-1.724,1.544-3.135,3.252-3.854
			c2.211-0.93,4.322-0.661,6.223,0.837c0.521,0.411,1.011,0.879,1.434,1.389c1.526,1.843,3.313,3.402,5.137,4.936
			c4.154,3.499,8.111,7.205,11.726,11.267c1.496,1.681,2.731,3.549,3.906,5.459c2.564,4.173,4.801,8.526,6.958,12.919
			c1.18,2.402,2.324,4.821,3.484,7.231c0.059,0.123,0.114,0.246,0.171,0.369c-0.026,0.027-0.053,0.055-0.079,0.083
			c-0.495-0.282-1.002-0.545-1.482-0.85c-2.834-1.794-5.307-4.025-7.641-6.414c-2.448-2.504-4.715-5.16-6.529-8.168
			c-0.306-0.506-0.607-0.854-1.235-0.806c-0.189,0.015-0.383-0.034-0.677-0.064c0.398,0.687,0.739,1.307,1.113,1.906
			c2.438,3.909,5.438,7.345,8.809,10.469c2.696,2.5,5.602,4.725,8.787,6.572c0.122,0.071,0.246,0.183,0.307,0.306
			c1.121,2.316,2.233,4.636,3.348,6.955c0.018,0.037,0.024,0.082,0.058,0.198c-0.172-0.084-0.292-0.134-0.405-0.197
			c-2.816-1.575-5.413-3.474-7.931-5.481c-4.455-3.551-8.67-7.367-12.546-11.546C103.131,58.374,101.112,55.637,99.195,52.823z"/>
		<path fill-rule="evenodd" clip-rule="evenodd" fill="#4D4D4D" d="M83.58,105.505c0.634-0.03,1.104-0.497,1.118-1.128
			c0.013-0.586,0.016-1.173-0.002-1.759c-0.017-0.599-0.476-1.059-1.072-1.104c-0.126-0.01-0.252-0.007-0.378-0.007
			c-13.689,0-27.378,0-41.067,0c-0.148,0-0.299,0-0.447,0.01c-0.729,0.05-1.334,0.552-1.495,1.266
			c-0.05,0.222-0.058,0.456-0.057,0.685c0.024,5.229,0.053,10.458,0.08,15.688c0.001,0.126-0.011,0.251-0.017,0.376
			c-0.123-0.072-0.174-0.146-0.217-0.226c-1.18-2.143-2.357-4.287-3.536-6.431c-1.86-3.382-3.724-6.762-5.58-10.146
			c-0.532-0.969-1.336-1.575-2.434-1.636c-1.294-0.071-2.595-0.041-3.893-0.029c-0.413,0.004-0.777,0.188-1.07,0.491
			c-0.375,0.388-0.499,0.857-0.499,1.386c0.004,7.873,0.003,15.746,0.003,23.619c0,0.093-0.003,0.184,0.003,0.275
			c0.055,0.92,0.703,1.58,1.615,1.605c0.77,0.021,1.54,0.019,2.311,0.001c0.762-0.018,1.377-0.497,1.545-1.196
			c0.058-0.242,0.071-0.5,0.071-0.751c-0.024-5.355-0.054-10.711-0.082-16.067c0-0.122,0-0.245,0-0.367
			c0.138,0.076,0.188,0.151,0.233,0.23c1.091,1.969,2.174,3.943,3.271,5.908c2.019,3.609,4.043,7.215,6.067,10.82
			c0.446,0.794,1.127,1.314,2.031,1.365c1.294,0.073,2.595,0.074,3.891,0.037c0.708-0.021,1.254-0.541,1.401-1.188
			c0.059-0.255,0.07-0.524,0.07-0.786c0.004-6.816,0.004-13.632,0.004-20.448c0-0.146,0-0.292,0-0.492c0.221,0,0.4,0,0.581,0
			c12.367,0,24.733,0,37.102,0C83.282,105.508,83.432,105.511,83.58,105.505z"/>
		<path fill-rule="evenodd" clip-rule="evenodd" fill="#4D4D4D" d="M120.29,108.869c-1.926-0.836-3.943-1.029-6.011-0.739
			c-2.676,0.375-4.841,1.637-6.379,3.865c-1.928,2.797-2.374,5.9-1.563,9.154c1.199,4.824,4.871,7.636,9.808,7.688
			c0.829,0.008,1.672-0.157,2.488-0.333c1.95-0.42,3.693-1.252,5.06-2.757c0.69-0.762,1.165-1.644,1.417-2.646
			c0.148-0.592-0.219-1.307-0.99-1.278c-0.954,0.035-1.907,0.014-2.862,0.008c-0.536-0.003-0.959,0.201-1.262,0.645
			c-0.76,1.109-1.824,1.706-3.143,1.906c-2.094,0.319-3.944-0.512-4.944-2.248c-0.376-0.654-0.615-1.352-0.654-2.176
			c0.199,0,0.346,0,0.492,0c3.908,0,7.816,0,11.725,0c0.229,0,0.459,0.002,0.689-0.001c1.145-0.013,1.703-0.553,1.701-1.697
			c-0.002-1.235-0.162-2.453-0.546-3.632C124.46,111.994,122.869,109.988,120.29,108.869z M111.332,116.115
			c0.127-1.326,0.722-2.362,1.77-3.103c1.598-1.128,3.314-1.224,5.046-0.348c1.381,0.699,2.18,1.845,2.356,3.45
			C117.424,116.115,114.408,116.115,111.332,116.115z"/>
		<path fill-rule="evenodd" clip-rule="evenodd" fill="#4D4D4D" d="M61.733,108.918c-1.742-0.793-3.588-1.021-5.485-0.86
			c-2.968,0.252-5.376,1.53-7.062,4.003c-1.842,2.702-2.277,5.699-1.575,8.861c0.611,2.755,2.04,4.989,4.483,6.471
			c1.909,1.158,3.998,1.599,6.238,1.366c1.691-0.175,3.299-0.59,4.768-1.46c1.653-0.979,2.871-2.316,3.343-4.232
			c0.164-0.668-0.269-1.228-0.954-1.233c-0.953-0.008-1.907,0.005-2.861-0.005c-0.577-0.006-1.019,0.211-1.338,0.695
			c-1.605,2.434-5.703,2.591-7.572,0.287c-0.662-0.817-1.05-1.737-1.146-2.854c0.201,0,0.349,0,0.495,0c4.033,0,8.066,0,12.101,0
			c0.137,0,0.274,0.003,0.413-0.002c1.06-0.032,1.596-0.584,1.609-1.646c0.015-1.11-0.125-2.202-0.424-3.269
			C65.984,112.267,64.404,110.133,61.733,108.918z M52.722,116.114c-0.259-1.733,1.936-3.865,4.093-3.999
			c3.233-0.201,5.021,2.296,5.073,3.999C58.815,116.114,55.767,116.114,52.722,116.114z"/>
		<path fill-rule="evenodd" clip-rule="evenodd" fill="#4D4D4D" d="M81.552,117.056c-1.759-0.525-3.554-0.927-5.322-1.423
			c-0.679-0.191-1.346-0.457-1.977-0.772c-0.487-0.242-0.632-0.718-0.536-1.269c0.146-0.819,0.68-1.264,1.426-1.465
			c1.24-0.335,2.481-0.301,3.693,0.141c0.703,0.255,1.304,0.678,1.613,1.372c0.234,0.527,0.607,0.711,1.135,0.711
			c0.874-0.001,1.747,0.01,2.621-0.001c0.608-0.008,0.966-0.413,0.94-1.026c-0.031-0.795-0.314-1.501-0.772-2.14
			c-0.766-1.069-1.812-1.785-3.008-2.286c-2.308-0.965-4.698-1.101-7.136-0.648c-1.687,0.314-3.207,0.966-4.404,2.247
			c-1.764,1.887-2.112,5.492,0.425,7.536c1.076,0.866,2.306,1.399,3.639,1.731c1.705,0.425,3.406,0.862,5.1,1.322
			c0.335,0.091,0.659,0.274,0.947,0.475c0.411,0.285,0.55,0.714,0.48,1.212c-0.121,0.864-0.68,1.341-1.457,1.568
			c-1.355,0.396-2.721,0.41-4.065-0.065c-0.9-0.318-1.623-0.845-1.98-1.783c-0.16-0.421-0.518-0.615-0.948-0.632
			c-0.516-0.022-1.033-0.006-1.551-0.006c0-0.007,0-0.015,0-0.021c-0.482,0-0.966-0.013-1.448,0.003
			c-0.577,0.018-0.973,0.443-0.994,1.021c-0.036,0.96,0.259,1.81,0.831,2.57c0.908,1.204,2.126,1.994,3.512,2.519
			c1.993,0.757,4.05,1.066,6.185,0.774c1.563-0.214,3.057-0.61,4.426-1.427c3.333-1.988,3.309-5.959,1.819-8.001
			C83.933,118.181,82.841,117.44,81.552,117.056z"/>
		<path fill-rule="evenodd" clip-rule="evenodd" fill="#4D4D4D" d="M25.115,45.172c0.314-0.465,0.566-0.549,1.104-0.429
			c2.474,0.556,4.646-0.926,5.015-3.358c0.075-0.499,0.075-0.499,0.587-0.504c1.48-0.017,2.601-0.72,3.087-2.049
			c0.21-0.571,0.299-1.202,0.348-1.812c0.061-0.78,0.02-0.785-0.744-0.858c-0.032-0.003-0.065,0.012-0.139,0.027
			c-0.384,2.293-1.775,3.424-4.076,3.383c-0.03,0.07-0.046,0.09-0.048,0.111c-0.229,2.297-2.623,3.968-4.989,3.637
			c-0.249-0.035-0.384,0.027-0.52,0.251c-0.833,1.385-2.422,1.861-3.744,1.142c-1.061-0.577-1.701-1.737-1.574-2.85
			c0.144-1.263,0.919-2.167,2.167-2.525c0.193-0.056,0.378-0.061,0.392-0.367c0.068-1.473,0.837-2.52,2.081-3.241
			c1.229-0.713,2.584-0.933,3.981-0.916c0.336,0.004,0.548-0.097,0.756-0.349c0.781-0.952,1.763-1.49,3.034-1.387
			c0.075,0.006,0.153-0.015,0.237-0.023c0.021-0.128,0.045-0.24,0.058-0.353c0.013-0.11,0.016-0.221,0.021-0.318
			c-1.769-0.467-3.016-1.434-3.438-3.236c-0.573-0.04-1.139-0.042-1.691-0.123c-2.238-0.325-3.725-1.997-3.771-4.234
			c-0.006-0.257-0.125-0.357-0.314-0.468c-1.156-0.683-1.578-1.863-1.135-3.143c0.415-1.194,1.63-1.974,2.873-1.733
			c0.533,0.103,1.031,0.415,1.526,0.668c0.176,0.09,0.303,0.128,0.504,0.081c0.512-0.121,1.033-0.259,1.554-0.273
			c2.293-0.062,4.278,1.58,4.816,3.95c0.088,0.387,0.127,0.786,0.189,1.179c0.039,0.008,0.072,0.018,0.106,0.021
			c1.976,0.157,3.195,0.94,3.87,3.216c0.186,0.626,0.306,1.272,0.46,1.907c0.354,1.469,1.029,2.763,2.193,3.743
			c1.215,1.023,2.633,1.495,4.227,1.256c1.654-0.247,2.86-1.536,3.203-3.36c0.129-0.686,0.13-0.677,0.824-0.695
			c1.631-0.042,2.981-0.636,3.859-2.067c0.691-1.129,0.716-2.35,0.379-3.597c-0.046-0.173-0.082-0.304,0.097-0.45
			c1.26-1.03,1.662-2.381,1.396-3.948c-0.397-2.35-2.699-3.975-5.033-3.582c-1.479,0.249-2.58,1.037-3.32,2.33
			c-0.112,0.196-0.22,0.244-0.438,0.191c-0.243-0.058-0.5-0.079-0.751-0.083c-2.713-0.046-4.813,2.453-4.327,5.16
			c0.087,0.49,0.25,0.966,0.387,1.485c-0.941,0.132-1.527,0.716-1.923,1.546c-0.034-0.234-0.032-0.439-0.035-0.643
			c-0.028-2.151-1.521-3.669-3.664-3.705c-0.276-0.004-0.35-0.086-0.345-0.355c0.025-1.429-0.414-2.694-1.413-3.732
			c-1.465-1.525-3.755-1.952-5.829-1.05c-0.433,0.188-0.698,0.164-1.086-0.114c-1.422-1.021-2.95-1.233-4.527-0.353
			c-1.515,0.846-2.302,2.458-2.02,4.083c0.226,1.293,1.01,2.189,2.106,2.836c0.217,0.128,0.255,0.26,0.231,0.498
			c-0.04,0.408-0.085,0.833-0.023,1.233c0.38,2.466,2.51,4.041,4.987,3.707c0.22-0.029,0.329,0.004,0.389,0.243
			c0.144,0.583,0.543,0.971,1.056,1.253c0.159,0.087,0.322,0.166,0.486,0.251c-0.026,0.038-0.035,0.063-0.053,0.072
			c-0.029,0.018-0.063,0.03-0.096,0.036c-0.695,0.13-1.179,0.55-1.512,1.147c-0.118,0.21-0.233,0.252-0.466,0.2
			c-0.917-0.208-1.842-0.245-2.765-0.017c-1.882,0.464-3.255,2.173-3.364,4.231c-0.02,0.379-0.129,0.57-0.5,0.725
			c-1.855,0.775-2.854,2.666-2.467,4.624c0.255,1.285,1.036,2.207,2.096,2.914C21.541,47.464,23.849,47.045,25.115,45.172z
			 M40.959,27.464c0.528-0.309,0.648-0.568,0.549-1.18c-0.45-2.745,1.488-4.985,4.274-5.005c0.289-0.002,0.461-0.073,0.595-0.337
			c0.116-0.232,0.289-0.442,0.463-0.64c1.375-1.567,4.105-1.111,4.876,0.835c0.478,1.207,0.22,2.316-0.588,3.318
			c-0.102,0.125-0.187,0.326-0.169,0.478c0.242,2.03-1.536,4.943-4.402,4.991c-0.066,0.001-0.133,0.014-0.233,0.024
			c0.076,1.284-0.386,2.284-1.396,3.015c-2.072,1.499-4.986,0.438-5.559-2.019C39.06,29.622,39.648,28.227,40.959,27.464z"/>
		<path fill-rule="evenodd" clip-rule="evenodd" fill="#4D4D4D" d="M96.548,108.739c-0.954-0.006-1.907,0-2.86-0.002
			c-0.677-0.001-0.58,0.035-0.581-0.563c-0.004-1.77,0.004-3.539-0.003-5.309c-0.004-1.031-0.606-1.627-1.627-1.629
			c-0.598,0-1.195,0-1.792,0c-1.209,0.002-1.764,0.56-1.764,1.777c-0.002,1.78-0.008,3.562,0.006,5.342
			c0.002,0.309-0.097,0.408-0.394,0.387c-0.274-0.02-0.552-0.011-0.828,0c-0.58,0.021-1.006,0.418-1.029,0.994
			c-0.023,0.562-0.023,1.126-0.002,1.688c0.023,0.583,0.497,1.017,1.087,1.034c0.229,0.006,0.458,0.002,0.688,0.002
			c0.47,0,0.471,0,0.471,0.467c0.001,3.067-0.011,6.136,0.004,9.203c0.015,3.099,1.907,5.49,4.862,6.152
			c1.257,0.282,2.54,0.169,3.812,0.145c0.574-0.012,0.997-0.54,1.008-1.122c0.01-0.541,0.005-1.08,0.002-1.621
			c-0.005-0.814-0.41-1.211-1.229-1.244c-0.41-0.017-0.833-0.029-1.228-0.131c-1.258-0.325-2.016-1.36-2.036-2.775
			c-0.021-1.413-0.005-2.827-0.005-4.24c-0.002,0-0.003,0-0.003,0c0-1.481,0.007-2.965-0.007-4.446
			c-0.003-0.297,0.07-0.399,0.382-0.395c1.033,0.019,2.067,0.012,3.101,0.005c0.679-0.005,1.096-0.419,1.111-1.096
			c0.01-0.493,0.007-0.987,0.001-1.482C97.687,109.107,97.325,108.744,96.548,108.739z"/>
		<path fill-rule="evenodd" clip-rule="evenodd" fill="#4D4D4D" d="M102.655,101.24c-0.712-0.007-1.424-0.005-2.136-0.001
			c-1.026,0.005-1.672,0.654-1.668,1.686c0.028,7.984,0.057,15.969,0.087,23.953c0.004,0.933,0.628,1.561,1.554,1.569
			c0.69,0.006,1.38,0.003,2.068,0.001c1.09-0.004,1.733-0.65,1.733-1.737c0-3.952,0-7.904,0-11.857c0-3.986,0-7.973-0.001-11.96
			C104.292,101.915,103.633,101.248,102.655,101.24z"/>
		<path fill-rule="evenodd" clip-rule="evenodd" fill="#4D4D4D" d="M123.516,100.915c-2.604,0.277-5.208,0.534-7.813,0.8
			c-2.523,0.258-5.047,0.516-7.57,0.778c-0.563,0.059-0.861,0.379-0.893,0.951c-0.017,0.309-0.006,0.619-0.005,0.93
			c0.004,0.754,0.293,1.046,1.04,1.046c2.596,0.001,5.192,0.001,7.789,0.001c2.607,0,5.215-0.003,7.823,0.002
			c0.586,0.001,1.113-0.221,1.271-0.764c0.297-1.02,0.335-2.095-0.032-3.104C124.863,100.834,124.184,100.844,123.516,100.915z"/>
		<path fill-rule="evenodd" clip-rule="evenodd" fill="#4D4D4D" d="M26.896,22.893c-0.768-0.473-0.514-0.507-1.201,0.198
			c-0.008,0.008-0.008,0.022-0.032,0.098c2.043,2.349,4.422,4.362,6.973,6.221c0.257-0.32,0.471-0.587,0.694-0.866
			C32.277,27.155,28.714,24.013,26.896,22.893z"/>
		<path fill-rule="evenodd" clip-rule="evenodd" fill="#4D4D4D" d="M29.606,36.34c-2.294,1.135-4.34,2.613-6.131,4.461
			c0.192,0.254,0.352,0.463,0.524,0.692c0.167-0.091,0.3-0.159,0.428-0.234c1.85-1.084,3.54-2.383,5.125-3.822
			c0.484-0.439,0.48-0.444,0.152-1.003C29.688,36.406,29.657,36.387,29.606,36.34z"/>
		<path fill-rule="evenodd" clip-rule="evenodd" fill="#4D4D4D" d="M89.382,65.793c-1.322,0.152-2.396,0.704-3.252,1.731
			c-0.808,0.971-1.654,1.912-2.492,2.857c-1.053,1.188-2.127,2.35-3.533,3.15c-1.514,0.864-3.122,1.499-4.77,2.051
			c-0.275,0.094-0.437,0.051-0.603-0.188c-1.204-1.723-2.422-3.437-3.624-5.161c-0.156-0.225-0.34-0.356-0.6-0.313
			c-0.518,0.086-1.066,0.118-1.539,0.32c-2.238,0.954-4.463,1.941-6.676,2.955c-0.919,0.42-1.846,0.65-2.837,0.399
			c-0.899-0.229-1.785-0.511-2.678-0.765c-0.13-0.037-0.282-0.102-0.393-0.063c-0.353,0.12-0.69,0.282-1.074,0.448
			c0.1,0.074,0.147,0.122,0.204,0.152c1.676,0.881,3.427,1.561,5.276,1.968c0.749,0.165,1.455,0.006,2.125-0.366
			c0.964-0.534,1.922-1.084,2.913-1.564c0.864-0.419,1.763-0.77,2.662-1.107c0.411-0.153,0.83-0.084,1.208,0.193
			c1.129,0.824,2.021,1.832,2.556,3.138c0.253,0.618,0.099,0.936-0.552,1.071c-1.634,0.345-3.286,0.547-4.957,0.521
			c-0.898-0.015-1.794-0.098-2.681-0.148c0.314,0.313,0.667,0.639,0.99,0.993c0.203,0.224,0.432,0.318,0.726,0.321
			c2.136,0.02,4.273,0.05,6.41,0.065c0.73,0.006,1.438-0.135,2.121-0.398c2.762-1.069,5.524-2.137,8.292-3.191
			c0.211-0.081,0.473-0.114,0.692-0.073c1.625,0.298,3.244,0.633,4.87,0.928c0.29,0.054,0.633,0.049,0.901-0.057
			c0.775-0.312,1.55-0.643,2.279-1.048c1.099-0.611,1.963-1.5,2.726-2.555c-0.211-0.107-0.384-0.173-0.534-0.275
			c-0.234-0.161-0.397-0.1-0.598,0.079c-0.35,0.314-0.717,0.613-1.104,0.881c-1.676,1.163-3.498,1.711-5.54,1.249
			c-0.778-0.177-1.475-0.537-2.104-1.029c0.297-0.393,0.574-0.757,0.847-1.123c0.812-1.086,1.627-2.168,2.429-3.261
			c0.567-0.773,1.354-1.177,2.272-1.287c1.253-0.15,2.513-0.226,3.771-0.337c0.129-0.012,0.312-0.015,0.373-0.096
			c0.305-0.395,0.576-0.815,0.883-1.261c-0.119-0.016-0.175-0.027-0.229-0.028C92.816,65.516,91.098,65.597,89.382,65.793z"/>
		<path fill-rule="evenodd" clip-rule="evenodd" fill="#4D4D4D" d="M61.424,63.618c2.167-0.418,4.31-0.922,6.405-1.622
			c0.432-0.144,0.864-0.286,1.335-0.442c-0.239-0.42-0.455-0.796-0.649-1.137c-1.775,0.407-3.493,0.818-5.22,1.192
			c-1.456,0.315-2.908,0.687-4.427,0.462c-0.951-0.14-1.878-0.346-2.708-0.848c-1.092-0.662-1.075-1.964,0.056-2.563
			c0.448-0.237,0.965-0.41,1.466-0.463c1.048-0.11,2.106-0.118,3.159-0.176c0.13-0.007,0.304-0.02,0.376-0.102
			c0.3-0.341,0.569-0.709,0.87-1.091c-0.121-0.031-0.196-0.055-0.273-0.068c-1.253-0.21-2.512-0.29-3.776-0.14
			c-1.912,0.229-3.629,0.833-4.75,2.544c-0.271,0.415-0.648,0.516-1.108,0.396c-0.188-0.049-0.379-0.091-0.567-0.14
			c-0.784-0.206-1.569-0.286-2.388-0.21c-0.499,0.046-1.054,0.002-1.518-0.175c-0.919-0.349-1.822-0.766-2.678-1.25
			c-1.949-1.103-4.252-0.768-5.773,0.902c0.364,0.349,0.703,0.489,1.265,0.285c1.974-0.717,3.724-0.303,5.176,1.25
			c0.383,0.41,0.387,0.837-0.008,1.208c-0.913,0.859-1.932,1.545-3.135,1.942c-0.428,0.142-0.827,0.159-1.233-0.042
			c-0.075-0.036-0.193-0.081-0.249-0.048c-0.492,0.284-0.975,0.585-1.493,0.902c0.417,0.328,0.847,0.436,1.294,0.479
			c1.651,0.157,3.166-0.311,4.596-1.071c1.024-0.544,1.991-1.193,3.014-1.737c1.459-0.776,2.962-0.921,4.498-0.183
			c0.838,0.404,1.692,0.771,2.538,1.158C57.405,63.694,59.36,64.017,61.424,63.618z"/>
		<path fill-rule="evenodd" clip-rule="evenodd" fill="#4D4D4D" d="M70.204,65.628c1.063,0.064,1.879,0.476,2.344,1.472
			c0.023,0.052,0.055,0.101,0.085,0.149c0.508,0.838,1.299,1.243,2.253,1.015c0.695-0.166,1.379-0.431,2.024-0.743
			c2.337-1.13,4.654-2.299,6.979-3.452c0.114-0.056,0.235-0.098,0.353-0.145c-0.46,1.179-1.04,2.249-1.931,3.1
			c-1.703,1.63-3.68,2.895-5.665,4.145c-0.754,0.475-0.761,0.464-0.347,1.253c0.016,0.03,0.039,0.056,0.104,0.144
			c0.682-0.364,1.356-0.707,2.014-1.08c1.728-0.98,3.497-1.897,5.059-3.143c0.78-0.623,1.567-1.249,2.013-2.187
			c0.613-1.291,1.059-2.642,1.406-4.025c0.023-0.092,0.028-0.223-0.021-0.292c-0.207-0.302-0.956-0.487-1.288-0.336
			c-2.489,1.129-4.975,2.264-7.468,3.383c-0.67,0.3-1.357,0.562-2.045,0.82c-0.821,0.307-1.586,0.129-2.215-0.435
			c-0.413-0.369-0.763-0.826-1.071-1.289c-0.398-0.599-0.364-0.594-1.07-0.471c-1.335,0.232-2.686,0.384-4.011,0.658
			c-2.769,0.574-5.39,1.593-7.955,2.763c-0.024,0.011-0.04,0.043-0.077,0.085c0.554,0.264,1.089,0.526,1.633,0.768
			c0.082,0.037,0.228,0.006,0.31-0.045C64.247,66.086,67.121,65.442,70.204,65.628z"/>
		<path fill-rule="evenodd" clip-rule="evenodd" fill="#4D4D4D" d="M62.656,59.755c0.139,0.02,0.309-0.024,0.434-0.094
			c0.532-0.294,1.031-0.655,1.582-0.905c1.301-0.591,2.653-0.948,4.109-0.773c1.528,0.185,3.063,0.31,4.588,0.508
			c2.934,0.38,5.563-0.487,8.071-1.894c0.068-0.038,0.161-0.14,0.15-0.192c-0.087-0.419-0.196-0.834-0.282-1.183
			c-1.015,0.33-1.963,0.676-2.935,0.942c-1.029,0.283-2.074,0.516-3.159,0.264c-2.197-0.508-4.405-0.716-6.666-0.44
			c-1.477,0.18-2.907,0.423-4.199,1.203c-1.011,0.612-1.902,1.357-2.653,2.348C62.053,59.624,62.352,59.714,62.656,59.755z"/>
		<path fill-rule="evenodd" clip-rule="evenodd" fill="#4D4D4D" d="M78.212,60.277c-0.823,0.131-1.661,0.214-2.494,0.22
			c-0.929,0.006-1.857-0.107-2.786-0.152c-0.246-0.011-0.495,0.039-0.776,0.064c0.126,0.445,0.253,0.837,0.344,1.236
			c0.047,0.205,0.15,0.296,0.343,0.317c1.174,0.129,2.345,0.313,3.521,0.37c1.219,0.061,2.43-0.048,3.589-0.512
			c1.04-0.417,1.955-1.011,2.781-1.755c0.457-0.413,1.002-0.568,1.611-0.589c1.179-0.041,2.313,0.121,3.432,0.692
			c0.023-0.432,0.028-0.798,0.071-1.16c0.026-0.237-0.039-0.372-0.272-0.431c-0.944-0.235-1.877-0.546-2.835-0.694
			c-1.64-0.254-3.147,0.049-4.382,1.29C79.773,59.76,79.032,60.148,78.212,60.277z"/>
		<path fill-rule="evenodd" clip-rule="evenodd" fill="#4D4D4D" d="M53.396,52.856c1.18-0.942,2.299-1.95,3.104-3.242
			c0.305-0.487,0.543-1.039,0.686-1.595c0.146-0.563-0.348-0.97-0.921-0.844c-0.351,0.077-0.516,0.331-0.638,0.654
			c-0.212,0.566-0.403,1.153-0.711,1.667c-0.422,0.706-0.925,1.366-1.432,2.018c-0.355,0.458-0.774,0.868-1.16,1.293
			c0.151,0.167,0.295,0.325,0.464,0.511C53.015,53.146,53.209,53.005,53.396,52.856z"/>
		<path fill-rule="evenodd" clip-rule="evenodd" fill="#4D4D4D" d="M65.867,26.598c0.575,0.001,1.044-0.467,1.05-1.047
			c0.005-0.602-0.429-1.046-1.03-1.055c-0.614-0.008-1.079,0.447-1.074,1.053C64.817,26.122,65.294,26.597,65.867,26.598z"/>
		<path fill-rule="evenodd" clip-rule="evenodd" fill="#4D4D4D" d="M63.409,40.321c0.541,0.003,1.067-0.506,1.079-1.043
			c0.012-0.55-0.485-1.05-1.052-1.058c-0.597-0.009-1.047,0.434-1.052,1.031C62.381,39.836,62.841,40.317,63.409,40.321z"/>
		<path fill-rule="evenodd" clip-rule="evenodd" fill="#4D4D4D" d="M83.285,26.4c-0.717,0.002-1.244,0.533-1.234,1.243
			c0.01,0.689,0.544,1.216,1.234,1.219c0.729,0.004,1.345-0.575,1.334-1.251C84.608,26.937,84.014,26.398,83.285,26.4z"/>
		<path fill-rule="evenodd" clip-rule="evenodd" fill="#4D4D4D" d="M48.853,22.346c-0.542-0.528-0.584-0.562-1.032-0.021
			c-1.283,1.546-2.539,3.114-3.785,4.691c-0.417,0.528-0.767,1.109-1.157,1.68c0.248,0.216,0.462,0.403,0.703,0.614
			C45.797,27.313,47.55,24.998,48.853,22.346z"/>
	</g>
</g>
</svg>
