<?xml version="1.0" encoding="utf-8"?>
<!-- Generator: Adobe Illustrator 16.0.0, SVG Export Plug-In . SVG Version: 6.00 Build 0)  -->
<!DOCTYPE svg PUBLIC "-//W3C//DTD SVG 1.1//EN" "http://www.w3.org/Graphics/SVG/1.1/DTD/svg11.dtd">
<svg version="1.1" id="Layer_1" xmlns="http://www.w3.org/2000/svg" xmlns:xlink="http://www.w3.org/1999/xlink" x="0px" y="0px"
	 width="542.306px" height="142.491px" viewBox="0 0 542.306 142.491" enable-background="new 0 0 542.306 142.491"
	 xml:space="preserve">
<g>
	<path fill-rule="evenodd" clip-rule="evenodd" d="M304.156,50.939c0.749,0,1.321,0,1.894,0c35.261,0,70.521,0.001,105.781,0
		c0.489,0,0.98,0.021,1.468-0.01c2.124-0.131,3.369-1.348,3.473-3.465c0.062-1.244,0.021-2.492,0.02-3.738
		c-0.006-3.375-1.102-4.466-4.487-4.466c-39.223,0-78.445,0-117.668,0c-4.069,0-5.91,1.919-5.868,6.005
		c0.151,14.736,0.281,29.471,0.414,44.204c0.004,0.356-0.045,0.717-0.092,1.396c-0.436-0.773-0.698-1.233-0.956-1.698
		c-8.576-15.43-17.159-30.857-25.72-46.297c-1.839-3.318-4.634-4.922-8.386-4.933c-2.938-0.009-5.876-0.005-8.814-0.002
		c-3.753,0.004-5.685,1.923-5.686,5.659c-0.003,10.684-0.002,21.37-0.002,32.055c0.002,11.841-0.004,23.685,0.005,35.527
		c0.002,3.327,1.992,5.313,5.307,5.333c1.78,0.009,3.563,0.006,5.343,0c3.586-0.011,5.559-1.965,5.528-5.526
		c-0.105-12.33-0.232-24.662-0.335-36.992c-0.029-3.35-0.005-6.7-0.005-10.445c1.78,3.199,3.372,6.063,4.965,8.924
		c7.227,12.977,14.467,25.945,21.67,38.935c1.935,3.486,4.767,5.255,8.796,5.122c2.313-0.078,4.641-0.153,6.944,0.013
		c4.864,0.351,6.497-2.622,6.473-6.388c-0.116-19.143-0.058-38.288-0.061-57.433C304.156,52.193,304.156,51.666,304.156,50.939z"/>
	<path fill-rule="evenodd" clip-rule="evenodd" d="M200.471,90.085c-6.174-13.122-12.631-26.102-20.575-38.279
		c-0.313-0.478-0.661-1.336-0.447-1.674c0.596-0.943,1.029-2.146,2.609-2.09c4.927,0.18,9.734,0.96,14.397,2.561
		c2.128,0.729,4.23,1.541,6.495,2.371c0.481-3.114,0.945-6.123,1.416-9.171c-3.229-0.717-6.476-0.952-9.095-3.513
		c5.959-1.756,11.763-2.673,17.729-2.779c0-3.829,0-7.536,0-11.095c-2.648,0.939-5.25,1.939-7.904,2.766
		c-0.941,0.293-2.03,0.307-3.022,0.196c-1.177-0.131-1.505-1.046-0.681-1.889c0.832-0.85,1.816-1.567,2.803-2.239
		c1.089-0.74,2.256-1.361,3.488-2.096c-2.878-2.378-5.638-4.656-8.469-6.997c-0.951,1.383-1.751,2.668-2.672,3.859
		c-1.767,2.286-3.516,4.594-5.445,6.738c-0.829,0.921-2.026,1.585-3.17,2.122c-1.057,0.498-1.915-0.074-1.936-1.238
		c-0.019-0.999,0.062-2.107,0.478-2.987c1.438-3.046,3.044-6.013,4.587-9.011c0.146-0.283,0.306-0.561,0.506-0.928
		c-3.953-0.371-7.74-0.727-11.447-1.075c-1.301,9.617-5.496,17.216-13.858,22.287c-1.686-1.557-3.298-3.021-4.884-4.515
		c-6.118-5.754-13.169-10.507-18.438-17.174c-0.136-0.174-0.319-0.31-0.48-0.462c-3.964-3.756-8.682-4.935-13.943-3.86
		c-5.033,1.029-8.08,4.297-9.446,9.131c-0.658,2.326-1.679,4.359-3.339,6.126c-1.291,1.372-2.44,2.879-3.861,4.575
		c2.325-0.158,4.296-0.291,6.547-0.442c-1.136,1.91-2.139,3.596-3.256,5.476c0.65-0.105,1.037-0.199,1.428-0.225
		c3.408-0.225,6.815-0.579,10.226-0.609c2.715-0.025,4.632,1.377,5.363,4.127c0.16,0.601,0.339,1.194,0.49,1.797
		c0.985,3.916,1.908,7.848,2.981,11.738c0.368,1.338,1.108,2.572,1.755,4.025c-15.155-2.174-30.223-1.762-45.632-1.605
		c4.041-4.159,8.838-6.238,14.123-8.014c-1.681-0.938-3.133-1.748-4.726-2.636c1.787-1.007,3.437-1.938,4.964-2.8
		c-3.907-1.842-7.814-3.682-11.871-5.594c3.332-8.107,10.573-11.082,17.863-14.247c-1.843-0.767-3.422-1.423-5.171-2.149
		c1.813-1,3.432-1.894,5.31-2.93c-2.52-0.812-4.755-1.481-6.949-2.266c-0.758-0.271-1.409-0.836-2.117-1.252
		c-1.474-0.865-2.857-2.135-4.448-2.504c-4.913-1.142-8.872,0.802-11.725,4.764c-1.783,2.477-3.221,5.216-4.672,7.913
		c-1.32,2.451-3.049,4.437-5.391,5.962c-6.024,3.924-11.572,8.451-16.729,13.456c-1.238,1.202-2.381,2.504-3.626,3.824
		c-5.396-4.401-9.993-9.171-13.725-14.965c-0.29,0.495-0.506,0.921-0.774,1.31c-0.84,1.217-0.626,2.104,0.468,3.18
		c3.395,3.341,6.652,6.821,9.951,10.258c0.671,0.699,1.291,1.445,2.177,2.441c-0.826,0.329-1.424,0.738-2.05,0.791
		c-4.739,0.397-9.485,0.718-14.228,1.089c-0.347,0.026-0.816,0.166-0.989,0.417c-0.521,0.754-0.923,1.59-1.488,2.605
		c5.198-0.517,10.142-1.007,15.414-1.531c-1.082,1.398-1.84,2.502-2.735,3.478c-0.436,0.473-1.092,0.888-1.714,1.019
		c-1.563,0.328-3.17,0.439-4.747,0.712c-3.729,0.644-7.449,1.349-10.831,3.165c-2.821,1.514-3.446,2.813-3.021,5.945
		c0.186,1.366-0.117,2.545-1.273,3.438c-1.636,1.265-1.623,1.283-0.499,2.98c0.098,0.148,0.199,0.295,0.296,0.443
		c1.553,2.391,1.577,2.465-0.256,4.596c-0.593,0.689-0.613,1.258-0.225,2.035c0.995,1.988,1.971,3.989,2.844,6.031
		c0.412,0.962,0.709,2.019,0.812,3.057c0.211,2.15,0.874,4.047,2.308,5.703c2.204,2.545,4.334,5.152,6.552,7.805
		c-0.2,0.096-0.384,0.197-0.579,0.273c-5.135,2.014-10.272,4.002-15.76,4.891c-2.395,0.388-3.962,1.643-4.546,4.182
		c-1.506,6.545-0.864,12.814,2.116,18.823c1.08,2.181,2.518,4.116,4.686,5.343c0.521,0.297,1.245,0.439,1.841,0.369
		c4.208-0.498,7.836,0.489,10.718,3.784c0.445,0.509,1.261,0.885,1.945,0.96c1.182,0.127,2.401,0.047,3.591-0.083
		c5.272-0.577,9.595-3.072,13.662-6.382c5.173-4.21,10.614-8.086,15.93-12.119c1.022-0.775,1.919-0.779,3.134-0.193
		c4.856,2.348,9.795,3.231,15.228,1.599c5.101-1.532,10.422-2.217,15.821-2.019c5.249,0.192,10.504,0.226,15.757,0.256
		c3.573,0.023,7.02-0.591,10.47-1.669c9-2.815,16.696-7.854,24.106-13.453c2.058-1.554,3.5-3.398,2.911-6.215
		c-0.107-0.512,0.045-1.075-0.035-1.597c-0.299-1.922,0.265-3.488,1.826-4.662c1.404-1.053,1.55-2.349,1.301-4.053
		c-0.374-2.558-0.314-5.18-0.438-7.774c0.151-0.075,0.303-0.151,0.454-0.228c1.768,0.972,3.802,1.65,5.252,2.971
		c3.715,3.383,7.181,7.04,10.712,10.619c0.408,0.414,0.791,0.998,0.886,1.555c1.75,10.394,3.453,20.797,5.171,31.195
		c0.435,2.633,0.86,5.268,1.336,7.894c0.224,1.228,0.736,2.345,2.062,2.719c1.279,0.361,2.226-0.335,3.05-1.214
		c0.548-0.585,1.149-1.137,1.604-1.789c2.031-2.921,4.569-4.171,8.305-3.683c4.029,0.524,4.732-0.624,3.452-4.499
		c-1.617-4.893-3.305-9.766-4.957-14.648c-0.115-0.344-0.191-0.701-0.305-1.117c4.675,2.9,9.234,5.73,13.793,8.56
		c0.093-0.113,0.187-0.226,0.278-0.339c-0.524-1.364-0.987-2.755-1.584-4.086C208.222,107.168,204.464,98.57,200.471,90.085z
		 M201.314,46.269c-0.138,0.866-0.302,1.903-0.489,3.091c-5.26-2.348-10.658-3.568-16.383-4.092
		c0.325-0.231,0.635-0.491,0.978-0.691c0.883-0.512,1.779-0.998,2.671-1.492c2.166-1.205,4.034-1.976,6.436,0.158
		C196.241,44.764,198.885,45.24,201.314,46.269z M182.708,16.594c1.28,0.15,2.566,0.303,3.681,0.435
		c-1.044,2.991-2.069,5.867-3.042,8.763c-0.209,0.623-0.27,1.305-0.33,1.967c-0.293,3.121,2.37,5.287,5.263,4.041
		c1.665-0.718,3.269-1.86,4.526-3.17c2.057-2.142,3.811-4.574,5.689-6.885c0.333-0.41,0.652-0.832,1.05-1.339
		c1.122,0.926,2.175,1.797,3.353,2.771c-0.539,0.411-1.073,0.713-1.474,1.144c-0.989,1.062-2.129,2.063-2.82,3.304
		c-1.053,1.889-0.151,3.769,1.978,4.152c1.31,0.234,2.724,0.012,4.075-0.14c0.963-0.108,1.905-0.424,2.851-0.675
		c0.896-0.236,1.786-0.506,2.899-0.824c0,0.82,0,1.545,0,2.27c0,0.707,0,1.413,0,2.121c-12.212,1.746-24.191,3.846-33.289,13.084
		c-2.759-3.084-5.593-6.253-8.53-9.536C176.232,32.913,180.821,25.72,182.708,16.594z M160.149,81.936
		c-0.344,3.822-1.44,7.415-3.443,10.694c-0.273,0.448-0.898,0.768-1.429,0.962c-3.161,1.158-6.364,2.205-9.501,3.421
		c-0.956,0.372-1.751,1.161-2.62,1.759c0.045,0.163,0.089,0.326,0.134,0.49c0.654-0.082,1.383-0.007,1.952-0.272
		c2.37-1.116,4.812-1.851,7.456-1.751c0.442,0.016,0.891,0.05,1.323,0.137c1.954,0.392,2.303,0.941,1.476,2.749
		c-0.489,1.066-1.127,2.133-1.931,2.979c-6.396,6.727-14.229,10.955-23.153,13.371c-2.743,0.743-5.425,1.168-8.259,1.034
		c-8.769-0.413-17.542-0.451-26.274,0.585c-2.85,0.336-5.633,1.219-8.48,1.59c-1.723,0.225-3.568,0.207-5.256-0.169
		c-2.239-0.495-4.359-1.499-6.565-2.174c-0.648-0.198-1.538-0.271-2.096,0.022c-1.28,0.674-2.459,1.559-3.613,2.445
		c-1.268,0.973-2.381,2.168-3.716,3.026c-0.853,0.55-1.986,0.664-3.279,1.062c-2.675,2.151-5.668,4.558-8.898,7.156
		c0.732-3.35,1.403-6.422,2.073-9.494c0.095-0.434,0.121-0.893,0.283-1.301c0.858-2.154-0.065-3.657-1.702-4.961
		c-2.669-2.127-5.747-3.339-9.014-4.155c-1.509-0.378-3.104-0.566-4.503-1.191c-2.653-1.188-5.068-0.691-7.713,0.669
		c1.714,0.352,3.251,0.668,5.124,1.055c-2.178,1.462-4.121,2.768-6.064,4.072c0.037,0.076,0.075,0.15,0.111,0.226
		c2.383-0.675,4.787-1.286,7.142-2.046c1.677-0.541,3.281-0.658,4.943-0.01c0.743,0.289,1.531,0.475,2.312,0.641
		c3.784,0.797,5.835,3.048,5.657,7.45c-0.171,4.243-1.514,8.14-3.776,11.669c-1.269,1.979-3.593,2.346-5.736,2.744
		c-1.037,0.191-2.146,0.233-3.187,0.086c-0.721-0.102-1.549-0.484-2.041-1.012c-2.728-2.921-6.067-4.354-10.019-4.084
		c-1.45,0.1-2.389-0.389-3.209-1.397c-3.639-4.48-5.175-9.473-3.6-15.187c0.425-1.542,0.506-3.453,1.489-4.489
		c0.939-0.989,2.858-1.028,4.325-1.544c4.4-1.547,8.864-2.943,13.166-4.73c6.5-2.699,12.57-2.396,18.26,1.893
		c2.27,1.709,4.435,3.561,6.757,5.438c0.959-1.428,2.428-2.411,4.241-2.332c1.461,0.062,3.083,0.289,4.303,1.006
		c1.275,0.748,2.29,2.073,3.168,3.323c0.778,1.108,1.212,2.46,1.809,3.726c0.015-0.002,0.117,0.017,0.176-0.024
		c2.399-1.751,2.572-0.969,1.303-4.19c-2.048-5.195-6.354-7.662-11.853-6.93c-2.506,0.332-4.751-0.185-6.788-1.722
		c-2.818-2.129-5.838-3.899-9.226-4.995c-1.956-0.631-3.9-0.831-5.894-0.191c-2.982,0.957-5.478,0.399-7.451-2.223
		c-0.848-1.128-1.959-2.066-3.011-3.026c-1.357-1.237-1.764-2.877-2.116-4.191c2.066,1.331,4.28,2.779,6.515,4.191
		c3.281,2.073,6.899,2.688,10.729,2.574c2.031-0.06,4.108-0.047,6.09,0.325c1.051,0.197,2.186,1.053,2.851,1.936
		c0.949,1.257,2.054,1.872,3.541,2.068c6.303,0.838,12.614,0.727,18.919,0.104c2.9-0.287,5.78-0.781,8.757-1.194
		c-1.21-2.213-1.664-2.374-3.694-2.206c-5.141,0.428-10.285,0.919-15.437,1.065c-2.311,0.065-4.701-0.427-6.951-1.043
		c-2.588-0.709-2.904-2.745-0.927-4.598c1.188-1.112,2.676-1.567,4.2-1.276c2.697,0.511,5.376,1.165,8.016,1.922
		c2.62,0.754,2.727,0.826,5.277-0.779c-1.392-0.53-2.632-1.104-3.931-1.475c-3.583-1.021-7.174-2.03-10.798-2.896
		c-1.641-0.394-3.091,0.115-4.284,1.504c-1.667,1.939-4.079,2.445-6.469,2.808c-3.516,0.532-7.125,0.526-10.463-0.505
		c-2.822-0.871-5.544-2.432-7.954-4.178c-2.376-1.721-4.402-3.975-6.396-6.164c-1.162-1.276-1.141-2.363-0.483-4.539
		c0.408,0.645,0.603,1.125,0.94,1.456c4.111,4.036,9.12,6.075,14.809,6.555c1.975,0.166,3.663-0.505,5.192-1.837
		c-0.718-1.461-1.658-2.033-3.293-1.971c-5.294,0.201-9.934-1.659-13.991-5.006c-0.613-0.506-1.161-1.108-1.66-1.73
		c-1.572-1.963-1.675-2.687-0.913-4.956c2.955,1.61,5.919,3.264,8.932,4.825c0.513,0.268,1.277,0.318,1.842,0.162
		c1.149-0.316,2.311-0.72,3.345-1.303c3.91-2.209,7.916-2.116,11.976-0.607c2.164,0.804,4.369,1.585,6.368,2.711
		c2.055,1.156,3.879,1.287,5.924-0.242c-1.197-0.704-2.36-1.462-3.586-2.101c-4.109-2.146-8.337-3.98-12.921-4.899
		c-2.305-0.462-4.498-0.246-6.665,0.636c-1.755,0.714-3.471,1.757-5.489,1.194c-2.822-0.789-5.426-2.035-7.523-4.126
		c-1.885-1.88-1.601-3.482,0.825-4.556c3.209-1.419,6.66-1.806,10.345-2.279c-1.28,2.107-2.441,4.019-3.669,6.038
		c0.688,0.387,1.255,0.705,1.933,1.085c0.613-0.846,1.207-1.662,1.797-2.479c8.234-11.4,17.633-21.682,28.986-30.07
		c1.646-1.217,3.329-2.385,5.043-3.502c2.411-1.576,4.184-3.641,5.482-6.226c1.273-2.536,2.662-5.04,4.268-7.376
		c0.93-1.353,2.252-2.553,3.636-3.454c2.694-1.755,6.054-1.481,8.407,0.698c1.243,1.15,2.599,1.781,4.163,2.162
		c0.285,0.07,0.555,0.198,1.067,0.387c-1.323,0.902-2.48,1.689-3.824,2.605c1.349,0.556,2.509,1.035,3.878,1.601
		c-4.275,1.462-7.84,3.699-10.621,6.947c-1.632,1.903-2.838,4.17-4.267,6.251c-0.243,0.354-0.612,0.812-0.974,0.863
		c-3.606,0.521-6.033,2.653-7.874,5.615c-0.422,0.68-0.838,1.371-1.162,2.099c-0.936,2.106-2.459,3.646-4.34,4.94
		c-7.921,5.445-15.81,10.938-23.709,16.414c-0.344,0.238-0.668,0.508-1.138,0.867c1.737,0.506,3.054,0.517,4.526-0.498
		c6.78-4.666,13.666-9.179,20.494-13.778c2.95-1.987,5.55-4.319,7.005-7.69c0.227-0.525,0.588-0.996,0.917-1.472
		c3.039-4.404,7.564-5.063,11.893-1.892c1.133,0.83,2.594,1.211,4.064,1.869c-1.265,0.787-2.445,1.523-3.774,2.35
		c1.122,0.713,2.082,1.322,3.3,2.096c-11.474,3.637-16.29,12.542-19.145,23.178c0.829,0.2,1.598,0.385,2.525,0.607
		c0.31-0.982,0.549-1.963,0.922-2.89c1.092-2.715,2.24-5.409,3.363-8.112c0.308-0.744,0.817-1.016,1.65-1.012
		c10.061,0.029,20.122-0.1,30.181,0.07c6.223,0.104,12.452,0.527,18.534,2.052c0.544,0.137,1.146,0.505,1.479,0.947
		c2.616,3.487,5.154,7.031,7.765,10.522c0.429,0.572,0.56,0.977,0.217,1.645c-0.806,1.575-1.513,3.2-2.367,5.033
		c-2.062-2.826-3.988-5.478-5.923-8.123c-0.971-1.329-1.836-2.762-2.969-3.936c-0.865-0.896-1.992-1.676-3.15-2.124
		c-2.168-0.837-4.178,0.017-5.402,1.984c-0.9,1.45-1.49,3.793-1.37,5.534c1.236-0.387,2.474-0.648,2.8-2.229
		c0.107-0.529,0.511-1.041,0.888-1.463c0.55-0.611,1.227-1.128,2.101-0.591c0.865,0.534,1.345,1.282,1.025,2.36
		c-0.401,1.355-0.793,2.712-1.219,4.179c0.896,0.292,1.632,0.532,2.339,0.764c0.369-1.322,0.693-2.513,1.04-3.696
		c0.058-0.2,0.213-0.371,0.429-0.73c0.463,0.635,0.893,1.129,1.217,1.682c2.308,3.957,4.584,7.933,6.897,11.885
		c0.516,0.883,1.117,1.716,1.72,2.543c1.519,2.082,3.936,2.508,5.896,0.74c1.906-1.717,3.528-3.747,5.283-5.635
		c0.478-0.514,0.731-1.269,1.807-0.834C160.396,80.433,160.218,81.168,160.149,81.936z M190.646,134.111
		c-1.132,0.516-1.869,0.014-2.14-1.507c-0.428-2.403-0.829-4.814-1.241-7.22c-1.493-8.711-2.985-17.42-4.476-26.13
		c-0.028-0.163-0.034-0.331-0.074-0.739c1.795,1.477,3.441,2.812,5.056,4.185c0.21,0.178,0.305,0.54,0.369,0.835
		c1.829,8.325,3.661,16.648,5.454,24.979C194.03,130.533,192.541,133.248,190.646,134.111z M202.089,126.643
		c0.676,2.098,0.141,2.791-2.063,2.744c-2.274-0.051-3.169-0.646-3.687-2.701c-1.746-6.926-3.446-13.863-5.16-20.797
		c-0.019-0.078,0.019-0.171,0.058-0.479c1.713,1.261,3.335,2.416,4.902,3.64c0.312,0.244,0.479,0.73,0.611,1.137
		C198.542,115.67,200.322,121.154,202.089,126.643z M204.087,111.278c-23.189-15.683-42.519-34.937-55.491-60.058
		c-1.121-2.169-2.078-4.423-3.144-6.621c-0.306-0.633-0.641-1.295-1.122-1.785c-0.319-0.326-1.049-0.631-1.37-0.479
		c-0.417,0.201-0.855,0.867-0.852,1.328c0.007,0.816,0.18,1.717,0.563,2.43c2.897,5.402,5.607,10.929,8.879,16.1
		c3.419,5.403,7.399,10.453,11.133,15.658c0.193,0.269,0.387,0.538,0.817,1.14c-2.16-0.978-3.966-1.794-5.581-2.524
		c-2.148,2.151-4.172,4.262-6.289,6.271c-1.359,1.292-1.957,1.146-2.891-0.428c-0.733-1.236-1.06-2.39-0.21-3.834
		c1.144-1.947,1.949-4.091,2.987-6.105c0.448-0.866,0.383-1.375-0.287-2.172c-5.503-6.557-10.857-13.254-13.544-21.553
		c-1.05-3.24-1.552-6.658-2.343-9.984c-1.266-5.324-3.919-7.516-9.392-7.644c-1.892-0.043-3.789,0.182-5.776,0.291
		c1.098-1.564,2.188-3.118,3.406-4.854c-2.104,0.242-3.977,0.459-6.16,0.709c0.835-1.024,1.583-1.813,2.173-2.706
		c0.628-0.948,1.153-1.977,1.636-3.009c0.47-1.003,0.742-2.104,1.251-3.082c3.131-6.019,10.567-7.756,16.068-3.768
		c0.753,0.546,1.514,1.135,2.106,1.84c4.578,5.46,10.298,9.693,15.466,14.518c5.204,4.858,10.346,9.797,15.278,14.928
		c6.484,6.744,10.892,14.938,15.167,23.146c4.312,8.279,8.333,16.709,12.479,25.073c0.133,0.27,0.243,0.55,0.364,0.825
		c-0.125,0.144-0.25,0.289-0.376,0.434c-2.992-2.211-6.12-4.262-8.952-6.662c-7.68-6.506-14.501-13.806-19.808-22.426
		c-0.554-0.9-0.688-0.923-3.415-0.894c1.626,2.52,3.049,4.97,4.708,7.249c8.061,11.073,17.857,20.282,29.627,27.348
		c0.465,0.279,0.929,0.719,1.164,1.195c1.967,3.984,3.881,7.998,5.806,12.006c0.054,0.108,0.049,0.245,0.118,0.625
		C206.773,112.902,205.385,112.156,204.087,111.278z"/>
	<path fill-rule="evenodd" clip-rule="evenodd" d="M528.886,92.301c0.49,0,0.981,0.014,1.47-0.018
		c2.996-0.198,4.54-1.623,4.56-4.639c0.049-7.76-1.92-14.912-7.114-20.869c-5.554-6.367-12.847-8.789-21.088-8.889
		c-12.744-0.151-22.927,6.657-27.138,18.351c-3.101,8.614-2.616,17.149,1.252,25.433c2.497,5.344,6.333,9.531,11.521,12.42
		c10.255,5.709,25.18,4.297,34.164-3.256c3.039-2.555,5.225-5.687,6.201-9.587c0.575-2.3-0.552-3.76-2.922-3.771
		c-2.716-0.012-5.433,0.016-8.148-0.009c-1.594-0.014-2.878,0.577-3.775,1.881c-2.557,3.708-6.195,5.31-10.57,5.562
		c-7.431,0.43-13.991-5.307-14.156-12.609c0.629,0,1.155,0,1.683,0C506.179,92.301,517.532,92.301,528.886,92.301z M505.31,69.723
		c7.303-0.402,13.756,4.658,14.142,11.179c-8.7,0-17.396,0-26.089,0C493.114,75.56,499.009,70.072,505.31,69.723z"/>
	<path fill-rule="evenodd" clip-rule="evenodd" d="M355.297,63.035c-5.927-4.339-12.726-5.537-19.88-5.061
		c-7.112,0.473-13.28,3.141-18.219,8.377c-4.696,4.979-7.223,10.979-7.819,17.733c-0.822,9.28,1.489,17.674,7.827,24.694
		c11.776,13.043,32.523,10.164,41.93,1.125c2.488-2.393,4.295-5.21,5.139-8.586c0.596-2.382-0.527-3.832-2.955-3.842
		c-2.626-0.01-5.254,0.037-7.879-0.016c-1.812-0.036-3.188,0.652-4.186,2.14c-4.138,6.167-13.678,6.688-18.776,3.052
		c-3.497-2.492-5.413-5.869-5.821-10.352c0.78,0,1.31,0,1.839,0c11.352,0,22.704,0.002,34.056-0.003
		c0.711-0.001,1.429-0.018,2.131-0.106c2.282-0.286,3.673-1.66,3.729-3.965c0.051-2.036-0.001-4.105-0.295-6.117
		C364.982,74.37,361.744,67.754,355.297,63.035z M324.847,80.915c0.44-6.213,6.14-11.151,12.853-11.212
		c6.941-0.063,12.765,4.783,13.338,11.212C342.241,80.915,333.547,80.915,324.847,80.915z"/>
	<path fill-rule="evenodd" clip-rule="evenodd" d="M410.983,85.127c-1.464-0.73-2.995-1.391-4.566-1.822
		c-4.757-1.308-9.557-2.447-14.318-3.736c-1.662-0.449-3.31-1.029-4.87-1.753c-1.522-0.705-2.116-2.052-1.913-3.759
		c0.282-2.361,1.76-3.813,3.877-4.22c2.412-0.464,4.949-0.689,7.389-0.493c3.564,0.286,6.577,1.787,8.2,5.312
		c0.523,1.136,1.682,1.418,2.83,1.438c2.58,0.042,5.163,0.056,7.743,0.013c1.63-0.027,2.633-1.104,2.627-2.738
		c-0.008-2.546-0.953-4.771-2.451-6.779c-2.021-2.709-4.707-4.581-7.753-5.946c-6.507-2.921-13.317-3.312-20.264-2.259
		c-4.328,0.656-8.353,2.125-11.789,4.938c-7.06,5.783-7.791,16.322-1.551,22.435c2.299,2.254,5.042,3.848,8.097,4.752
		c4.344,1.285,8.761,2.318,13.129,3.521c2.221,0.614,4.482,1.184,6.584,2.1c2.567,1.118,3.281,3.748,1.577,5.976
		c-0.858,1.122-2.249,2.047-3.59,2.55c-2.927,1.096-6.024,1.138-9.077,0.459c-3.519-0.781-6.52-2.31-8.065-5.877
		c-0.553-1.273-1.77-1.698-3.09-1.733c-1.378-0.035-2.759-0.008-4.139-0.008c0-0.007,0-0.014,0-0.021c-1.246,0-2.492,0-3.738,0
		c-0.046,0-0.089,0-0.134,0c-1.92,0.045-2.941,1.049-3.018,2.979c-0.1,2.541,0.658,4.824,2.095,6.896
		c2.055,2.964,4.829,5.085,8.014,6.684c6.055,3.04,12.501,3.972,19.192,3.354c5.337-0.494,10.382-1.887,14.884-4.967
		C422.079,106.132,422.537,90.894,410.983,85.127z"/>
	<path fill-rule="evenodd" clip-rule="evenodd" d="M450.757,59.85c-2.759-0.023-5.521-0.003-8.281-0.009
		c-0.468-0.001-0.936-0.04-1.479-0.067c0-0.632,0-1.116,0-1.603c0-5.03,0.015-10.063-0.007-15.093
		c-0.013-2.8-1.801-4.56-4.615-4.592c-1.825-0.02-3.651-0.006-5.478-0.002c-3.383,0.004-5.064,1.688-5.073,5.111
		c-0.013,4.896-0.003,9.795-0.004,14.693c0,0.475,0.001,0.949,0.001,1.551c-1.171,0-2.187-0.039-3.198,0.01
		c-1.823,0.086-3.018,1.18-3.131,2.996c-0.099,1.597-0.098,3.209-0.008,4.806c0.107,1.886,1.302,2.988,3.201,3.079
		c0.971,0.045,1.946,0.008,3.161,0.008c0,1.375-0.005,2.57,0,3.764c0.032,8.503-0.136,17.015,0.164,25.508
		c0.266,7.484,5.523,13.666,12.735,15.753c4.059,1.175,8.216,0.777,12.341,0.667c1.55-0.042,2.669-1.468,2.731-3.133
		c0.063-1.732,0.064-3.472,0.007-5.207c-0.066-1.931-1.359-3.204-3.302-3.346c-0.664-0.047-1.336-0.004-2.003-0.045
		c-3.651-0.228-6.398-2.444-7.187-5.896c-0.234-1.03-0.305-2.117-0.31-3.18c-0.029-7.791-0.022-15.584-0.027-23.376
		c0-0.472,0-0.942,0-1.504c3.397,0,6.6,0.023,9.8-0.009c2.157-0.021,3.399-1.252,3.467-3.395c0.041-1.335,0.033-2.672,0.003-4.007
		C454.215,61.102,452.979,59.868,450.757,59.85z"/>
	<path fill-rule="evenodd" clip-rule="evenodd" d="M467.552,38.471c-1.559-0.002-3.116-0.001-4.674,0
		c-3.889,0.002-5.506,1.617-5.506,5.514c-0.002,11.169-0.001,22.338-0.001,33.507c0,4.316,0,8.634,0,12.95
		c0,6.985-0.008,13.971,0.005,20.957c0.006,3.406,1.693,5.104,5.061,5.129c1.646,0.013,3.293,0.004,4.939,0.003
		c4.007-0.005,5.6-1.582,5.6-5.557c0.001-16.954,0-33.909,0-50.862c0-5.384,0.002-10.769,0-16.153
		C472.973,40.158,471.305,38.475,467.552,38.471z"/>
	<path fill-rule="evenodd" clip-rule="evenodd" d="M21.642,53.24c0.503-0.716,0.879-0.943,1.815-0.722
		c4.487,1.067,8.485-1.445,9.411-5.796c0.089-0.417,0.151-0.841,0.222-1.236c4.964-0.345,7.211-2.531,7.342-7.053
		c0.049-1.703-0.02-1.767-1.841-1.674c-0.182,0.611-0.348,1.253-0.563,1.877c-0.841,2.434-2.576,3.762-5.104,4.091
		c-0.441,0.058-0.914,0.014-1.32,0.159c-0.296,0.107-0.652,0.409-0.733,0.696c-1.191,4.202-4.485,6.54-8.856,6.326
		c-0.433-0.021-1.04,0.324-1.308,0.688c-1.428,1.945-3.573,2.807-5.724,2.184c-2.118-0.611-3.764-2.619-3.904-4.762
		c-0.153-2.345,1.11-4.344,3.335-5.253c0.438-0.183,0.891-0.333,1.351-0.502c0.06-3.479,1.913-5.668,4.96-6.789
		c1.6-0.589,3.351-0.898,5.055-1.021c1.311-0.096,2.33-0.299,3.21-1.385c1.014-1.249,2.45-1.891,4.08-2.02
		c0.471-0.038,0.942-0.073,1.368-0.107c0.279-0.878,0.062-1.262-0.758-1.566c-1.064-0.396-2.217-0.875-2.993-1.653
		c-1.121-1.126-1.938-2.554-3.026-4.048c-0.118,0-0.562,0.021-1.004-0.002c-5.288-0.266-8.331-3.396-8.561-7.771
		c-0.021-0.391-0.413-0.781-0.679-1.141c-0.674-0.905-1.631-1.695-2.007-2.704c-0.733-1.968,0.114-4.019,1.842-5.285
		c1.689-1.239,3.736-1.251,5.732,0.07c0.64,0.423,1.161,0.569,1.939,0.354c4.817-1.32,9.422,1.17,11.016,5.938
		c0.333,0.999,0.479,2.059,0.728,3.168c3.753,0.103,6.057,2.156,7.18,5.651c0.298,0.926,0.439,1.903,0.649,2.858
		c0.962,4.361,3.051,7.888,7.395,9.617c5.2,2.069,9.778-0.511,10.783-6.004c0.047-0.257,0.119-0.51,0.196-0.834
		c0.265-0.032,0.397-0.07,0.526-0.062c5.704,0.361,10.253-4.185,8.547-10.454c-0.084-0.309,0.173-0.768,0.376-1.09
		c0.679-1.078,1.639-2.039,2.07-3.201C75.78,9.04,73.89,4.89,70.153,3.1c-3.841-1.84-8.298-0.637-10.559,2.921
		c-0.44,0.695-0.826,0.937-1.675,0.834c-4.383-0.525-8.4,2.513-8.915,6.911c-0.193,1.66,0.206,3.388,0.328,4.997
		c-0.93,0.755-1.971,1.599-3.01,2.442c-0.354-4.418-2.505-7.331-7.358-7.51c-0.049-0.18-0.095-0.267-0.093-0.351
		c0.151-7.43-7.08-11.923-13.821-8.821c-0.386,0.178-1.101,0.002-1.494-0.262c-2.016-1.343-4.18-2.08-6.569-1.473
		c-3.172,0.809-5.226,2.881-5.798,6.119c-0.547,3.104,0.903,5.415,3.4,7.154c0.48,0.334,1.011,0.479,0.894,1.383
		c-0.527,4.093,2.059,7.867,6.048,8.836c1.181,0.288,2.447,0.223,3.365,0.296c1.079,1.133,2.023,2.124,2.903,3.046
		c-0.593,0.434-1.493,0.814-1.959,1.493c-0.668,0.977-1.351,1.052-2.423,0.896c-5.668-0.821-9.81,2.371-10.429,8.017
		c-0.083,0.755-0.379,1.046-1.01,1.328c-2.978,1.337-4.781,4.275-4.573,7.341c0.234,3.434,2.849,6.643,6.192,7.602
		C16.604,57.162,19.683,56.031,21.642,53.24z M51.835,20.104c0-1.42-0.136-2.745,0.024-4.035c0.481-3.867,3.443-6.534,7.423-6.692
		c0.915-0.036,1.398-0.345,1.894-1.087c1.538-2.304,3.692-3.027,6.117-2.196c3.564,1.224,4.883,4.896,2.811,8.07
		c-0.596,0.912-0.932,1.729-0.962,2.87c-0.119,4.336-3.518,7.745-7.857,8.113c-0.173,0.017-0.343,0.055-0.588,0.094
		c-0.55,4.282-2.453,6.394-5.979,6.74c-2.812,0.277-5.745-1.631-6.66-4.332C47.063,24.721,48.383,22.168,51.835,20.104z"/>
	<path fill-rule="evenodd" clip-rule="evenodd" d="M484.707,50.519c7.347,0.005,14.692,0.003,22.039,0.003
		c7.479-0.003,14.96,0.009,22.439-0.008c2.443-0.006,4.035-1.344,4.153-3.586c0.104-1.953,0.108-3.92-0.001-5.874
		c-0.137-2.433-1.946-3.828-4.36-3.538c-0.708,0.084-1.42,0.121-2.128,0.191c-13.507,1.328-27.011,2.667-40.521,3.979
		c-4.612,0.448-4.978,0.813-4.957,5.473C481.384,49.744,482.142,50.518,484.707,50.519z"/>
	<path fill-rule="evenodd" clip-rule="evenodd" d="M24.833,12.224c-1.11-0.755-1.725-0.487-2.345,0.673
		c3.855,4.32,8.218,8.053,12.948,11.459c0.508-0.629,0.922-1.142,1.421-1.76C33.116,18.654,29.194,15.194,24.833,12.224z"/>
	<path fill-rule="evenodd" clip-rule="evenodd" d="M18.851,45.786c0.191,0.245,0.386,0.487,0.624,0.787
		c4.206-2.304,7.847-5.124,11.229-8.356c-0.341-0.469-0.571-0.784-0.858-1.179c-4.312,2.064-8.019,4.868-11.371,8.234
		C18.645,45.507,18.745,45.648,18.851,45.786z"/>
	<path fill-rule="evenodd" clip-rule="evenodd" d="M133.937,94.651c-1.097,1.288-2.298,2.493-3.312,3.842
		c-4.064,5.409-9.496,8.737-15.882,10.688c-0.79,0.242-1.265,0.188-1.761-0.541c-1.833-2.68-3.749-5.304-5.602-7.971
		c-1.509-2.172-1.714-2.273-4.234-1.526c-0.595,0.178-1.187,0.384-1.753,0.636c-3.491,1.555-6.971,3.134-10.462,4.686
		c-0.891,0.396-1.785,0.821-2.723,1.064c-2.598,0.672-5.025-0.238-7.4-1.08c-1.337-0.473-2.357-0.234-3.453,0.77
		c3.165,1.287,6.366,2.426,9.587,3.506c1.565,0.523,3.051,0.232,4.486-0.585c1.543-0.881,3.113-1.724,4.72-2.483
		c1.802-0.85,3.633-1.662,5.507-2.333c0.586-0.209,1.51-0.144,2.012,0.194c2.179,1.464,3.874,3.388,4.869,5.863
		c0.428,1.063,0.117,1.745-1.03,1.936c-1.884,0.314-3.766,0.744-5.663,0.844c-2.727,0.144-5.467,0.037-8.082,0.037
		c1.402,2.109,1.85,2.39,4.346,2.403c3.426,0.021,6.854,0.073,10.279-0.027c1.354-0.038,2.768-0.259,4.033-0.727
		c5.001-1.848,9.946-3.842,14.931-5.736c0.58-0.221,1.295-0.3,1.903-0.193c2.934,0.514,5.849,1.121,8.775,1.674
		c0.378,0.073,0.803,0.118,1.162,0.019c3.983-1.107,7.288-3.202,9.629-6.68c-0.855-1.086-1.628-1.019-2.636-0.111
		c-2.082,1.871-4.485,3.218-7.301,3.638c-2.97,0.444-5.693-0.117-8.05-2.03c1.659-2.31,3.248-4.509,4.822-6.719
		c1.551-2.177,3.557-3.572,6.297-3.77c1.375-0.1,2.77-0.475,4.111-0.325c2.178,0.242,3.256-0.858,4.199-3.003
		c-3.518,0.227-6.791,0.457-10.068,0.646C137.565,91.407,135.587,92.711,133.937,94.651z"/>
	<path fill-rule="evenodd" clip-rule="evenodd" d="M102.915,83.475c-0.462-0.838-0.857-1.559-1.166-2.119
		c-4.624,0.994-9.078,2.019-13.562,2.891c-3.099,0.603-6.121,0.111-8.963-1.274c-1.61-0.786-2.234-2.171-1.424-3.48
		c0.449-0.724,1.314-1.452,2.118-1.641c1.977-0.464,4.029-0.85,6.045-0.825c1.861,0.021,3.024-0.625,3.895-2.386
		c-2.85-0.507-5.582-0.6-8.325-0.218c-3.259,0.453-6.055,1.736-7.979,4.542c-0.584,0.852-1.328,0.952-2.33,0.751
		c-1.598-0.321-3.243-0.398-4.859-0.641c-1.473-0.22-2.978-0.381-4.385-0.829c-1.255-0.397-2.399-1.148-3.587-1.755
		c-4.055-2.068-7.353-1.563-10.718,1.673c0.68,0.761,1.355,1.019,2.433,0.593c3.477-1.377,6.533-0.547,9.151,2.061
		c1.013,1.01,1.061,1.783-0.095,2.678c-1.363,1.055-2.822,2.003-4.322,2.854c-0.662,0.376-1.629,0.727-2.277,0.522
		c-1.869-0.592-2.931,0.643-4.626,1.639c1.177,0.301,1.996,0.617,2.839,0.702c3.081,0.308,5.894-0.631,8.555-2.073
		c1.837-0.993,3.602-2.123,5.452-3.088c2.757-1.438,5.571-1.678,8.441-0.221c1.465,0.744,2.977,1.4,4.491,2.04
		c2.475,1.042,5.021,1.851,7.749,1.714C91.484,87.284,97.117,85.36,102.915,83.475z"/>
	<path fill-rule="evenodd" clip-rule="evenodd" d="M104.413,90.969c2.205,0.134,3.756,0.991,4.864,2.93
		c1.104,1.93,2.64,2.467,4.785,1.836c1.102-0.322,2.18-0.775,3.212-1.283c4.383-2.157,8.746-4.355,13.115-6.541
		c-0.83,2.408-1.823,4.616-3.785,6.127c-2.501,1.928-5.06,3.781-7.628,5.618c-1.182,0.844-2.443,1.573-3.703,2.376
		c0.195,0.364,0.328,0.641,0.487,0.901c0.153,0.255,0.334,0.493,0.706,1.034c4.272-2.646,8.53-5.21,12.712-7.891
		c4.407-2.826,5.459-7.523,6.64-12.012c-1.177-1.18-2.229-0.965-3.488-0.38c-5.241,2.431-10.515,4.795-15.813,7.101
		c-2.611,1.137-4.47,0.549-6.153-1.759c-0.541-0.742-0.968-1.569-1.334-2.172c-8.364,0.814-16.271,2.8-23.881,6.687
		c0.747,0.346,1.297,0.528,1.77,0.83c1.087,0.693,1.981,0.543,3.137-0.09C94.508,91.837,99.283,90.658,104.413,90.969z"/>
	<path fill-rule="evenodd" clip-rule="evenodd" d="M92.848,79.358c3.135-2.094,6.629-2.814,10.432-2.324
		c3.525,0.454,7.083,0.788,10.633,0.882c4.397,0.117,8.255-1.772,12.118-3.717c-0.257-0.922-0.479-1.717-0.719-2.57
		c-0.542,0.222-0.985,0.42-1.441,0.586c-3.399,1.243-6.847,2.501-10.521,1.625c-4.677-1.115-9.349-1.115-14.046-0.389
		c-4.239,0.657-7.582,2.84-10.266,6.231C90.505,80.405,91.584,80.201,92.848,79.358z"/>
	<path fill-rule="evenodd" clip-rule="evenodd" d="M118.943,81.14c-2.125,0.335-4.332,0.152-6.505,0.178
		c-1.313,0.014-2.625,0.003-4.098,0.003c0.211,0.791,0.258,1.404,0.536,1.885c0.268,0.459,0.744,1.067,1.181,1.113
		c2.691,0.28,5.399,0.604,8.096,0.558c3.268-0.057,6.389-0.989,8.796-3.313c1.957-1.889,4.168-2.236,6.642-1.777
		c1.239,0.231,2.445,0.639,3.67,0.969c0.461-2.547,0.425-2.612-1.896-3.303c-0.512-0.152-1.022-0.309-1.544-0.418
		c-3.889-0.814-7.531-0.826-10.71,2.232C122.068,80.271,120.41,80.908,118.943,81.14z"/>
	<path fill-rule="evenodd" clip-rule="evenodd" d="M78.788,62.484c0.81-0.9,1.341-2.087,1.849-3.213
		c0.416-0.919,0.391-1.944-0.794-2.298c-1.099-0.329-1.654,0.367-2.081,1.354c-0.667,1.539-1.361,3.097-2.288,4.485
		c-1.056,1.581-2.379,2.982-3.765,4.681c0.271,0.28,0.566,0.585,1.066,1.102C74.885,66.474,76.923,64.558,78.788,62.484z"/>
	<path fill-rule="evenodd" clip-rule="evenodd" d="M96.836,19.136c1.11-0.03,1.977-0.966,1.936-2.094
		c-0.042-1.146-0.936-1.95-2.101-1.89c-1.063,0.054-1.918,0.946-1.906,1.988C94.776,18.215,95.763,19.164,96.836,19.136z"/>
	<path fill-rule="evenodd" clip-rule="evenodd" d="M92.187,44.336c1.084,0.041,1.968-0.77,2.02-1.852
		c0.055-1.135-0.822-2.083-1.933-2.091c-1.049-0.006-1.95,0.881-1.973,1.94C90.279,43.414,91.109,44.296,92.187,44.336z"/>
	<path fill-rule="evenodd" clip-rule="evenodd" d="M128.999,18.627c-1.337,0.01-2.363,1.044-2.353,2.372
		c0.012,1.31,1.086,2.372,2.39,2.36c1.31-0.01,2.348-1.073,2.339-2.396C131.365,19.619,130.348,18.618,128.999,18.627z"/>
	<path fill-rule="evenodd" clip-rule="evenodd" d="M65.449,11.243c-0.487-0.318-0.841-0.55-1.476-0.964
		c-3.316,4.225-6.595,8.396-9.912,12.621c0.678,0.521,1.061,0.814,1.516,1.163C59.762,20.469,62.949,16.174,65.449,11.243z"/>
</g>
</svg>
