<?xml version="1.0" encoding="utf-8"?>
<!-- Generator: Adobe Illustrator 16.0.0, SVG Export Plug-In . SVG Version: 6.00 Build 0)  -->
<!DOCTYPE svg PUBLIC "-//W3C//DTD SVG 1.1//EN" "http://www.w3.org/Graphics/SVG/1.1/DTD/svg11.dtd">
<svg version="1.1" id="Layer_1" xmlns="http://www.w3.org/2000/svg" xmlns:xlink="http://www.w3.org/1999/xlink" x="0px" y="0px"
	 width="111px" height="32px" viewBox="0 0 111 32" enable-background="new 0 0 111 32" xml:space="preserve">
<path fill="#4D4D4D" d="M83.496,0.264L83.46,22.257l-0.007,0.177l-4.615-0.013c0.027-0.256-0.002-0.308,0.002-0.49V0.035
	l0.297-0.002c1.425,0.046,2.933,0,4.357,0L83.496,0.264z"/>
<path fill="#4D4D4D" d="M30.276,0.145c0,0,0.089,21.617,0.037,21.983c-1.3-0.031-3.053,0.056-4.648,0.019l-0.027-0.058L25.63,0.009
	C27.039,0.026,28.781,0.022,30.272,0L30.276,0.145z"/>
<path fill="#4D4D4D" d="M108.449,5.754c0.96,1.782,1.832,3.584,2.551,5.453c-1.466,4.288-4.214,9.312-8.75,10.753
	c-1.432,0.412-3.129,0.379-4.564,0.38l-11.213,0.012l0.004-0.214L86.469,0.014L86.7,0.017l12.954-0.004
	C103.45-0.18,106.523,2.536,108.449,5.754z M99.868,4.929c-2.984,0.004-5.852,0.015-8.704,0.015l0.008,12.343l0.014,0.221
	l7.358-0.004l1.845-0.251c2.836-0.597,4.35-3.691,5.612-6.056c-0.571-1.316-1.3-2.544-2.181-3.728
	C102.723,6.145,101.398,5.252,99.868,4.929z"/>
<path fill="#4D4D4D" d="M75.844,0.417c0.023,1.445-0.016,3.015-0.015,4.437l-0.38,0.006L64.688,4.847
	c-3.438-0.192-5.577,3.65-7.083,6.217c0.588,1.638,1.643,3.077,2.85,4.449c1.017,0.956,2.08,1.73,3.436,1.889l7.425,0.013
	c0.006-0.085-0.032-0.024,0.01-0.243l-0.013-3.635l-0.108-0.008l-4.011,0.024c-0.016-1.475,0.046-3.229,0.025-4.812l-0.01-0.135
	l8.516-0.003l0.13-0.004v13.628l-0.001,0.084l-12.643-0.006c-3.35-0.169-6.123-2.832-7.988-5.66l-0.131-0.002
	c-1.952,3.02-4.907,5.815-8.5,5.615l-13.374-0.014L33.23,0.606c0.022-0.055,0.003-0.301-0.009-0.549l13.694,0.012
	c3.507,0.033,6.404,2.763,8.157,5.841c0.939-1.292,2.036-2.834,3.366-3.823c2.22-1.959,5.16-2.142,8.161-2.048l9.229-0.011
	C75.797,0.388,75.847,0.256,75.844,0.417z M46.646,4.949c-2.848-0.137-5.742-0.04-8.613-0.063L37.856,4.89l-0.003,12.327
	l0.019,0.186l7.628,0.006c3.546,0.309,5.815-3.462,7.127-6.239c-0.375-1.359-1.301-2.475-2.183-3.613
	C49.388,6.324,48.177,5.158,46.646,4.949z"/>
<path fill="#4D4D4D" d="M20.193,1.637c1.975,1.385,3.237,3.538,3.928,5.705c-0.613,2.948-3.243,5.957-6.083,6.783
	c0.388,0.419,0.998,0.727,1.43,1.146c1.9,1.956,3.442,4.35,3.975,6.926v0.029l-5.292,0.008c-0.484-2.897-3.018-5.771-5.634-6.73
	c-2.455-1.058-4.856-0.82-7.696-0.857l-0.188,0.021l0.005,7.499c-1.454,0-3.088,0.043-4.543-0.003L0.093,0.146l0.012-0.114
	l13.996-0.006C16.432,0.045,18.459,0.325,20.193,1.637z M4.75,9.923l9.941-0.008c1.341,0.067,2.536-0.275,3.493-1.224
	c0.358-0.522,1.068-1.083,0.684-1.777c-1.008-1.53-2.644-2.061-4.31-2.064L4.703,4.842C4.689,6.668,4.74,8.216,4.715,9.915
	L4.75,9.923z"/>
<path fill="#4D4D4D" d="M110.463,32v-4.93H0V32H110.463z"/>
<path fill="#4D4D4D" d="M109.354,20.256c0.176,0,0.348,0.047,0.517,0.142c0.167,0.095,0.298,0.23,0.392,0.406
	s0.141,0.359,0.141,0.552c0,0.189-0.047,0.371-0.139,0.545s-0.222,0.311-0.388,0.406c-0.167,0.098-0.341,0.145-0.522,0.145
	c-0.183,0-0.356-0.047-0.522-0.145c-0.167-0.096-0.296-0.232-0.39-0.406c-0.092-0.174-0.139-0.355-0.139-0.545
	c0-0.192,0.047-0.376,0.143-0.552c0.093-0.176,0.224-0.312,0.392-0.406C109.005,20.304,109.178,20.256,109.354,20.256z
	 M109.354,20.438c-0.147,0-0.291,0.04-0.431,0.119c-0.14,0.078-0.249,0.191-0.327,0.338c-0.08,0.146-0.119,0.301-0.119,0.46
	c0,0.157,0.039,0.31,0.117,0.454c0.076,0.146,0.186,0.258,0.324,0.34c0.139,0.081,0.284,0.121,0.436,0.121s0.297-0.04,0.437-0.121
	c0.138-0.082,0.246-0.194,0.323-0.34c0.076-0.145,0.115-0.297,0.115-0.454c0-0.16-0.039-0.313-0.117-0.46s-0.188-0.26-0.327-0.338
	C109.645,20.477,109.499,20.438,109.354,20.438z M108.893,21.961V20.78h0.389c0.133,0,0.229,0.011,0.289,0.032
	c0.059,0.021,0.104,0.061,0.14,0.115s0.054,0.111,0.054,0.172c0,0.088-0.029,0.162-0.089,0.226
	c-0.058,0.063-0.137,0.101-0.235,0.108c0.041,0.018,0.074,0.039,0.098,0.063c0.045,0.047,0.102,0.125,0.166,0.234l0.138,0.23h-0.223
	l-0.101-0.186c-0.078-0.146-0.141-0.238-0.19-0.275c-0.033-0.027-0.081-0.041-0.146-0.041h-0.106v0.502H108.893z M109.075,21.297
	h0.221c0.106,0,0.179-0.016,0.216-0.049c0.038-0.033,0.059-0.076,0.059-0.131c0-0.036-0.01-0.066-0.027-0.094
	c-0.02-0.028-0.045-0.049-0.078-0.063s-0.094-0.021-0.183-0.021h-0.207V21.297z"/>
</svg>
