<?xml version="1.0" encoding="utf-8"?>
<!-- Generator: Adobe Illustrator 16.0.0, SVG Export Plug-In . SVG Version: 6.00 Build 0)  -->
<!DOCTYPE svg PUBLIC "-//W3C//DTD SVG 1.1//EN" "http://www.w3.org/Graphics/SVG/1.1/DTD/svg11.dtd">
<svg version="1.1" id="Layer_1" xmlns="http://www.w3.org/2000/svg" xmlns:xlink="http://www.w3.org/1999/xlink" x="0px" y="0px"
	 width="150px" height="31px" viewBox="0 0 150 31" enable-background="new 0 0 150 31" xml:space="preserve">
<path fill="#4D4D4D" d="M47.494,6.05v12.329h6.505c-0.079,0.281-0.82,2.909-0.867,3.076H42.752V6.05H47.494z"/>
<path fill="#4D4D4D" d="M94.633,6.05c0.023,0.218,1.675,15.135,1.703,15.405h-4.445c-0.007-0.234-0.279-7.405-0.279-7.405
	c-0.081-1.107-0.229-2.082-0.229-3.745l-0.111-0.018c-0.037,0.68-0.574,2.855-0.881,3.832c0,0-2.021,6.476-2.289,7.335h-3.924
	c-0.051-0.181-1.98-7.064-1.98-7.064c-0.291-1.048-0.828-2.944-0.883-3.995l-0.102,0.012c0,1.647-0.09,2.644-0.176,3.804
	c0,0.006-0.168,6.32-0.193,7.243h-4.606c0.032-0.274,1.788-15.187,1.812-15.405h5.719c0.054,0.176,1.729,5.775,1.729,5.775
	c0.293,0.954,0.682,2.399,0.771,3.279l0.145,0.002c0.168-0.945,0.477-2.022,0.83-3.261c-0.002,0.002,1.628-5.079,1.859-5.795H94.633
	z"/>
<path fill="#4D4D4D" d="M99.074,14.145c0-5.16,3.27-8.364,8.535-8.364c7.568,0,8.156,5.644,8.156,7.375
	c0,5.685-2.801,8.566-8.317,8.566C102.204,21.723,99.074,18.891,99.074,14.145z M104.232,13.696c0,3.677,0.922,5.108,3.295,5.108
	c2.303,0,3.076-1.301,3.076-5.154c0-3.721-0.791-4.977-3.131-4.977C105.352,8.675,104.232,10.412,104.232,13.696z"/>
<path fill="#4D4D4D" d="M126.708,17.109c0-0.801-0.661-1.111-1.877-1.402l-2.087-0.472c-2.879-0.681-4.221-2.083-4.221-4.414
	c0-2.969,2.768-5.04,6.735-5.04c2.354,0,4.578,0.525,6.138,1.44c-0.158,0.203-1.922,2.504-2.035,2.655
	c-1.154-0.648-2.688-1.067-3.951-1.067c-1.174,0-1.932,0.489-1.932,1.248c0,0.692,0.613,1.179,1.826,1.446l1.805,0.405
	c2.363,0.529,4.553,1.404,4.553,4.212c0,3.508-2.854,5.602-7.626,5.602c-2.323,0-4.347-0.436-6.354-1.355
	c0.109-0.213,1.383-2.711,1.483-2.912c1.207,0.598,3.092,1.217,4.922,1.217C126.251,18.672,126.708,17.822,126.708,17.109z"/>
<path fill="#4D4D4D" d="M67.757,6.05c0.063,0.161,5.613,15.077,5.734,15.405h-5.083c-0.051-0.162-0.859-2.607-0.859-2.607h-5.021
	c0,0-0.85,2.447-0.902,2.607h-4.915c0.133-0.332,6.025-15.249,6.085-15.405H67.757z M64.393,12.851c0,0.003-1.062,3.746-1.062,3.746
	h3.479l-1.119-4.089c-0.238-0.859-0.504-1.957-0.511-2.597l-0.079-0.006C65.085,10.541,64.799,11.567,64.393,12.851z"/>
<path fill="#4D4D4D" d="M144.268,6.05c0.063,0.161,5.613,15.077,5.732,15.405h-5.078c-0.056-0.162-0.863-2.607-0.863-2.607h-5.02
	c0,0-0.848,2.447-0.902,2.607h-4.914c0.129-0.332,6.024-15.249,6.086-15.405H144.268z M140.904,12.851
	c-0.002,0.003-1.062,3.746-1.062,3.746h3.478l-1.117-4.089c-0.238-0.859-0.505-1.957-0.514-2.597l-0.076-0.006
	C141.594,10.541,141.311,11.567,140.904,12.851z"/>
<path fill="#4D4D4D" d="M1.485,5.038C1.413,5.074,1.343,5.111,1.278,5.15C1.2,5.195,1.123,5.242,1.056,5.292
	C1.018,5.319,0.983,5.349,0.947,5.377C0.226,5.967,0.007,6.799,0,7.211l0.028,9.745l6.4-3.637V6.201c0,0-0.006-0.009-0.009-0.014
	C5.926,5.92,5.613,5.749,5.611,5.749C3.707,4.696,2.705,4.437,1.485,5.038z"/>
<path fill="#4D4D4D" d="M1.258,4.479L1.46,4.611L1.342,4.787L1.139,4.654L1.258,4.479z"/>
<path fill="#4D4D4D" d="M11.203,1.78C10.423,1.307,9.7,1.071,8.981,1.071c-0.668,0-1.331,0.204-2.037,0.609L1.408,4.577
	c0.067-0.03,0.153-0.064,0.247-0.097C1.664,4.477,1.673,4.474,1.683,4.47c0.083-0.028,0.174-0.055,0.275-0.08
	c0.465-0.126,0.928-0.134,1.436-0.029C3.516,4.384,3.638,4.413,3.766,4.45C3.781,4.455,3.8,4.462,3.819,4.467
	c0.129,0.041,0.265,0.089,0.403,0.148c0.477,0.186,1.001,0.44,1.613,0.779l7.367,4.07l5.848-3.323L11.203,1.78z"/>
<path fill="#4D4D4D" d="M30.636,7.206c0.004-0.081,0.007-0.159,0.005-0.234c-0.001-0.089-0.003-0.177-0.015-0.259
	c-0.003-0.047-0.015-0.089-0.02-0.135c-0.159-0.906-0.786-1.509-1.146-1.723L20.85,0l0.003,7.257l6.283,3.563
	c0,0,0.01-0.001,0.015-0.002c0.484-0.283,0.79-0.463,0.792-0.465C29.825,9.262,30.555,8.541,30.636,7.206z"/>
<path fill="#4D4D4D" d="M31.193,7.323l-0.109,0.052l-0.1-0.199l0.108-0.052L31.193,7.323z"/>
<path fill="#4D4D4D" d="M30.866,13.522l0.216-6.15c-0.007,0.072-0.022,0.161-0.039,0.257c-0.002,0.009-0.004,0.019-0.005,0.029
	C31.019,7.741,31,7.832,30.971,7.931c-0.121,0.458-0.344,0.855-0.692,1.234c-0.082,0.09-0.167,0.182-0.265,0.271
	c-0.015,0.013-0.027,0.024-0.042,0.037c-0.1,0.09-0.21,0.181-0.333,0.269c-0.404,0.312-0.889,0.629-1.494,0.98l-7.279,4.217
	l0.003,6.63l7.777-4.48C30.202,16.267,30.874,15.188,30.866,13.522z"/>
<path fill="#4D4D4D" d="M14.23,30.543c0.069,0.044,0.136,0.087,0.203,0.122c0.079,0.045,0.157,0.087,0.234,0.121
	c0.045,0.018,0.086,0.033,0.131,0.05c0.877,0.324,1.723,0.1,2.092-0.098l8.626-4.831l-6.382-3.667l-6.311,3.511
	c0,0-0.004,0.01-0.008,0.016c0.006,0.552,0.011,0.901,0.011,0.906C12.835,28.816,13.099,29.8,14.23,30.543z"/>
<path fill="#4D4D4D" d="M13.85,30.965l0.011-0.143l0.217,0.016l-0.011,0.143L13.85,30.965z"/>
<path fill="#4D4D4D" d="M13.653,30.672c-0.008-0.004-0.016-0.011-0.022-0.018c-0.065-0.057-0.133-0.121-0.205-0.195
	c-0.342-0.333-0.58-0.725-0.733-1.211c-0.041-0.115-0.074-0.234-0.105-0.36c-0.005-0.019-0.009-0.035-0.013-0.054
	c-0.027-0.132-0.051-0.271-0.066-0.418c-0.07-0.5-0.104-1.072-0.108-1.76l-0.022-8.295L6.545,15.01l0.004,8.848
	c-0.067,1.732,0.543,2.849,2.013,3.683l5.297,3.296C13.8,30.795,13.729,30.738,13.653,30.672z"/>
</svg>
