<svg width="18" height="30" viewBox="0 0 18 30" fill="none" xmlns="http://www.w3.org/2000/svg">
<path d="M8.44105 7C9.23362 7 9.8821 6.34602 9.8821 5.54671C9.8821 4.09343 11.059 2.90657 12.5 2.90657H16.559C17.3515 2.90657 18 2.2526 18 1.45329C18 0.653979 17.3515 0 16.559 0H12.5C9.4738 0 7 2.49481 7 5.54671C7 6.37024 7.64847 7 8.44105 7Z" fill="white"/>
<path d="M15.6104 11H1.38965C0.625341 11 0 11.6397 0 12.4214C0 13.2032 0.625341 13.8429 1.38965 13.8429H6.6703V28.5786C6.6703 29.3603 7.29564 30 8.05995 30C8.82425 30 9.44959 29.3603 9.44959 28.5786V13.8429H15.6104C16.3747 13.8429 17 13.2032 17 12.4214C17 11.6397 16.3747 11 15.6104 11Z" fill="white"/>
</svg>
