<svg width="35" height="30" viewBox="0 0 35 30" fill="none" xmlns="http://www.w3.org/2000/svg">
<path d="M34.6456 15.8687L18.7215 0.347345C18.2529 -0.102622 17.4794 -0.122137 17.011 0.328176L0.374127 15.8491C0.00776804 16.1817 -0.0943777 16.6907 0.0891612 17.1407C0.272341 17.5909 0.720183 17.8648 1.20899 17.8648H4.05991V28.8255C4.05991 29.4714 4.6098 30 5.28188 30H13.6309C14.3025 30 14.8524 29.4714 14.8524 28.8255V20.8007H19.9433V28.8255C19.9433 29.4714 20.4929 30 21.165 30H29.1068C29.7789 30 30.3284 29.4714 30.3284 28.8255V24.0567C30.3348 24.0282 30.3386 23.9987 30.3386 23.9684V23.1692C30.3386 22.9371 30.1411 22.7473 29.8997 22.7473H28.3239C28.0825 22.7473 27.885 22.9371 27.885 23.1692V23.4007V23.9684V27.6513H22.3869V19.6266C22.3869 18.9806 21.837 18.4521 21.165 18.4521H13.631C12.9589 18.4521 12.409 18.9806 12.409 19.6266V27.6513H6.5035V16.6907C6.5035 16.0447 5.9536 15.5162 5.28188 15.5162H4.22278L17.8255 2.83326L30.8579 15.5162H29.1068C28.4348 15.5162 27.8849 16.0447 27.8849 16.6907V19.6848V20.484V20.6375H27.9162C27.9805 20.794 28.1388 20.9059 28.3238 20.9059H29.8996C30.0846 20.9059 30.243 20.7939 30.3072 20.6375H30.3283V20.5724C30.3347 20.5438 30.3385 20.5143 30.3385 20.484V19.6848C30.3385 19.6545 30.3348 19.625 30.3283 19.5964V17.8648H33.7902C34.279 17.8648 34.7269 17.5714 34.9101 17.1407C35.0937 16.7102 34.9915 16.2013 34.6456 15.8687Z" fill="white"/>
</svg>
