<svg width="19" height="34" viewBox="0 0 19 34" fill="none" xmlns="http://www.w3.org/2000/svg">
<path d="M16.5384 0H2.46162C1.10507 0 0 1.12058 0 2.49546V31.5045C0 32.8794 1.10507 34 2.46162 34H16.5384C17.8977 34 19 32.8794 19 31.5045V17.1424V17V16.8576C19 16.7492 18.9127 16.6607 18.8058 16.6607H18.0779C17.9711 16.6607 17.8837 16.7492 17.8837 16.8576V17V17.1424V26.0674H1.11904V4.53192H17.8837V11.2498V11.4219V11.5345C17.8837 11.6429 17.9711 11.7314 18.0779 11.7314H18.8058C18.9127 11.7314 19 11.6429 19 11.5345V11.4219V11.2498V2.49546C19 1.12058 17.8977 0 16.5384 0Z" fill="white"/>
</svg>
