<svg width="45" height="46" viewBox="0 0 45 46" fill="none" xmlns="http://www.w3.org/2000/svg">
<path d="M38.7502 29.3206V39.825H6.24402V29.3206H0V42.9134C0 44.6206 1.39467 45.9999 3.1288 45.9999H41.8712C43.5995 45.9999 45 44.6206 45 42.9134V29.3206H38.7502Z" fill="white"/>
<path d="M21.9288 28.2791L12.9866 17.5867C12.9866 17.5867 11.623 16.3187 13.1011 16.3187H18.1405V0.755797C18.1405 0.755797 17.9349 0 19.0948 0H26.1865C27.0206 0 27.0051 0.636864 27.0051 0.636864V15.9964H31.6566C33.445 15.9964 32.0969 17.3239 32.0969 17.3239C32.0969 17.3239 24.4893 27.3199 23.4205 28.3692C22.6562 29.125 21.9288 28.2791 21.9288 28.2791Z" fill="white"/>
</svg>
