<?xml version="1.0" encoding="utf-8"?>
<!-- Generator: Adobe Illustrator 16.0.0, SVG Export Plug-In . SVG Version: 6.00 Build 0)  -->
<!DOCTYPE svg PUBLIC "-//W3C//DTD SVG 1.1//EN" "http://www.w3.org/Graphics/SVG/1.1/DTD/svg11.dtd">
<svg version="1.1" id="Layer_1" xmlns="http://www.w3.org/2000/svg" xmlns:xlink="http://www.w3.org/1999/xlink" x="0px" y="0px"
	 width="792px" height="612px" viewBox="0 0 792 612" enable-background="new 0 0 792 612" xml:space="preserve">
<path fill-rule="evenodd" clip-rule="evenodd" d="M440.372,15.921c-0.328,2.637-2.31,3.296-5.273,1.648l-2.969-0.989
	c-0.659-0.33-1.318,0.33-0.987,1.65l1.319,0.987c0.327,0.329,0,1.318-0.991,2.309l-4.946-3.957l-0.987,0.989l-2.636-1.648
	l0.986,1.32c-0.332,1.647-1.649,1.976-3.627,0.987l-5.274-0.33c-0.331-1.978-0.331-3.628,0-5.276
	c0.659-1.647,1.318-2.636,2.638-2.966l1.649,1.318l-2.31,4.287l3.628-3.625l0.659,0.659c-0.327-1.979,0-2.969,0.987-3.298
	l1.317,0.989c-0.654-0.989-0.654-1.978,0-3.298c0.332-0.329-0.326-0.986-1.646-0.986c-0.659,1.648-1.978,2.307-3.296,2.307h-3.628
	c-3.296-0.659-4.945,0.659-5.273,3.296l-5.277,0.991l-5.273-0.659c-1.318,0.659-5.935,2.308-13.849,4.614
	c-5.933,1.648-9.89,3.625-11.54,6.263l-0.987-1.319l-2.309,3.957l-2.306-1.977l0.987-1.319l-1.318,0.987l-0.989-0.987l-1.978,3.954
	c-2.639-1.317-4.946-1.646-7.584-0.987c-3.296,0.987-5.604,1.318-7.251,1.318c0,2.639-0.332,4.287-1.318,4.614l-5.938-0.986
	c-0.987,0.659-1.646,1.979-2.305,4.614c-0.991-0.989-1.321-1.648-1.321-2.306c-2.966,0.328-5.935,1.317-8.9,3.296
	c-2.967,1.978-5.935,2.966-9.233,3.296c-1.648,1.32-5.274,3.298-10.879,5.935c-4.285,1.648-7.255,4.286-9.561,6.924l-1.318-2.309
	l-2.969,5.937c-0.989-0.331-1.318-0.99-0.989-1.979c-0.66,0-2.307,0.33-4.946,1.979l-3.957,2.305l-6.922,2.311l0.328,2.965
	c0.33,1.318,0,1.979-0.658,2.637c-0.991,0-1.318-0.657-1.648-1.976l-0.332-2.638l-1.648,3.957l-1.647-1.319
	c1.318,1.319,1.647,2.967,1.647,4.944c0,1.65-0.329,3.298-1.647,4.616c-3.628,1.319-6.594,0.658-8.242-1.318
	c0.659-1.979,1.648-2.309,2.635-1.648c1.322,0.657,2.311,0.657,2.97-0.332v-0.989c-0.659-0.989-1.647-0.989-3.297-0.989
	l-3.296,4.615c-0.991,2.309-1.648,4.288-1.648,5.275c-0.991-0.33-1.32-1.317-1.65-2.308l-0.33-3.297l-5.275,4.618
	c-2.308,1.978-4.285,3.955-4.944,5.935l1.318,0.987c0-2.308,0.33-3.296,0.659-3.625l1.319,0.988l0.33,4.285
	c0.331,1.648-0.33,2.971-0.66,3.628c-0.989-1.648-2.307-2.966-4.616-3.955c-2.637-0.989-4.285-0.659-5.275,0.658
	c2.309-0.658,2.968-0.331,2.638,1.318v-0.328h0.989c1.648,0.66,2.309,1.978,2.309,3.956v3.957l-7.584-4.614
	c-3.297-1.979-5.933-2.309-8.242-0.991l0.99,1.978l1.318,1.647c0.658,1.319,0.33,2.309-1.318,3.298l-0.99-0.659
	c0,1.318-0.989,1.977-2.307,2.967l-2.31,1.319c-0.986,0.658-1.317,0.989-0.986,1.978l-2.97-0.33l1.979,1.65l-0.33,0.33
	c21.1,1.976,42.86,5.933,65.278,11.866c21.102,5.605,44.509,13.52,70.224,23.739c28.685,11.21,43.521,17.145,45.167,17.803
	l43.19,17.146c24.726,9.558,47.146,17.471,67.258,23.076c17.802,4.946,34.949,8.574,51.76,10.879l-0.327,0.991l17.471,1.65
	l0.66-0.33l11.21,0.657l1.318,0.33c24.397,1.318,47.806-0.658,69.566-5.276l-1.981-7.251l-1.318-3.296
	c-3.296-10.882-9.561-22.42-18.13-33.96c-4.618-5.603-13.191-15.165-25.72-29.342l-3.625-0.658l-1.649-2.638
	c-1.646-2.308-3.955-5.276-7.583-8.574c-4.946-4.614-8.241-7.913-9.891-9.89l-0.656,1.32l-5.605-6.594l-0.663,1.648
	c0-2.308-0.985-3.296-3.295-3.296c-2.306,0-3.956-0.33-4.287-1.979c1.318-1.319,1.318-2.308,0-2.637
	c-1.646-0.662-2.31-0.991-2.965-1.321c0.327,0.659,0,1.321-0.991,1.979c-1.317-0.99-2.305-3.297-2.967-6.596
	c-0.328-2.635-1.646-4.283-3.956-4.283l-0.659,2.635c-2.31,0.661-3.297,0-3.297-1.648v-1.648c0-0.33-0.331-0.33-0.659,0l-0.99,1.318
	l-7.91-8.242l-0.991,0.989c-0.659-1.319-1.649-1.978-3.624-1.648c-1.648,0-2.64-0.989-2.968-3.296l-0.658,1.317l-5.278-4.287
	c0.331,0.661,0.331,1.649-0.659,2.309l-1.318,1.648l-1.317-0.987l-0.333-2.641c0-0.987,0.333-1.647,0.991-2.305l-1.978,0.328
	c0.328,0.99,0.328,1.977-0.332,3.297l-1.317,2.637c-2.965,0.332-5.934-1.646-7.583-5.935h-1.319l-3.626,0.661l-0.66,0.329
	l3.299,1.648c0,1.318,0.656,1.979,1.319,2.637l2.965,0.659c2.968,0.332,3.959,2.309,3.628,5.937c0.659,0.33,1.649-0.332,3.295-1.65
	h3.628l-0.987,2.309l-1.322-0.991c1.322,1.32,0.991,2.638-1.318,3.296l-1.317,0.332h1.978l1.317,0.991l-5.272,5.271
	c-0.987,0.991-2.638,0.991-4.615,0l-4.945-2.636l0.331,2.636c0.328,0.991,0,1.98-1.321,2.31c-1.975-0.989-3.297-2.31-3.625-4.614
	V90.1c-0.662-0.33-1.649-0.33-2.969,0c-0.658,0.332-1.318,0-1.977-0.659c-1.323,0.659-2.968-0.328-4.618-2.636
	c-2.306-2.967-4.283-4.617-5.602-5.276l0.986-1.648l2.641,1.978l-0.662-5.275h-1.646c-2.31,0.33-3.296,0.661-3.958,1.319
	l-0.328,0.33l-5.938-4.286l2.641,3.298c-0.99-0.332-1.649,0.987-2.968,3.955c-0.659,2.969-1.65,4.287-2.969,3.628
	c-1.978,1.646-3.627,1.316-4.282-1.319l-2.31-5.935l-3.628,0.658l-3.295-0.987l-0.991,2.308l-0.986,1.318
	c-1.979,0.329-3.297,0-3.628-0.989l1.649-3.298c0.656-1.318,0-2.637-1.318-3.297l-2.972,6.266l-1.975-5.606
	c-0.331-1.647-1.65-2.966-3.295-3.297l1.973,3.956c0.991,1.649,0.659,2.97,0,3.957c-3.954-0.33-5.932-2.637-5.272-6.592
	c-1.979,0.33-2.969,0.659-3.297,1.648l-2.641-1.98h-3.623c-1.978-1.648-3.296-1.978-4.618-1.318c0.331,0.661,0,1.318-0.987,2.309
	l-1.318-0.991c0.327-3.626-0.991-4.944-3.627-4.285c-0.328-0.659-0.991-0.659-2.637-0.659c-0.987,0.33-1.65-0.332-1.319-2.308
	l-2.968-0.33l-3.297-0.991c-2.31-0.327-3.958,0.33-5.276,2.639l-3.952-4.287l-0.991,2.638l-3.3-1.318
	c-1.646-0.33-1.977-1.32-1.646-2.968l-1.978,2.638c-1.318,0.33-3.3-0.332-6.265-2.638l-2.636-2.637
	c-0.991,1.316-2.31,1.978-3.628,1.978l-4.287-0.661l-0.659,0.991l-1.979-2.636c0.66,1.646,0,2.966-1.649,4.614l-3.955-4.614
	l0.33,2.636c0.33,0.989,0,1.978-0.659,2.308c-2.31-1.318-3.296-2.967-3.296-5.275l-2.309,0.332c-0.989,0-1.648-0.332-2.308-1.321
	l0.989-1.978c-0.661,0.989-1.648,1.318-2.309,1.318l-1.316-2.637l2.307-0.989l-1.647-1.319l-1.65,3.627
	c-2.307,0-3.296-0.659-3.296-2.308c0.33-2.968,0.33-4.618,0-5.275l-0.661,7.253c-0.33,3.296-0.989,5.273-2.305,6.923l-2.97-4.286
	l-3.954,4.947c-0.661,0.33-1.318-0.331-1.318-1.65v-0.33c-0.661,0.989-1.98,0.659-3.627-0.661c-1.65-0.987-2.309-0.328-2.309,1.32
	l-2.966-3.296c-0.989-1.32-2.309-1.65-3.958-0.661v1.321l3.626-0.332l0.992,1.977l-2.309,1.98l-1.648,1.647
	c-1.32,0.989-2.638,0.332-4.946-1.316l0.989-1.32l-3.625-1.978c-0.991,0.987-1.648,1.648-2.31,1.648
	c-0.987-0.991-1.648-1.648-1.318-2.307l-3.296,0.329c0,0.659-0.329,1.648-0.99,2.637l-4.285-2.966l-4.287-1.98l-0.33-2.637
	c-0.33-0.989,0-1.649,0.659-2.309c1.32,0.99,1.648,1.647,1.648,2.309l2.309-0.33l-0.329-2.307c2.636,0.657,4.946-0.332,6.591-2.641
	c2.31-3.296,4.289-5.273,5.276-5.602l5.275,4.944l2.968-3.625l1.317,1.648l0.332-1.648l1.316-4.945c1.979-0.33,2.968,0,3.627,0.988
	c0.33,1.648,0,2.639-0.659,3.296l1.979-1.319c-1.979-1.978-1.32-3.296,1.316-3.296c2.97,0,4.289-0.661,3.959-1.979l3.955,5.275
	c1.318,1.648,2.969,2.637,4.946,3.298l-4.618-3.298c-0.658-2.637,0-4.616,1.65-5.933l4.946-3.957c0.659,0,1.318,0.986,1.648,2.637
	v0.659v-2.31l1.648-2.635l2.638,3.297c2.308-1.98,3.628-1.319,3.956,1.318l0.329,2.307c0,0.66,0.33,0.332,0.991-0.659l-0.661-4.614
	l1.318-1.648c0.33-0.989,0.991-1.32,1.648-0.989c1.979,0.658,2.641,1.319,2.641,2.967c-0.331,1.319-0.991,2.307-1.979,2.637
	c2.639,1.648,4.284,0.991,4.944-1.98l1.317-6.591c1.65,1.318,2.638,2.636,2.969,4.287l0.331,5.933l3.297-2.966
	c0.987,0.66,1.318,1.318,1.318,2.309c0.328-0.991,0.99-0.661,1.646,1.316c0.663,1.32,0.99,1.65,0.99,0.66l-1.646-3.296
	c1.319-0.988,2.637-1.65,3.296-1.978c0.987,0,1.978,0.327,3.624,1.32l-1.978,2.305l-1.318-0.989
	c0.331,1.978,0.659,2.968,1.649,3.298c0.991-0.989,1.646-1.32,1.978-1.32l-1.318-0.989l3.959-6.264l2.634,2.966
	c0-1.647,0-2.966,0.663-3.295c0.986,0.33,1.646,0.661,1.646,1.978l0.327,2.64l-2.306,0.987c0.987,0.33,1.319,0.989,1.319,1.978
	l0.332,2.639l0.986-1.318l1.978,0.33l0.331,0.329l-0.331-2.968c2.31,0,3.628-1.318,3.959-3.625l0.328-3.296v-2.309
	c0.659,3.297,0.659,5.932,0,7.583l-3.624,4.616l1.314,1.318l4.946,0.33c1.649,0.33,2.637,0,2.637-2.307l4.946,5.275l1.318-1.318
	l1.322-0.33l-0.659-4.288l-1.322-1.319h1.322v1.319l2.633,1.979c0.991,0.33,1.321,0.989,0.991,1.648l-0.328,2.639l1.646-0.33
	c-0.659-0.331-0.987-0.99-0.659-1.648l0.659-2.638c3.296-3.298,7.915-2.31,13.851,1.977c0.987-0.33,1.646-0.33,2.634,0l2.637,1.648
	v1.979c0.332,0.987,0,1.318-0.327,1.648l-1.979,0.33c0.332,0.33,1.65,0.658,3.628,0.33l0.987-2.307
	c1.648,0.33,2.636,1.648,1.981,2.965c-0.333,1.979,0,3.298,0.986,3.959c1.318,0.329,2.965,0,3.955-1.318
	c1.322-1.648,2.31-2.309,3.956-2.309c0.99,0.989,1.322,1.978,1.322,2.637h8.241l-1.978,2.309c1.646,1.318,2.965,1.978,3.628,1.318
	l2.965-2.968c0.658,0.331,1.317,0.988,1.317,1.979l0.331,0.989l2.306-0.33h1.65l-1.979-1.978l4.615-8.571
	c0.659,0.987,1.318,1.318,1.978,1.318c0.332-0.332,1.322-0.332,1.979,0.33c0,0.657,1.648,1.318,4.945,1.318l0.659,0.33l-1.646-4.286
	c0.987,0,2.309,0.99,2.965,3.295l-0.656,0.991c1.975,0.33,2.638,1.319,1.975,3.296l3.628-0.33c0.658-0.33,0.99,0.33,1.317,1.648
	v0.331v-0.99l1.322-1.648c0.327-0.659,0.987-0.989,1.646-0.989l1.649,2.309c0.987,0.987,1.979,1.318,3.956,0.328
	c1.649-0.66,2.636-0.328,2.964,0.99l-0.328-2.967c0-1.322,0.328-2.309,0.991-2.97l2.309,2.31c-0.663,1.318-0.663,2.309-0.663,2.637
	c2.638-0.989,3.628-0.328,3.301,1.647l-0.663,1.979l1.649,0.33l2.31-0.33l2.636-0.659c1.65-0.33,2.969,0.659,3.297,3.626
	l1.981-0.328v-1.32c-5.278-4.945-13.191-10.22-23.411-15.166c-8.9-4.616-17.471-7.915-25.717-10.549
	c-3.955-2.311-8.9-4.616-15.825-5.935c-8.241-1.978-13.515-3.628-15.823-4.286l1.318,0.99l-1.65,2.306
	c-1.318-0.657-1.646-1.647-1.646-2.306c-0.99,1.976-2.306,2.306-3.624,0.987c-1.322-1.319-1.981-1.647-2.308-1.319l-2.969,3.956
	l-2.969-5.272c-0.99-0.332-1.646,0-1.646,1.316c-0.331,0.99-0.663,1.98-1.322,1.98c-0.327-2.968-1.974-4.287-4.614-3.957
	C443.34,18.23,441.031,17.569,440.372,15.921L440.372,15.921z M421.579,28.448l1.65-2.637l-1.65-1.648l-1.318,0.989l-0.987-2.308
	l8.901,1.319v6.594l-2.31-6.264L421.579,28.448L421.579,28.448z M438.394,31.416c-0.659,0-1.318,0.327-1.978,1.32l-1.65-13.849
	L438.394,31.416L438.394,31.416z M443.34,30.757l-1.978-3.298h4.287c1.977,0,2.964-0.988,2.637-2.966
	c1.317,1.978,0.658,3.295-0.99,3.955C444.659,29.438,443.34,30.096,443.34,30.757L443.34,30.757z M405.754,29.108h0.991l-1.65,3.628
	L405.754,29.108L405.754,29.108z M414.655,26.798V26.14l-0.328-2.638c2.306,0.991,3.297,2.638,2.969,4.618l-1.318-2.639
	L414.655,26.798L414.655,26.798z M413.996,28.448v0.991l-2.306-2.641V26.47L413.996,28.448L413.996,28.448z M411.359,25.811
	c-0.66-0.989-0.327-2.309,0.658-2.967C412.018,24.493,412.018,25.481,411.359,25.811L411.359,25.811z M451.909,28.777l2.642-0.33
	l-0.991,3.627L451.909,28.777L451.909,28.777z M460.482,29.108h-1.317l-0.659-3.627h1.65L460.482,29.108L460.482,29.108z
	 M466.088,33.394v-1.978h1.319L466.088,33.394L466.088,33.394z M465.429,36.03l0.332-1.648l1.974,1.648
	c0.663,0.66,0.991,1.65,0.332,2.31l-0.659,1.318C466.088,38.669,465.429,37.351,465.429,36.03L465.429,36.03z M490.814,47.241
	l-2.306-2.966l-1.979,3.627l-0.662-7.914c1.649,0.33,3.296,1.648,4.946,3.957l1.649-1.649c0.328-0.659,0.659-0.987,0.328-1.648
	l4.945,3.957l1.318-1.647l0.991,1.318l-2.969,2.635l0.99,0.992c-0.659,0-1.318,0.328-2.309,1.317l0.327,1.319l-1.645-4.615
	L490.814,47.241L490.814,47.241z M476.308,47.901l-2.306,0.328l1.975-2.637L476.308,47.901L476.308,47.901z M574.887,93.396h2.638
	c0.331,1.979,0,3.298-0.991,3.958c-1.318,0.659-2.306,0.33-2.637-1.318c-0.328-1.978-0.659-2.969-1.318-3.298L574.887,93.396
	L574.887,93.396z M553.785,87.133c0,0.658,0.332,0.989,0.659,1.648l1.65,1.318l-2.965,2.637L553.785,87.133L553.785,87.133z
	 M561.699,103.949l-5.604-2.639l5.604,0.659V103.949L561.699,103.949z M542.247,100.979l0.987-3.625
	c0.33,0.659,1.317,0.659,3.299,0.659L542.247,100.979L542.247,100.979z M564.668,112.191l-1.981,3.296l-4.287-3.296
	c-1.646-1.32-2.638-2.638-2.305-4.618l6.264,6.924L564.668,112.191L564.668,112.191z M571.919,107.245l-0.332-3.625
	c1.981,1.318,1.981,2.305,0.663,3.296L571.919,107.245l0.331,1.976l-1.322-0.987C570.6,108.234,570.928,107.573,571.919,107.245
	L571.919,107.245z M533.674,107.573l0.658-6.922c0.663,0.328,0.991,0.989,0.991,1.976l0.328,2.311L533.674,107.573L533.674,107.573z
	 M567.632,151.425c0-0.661,0-1.32-0.658-1.979l-1.978-1.318c-0.66,1.648-0.66,3.628-0.328,5.933c0.328,1.648,0,2.639-0.991,3.628
	v-2.637l-0.659-2.639c-0.331-1.979,0.328-3.297,1.979-4.285c-1.979-0.661-2.638-1.979-2.31-3.298l0.331-2.309
	c0.659,1.32,1.318,2.639,2.637,3.298l4.286,5.275L567.632,151.425L567.632,151.425z M538.951,131.973l4.613-6.266l-0.99,5.605
	L538.951,131.973L538.951,131.973z M475.977,88.123l-2.306-4.946l3.955,2.966L475.977,88.123L475.977,88.123z M609.832,151.755
	l-0.986-7.255l1.978-0.33l0.99,6.924L609.832,151.755L609.832,151.755z M307.836,65.375l1.32,0.987c1.976,0,2.966-1.976,3.296-5.602
	c0.33-2.968,1.65-3.957,3.627-3.298l-2.307,2.308c-0.991,0.659-0.991,1.648-0.33,2.968c2.637,0.987,4.286,0.327,4.615-2.639
	c0.659-3.955,1.648-5.935,2.639-6.594v1.318c2.967-0.989,5.933-0.989,8.242,0c3.625,1.98,5.933,2.639,7.253,2.968
	c1.977,1.318,2.966,3.298,2.636,4.946l-1.318-1.648c-1.977,0.328-2.309,0.986-1.318,2.305c0.988,1.319,0.659,2.31-0.659,2.639
	l-0.661,1.318l-0.33-1.648c-0.658-1.979-1.978-3.628-3.956-3.957c-0.659,0.329-0.991,1.318-0.991,2.309l0.332,2.637l-1.318-1.318
	c0,1.648-0.661,2.307-1.65,1.978c-0.989,0-1.317,0.33-1.317,1.648v-0.99c-3.957,0-6.594,1.319-7.914,4.617
	c0-0.991-0.328-1.648-1.319-2.309l-1.65,3.958v0.988v-0.661c-0.657-0.987-0.987-1.648-1.317-1.648
	c-2.311,4.288-5.935,7.584-11.54,9.232l-8.242,0.989c0.988-0.989,1.318-2.307,0.659-3.955c-0.659-1.648-0.659-2.969,0.659-4.289
	l1.318,1.32l2.309-3.625c0.987-1.648,0.987-3.298,0.33-4.946c0.657-1.32,1.319-1.648,2.637-1.648l2.967,1.318l2.638,0.33
	C307.836,67.682,308.166,66.693,307.836,65.375L307.836,65.375z M336.521,42.626l1.648,5.604c-1.318,0.33-2.307-0.328-2.636-1.978
	C335.532,44.931,335.861,43.613,336.521,42.626L336.521,42.626z M388.611,28.12l-1.319-0.332
	C387.292,26.798,387.952,26.798,388.611,28.12L388.611,28.12z M355.973,39.328l1.317,0.989c-1.978,0.33-2.966,0.991-3.296,1.319
	l-0.988-2.637v0.329l1.647,1.318L355.973,39.328l-64.621,38.903c0.989,1.32,0.659,2.309-0.33,2.968l2.309,1.978l-4.287,0.661
	l-0.331-0.991c-2.635-0.66-4.944,0-7.253,1.648c-2.306,1.978-3.624,4.618-4.285,7.585l-0.989-0.991
	c-0.988,0.659-1.318,1.32-0.988,2.638l0.329,2.967l-3.297-5.275l-1.646,3.627c-0.988,0-1.65-0.989-1.65-2.637v-3.957
	c0,1.979,0.662,2.967,1.318,3.296c3.628-2.308,5.275-4.615,6.265-6.592l-1.318-0.661l3.627-2.308
	c2.308-1.648,3.955-3.297,4.614-4.614l0.991,0.658l2.306,0.991c2.638,0.659,3.298-0.661,2.638-3.298l1.978,2.308L355.973,39.328
	L355.973,39.328z"/>
<path fill-rule="evenodd" clip-rule="evenodd" fill="#CECECE" d="M403.117,58.449l4.287-5.273l-0.987,0.989l-0.99,1.318
	c-0.991,0.989-1.65,0.661-2.638-0.659l0.328,2.639V58.449L403.117,58.449z"/>
<path fill-rule="evenodd" clip-rule="evenodd" fill="#CECECE" d="M411.032,57.132l0.327-0.661l-1.646-1.318
	C410.041,55.813,410.369,56.472,411.032,57.132L411.032,57.132z"/>
<polygon fill-rule="evenodd" clip-rule="evenodd" fill="#CECECE" points="448.944,42.626 449.932,42.626 448.613,42.626 
	448.944,42.626 "/>
<polygon fill-rule="evenodd" clip-rule="evenodd" fill="#CECECE" points="512.903,45.922 513.234,46.251 513.565,45.922 
	512.903,45.922 "/>
<path fill-rule="evenodd" clip-rule="evenodd" fill="#CECECE" d="M496.75,53.505c-1.318,0.659-1.977,1.648-2.308,2.967
	c0.659,0,1.317-0.328,2.308-1.648V53.505L496.75,53.505z"/>
<path fill-rule="evenodd" clip-rule="evenodd" fill="#CECECE" d="M484.223,77.244l0.658-2.311
	C484.223,75.923,483.89,76.912,484.223,77.244L484.223,77.244z"/>
<path fill-rule="evenodd" clip-rule="evenodd" d="M450.923,174.503l-43.19-17.146c-1.646-0.658-16.483-6.592-45.167-17.803
	c-25.715-10.219-49.123-18.134-70.224-23.739c-22.418-5.933-44.178-9.89-65.278-11.866l-10.549-0.991h-0.661l-5.603-0.332h-13.517
	c-29.015,0.332-56.377,4.946-81.435,14.179l-8.242,3.298c-11.211,5.273-18.463,10.878-21.43,17.141l-16.154,41.211l-21.1,99.239
	l-1.318,17.8c-0.99,21.105-0.659,41.872,1.318,62.313l14.506,77.808l2.966,10.882c2.307,6.266,8.573,12.857,19.123,19.777
	l7.584,4.29c22.417,11.538,46.815,19.449,73.519,23.403l-11.54-17.139c-4.286-6.265-7.251-12.201-9.561-17.475l-1.316-1.319h-1.979
	c1.979,5.274,4.614,10.548,8.241,16.157l11.87,16.812c-17.802-2.309-35.936-7.911-54.729-16.156
	c-22.749-9.563-35.607-19.776-39.234-30.331l1.32-1.317l7.253-6.928c2.966-2.303,6.594-4.283,11.208-6.257l7.912-3.3l30.003-2.638
	l-9.23-1.318l9.23,1.318h2.309v0.328l3.296,0.328l-0.99-2.303l0.99,2.303l80.114,8.909c139.15,20.249,225.429,52.562,287.159,73.845
	c36.927,10.22,71.544,15.166,103.525,14.51c23.739-0.335,46.156-3.962,66.926-10.227c9.229-2.637,17.145-6.265,23.739-10.547
	c6.261-3.956,10.22-7.583,11.866-11.21c0-0.328,0-0.328,0.331-0.328c21.757-48.133,34.617-97.92,38.241-150.337l0.663-11.545
	c0.987-20.438,0.659-40.219-0.99-59.671l-16.157-86.378l-1.645-5.935c-1.318-3.956-4.619-8.242-10.553-13.186
	c-6.264-5.277-13.847-9.563-22.42-13.519c-22.416-10.22-47.474-16.813-74.509-19.78l1.649,2.638l3.625,0.658
	c12.528,14.177,21.102,23.739,25.72,29.342c8.569,11.54,14.834,23.078,18.13,33.96l1.318,3.296l1.981,7.251
	c-21.761,4.619-45.169,6.594-69.566,5.276l-1.318-0.33l-11.87-0.328l-17.471-1.65l-3.627-0.33l3.627,0.33l0.327-0.991
	c-16.811-2.305-33.958-5.933-51.76-10.879C498.068,191.974,475.648,184.061,450.923,174.503L450.923,174.503z"/>
<path fill-rule="evenodd" clip-rule="evenodd" fill="#141414" d="M654.01,164.94c-8.241-11.538-17.802-22.42-28.68-32.64
	c18.133,2.638,36.264,7.253,55.056,14.506c25.386,9.892,39.892,21.1,43.52,33.628c-5.274,8.571-18.462,16.154-39.892,22.418
	l-11.869,3.298C670.826,193.624,664.894,179.776,654.01,164.94L654.01,164.94z"/>
<path fill-rule="evenodd" clip-rule="evenodd" fill="#141414" d="M329.266,243.736l2.309,0.33l-0.661,2.967L304.54,341.65
	c-2.308,7.918-4.946,13.192-7.913,16.484c-3.957,3.962-9.231,5.608-16.154,5.28l-2.966-0.99l-0.991-5.273
	c-1.318-11.538,0.33-27.038,4.287-46.486c3.955-18.794,10.879-34.95,20.771-48.138C311.132,249.339,320.364,243.077,329.266,243.736
	L329.266,243.736z"/>
<path fill-rule="evenodd" clip-rule="evenodd" fill="#141414" d="M642.804,432.316c2.637,0,4.942,1.326,6.593,3.299
	c1.318,2.31,1.649,4.946,0.99,7.584c-0.659,2.636-2.309,5.272-5.277,7.254c-2.637,1.646-5.273,2.637-8.242,2.31
	c-2.968,0-5.273-1.318-6.592-3.3c-1.318-2.31-1.98-4.946-0.991-7.583c0.659-2.965,2.31-5.273,4.946-6.92
	C637.199,432.979,639.836,431.988,642.804,432.316L642.804,432.316z"/>
<path fill-rule="evenodd" clip-rule="evenodd" d="M625.33,132.301c10.878,10.219,20.438,21.102,28.68,32.64
	c10.884,14.836,16.816,28.683,18.135,41.212l11.869-3.298c21.43-6.264,34.617-13.847,39.892-22.418
	c-3.628-12.528-18.134-23.737-43.52-33.628C661.594,139.554,643.463,134.939,625.33,132.301L625.33,132.301z"/>
<path fill-rule="evenodd" clip-rule="evenodd" d="M331.575,244.065l-2.309-0.33c-8.902-0.659-18.134,5.604-27.693,18.792
	c-9.892,13.188-16.815,29.344-20.771,48.138c-3.957,19.448-5.605,34.948-4.287,46.486l0.991,5.273l2.966,0.99
	c6.923,0.328,12.197-1.318,16.154-5.28c2.966-3.292,5.605-8.566,7.913-16.484l26.374-94.618L331.575,244.065L331.575,244.065z"/>
<path fill-rule="evenodd" clip-rule="evenodd" fill="#FFFFFF" d="M649.396,435.615c-1.65-1.973-3.956-3.299-6.593-3.299
	c-2.968-0.328-5.604,0.663-8.573,2.644c-2.637,1.646-4.287,3.955-4.946,6.92c-0.989,2.637-0.327,5.273,0.991,7.583
	c1.318,1.981,3.624,3.3,6.592,3.3c2.969,0.327,5.605-0.663,8.242-2.31c2.969-1.981,4.618-4.618,5.277-7.254
	C651.046,440.562,650.715,437.925,649.396,435.615L649.396,435.615z M641.485,435.943l3.624,0.663
	c0.99,0.655,1.649,1.974,0.99,3.292c-0.331,1.319-0.99,2.31-1.981,2.645l-1.974,0.656c0.986,0,1.646,0.654,1.646,1.317
	c0.659,0.663,0.659,1.318,0.327,1.98l-0.655,1.975v0.991l-2.31-0.328l0.659-1.653c0.332-1.646,0.332-2.638-0.659-2.965l-2.308-0.663
	l-1.979-0.327l-1.649,5.273h-2.306l3.628-13.185L641.485,435.943L641.485,435.943z"/>
<path fill-rule="evenodd" clip-rule="evenodd" d="M645.109,436.606l-3.624-0.663l-4.945-0.328l-3.628,13.185h2.306l1.649-5.273
	l1.979,0.327l2.308,0.663c0.991,0.327,0.991,1.318,0.659,2.965l-0.659,1.653l2.31,0.328v-0.991l0.655-1.975
	c0.332-0.662,0.332-1.317-0.327-1.98c0-0.663-0.66-1.317-1.646-1.317l1.974-0.656c0.991-0.335,1.65-1.325,1.981-2.645
	C646.759,438.58,646.1,437.262,645.109,436.606L645.109,436.606z M643.463,438.252c0.328,0.328,0.655,0.991,0.328,1.981
	c-0.328,0.984-0.987,1.646-1.979,1.975h-4.613l1.318-4.946l2.305,0.328L643.463,438.252L643.463,438.252z"/>
<path fill-rule="evenodd" clip-rule="evenodd" fill="#FFFFFF" d="M643.791,440.233c0.327-0.99,0-1.653-0.328-1.981l-2.641-0.662
	l-2.305-0.328l-1.318,4.946h4.613C642.804,441.88,643.463,441.218,643.791,440.233L643.791,440.233z"/>
<polygon fill-rule="evenodd" clip-rule="evenodd" fill="#141414" points="587.744,210.769 587.084,211.098 598.954,211.426 
	587.744,210.769 "/>
<path fill-rule="evenodd" clip-rule="evenodd" d="M247.174,63.725c-1.318,1.318-2.307,1.318-2.968,0.989l-0.33-3.624l-4.946,1.975
	l-2.636,4.617l-2.639-1.978c0.659,0.989,0.659,1.978,0,2.966l-1.649,2.967l-2.637,0.332c-0.986,0-1.317-0.332-1.977-0.989
	l0.329,2.306c-2.309,0.66-5.274,2.638-8.901,6.266l-8.244,8.571l-1.318-1.318c0.662,2.966-0.329,5.275-2.635,7.252
	c-2.969,2.308-4.616,3.955-4.948,5.276l-1.317-0.662l-3.627,3.956h13.517l2.637-2.635l8.572-6.596l-0.989-0.659
	c0-0.657,0.33-1.318,0.659-2.305l1.65,0.658l1.648-2.308l2.309-1.648c0.658-1.318,2.305-2.638,5.272-4.286
	c2.97-1.319,4.618-2.967,5.275-4.946l1.318,0.989c0.991-1.646,2.97-3.958,6.594-6.922c3.958-2.968,6.594-4.946,7.255-5.935
	c0.33-0.33,0.659,0.328,0.989,1.318v0.33v-0.989c0-1.65,0.989-3.298,3.625-4.285c1.979-0.99,2.967-1.979,2.639-2.968l-0.33-2.636
	c-0.33-0.991-0.66-1.65-1.319-1.98l2.967-3.626c0.989,0.66,1.979,1.978,2.637,4.285c1.979-0.989,2.639-2.307,1.65-4.285
	c-1.32-1.979-1.65-3.627-1.32-3.957h1.32c0-2.31,0-3.296,0.659-3.628c1.318,0.991,2.306,2.309,1.978,3.958
	c-0.33,2.308,0,3.955,0.328,4.946c0.661-1.648,1.322-2.309,2.311-1.979l3.296,1.32l7.581-9.562c1.32-2.637,1.979-4.944,1.979-7.913
	l-0.332,0.989c-0.328,0.659-0.987,0.659-1.975,0.659c-2.639,0-4.287,1.32-4.947,3.957c-0.988-0.659-1.318-1.318-1.318-1.978
	c-0.328,1.978-1.648,2.968-4.285,3.626l-6.925,1.977c-1.648,0.662-1.978,1.318-1.318,2.309c0.989,0.987,0.661,1.648-0.33,2.637
	l-1.318-0.989c-1.318,0-2.309,0-3.628,0.989c-1.647,0.991-1.647,1.319-0.657,1.978l0.988,0.988c0.659,1.65,0.659,2.309-0.332,2.639
	l-2.305,0.989c-0.331,0.659,0.328,1.65,0.987,2.309l-1.978,2.637l-2.307-1.979l1.318-3.625c0.33-1.318,0.33-2.637,0-3.625
	l-8.244,7.912l3.957,0.33c1.648-0.661,2.31,0,1.98,2.308L247.174,63.725L247.174,63.725z M278.825,41.636v2.639l-3.627,0.657
	c-1.318,0-2.307,0.661-3.298,1.32l1.32-2.307l0.659,0.987c0-1.647,0.989-2.305,2.637-1.975
	C277.836,42.956,278.494,42.626,278.825,41.636L278.825,41.636z"/>
<polygon fill-rule="evenodd" clip-rule="evenodd" fill="#CECECE" points="354.652,47.57 353.334,46.251 353.334,46.58 
	354.652,47.57 "/>
<polygon fill-rule="evenodd" clip-rule="evenodd" fill="#CECECE" points="233.986,96.035 233.986,94.715 233.327,95.705 
	233.986,96.035 "/>
<path fill-rule="evenodd" clip-rule="evenodd" fill="#CECECE" d="M233.986,94.715c0-0.987-0.659-1.978-1.648-2.635l-1.319-0.332
	l2.308,1.647L233.986,94.715L233.986,94.715z"/>
<polygon fill-rule="evenodd" clip-rule="evenodd" fill="#CECECE" points="215.852,102.958 216.513,102.958 215.852,102.627 
	215.852,102.958 "/>
<polygon fill-rule="evenodd" clip-rule="evenodd" fill="#CECECE" points="343.773,454.409 340.146,453.09 339.817,453.746 
	343.773,454.409 "/>
<polygon fill-rule="evenodd" clip-rule="evenodd" fill="#141414" points="343.773,454.409 339.817,453.746 253.768,441.88 
	381.028,466.938 348.39,456.056 343.773,454.409 "/>
<path fill-rule="evenodd" clip-rule="evenodd" d="M381.028,466.938L253.768,441.88l-122.644-17.146l12.529,33.302h0.659l0.657,1.319
	c2.31,5.273,5.275,11.21,9.561,17.475l11.54,17.139l3.298,5.281l1.32-0.99c-0.332,1.318,0.987,3.628,3.624,5.93
	c2.639,2.636,3.958,4.945,3.628,6.927l3.296,0.99c0.661,0.984,0.331,1.975-0.33,3.293l-2.307,2.637l-11.867-11.538l-3.958,3.955
	c-1.977-1.318-2.966-3.293-3.296-4.946c-0.33-2.636-0.661-4.282-0.991-4.938c-0.33-0.335-0.659-0.335-1.318,0.655
	c-0.33,0.99-0.989,1.318-2.307,0.99l-2.308-2.637c-0.33-0.663-0.659-1.318-0.33-1.981l-0.33,0.335l-1.32-0.99
	c0.989-2.638,0.331-3.955-1.978-3.3l-2.637,0.327h-1.648c0.657-1.318,0.657-1.973,0-1.973c0.328,0.328,0.328,0.99-0.33,1.646
	c-0.33,0.662-0.99,0.99-1.649,0.327l9.892,6.266c-0.661,0.335-0.991,1.653-0.991,3.627c1.648,0.328,3.628,1.981,5.605,4.283
	l4.946,4.946l4.285-5.274l0.99,0.99l-1.318,3.628c-0.33,1.318-1.32,2.31-2.639,2.638l13.847,11.21l0.989-1.318l2.966,5.272
	c4.946,3.3,10.883,7.256,18.134,12.856l18.132,13.191c14.508,10.22,27.035,17.141,37.587,20.44l-0.661-2.31
	c0-0.99,0-1.646,0.989-2.309c1.648,4.29,5.605,7.254,12.199,8.9l8.242,1.981c2.967,0.663,4.946,1.981,6.594,3.628
	c1.318-0.328,1.318-0.991,0.659-2.31c-0.659-0.655-0.33-1.318,1.65-1.646c0.658,3.628,3.296,5.603,6.922,5.938l4.287,0.328
	c1.65,0.327,2.637,1.317,3.628,2.636l0.657-1.318l3.957,3.292l0.989-1.646c1.977,2.638,5.275,4.284,10.221,4.947l8.901,0.99
	c2.967,1.318,5.935,1.975,9.231,2.637h8.573c6.924,0,12.527,1.974,16.814,5.273c2.636-1.981,5.935-2.31,10.219-1.318
	c5.275,1.318,8.901,1.646,10.88,1.318l2.637-0.328c0.33-0.662,0.988-1.318,1.319-2.637l2.638,2.31c1.648,1.318,2.967,1.318,4.614,0
	l2.967-3.299l2.969,2.964l2.637-3.627l8.573,1.98l6.923,0.99c0.659,0.328,0.991,0,0.659-0.99c0-0.991,0.332-1.317,1.65-1.317
	c0.987,0.654,1.318,1.317,1.318,1.973l1.318-1.646c0.659-0.989,0.991-0.989,1.978-0.989l-0.331-2.638
	c-0.328-0.99,0-1.646,0.659-2.309c0.991,2.309,2.309,3.3,3.627,3.3l5.277,0.663l-0.662-2.645c0-0.983,0.331-1.646,0.99-2.302
	l2.969,4.611c1.317-1.319,3.954-1.646,7.91-1.319c2.969,0.328,5.604,0.991,7.254,1.981l12.197-4.946
	c5.278-1.653,10.551-1.981,15.498-0.99c-0.332-2.31,0.327-3.628,1.978-3.956c1.646-0.327,2.637-1.317,2.969-3.626
	c0.326,0.662,0.986,1.653,1.978,1.981c1.317,0.327,1.646,1.317,1.977,2.301l1.318-5.929c1.979,0.655,6.593,0,13.516-1.981
	c3.301-0.991,6.266-1.646,8.905-1.975h-1.319l-8.904-0.99l2.31-2.31c3.628,0.328,10.22-0.663,19.783-2.964l19.78-4.618
	c0.659-2.31,4.286-5.273,11.211-8.901c7.25-3.628,11.206-6.265,12.197-8.573l1.318,0.99c1.649-2.972,5.936-6.927,12.859-11.538
	l15.165-10.555l7.583-9.885c-31.981,0.656-66.599-4.29-103.525-14.51c-14.174-3.954-29.34-8.9-46.155-15.164l-2.638-0.991
	l3.297-0.328L381.028,466.938L381.028,466.938z M218.161,478.476v1.318c0.33,1.646,0.989,2.964,1.648,3.299l-0.989,1.646
	c2.307,1.975,3.627,3.3,3.957,3.956h-2.636l-2.31-1.646l-0.661,0.99v-1.653C217.832,483.093,218.161,480.448,218.161,478.476
	L218.161,478.476z M225.413,492.985l0.992-2.309c0.987,0.327,1.647,1.973,2.635,4.609c0.659,1.654,1.979,1.981,3.957,1.654
	l-1.318,1.318l8.242,8.238v0.99v-0.328c-0.33-0.99-0.99-1.653-1.648-1.317c-0.33,0.982-0.661,2.964-0.33,5.602
	c0.33,1.646-0.661,2.637-2.967,2.637c-2.638-1.318-3.297-2.965-2.309-4.946l3.627-4.61c-1.648,0.328-2.639-0.335-2.639-2.31
	c-0.329-1.98-0.988-3.3-2.637-2.637c-1.32,0.656-1.65,1.646-0.33,3.293l0.659,0.99l-1.979,0.328
	c-1.317-0.655-1.977-1.646-0.986-2.302c0.986-1.653,1.316-2.973,1.316-3.3l-5.273-6.592L225.413,492.985L225.413,492.985z
	 M241.57,512.105l0.328-0.335l-0.328-1.974l2.306-0.328l-1.978,2.302l0.33,0.991l2.966,2.637l1.32-1.646v-0.327v1.646
	c0.659,1.981,1.318,3.298,2.637,4.289l0.661-0.335c-0.331,0.335-0.331,0.335,0,0.99l2.637,1.319
	c2.309,1.318,3.296,2.637,2.637,3.955l0.659-0.983l-0.33,3.621c0-0.991-0.33-1.646-0.658-1.975l-0.661-0.663l-6.594-0.327
	c-0.989-0.991-0.989-2.638-0.33-5.603l-3.955-2.645l-0.33,6.928c-0.991-2.309-0.991-4.283-0.661-6.928v-3.954L241.57,512.105
	L241.57,512.105z M217.171,491.66c1.32,0.663,1.979,0.989,2.639,0.989l0.332,3.628C218.491,495.286,217.5,493.641,217.171,491.66
	L217.171,491.66z M210.908,494.631l-2.966-2.636l2.635,0.328L210.908,494.631L210.908,494.631z M270.913,526.281
	c0.987,0.327,1.317,0.99,1.317,1.974l0.661,2.644l-1.648-2.309C271.57,528.59,271.57,527.6,270.913,526.281L270.913,526.281z
	 M268.933,536.828h-0.332c-1.977-2.31-2.964-3.955-2.964-5.274c2.635,0.328,3.958,0.663,4.946,1.646L268.933,536.828
	L268.933,536.828z M273.22,536.5l7.253,1.646l-4.287,0.335C274.541,538.81,273.55,538.146,273.22,536.5L273.22,536.5z
	 M288.383,538.481l-0.987,3.627c-0.332,1.318-1.318,1.318-2.966,0c-0.991-1.652-0.661-2.308,0.989-2.643
	C287.065,539.466,288.054,539.138,288.383,538.481L288.383,538.481z M293.331,540.128c1.648,0.991,1.978,1.98,0.989,3.299
	l0.989,4.611l-2.639-0.327l-3.296-1.319c0-0.99,0.33-0.99,0.989-0.335c1.318,0.991,1.978,1.326,2.639,0.991
	c-0.991-0.991-0.991-1.975,0.659-3.293l0.659-0.328L293.331,540.128L293.331,540.128z M359.599,574.414l1.318-0.328l0.661,5.937
	h-1.318L359.599,574.414L359.599,574.414z M394.546,576.396l-0.661,1.318l-2.967-1.653L394.546,576.396L394.546,576.396z
	 M333.884,557.603c-0.661,0.99-1.32,0.327-1.979-0.991c-1.319-1.646-2.31-1.646-3.296,0l-0.991-1.981
	C330.585,553.975,332.563,554.63,333.884,557.603L333.884,557.603z M323.003,566.831l0.659,3.628l-1.648-3.628H323.003
	L323.003,566.831z M334.212,561.229l1.32,5.602c-1.32-0.656-1.98-1.646-1.648-2.31C334.212,562.876,334.212,561.886,334.212,561.229
	L334.212,561.229z M313.111,551.994c-0.659-2.31-0.33-3.293,0.331-2.965l1.648-0.328L313.111,551.994L313.111,551.994z
	 M311.793,558.921c0.988,0,1.979-0.663,1.979-1.318c0-1.319-0.33-1.654-0.991-2.31h1.648l3.958-0.328
	c0.988,0,0.661,0.328-0.659,1.646c-1.319,0.991-2.637,1.318-3.956,0.991l3.627,8.9c-0.661-0.663-0.991-1.646-1.32-2.964
	s-0.989-2.31-1.978-2.645l-3.627,4.945h-0.33h0.33l-0.33-1.318c-0.659-1.317,0-2.301,1.977-2.301
	c-0.99-0.991-1.647-0.991-2.307-0.663l-0.33-2.637H311.793L311.793,558.921z M307.508,554.63l-0.991-0.982l3.298-3.628
	C310.145,551.338,309.486,552.984,307.508,554.63L307.508,554.63z M297.618,546.392l3.296,0.991l2.967,3.293L297.618,546.392
	L297.618,546.392z M344.763,577.052l-1.98,1.653l-1.316-3.3L344.763,577.052L344.763,577.052z M287.727,552.329l0.987-1.326
	l0.661,3.299l-3.955,0.663l-0.331-7.254L287.727,552.329L287.727,552.329z M295.968,553.647l0.33,3.627l-3.957-5.28L295.968,553.647
	L295.968,553.647z M220.798,553.975c-0.657-1.98,0-3.627,1.979-4.945L220.798,553.975L220.798,553.975z M231.679,557.93l1.648,0.328
	c0.988,0.335,1.32,0.99,0.988,2.31l-2.309,0.327l0.99-1.318l-2.637-1.974L231.679,557.93L231.679,557.93z M461.801,556.283
	l4.947,0.328l-4.615,1.981L461.801,556.283L461.801,556.283z M445.318,567.166c0.986-0.335,1.649-1.326,1.978-2.645
	c0.658-3.292,1.648-4.61,2.636-4.61v2.31c0,0.983,0.659,1.646,1.318,1.975l2.31-0.328c-1.318,1.973-2.637,2.964-4.615,3.299H445.318
	L445.318,567.166z M422.568,575.405c0-1.981,0.333-3.3,1.651-4.291c0.654-0.655,1.977-1.318,3.627-0.655l-1.981-4.619
	c1.649,0,2.637,0.663,2.637,2.31c0.332,1.646,0.991,2.965,1.65,2.965l4.946,0.335c0-0.335,0.328-0.663,0.99-0.663l0.655,0.663
	h-1.646l-0.333,1.318l0.333,2.638c1.646-1.319,2.964-0.991,3.954,0.655c1.319,1.653,1.65,3.299,1.65,5.937l-4.287-5.602l-1.65,3.627
	l-0.326-3.299c-0.332-1.318-0.659-2.31-1.65-2.638l-5.934,3.955l0.328,1.318h2.638c-0.328,0.328-0.987,1.981-1.646,4.618
	l2.306,1.975l-3.625,0.663c0.991-1.646,1.319-3.628,0.991-5.609l-0.663-1.646l-0.987-0.654l0.659-0.664l-1.981-1.646l2.31-0.335
	c0.991-0.655,0.991-1.318,0.331-2.302l-1.978-1.981L422.568,575.405L422.568,575.405z M435.099,564.857l3.954,1.974l-5.936-0.656
	L435.099,564.857l-18.794,7.91l0.991,2.638l0.659,3.3l-3.628-0.991l1.978-4.946L435.099,564.857L435.099,564.857z"/>
<polygon fill-rule="evenodd" clip-rule="evenodd" fill="#FFFFFF" points="241.898,511.771 241.57,512.105 242.228,512.762 
	241.898,511.771 "/>
<polygon fill-rule="evenodd" clip-rule="evenodd" fill="#FFFFFF" points="310.475,565.84 310.145,565.84 310.475,565.84 "/>
<path fill-rule="evenodd" clip-rule="evenodd" d="M131.124,424.733l-3.296-0.328h-0.661l-1.648-0.328l-30.003,2.638l-7.912,3.3
	c-4.615,1.974-8.242,3.954-11.208,6.257l-7.253,6.928l-1.32,1.317c3.627,10.555,16.486,20.768,39.234,30.331
	c18.792,8.245,36.926,13.848,54.729,16.156l-11.87-16.812c-3.627-5.609-6.262-10.883-8.241-16.157h1.979L131.124,424.733
	L131.124,424.733z"/>
<polygon fill-rule="evenodd" clip-rule="evenodd" fill="#141414" points="125.519,424.077 127.167,424.405 127.828,424.077 
	125.519,424.077 "/>
<polygon fill-rule="evenodd" clip-rule="evenodd" fill="#141414" points="144.312,458.035 143.652,458.035 144.969,459.354 
	144.312,458.035 "/>
<polygon fill-rule="evenodd" clip-rule="evenodd" fill="#4F4F4F" points="449.604,491.332 452.241,492.323 452.9,491.004 
	449.604,491.332 "/>
<polygon fill-rule="evenodd" clip-rule="evenodd" fill="#CECECE" points="461.801,42.626 461.801,40.978 460.156,42.295 
	459.493,42.956 462.133,44.931 461.801,42.626 "/>
<path fill-rule="evenodd" clip-rule="evenodd" fill="#CECECE" d="M451.909,40.646l-0.659,1.979c0.991-0.331,1.322-1.318,0.991-2.309
	L451.909,40.646L451.909,40.646z"/>
<path fill-rule="evenodd" clip-rule="evenodd" fill="#CECECE" d="M528.4,79.551l-0.659-5.606
	C525.432,75.264,525.432,76.912,528.4,79.551L528.4,79.551z"/>
<polygon fill-rule="evenodd" clip-rule="evenodd" fill="#CECECE" points="515.212,77.244 514.885,74.933 513.894,76.253 
	515.212,77.244 "/>
<path fill-rule="evenodd" clip-rule="evenodd" d="M399.162,229.889c2.637-3.956,5.933-7.251,10.551-10.549l-18.463-0.99
	c-2.309,3.627-4.616,8.571-6.265,15.167l-34.29,125.609c-1.975,6.599-2.637,12.863-1.975,19.12c0.657,6.6,2.966,11.545,6.591,15.166
	l-37.912-2.638c-7.914-0.655-12.53-4.611-13.849-11.865c-7.253,8.245-17.803,11.538-31.322,10.219
	c-7.253-0.655-13.847-2.965-20.441-6.919c-3.955-1.981-7.582-5.281-10.878-8.574l1.318,2.31
	c4.287,7.583,10.221,13.847,17.475,18.131c6.594,3.626,13.518,5.936,20.771,6.591c13.188,1.319,23.739-1.974,30.99-9.892
	c1.319,7.583,5.937,11.211,13.847,11.546l38.246,2.637c-3.957-3.628-6.266-8.573-6.924-14.838c-0.659-6.264,0-12.528,1.978-19.12
	l34.288-125.615C394.875,238.792,396.854,233.517,399.162,229.889L399.162,229.889z"/>
<path fill-rule="evenodd" clip-rule="evenodd" fill="#FFFFFF" d="M384.985,233.517c1.648-6.596,3.956-11.54,6.265-15.167v-0.33
	c2.306-3.626,5.935-7.251,10.549-10.22l-39.892-2.638c-8.902-0.658-14.835,3.957-17.474,13.518c-0.66-5.276-3.296-8.901-8.572-12.2
	c-3.957-2.307-8.571-3.625-13.847-3.955c-14.836-1.648-28.684,1.648-42.202,10.222c-20.11,13.188-35.606,37.254-46.485,72.202
	c-10.22,33.954-9.89,60.665,0.988,79.458c1.979,3.293,4.285,6.258,6.594,9.229c3.296,3.293,6.923,6.593,10.878,8.574
	c6.594,3.954,13.188,6.264,20.441,6.919c13.519,1.319,24.068-1.974,31.322-10.219c1.318,7.254,5.935,11.21,13.849,11.865
	l37.912,2.638c-3.625-3.621-5.935-8.566-6.591-15.166c-0.662-6.257,0-12.521,1.975-19.12L384.985,233.517L384.985,233.517z
	 M324.651,232.526c3.626,0,6.263,1.65,8.242,3.955c1.648,2.311,2.308,4.946,1.978,7.915l-0.659,2.968l-25.385,90.995
	c-1.98,7.583-4.615,12.856-7.585,15.821c-3.624,3.955-8.571,5.609-15.163,4.946l-2.971-0.656c-4.614-1.981-7.91-7.583-8.899-17.146
	c-1.318-10.883,0-25.714,3.955-44.506c3.957-18.134,10.549-33.629,20.112-46.158C307.508,237.801,316.08,231.867,324.651,232.526
	L324.651,232.526z"/>
<path fill-rule="evenodd" clip-rule="evenodd" d="M332.893,236.481c-1.979-2.305-4.616-3.955-8.242-3.955
	c-8.571-0.659-17.143,5.275-26.375,18.134c-9.563,12.529-16.155,28.024-20.112,46.158c-3.955,18.792-5.273,33.623-3.955,44.506
	c0.989,9.563,4.285,15.165,8.899,17.146l-0.987-5.281c-1.318-10.875,0-25.713,4.285-44.505
	c3.627-18.132,10.221-33.628,19.781-46.484c9.233-12.528,18.134-18.793,26.706-18.134l1.978,0.33
	C335.201,241.427,334.542,238.792,332.893,236.481L332.893,236.481z"/>
<path fill-rule="evenodd" clip-rule="evenodd" fill="#FFFFFF" d="M431.143,209.778c-4.618-0.659-8.574,0.659-12.2,2.968
	c-3.625,2.307-5.934,5.933-7.252,10.549L377.4,344.951c-2.637,12.2-2.637,22.42,0.659,30.993c1.979,4.946,4.617,8.901,8.244,11.865
	c3.628,3.3,8.242,5.603,13.845,7.256c27.366,7.255,47.478,3.292,60.008-12.856c0.326,6.919-0.991,13.848-4.287,20.438l-1.318,2.638
	c-3.628,6.592-8.901,12.193-15.498,16.482c-7.254,4.619-16.151,6.266-27.362,5.274l-27.694-5.602
	c-8.244-1.98-14.838-1.317-20.111,0.99c-4.618,2.303-7.913,6.265-8.903,11.866l-7.91,30.004l11.208-0.991
	c11.54-0.99,23.407,0,35.604,2.31l18.792,3.954l19.785,1.646c15.492,0,28.353-4.945,38.245-14.174
	c11.864-11.211,22.416-30.331,30.658-57.698l40.551-155.941c1.648-6.264,3.958-11.54,6.596-15.167
	c2.309-3.955,5.605-7.581,10.219-10.549l-39.563-2.637c-4.615-0.33-8.574,0.989-11.869,3.296c-3.625,2.309-5.934,5.935-7.584,10.551
	l-30.33,109.13c-1.978,9.885-4.946,17.14-8.57,21.096c-4.618,5.28-11.87,7.582-21.103,6.927l-6.595-1.319
	c-4.942-1.98-7.58-5.936-7.911-11.872c-0.659-4.284,0.659-10.876,2.969-19.776l25.716-94.954c1.646-6.594,3.956-11.869,6.266-15.493
	c2.308-3.958,5.932-7.255,10.219-10.552L431.143,209.778L431.143,209.778z"/>
<path fill-rule="evenodd" clip-rule="evenodd" d="M478.617,223.955l-18.461-1.317c-2.31,3.624-4.619,8.899-6.266,15.493
	l-25.716,94.954c-2.31,8.9-3.628,15.492-2.969,19.776c0.331,5.937,2.969,9.892,7.911,11.872c-0.328-4.617,0.663-11.21,2.972-19.782
	l25.712-95.28c1.65-6.594,3.96-11.87,6.266-15.495C470.375,230.219,474.002,226.921,478.617,223.955L478.617,223.955z"/>
<path fill-rule="evenodd" clip-rule="evenodd" d="M548.512,228.239c-2.638,3.627-4.947,8.903-6.596,15.167l-40.551,155.941
	c-8.242,27.367-18.794,46.487-30.658,57.698c-9.893,9.229-22.753,14.174-38.245,14.174l-19.785-1.646l-18.792-3.954
	c-12.197-2.31-24.065-3.3-35.604-2.31l-3.298,12.529c15.167-2.31,30.663-1.646,46.817,1.318l18.793,3.955l19.78,1.646l8.241-0.328
	c11.869-1.645,22.094-6.264,30.335-13.847c11.866-11.21,21.758-30.331,30.33-57.362l40.552-155.945
	c1.978-6.593,4.287-11.87,6.595-15.497c2.306-3.955,5.934-7.253,10.216-10.549L548.512,228.239L548.512,228.239z"/>
<path fill-rule="evenodd" clip-rule="evenodd" d="M455.869,402.647c3.296-6.591,4.613-13.52,4.287-20.438
	c-12.53,16.148-32.642,20.111-60.008,12.856c-5.603-1.653-10.217-3.956-13.845-7.256c3.628,9.563,10.881,15.829,21.76,18.794
	c19.12,4.945,34.617,4.617,46.487-1.318L455.869,402.647L455.869,402.647z"/>
<path fill-rule="evenodd" clip-rule="evenodd" fill="#FFFFFF" d="M571.26,164.281l-4.286,0.659c-1.65,0.657-2.638,1.978-2.969,4.285
	l-7.91,29.673c-1.978,6.263-0.333,9.229,4.286,7.911l4.942-1.978c5.937-2.637,11.87-6.594,17.802-11.54
	c5.938-5.274,10.223-10.218,12.86-16.155l2.31-6.263l0.659-3.627c-0.332-0.659-1.646-0.989-3.96-1.32L571.26,164.281L571.26,164.281
	z"/>
<path fill-rule="evenodd" clip-rule="evenodd" d="M565.323,204.832l-1.318,5.605c-1.646,6.594-0.328,9.23,4.287,7.913
	c4.286-1.318,8.573-3.296,12.858-5.935l10.22-7.583c3.624-2.967,6.593-6.594,9.562-10.879c2.636-4.287,4.613-7.912,5.273-11.54
	l0.659-3.296c-0.328-0.661-1.646-0.989-3.623-1.318l-7.256-0.661c-2.638,5.937-6.923,10.881-12.86,16.155
	C577.193,198.238,571.26,202.195,565.323,204.832L565.323,204.832z"/>
<path fill-rule="evenodd" clip-rule="evenodd" fill="#FFFFFF" d="M621.702,221.977c-17.802-1.319-30.004-0.989-36.927,0.661
	c-9.561,2.635-17.471,8.899-24.066,19.451c-6.592,10.549-7.91,22.748-3.956,36.595c3.296,12.858,10.221,24.396,20.44,34.617
	l22.42,23.74c4.945,6.919,5.604,14.501,2.637,22.42c-3.955,9.557-12.856,13.839-27.035,12.856l-30-1.981
	c-8.573-0.663-14.506,3.299-17.474,11.873c-1.319,3.628-3.3,10.547-6.265,21.43l10.878,0.655l55.721,3.3l20.438-1.653
	c15.497-2.637,28.026-9.884,36.927-21.431c7.584-9.557,11.866-20.767,13.516-34.614c0.659-8.245-1.318-17.474-6.265-27.03
	l-0.331-0.335c-4.614-8.239-11.207-16.484-20.107-24.725l-18.461-15.824l-1.65-1.32c-5.277-5.275-7.256-10.549-6.924-15.825
	c0.987-7.914,5.934-11.538,14.506-11.208l30.004,1.978c8.238,0.657,13.516-3.958,16.483-13.518l1.646-6.264l2.969-10.881
	L621.702,221.977L621.702,221.977z"/>
<path fill-rule="evenodd" clip-rule="evenodd" d="M667.857,235.824l-1.646,6.264c-2.968,9.56-8.245,14.174-16.483,13.518
	l-30.004-1.978c-8.572-0.33-13.519,3.294-14.506,11.208c-0.332,5.275,1.646,10.549,6.924,15.825l1.65,1.32
	c-0.663-1.65-0.663-3.627-0.332-5.607c0.987-7.913,5.604-11.538,14.174-10.877l30.004,1.976c5.938,0.33,10.22-1.976,13.188-6.594
	c1.318-1.977,2.309-4.286,3.296-7.251l4.945-17.147L667.857,235.824L667.857,235.824z"/>
<path fill-rule="evenodd" clip-rule="evenodd" d="M660.606,334.731c-2.31-4.291-5.274-8.246-8.246-12.201l0.331,0.335
	c4.946,9.557,6.924,18.785,6.265,27.03c-1.649,13.848-5.932,25.058-13.516,34.614c-8.9,11.547-21.43,18.794-36.927,21.431
	l-20.438,1.653l-55.721-3.3l-2.964,11.21l66.595,3.956l20.442-1.981c15.493-2.637,28.022-9.557,36.923-21.422
	c7.584-9.237,11.87-20.775,13.52-33.96C667.529,353.188,665.548,343.96,660.606,334.731L660.606,334.731z"/>
<path fill-rule="evenodd" clip-rule="evenodd" fill="#FFFFFF" d="M261.68,144.5l-44.509-2.639
	c-15.825-0.988-26.045,6.596-30.659,22.75l-78.797,280.896l12.199-3.299c7.583-1.646,14.834-2.965,21.43-3.293l45.168,1.646
	c15.825,1.981,38.573,7.255,68.247,15.829l29.011,8.237l19.453,4.283c8.241,0.662,14.506-0.655,19.123-3.955
	c4.285-2.965,6.922-7.583,8.569-14.503l4.287-16.484l3.957-16.155c-6.594,3.292-13.847,5.273-21.429,5.601
	c-8.242,0-19.121-1.318-31.979-4.609l-20.111-6.266c-11.54-4.289-19.452-6.927-24.728-8.572
	c-17.803-5.609-34.616-8.573-50.112-9.236h-10.879c6.923-27.031,27.035-99.563,60.662-217.922
	c2.966-8.242,6.594-15.166,11.208-21.758C254.758,151.094,258.054,147.466,261.68,144.5L261.68,144.5z"/>
<path fill-rule="evenodd" clip-rule="evenodd" d="M251.788,155.05c-4.614,6.592-8.242,13.516-11.208,21.758
	c-33.627,118.359-53.739,190.891-60.662,217.922h10.879c8.901-33.297,28.023-102.2,57.695-206.383
	c4.946-13.515,12.199-24.398,21.103-32.31L251.788,155.05L251.788,155.05z"/>
<path fill-rule="evenodd" clip-rule="evenodd" d="M283.769,464.628l-29.011-8.237c-29.673-8.574-52.421-13.848-68.247-15.829
	l-45.168-1.646c-6.596,0.328-13.848,1.646-21.43,3.293l-4.287,15.165c12.201-3.627,23.409-5.929,33.631-6.92l5.604-0.328
	l39.562,1.975c15.826,1.981,38.574,7.582,67.917,15.829c28.023,8.237,44.507,12.193,49.123,12.52
	c7.913,0.664,14.179-0.654,18.794-3.947c4.285-2.644,6.923-7.59,8.571-14.182l8.571-32.64c-3.955,1.981-8.242,3.3-12.198,4.289
	l-4.287,16.484c-1.647,6.92-4.285,11.538-8.569,14.503c-4.616,3.3-10.881,4.617-19.123,3.955L283.769,464.628L283.769,464.628z"/>
<polygon fill-rule="evenodd" clip-rule="evenodd" fill="#CECECE" points="243.219,102.299 243.876,102.627 243.546,101.64 
	243.219,102.299 "/>
<polygon fill-rule="evenodd" clip-rule="evenodd" fill="#CECECE" points="227.063,109.553 226.405,108.893 226.735,109.553 
	227.063,109.553 "/>
<polygon fill-rule="evenodd" clip-rule="evenodd" fill="#FFFFFF" points="251.131,506.169 251.788,506.824 251.46,505.842 
	251.131,506.169 "/>
<polygon fill-rule="evenodd" clip-rule="evenodd" fill="#FFFFFF" points="317.07,558.593 317.07,558.258 316.739,558.593 
	317.07,558.593 "/>
<path fill="none" stroke="#FFFFFF" stroke-width="1.8691" stroke-linecap="round" stroke-linejoin="round" stroke-miterlimit="2.6131" d="
	M472.025,213.735l-39.236-2.637 M432.789,211.098c-4.614-0.33-8.569,0.658-12.197,2.966c-3.296,2.637-5.937,6.264-7.255,10.878
	 M413.337,224.943L379.38,347.588 M379.38,347.588c-2.636,12.201-2.636,22.748,0.659,31.321c1.978,4.618,4.617,8.9,8.244,11.865
	c3.296,3.301,7.911,5.937,13.516,7.255c27.362,7.583,47.478,3.3,60.002-12.856c0.332,6.921-1.318,13.847-4.285,20.768
	 M457.516,405.94l-1.319,2.645 M456.196,408.585c-3.624,6.592-8.9,12.192-15.824,16.483c-6.924,4.611-15.825,6.593-27.035,5.273
	 M413.337,430.342l-27.363-5.608 M385.974,424.733c-8.244-1.975-14.837-1.319-19.781,0.99c-4.947,2.31-7.913,6.265-9.231,11.866
	 M356.961,437.59l-7.584,30.339l10.882-0.991 M360.259,466.938c11.538-0.663,23.406,0,35.604,2.31 M395.864,469.247l18.792,3.954
	l19.452,1.646 M434.107,474.848c15.496,0,28.356-4.946,38.244-14.175c11.871-11.21,21.759-30.658,30.332-58.025 M502.684,402.647
	l40.551-157.263 M543.234,245.384c1.649-6.592,3.627-11.868,6.268-15.495 M549.502,229.889v-0.33 M549.502,229.56
	c2.306-3.626,5.602-7.253,10.22-10.549 M559.722,219.011l-39.236-2.31 M520.485,216.701c-4.614-0.33-8.569,0.66-11.866,2.966
	c-3.626,2.639-6.264,6.266-7.586,10.881 M501.033,230.549l-29.999,110.118 M471.034,340.667c-2.309,10.22-5.273,17.141-8.57,21.43
	c-4.948,4.946-11.873,7.256-21.102,6.921 M441.362,369.018l-6.597-1.318 M434.766,367.699c-4.613-1.975-7.582-5.938-7.91-12.201
	c-0.331-4.283,0.659-10.875,2.966-19.776 M429.821,335.722l25.389-95.942 M455.21,239.779c1.978-6.594,3.955-11.87,6.591-15.495
	 M461.801,224.284v-0.33 M461.801,223.955c2.31-3.626,5.606-7.253,10.225-10.22 M561.699,243.736
	c6.593-10.551,14.507-17.145,23.735-19.452c6.927-1.646,19.451-1.978,36.927-0.989 M622.361,223.295l49.124,3.296l-4.946,17.145
	 M666.539,243.736c-2.637,9.563-8.242,14.177-16.152,13.847 M650.387,257.583l-30.004-1.977 M620.383,255.606
	c-8.569-0.662-13.188,3.296-14.178,10.879c-0.66,5.605,1.649,11.21,6.596,16.154 M612.801,282.639l20.111,17.475 M632.912,300.113
	c8.573,8.242,15.166,16.487,19.779,24.726 M652.691,324.839l0.333,0.655 M653.024,325.494c5.272,9.565,7.254,18.801,6.264,27.367
	c-1.322,13.191-5.938,24.729-13.188,34.621c-8.9,11.865-21.43,19.121-36.927,21.757 M609.173,409.239l-20.11,1.646l-66.268-3.954
	 M522.795,406.932c2.637-11.212,4.946-18.131,5.934-21.759c3.295-8.245,8.904-12.528,17.474-12.201 M546.202,372.972l30.004,2.31
	 M576.206,375.281c14.175,0.663,23.079-3.292,26.703-13.185c3.296-7.917,2.309-15.499-2.637-22.748 M600.272,339.349l-22.089-23.739
	 M578.184,315.609c-10.22-10.55-17.144-22.09-20.44-34.948c-3.958-13.845-2.64-26.375,3.956-36.925 M243.219,178.128
	c-33.299,119.346-53.411,192.536-60.334,219.573 M182.885,397.701h10.88 M193.765,397.701c15.493,0.656,31.979,3.956,49.781,9.565
	c5.276,1.318,13.517,4.282,24.726,8.565 M268.272,415.832l20.111,6.264 M288.383,422.096c12.531,3.3,23.41,4.619,31.651,4.619
	c7.583-0.328,14.836-2.31,21.432-5.609 M341.467,421.105l-8.244,32.976 M333.223,454.081c-1.648,6.92-4.614,11.866-8.572,14.502
	c-4.616,3.3-10.878,4.618-19.123,4.29c-3.296-0.335-10.219-1.653-19.122-4.29 M286.406,468.583l-29.011-8.573 M257.395,460.01
	c-29.673-8.565-52.092-13.848-67.917-16.156 M189.479,443.854l-44.839-1.646 M144.639,442.208
	c-6.594,0.663-13.845,1.981-21.429,3.627 M123.21,445.835l-12.197,3.3l78.466-283.537 M189.479,165.598
	c4.614-16.152,14.835-23.737,30.331-22.746 M219.81,142.852l44.178,2.308 M263.988,145.159c-3.296,3.297-6.593,6.923-9.561,10.878
	c-4.615,6.264-8.242,13.518-11.208,22.091 M300.584,252.308c9.231-12.858,17.803-18.791,26.374-18.132
	c3.627,0,6.264,1.648,7.913,3.955c1.649,2.31,2.638,4.946,2.309,8.242 M337.18,246.373l-0.659,2.639l-25.389,91.983
	 M311.132,340.995c-1.976,7.582-4.615,12.856-7.581,16.156c-3.627,3.628-8.572,5.273-14.838,4.945 M288.713,362.097l-3.294-0.989
	 M285.419,361.107c-4.616-1.981-7.583-7.584-8.573-17.147c-1.319-11.21,0-26.041,3.627-44.837
	c3.957-18.461,10.879-33.957,20.111-46.815 M236.295,287.255c-10.551,34.292-9.89,60.996,0.658,80.116
	c1.978,3.293,4.287,6.264,6.594,8.9c3.298,3.628,6.926,6.593,10.881,8.901c6.264,3.955,13.188,6.265,20.441,6.921
	c13.515,1.318,23.739-1.975,30.992-10.22c1.318,7.582,5.934,11.538,13.845,11.873 M319.705,393.747l37.914,2.637 M357.619,396.384
	c-3.955-3.628-6.263-8.574-6.924-15.166c-0.657-5.937,0-12.528,1.98-19.121 M352.675,362.097l33.958-126.932 M386.633,235.165
	c1.978-6.594,3.955-11.54,6.264-15.497 M392.897,219.667h0.33 M393.227,219.667c2.308-3.955,5.935-7.253,10.218-10.549
	 M403.445,209.119l-39.23-2.639 M364.215,206.479c-8.903-0.327-14.838,3.958-17.804,13.518c-0.33-4.944-3.296-8.899-8.242-11.869
	c-4.285-2.637-8.902-3.955-13.847-4.285c-14.836-1.648-29.013,1.648-42.201,10.551c-19.781,13.188-35.277,37.584-45.826,72.861
	 M567.964,165.927c-1.649,0.661-2.641,2.311-2.968,4.619 M564.996,170.546l-7.915,29.672 M557.081,200.218
	c-1.978,6.592-0.328,9.23,4.287,7.91c1.649-0.658,3.3-1.318,4.946-1.976c5.936-2.639,11.869-6.594,17.802-11.538
	c5.937-5.277,10.223-10.553,12.859-16.158 M596.976,178.456l2.31-6.592 M599.285,171.864c0.328-1.979,0.328-2.968,0.328-3.625
	c-0.328-0.661-1.318-0.991-3.628-1.32 M595.985,166.918l-23.735-1.65l-4.286,0.659"/>
</svg>
