<?xml version="1.0" encoding="utf-8"?>
<!-- Generator: Adobe Illustrator 16.0.0, SVG Export Plug-In . SVG Version: 6.00 Build 0)  -->
<!DOCTYPE svg PUBLIC "-//W3C//DTD SVG 1.1//EN" "http://www.w3.org/Graphics/SVG/1.1/DTD/svg11.dtd">
<svg version="1.1" id="Layer_1" xmlns="http://www.w3.org/2000/svg" xmlns:xlink="http://www.w3.org/1999/xlink" x="0px" y="0px"
	 width="113px" height="113px" viewBox="0 0 113 113" enable-background="new 0 0 113 113" xml:space="preserve">
<path fill="#4D4D4D" d="M20.46,110.01L2.976,92.529c-1.237-1.237-1.401-1.471-2.933-0.673C0.029,91.864,0.014,91.87,0,91.879V113
	h21.098c0.01-0.02,0.02-0.041,0.03-0.061C21.924,111.414,21.692,111.243,20.46,110.01z"/>
<path fill="#4D4D4D" d="M108.573,108.188c0.448,0,0.846-0.033,0.846-0.597c0-0.452-0.39-0.536-0.759-0.536h-0.719v1.133H108.573z"/>
<path fill="#4D4D4D" d="M108.581,111.061c1.367,0,2.444-1.125,2.444-2.655c0-1.503-1.077-2.638-2.444-2.638
	c-1.38,0-2.458,1.135-2.456,2.638C106.125,109.936,107.201,111.061,108.581,111.061z M108.743,106.583
	c0.821,0,1.228,0.319,1.228,1.043c0,0.655-0.39,0.942-0.9,1.007l0.99,1.615h-0.592l-0.919-1.588h-0.606v1.588h-0.525l-0.001-3.665
	H108.743z"/>
<path fill="#4D4D4D" d="M109.158,15.44L113,19.276V0H93.261l4.156,4.159c0.169,0.166,0.771,0.837-0.229,1.831
	c-0.568,0.568-1.067,0.402-1.732,0.071c-3.566-1.844-6.899-1.775-10.298,0.686l-1.937-1.933L88.034,0H0v88.034l8.031-8.03
	c0.133-0.129,1.297-1.165,2.261-0.201c0.467,0.47,0.472,1.067,0.172,1.634c-0.802,1.537-0.568,1.7,0.67,2.938l17.481,17.478
	c1.234,1.239,1.399,1.472,2.933,0.672c0.566-0.301,1.167-0.301,1.633,0.168c0.965,0.97-0.066,2.132-0.198,2.266L24.941,113h32.143
	c0.059-0.131,0.129-0.266,0.197-0.408c0.248-0.465-0.298-0.938-0.578-1.219l-9.83-9.829c-0.283-0.28-0.75-0.824-1.218-0.579
	c-0.506,0.244-0.919,0.545-1.39,0.076c-0.486-0.486-0.074-1.016,0.301-1.386l4.802-4.802l14.028,14.026L59.275,113H113V59.278
	l-4.497,4.494c-0.073,0.075-0.731,0.659-1.274,0.112c-0.263-0.26-0.264-0.598-0.094-0.917c0.451-0.862,0.318-0.954-0.373-1.647
	L94.828,49.389l4.596-4.595l11.93,11.928c0.691,0.694,0.789,0.825,1.646,0.378V24.94l-4.825,4.822l-1.931-1.932
	c2.365-3.032,2.588-6.93,0.818-10.495c-0.267-0.735-0.603-1.471-0.004-2.066C108.127,14.203,109.025,15.305,109.158,15.44z
	 M93.725,8.521c1.031-1.027,2.072,0.337,2.34,0.604l7.201,7.204c0.268,0.266,1.633,1.304,0.604,2.335
	c-0.702,0.702-1.433,0.361-2.171-0.038c-1.568-0.965-3.5-1.63-5.265-0.605l-2.068-2.066c1.031-1.765,0.362-3.697-0.606-5.267
	C93.365,9.958,93.028,9.22,93.725,8.521z M69.248,18.788c0.131-0.132,1.295-1.166,2.262-0.199c0.465,0.467,0.465,1.069,0.172,1.633
	c-0.805,1.536-0.569,1.702,0.668,2.936l17.48,17.479c1.237,1.236,1.4,1.468,2.935,0.671c0.568-0.303,1.165-0.296,1.635,0.166
	c0.965,0.966-0.062,2.131-0.194,2.266l-9.426,9.422c-0.135,0.136-1.301,1.164-2.264,0.199c-0.472-0.467-0.477-1.065-0.174-1.634
	c0.799-1.529,0.566-1.698-0.668-2.934L66.181,33.3l13.501,24.954l-0.965,0.963L51.116,45.528c-0.668-0.337-1.335-0.672-2.035-0.839
	c-0.795-0.202-1.332-0.468-1.933,0.062c-0.431,0.369-1.399,1.202-2.199,0.399c-1.033-1.036-0.029-2.034,0.369-2.433l8.452-8.45
	l13.797,6.675l0.069-0.064l-7.179-13.304L69.248,18.788z M68.928,84.521c-0.229-0.415-0.416-0.829-0.02-1.223
	c0.582-0.579,1.166,0.19,1.314,0.34l4.053,4.054c0.147,0.147,0.918,0.729,0.334,1.311c-0.39,0.396-0.805,0.206-1.218-0.02
	c-0.88-0.542-1.968-0.919-2.962-0.335l-1.166-1.166C69.845,86.489,69.471,85.403,68.928,84.521z M70.859,81.874
	c-0.32,0.319-0.6,0.226-0.977,0.038c-2.009-1.031-3.881-0.994-5.798,0.391l-1.086-1.085l4.183-4.181l3.808,3.804
	C71.083,80.936,71.422,81.31,70.859,81.874z M56.906,73.357L39.63,56.076c-0.836-0.832-1.971-1.699-4.099-0.7l-1.936-1.934
	c7.688-6.424,16.691-4.018,23.329,2.62c6.637,6.64,9.047,15.637,2.623,23.331l-1.932-1.934
	C58.613,75.328,57.746,74.189,56.906,73.357z M66.392,61.004L55.152,49.762l0.067-0.067l7.367,3.641l5.736,5.737
	c4.703,3.639,5.529,0.211,6.963,1.646c1.035,1.033-0.395,2.327-0.759,2.693l-3.796,3.791c-0.364,0.367-1.661,1.8-2.693,0.769
	C66.601,66.535,70.029,65.705,66.392,61.004z M53.74,21.804c-0.142-0.388-0.318-0.776,0-1.093c0.563-0.563,1.04,0.018,1.11,0.089
	l3.525,3.525l-4.054,4.055l-1.022-1.022C54.55,25.754,54.675,23.69,53.74,21.804z M52.049,22.51
	c-0.371,0.37-0.759,0.194-1.147-0.018c-0.829-0.51-1.851-0.863-2.786-0.316l-1.093-1.095c0.546-0.934,0.193-1.956-0.318-2.785
	c-0.211-0.388-0.388-0.775-0.017-1.146c0.547-0.546,1.094,0.176,1.234,0.318l3.808,3.808C51.872,21.417,52.594,21.964,52.049,22.51z
	 M45.067,11.264l3.579,3.578c0.087,0.088,0.404,0.44-0.124,0.969c-0.3,0.3-0.564,0.211-0.916,0.035
	c-1.888-0.968-3.651-0.934-5.448,0.371l-1.022-1.022L45.067,11.264z M35.687,20.642l4.655-4.654l13.187,13.186l-4.654,4.654
	c-0.07,0.07-0.687,0.617-1.199,0.105c-0.246-0.246-0.246-0.564-0.088-0.863c0.423-0.812,0.3-0.899-0.353-1.552l-9.238-9.238
	c-0.652-0.652-0.741-0.776-1.551-0.353c-0.3,0.159-0.617,0.159-0.864-0.087C35.071,21.329,35.617,20.711,35.687,20.642z
	 M29.037,27.291l4.989-4.988c0.071-0.07,0.688-0.617,1.199-0.105c0.246,0.247,0.246,0.563,0.088,0.863
	c-0.423,0.811-0.3,0.899,0.353,1.552l9.237,9.237c0.652,0.652,0.74,0.775,1.551,0.353c0.3-0.159,0.617-0.159,0.864,0.088
	c0.512,0.511-0.036,1.128-0.105,1.198l-4.989,4.99c-0.07,0.071-0.687,0.617-1.199,0.105c-0.246-0.246-0.246-0.563-0.088-0.863
	c0.423-0.812,0.299-0.899-0.353-1.552l-4.213-4.213l-1.551,1.552l-1.022-1.023l1.551-1.551l-4.001-4.003
	c-0.653-0.652-0.741-0.776-1.552-0.352c-0.299,0.159-0.617,0.159-0.864-0.089C28.42,27.979,28.967,27.362,29.037,27.291z
	 M22.374,33.955l4.989-4.989c0.071-0.069,0.687-0.617,1.198-0.105c0.248,0.248,0.248,0.565,0.087,0.864
	c-0.422,0.811-0.299,0.899,0.354,1.551l9.237,9.238c0.653,0.653,0.741,0.775,1.552,0.353c0.299-0.158,0.617-0.158,0.864,0.088
	c0.51,0.511-0.037,1.128-0.106,1.199l-4.988,4.988c-0.071,0.071-0.688,0.618-1.199,0.107c-0.246-0.248-0.247-0.565-0.087-0.866
	c0.423-0.81,0.3-0.897-0.353-1.551l-9.239-9.237c-0.652-0.653-0.741-0.776-1.551-0.353c-0.3,0.158-0.617,0.158-0.864-0.089
	C21.757,34.643,22.303,34.025,22.374,33.955z M21.193,35.137l4.107,4.107c0.07,0.071,0.458,0.563-0.071,1.093
	c-0.495,0.494-1.041,0.123-1.481-0.211c-1.093-0.776-2.503-1.693-4.073-1.429l-1.022-1.022L21.193,35.137z M17.86,38.469
	l11.212,11.212c0.653,0.653,0.741,0.776,1.552,0.353c0.299-0.16,0.616-0.16,0.863,0.088c0.511,0.51-0.035,1.127-0.105,1.197
	l-4.989,4.991c-0.071,0.068-0.688,0.616-1.198,0.104c-0.248-0.247-0.248-0.563-0.088-0.864c0.422-0.811,0.3-0.898-0.353-1.551
	L13.542,42.788L17.86,38.469z M10.209,46.119l2.539-2.539l1.022,1.023c-0.265,1.569,0.652,2.979,1.428,4.073
	c0.335,0.441,0.706,0.987,0.212,1.48c-0.53,0.53-1.023,0.142-1.094,0.07L10.209,46.119z M45.566,92.376l-9.423,9.417
	c-0.135,0.133-1.301,1.164-2.267,0.201c-0.464-0.469-0.465-1.069-0.169-1.635c0.803-1.532,0.567-1.699-0.666-2.934l-7.974-7.975
	l-2.933,2.932l-1.929-1.934l2.926-2.932l-7.577-7.573c-1.229-1.232-1.397-1.464-2.932-0.669c-0.562,0.302-1.168,0.297-1.631-0.17
	c-0.967-0.967,0.066-2.127,0.2-2.264l9.42-9.419c0.133-0.134,1.295-1.165,2.263-0.201c0.468,0.47,0.472,1.069,0.171,1.634
	c-0.801,1.533-0.565,1.699,0.667,2.932l17.48,17.482c1.232,1.236,1.4,1.472,2.934,0.667c0.567-0.296,1.164-0.294,1.633,0.172
	C46.726,91.076,45.698,92.242,45.566,92.376z M34.72,78.268c-6.637-6.641-9.046-15.642-2.624-23.331l1.935,1.935
	c-1,2.13-0.13,3.263,0.705,4.097l17.279,17.28c0.834,0.835,1.969,1.702,4.099,0.704l1.934,1.938
	C50.358,87.313,41.361,84.905,34.72,78.268z M64.24,108.036l-1.086-1.088c0.994-1.298-0.02-2.423-0.734-3.132l-7.988-7.992
	c-0.714-0.711-1.839-1.725-3.131-0.73l-1.09-1.088c3.15-3.228,8.026-3.677,13.092,0.941C67.915,99.145,67.354,104.922,64.24,108.036
	z M71.234,101.042c-0.075,0.073-0.733,0.656-1.276,0.113c-0.261-0.263-0.263-0.603-0.094-0.919c0.451-0.862,0.319-0.956-0.372-1.651
	l-9.828-9.828c-0.694-0.692-0.79-0.823-1.65-0.376c-0.32,0.173-0.656,0.172-0.922-0.093c-0.544-0.541,0.038-1.202,0.113-1.275
	l4.949-4.95l14.029,14.029L71.234,101.042z M77.031,95.248l-1.09-1.088c1.33-1.705,1.463-3.901,0.468-5.911
	c-0.147-0.412-0.339-0.822-0.001-1.161c0.603-0.6,1.109,0.018,1.183,0.094l3.754,3.754L77.031,95.248z M87.965,84.315l-5.309,5.31
	c-0.074,0.078-0.584,0.51-1.129-0.033c-0.261-0.264-0.308-0.557-0.14-0.876c0.451-0.862,0.215-0.853-0.478-1.548l-9.83-9.826
	c-0.693-0.695-0.787-0.826-1.65-0.378c-0.318,0.171-0.655,0.167-0.918-0.096c-0.543-0.542,0.039-1.199,0.113-1.274l4.951-4.948
	l11.932,11.931c0.69,0.69,0.786,0.826,1.648,0.373c0.319-0.168,0.656-0.17,0.92,0.094C88.623,83.585,88.04,84.242,87.965,84.315z
	 M86.684,71.563c-0.255-0.255-0.496-0.518-0.729-0.784c0.381,0.988,0.459,2.065,0.152,3.274c-0.377,1.39-1.239,2.629-3.021,4.409
	l-1.087-1.086c0.899-1.317,0.189-2.141-0.729-3.063l-2.832-2.832c-0.844-0.842-1.784-1.443-2.93-0.598l-1.088-1.086
	c1.783-1.783,3.02-2.648,4.41-3.021c2.156-0.55,3.902,0.103,5.449,1.591c-1.691-3.16-1.726-6.744,0.939-9.936l1.09,1.092
	c-0.563,1.2-0.076,1.836,0.391,2.305l9.717,9.714c0.469,0.469,1.108,0.957,2.307,0.394l1.088,1.087
	C95.48,76.646,90.415,75.297,86.684,71.563z M108.581,105.239c1.646,0,3.05,1.344,3.05,3.168c0,1.84-1.406,3.184-3.05,3.184
	c-1.659,0-3.063-1.344-3.063-3.184C105.518,106.583,106.921,105.239,108.581,105.239z M95.076,51.319
	c-0.283,1.672,0.692,3.17,1.518,4.333c0.342,0.451,0.708,1.004,0.273,1.511c0.815,0.529,1.596,1.163,2.325,1.893
	c3.734,3.732,5.087,8.793,1.466,13.129l-1.09-1.089c0.562-1.2,0.074-1.836-0.395-2.308l-9.715-9.713
	c-0.469-0.471-1.106-0.957-2.307-0.396l-1.086-1.086c2.619-2.189,5.504-2.552,8.2-1.68l-2.979-2.979l2.699-2.7L95.076,51.319z
	 M107.264,46.78c-0.523,0.523-1.105,0.133-1.572-0.228c-1.164-0.821-2.666-1.795-4.332-1.513l-1.088-1.087l2.699-2.704l4.371,4.37
	C107.416,45.694,107.829,46.218,107.264,46.78z M106.68,31.258l-8.788,8.792c-0.134,0.133-1.302,1.165-2.267,0.199
	c-0.468-0.468-0.468-1.071-0.168-1.634c0.797-1.533,0.567-1.701-0.669-2.936L77.303,18.198c-1.234-1.23-1.398-1.466-2.933-0.665
	c-0.567,0.299-1.167,0.299-1.632-0.169c-0.968-0.964,0.066-2.134,0.199-2.266l8.783-8.786L106.68,31.258z"/>
</svg>
