<?xml version="1.0" encoding="utf-8"?>
<!-- Generator: Adobe Illustrator 16.0.0, SVG Export Plug-In . SVG Version: 6.00 Build 0)  -->
<!DOCTYPE svg PUBLIC "-//W3C//DTD SVG 1.1//EN" "http://www.w3.org/Graphics/SVG/1.1/DTD/svg11.dtd">
<svg version="1.1" id="Layer_1" xmlns="http://www.w3.org/2000/svg" xmlns:xlink="http://www.w3.org/1999/xlink" x="0px" y="0px"
	 width="113px" height="65px" viewBox="0 0 113 65" enable-background="new 0 0 113 65" xml:space="preserve">
<path fill="#4D4D4D" d="M6.432,10.152c5.894,1.864,17.87,4.188,20.395,4.779c3.416,0.801,3.336,2.941,3.336,2.941
	s-0.684-0.696-2.319-1.079c-1.229-0.289-13.951-3.29-20.679-4.81c-3.791-0.858-4.702-2.555-4.702-2.555L2.452,9.444
	c0,0-1.79,7.601,6.263,10.148c5.894,1.864,17.87,4.188,20.396,4.78c3.416,0.8,3.335,2.941,3.335,2.941s-0.684-0.696-2.319-1.08
	c-1.229-0.288-13.951-3.29-20.68-4.81c-3.791-0.858-4.625-2.506-4.634-2.462c-0.152,0.75-1.335,7.673,6.276,10.081
	c2.112,0.669,5.004,1.396,7.964,2.081c0.083,0.019,0.218,0.06,0.313,0.083c-0.01,0.054-0.021,0.11-0.031,0.167
	c-0.65,3.564-1.871,11.985,5.67,14.508c6.101,2.041,9.409,3.361,13.046,6.049c3.25,2.4,13.375,13.037,19.805,13.037
	c0,0,1.639,0.033,1.767,0.033c4.64,0,7.095-3.826,1.892-6.613c-5.204-2.79-9.861-13.418-14.55-21.982
	c-4.963-9.073-6.583-21.839-12.151-26.186c-0.383-0.312-0.796-0.593-1.243-0.837c-0.709-0.389-1.84-0.687-2.668-0.875l-18.71-4.269
	C9.525,3.618,6.92,3.018,4.87,2.554C1.079,1.697,0.168,0,0.168,0l0.001,0.005C0.169,0.005-1.621,7.606,6.432,10.152z"/>
<path fill="#4D4D4D" d="M99.949,32.463h2.751v13.708h6.731V32.463h3.401v-4.21h-3.537c-0.103-1.658,0.44-2.142,2.072-2.142
	c0.544,0,1.091,0.172,1.632,0.242v-4.696c-1.018-0.034-2.006-0.137-3.025-0.137c-2.72,0-4.418,0.207-5.881,1.691
	c-1.293,1.312-1.46,3.282-1.395,5.042h-2.751L99.949,32.463z"/>
<path fill="#4D4D4D" d="M77.284,32.463v-4.21h-3.603v-5.456h-6.729v5.456h-2.994v4.21h2.994v8.562c0,4.904,3.16,5.353,6.014,5.353
	c1.428,0,2.958-0.206,4.317-0.206v-5.18c-0.508,0.069-1.021,0.104-1.528,0.104c-1.701,0-2.074-0.725-2.074-2.384v-6.25H77.284z"/>
<path fill="#4D4D4D" d="M89.291,35.087c-3.435,0.656-9.962,0.45-9.962,6.11c0,3.764,2.823,5.422,6.222,5.422
	c2.176,0,4.248-0.482,5.677-2.139h0.068c-0.034,0.48,0.067,1.207,0.237,1.689h6.868c-0.749-1.141-0.815-2.658-0.815-4.005v-7.353
	c0-3.453,0.066-7.01-8.363-7.01c-4.182,0-8.873,0.828-9.077,5.869H86.4c0.035-0.758,0.443-1.831,2.517-1.831
	c1.086,0,2.208,0.45,2.208,1.657C91.125,34.639,90.209,34.916,89.291,35.087z M91.125,39.781c-0.102,1.865-1.291,2.797-2.821,2.797
	c-1.224,0-2.106-0.828-2.106-1.657c0-1.206,0.781-1.585,2.277-1.932c0.918-0.208,1.836-0.45,2.65-0.864V39.781z"/>
</svg>
