<?xml version="1.0" encoding="utf-8"?>
<!-- Generator: Adobe Illustrator 16.0.0, SVG Export Plug-In . SVG Version: 6.00 Build 0)  -->
<!DOCTYPE svg PUBLIC "-//W3C//DTD SVG 1.1//EN" "http://www.w3.org/Graphics/SVG/1.1/DTD/svg11.dtd">
<svg version="1.1" id="Layer_1" xmlns="http://www.w3.org/2000/svg" xmlns:xlink="http://www.w3.org/1999/xlink" x="0px" y="0px"
	 width="164px" height="51px" viewBox="0 0 164 51" enable-background="new 0 0 164 51" xml:space="preserve">
<path fill="#4D4D4D" d="M128.758,0H25.495C11.394,0,0,11.069,0,24.768c0,13.697,11.395,24.767,25.495,24.767h103.263
	c13.959,0,25.354-11.071,25.354-24.767C154.111,11.069,142.717,0,128.758,0z M128.758,47.32H25.495
	c-12.817,0-23.216-10.102-23.216-22.553c0-12.454,10.397-22.554,23.216-22.554h103.263c12.819,0,23.217,10.101,23.217,22.554
	C151.975,37.219,141.577,47.32,128.758,47.32z"/>
<path fill="#4D4D4D" d="M120.212,27.811h-3.276v4.151h1.994c1.709,0,4.131,0.138,4.273-2.075
	C123.346,28.087,121.779,27.811,120.212,27.811z"/>
<path fill="#4D4D4D" d="M120.639,19.231h-3.561v4.567h3.275c1.994,0,3.703-0.416,3.703-2.353
	C124.2,19.923,122.35,19.231,120.639,19.231z"/>
<path fill="#4D4D4D" d="M128.758,4.428H25.495c-11.537,0-20.938,9.131-20.938,20.34c0,11.206,9.4,20.339,20.938,20.339h103.263
	c11.537,0,20.938-9.134,20.938-20.339C149.695,13.559,140.295,4.428,128.758,4.428z M47.715,35.974h-9.543l-0.142-7.886H31.05
	l-0.143,7.886h-9.4l-1.424-22.415h11.252l-0.143,10.102h6.695l-0.143-10.102h11.252L47.715,35.974z M59.251,28.227h-6.694v-4.565
	h6.694V28.227z M91.441,19.647H74.492L74.35,23.66h12.106l-0.142,4.428H74.207v3.735h16.807l-0.428,4.149H64.237L63.24,13.558
	h28.628L91.441,19.647z M101.98,28.227h-6.837v-4.565h6.837V28.227z M135.025,19.647c0,3.598-1.567,5.535-4.844,6.227
	c4.131,0.416,3.988,3.458,3.562,5.396c-0.427,2.076-1.851,4.704-7.548,4.704h-18.801l-1.424-22.415h21.649
	C133.887,13.559,135.168,17.433,135.025,19.647z"/>
<path fill="#4D4D4D" d="M163.348,43.908c-0.433-0.759-1.039-1.34-1.816-1.749c-0.778-0.404-1.575-0.608-2.391-0.608
	c-0.817,0-1.617,0.204-2.393,0.608c-0.779,0.409-1.387,0.99-1.822,1.749c-0.435,0.758-0.652,1.547-0.652,2.37
	c0,0.813,0.213,1.597,0.645,2.347c0.428,0.753,1.029,1.337,1.803,1.75c0.768,0.417,1.576,0.625,2.42,0.625
	c0.842,0,1.647-0.208,2.42-0.625c0.77-0.413,1.369-0.997,1.797-1.75c0.43-0.75,0.643-1.533,0.643-2.347
	C163.999,45.455,163.782,44.666,163.348,43.908z M162.658,48.234c-0.357,0.625-0.855,1.112-1.5,1.459
	c-0.645,0.348-1.318,0.523-2.018,0.523c-0.703,0-1.373-0.176-2.017-0.523c-0.646-0.348-1.147-0.836-1.505-1.459
	c-0.359-0.625-0.539-1.275-0.539-1.955c0-0.687,0.182-1.344,0.548-1.977c0.366-0.631,0.871-1.117,1.517-1.458
	c0.647-0.339,1.313-0.511,1.996-0.511c0.678,0,1.344,0.171,1.992,0.511c0.648,0.341,1.155,0.827,1.518,1.458
	c0.363,0.631,0.543,1.29,0.543,1.977C163.191,46.959,163.014,47.609,162.658,48.234z"/>
<path fill="#4D4D4D" d="M159.988,46.886c-0.11-0.104-0.258-0.195-0.444-0.27c0.45-0.034,0.813-0.188,1.086-0.464
	c0.274-0.276,0.41-0.598,0.41-0.97c0-0.263-0.082-0.511-0.245-0.745c-0.166-0.234-0.383-0.398-0.658-0.492s-0.72-0.139-1.335-0.139
	h-1.798v5.083h0.844V46.73h0.495c0.296,0,0.525,0.059,0.679,0.176c0.224,0.158,0.518,0.553,0.881,1.182l0.465,0.802h1.033
	l-0.639-0.993C160.457,47.423,160.2,47.086,159.988,46.886z M158.876,46.028h-1.026v-1.534h0.961c0.412,0,0.693,0.028,0.849,0.09
	c0.151,0.057,0.271,0.145,0.356,0.264s0.129,0.254,0.129,0.404c0,0.234-0.09,0.422-0.269,0.564
	C159.699,45.956,159.363,46.028,158.876,46.028z"/>
</svg>
