<?xml version="1.0" encoding="utf-8"?>
<!-- Generator: Adobe Illustrator 16.0.0, SVG Export Plug-In . SVG Version: 6.00 Build 0)  -->
<!DOCTYPE svg PUBLIC "-//W3C//DTD SVG 1.1//EN" "http://www.w3.org/Graphics/SVG/1.1/DTD/svg11.dtd">
<svg version="1.1" id="Layer_1" xmlns="http://www.w3.org/2000/svg" xmlns:xlink="http://www.w3.org/1999/xlink" x="0px" y="0px"
	 width="156px" height="112px" viewBox="0 0 156 112" enable-background="new 0 0 156 112" xml:space="preserve">
<path fill="#4D4D4D" d="M74.104,70.563C68.067,66.814,63.62,53.88,63.62,38.512c0-0.564,0.004-1.12,0.017-1.675l0.007,0.008
	c-16.789-2.616-28.92-9.782-29.231-18.255l-0.049,0.098c-4.108,5.061-6.453,10.912-6.453,17.147
	c0,18.347,20.316,33.379,46.084,34.709L74.104,70.563z M20.148,37.173C20.148,16.644,45.919,0,77.711,0
	c31.791,0,57.562,16.644,57.562,37.173c0,20.528-25.771,37.173-57.562,37.173C45.919,74.346,20.148,57.701,20.148,37.173z
	 M77.711,5.365c6.137,0,11.357,9.229,13.291,22.105l0.008-0.02c11.94-1.842,20.301-6.092,20.301-11.038
	c0-6.638-15.045-12.012-33.599-12.012c-18.556,0-33.599,5.375-33.599,12.012c0,4.946,8.359,9.196,20.3,11.038l0.007,0.02
	C66.354,14.594,71.575,5.365,77.711,5.365z M81.426,70.542c25.77-1.329,46.088-16.362,46.088-34.708
	c0-6.234-2.348-12.085-6.455-17.147l-0.051-0.098c-0.31,8.474-12.438,15.64-29.229,18.255l0.007-0.008
	c0.011,0.556,0.017,1.112,0.017,1.676c0,15.368-4.449,28.303-10.482,32.051L81.426,70.542z M77.711,28.427
	c2.75,0,5.422-0.116,7.98-0.339l-0.005,0.004c-1.272-8.254-4.364-14.08-7.976-14.08c-3.612,0-6.703,5.826-7.978,14.08l-0.005-0.004
	c2.558,0.223,5.231,0.339,7.981,0.339H77.711z M77.711,58.995c4.621,0,8.389-9.532,8.59-21.487l0.024,0.008
	c-2.785,0.256-5.666,0.389-8.614,0.389c-2.952,0-5.83-0.133-8.615-0.389l0.026-0.008C69.321,49.463,73.089,58.995,77.711,58.995z"/>
<path fill="#4D4D4D" d="M77.881,98.209c0-7.615,6.182-13.79,13.804-13.79c7.627,0,13.809,6.175,13.809,13.79
	c0,7.617-6.182,13.791-13.809,13.791C84.063,112,77.881,105.826,77.881,98.209z M91.686,106.943c4.26,0,7.711-3.91,7.711-8.734
	c0-4.822-3.451-8.733-7.711-8.733c-4.255,0-7.706,3.911-7.706,8.733C83.979,103.032,87.431,106.943,91.686,106.943z"/>
<path fill="#4D4D4D" d="M121.159,111.374h-5.817V90.165h0.02h-8.135V85.37h22.047v4.795h-8.114V111.374z"/>
<path fill="#4D4D4D" d="M136.311,105.523l-0.006,0.006l-2.231,5.845h-6.794l10.74-26.005h7.239L156,111.374h-6.794l-2.231-5.845
	l-0.006-0.006H136.311z M145.301,101.134l-0.003,0.001l-3.632-9.518h-0.051l-3.635,9.518l-0.002-0.001H145.301z"/>
<path fill="#4D4D4D" d="M13.933,111.374H8.116V90.165h0.02H0V85.37h22.047v4.795h-8.115V111.374z"/>
<path fill="#4D4D4D" d="M23.535,98.209c0-7.615,6.182-13.79,13.807-13.79s13.807,6.175,13.807,13.79
	c0,7.617-6.182,13.791-13.807,13.791S23.535,105.826,23.535,98.209z M37.342,106.943c4.256,0,7.708-3.91,7.708-8.734
	c0-4.822-3.452-8.733-7.708-8.733s-7.709,3.911-7.709,8.733C29.633,103.032,33.085,106.943,37.342,106.943z"/>
<path fill="#4D4D4D" d="M67.464,111.374V101.5l10.148-16.13H70.82L64.515,96.3L58.21,85.37h-6.794l10.149,16.13v9.874H67.464z"/>
</svg>
