<?xml version="1.0" encoding="utf-8"?>
<!-- Generator: Adobe Illustrator 16.0.0, SVG Export Plug-In . SVG Version: 6.00 Build 0)  -->
<!DOCTYPE svg PUBLIC "-//W3C//DTD SVG 1.1//EN" "http://www.w3.org/Graphics/SVG/1.1/DTD/svg11.dtd">
<svg version="1.1" id="Layer_1" xmlns="http://www.w3.org/2000/svg" xmlns:xlink="http://www.w3.org/1999/xlink" x="0px" y="0px"
	 width="162px" height="29px" viewBox="0 0 162 29" enable-background="new 0 0 162 29" xml:space="preserve">
<path fill="#4D4D4D" d="M30.215,16.063h6.14v5.369h-2.069v-1.986h-2v1.988h-2.071V16.063z"/>
<path fill="#4D4D4D" d="M13.352,12.155c0.255-0.525,0.396-1.118,0.396-1.738c0-2.232-1.832-4.051-4.078-4.051
	c-2.174,0-3.959,1.699-4.076,3.826c-0.469-0.187-0.978-0.285-1.513-0.285C1.833,9.907,0,11.724,0,13.954
	c0,2.232,1.833,4.05,4.081,4.05c0.535,0,1.046-0.1,1.514-0.285c0.125,2.119,1.905,3.809,4.075,3.809c2.246,0,4.078-1.82,4.078-4.049
	c0-0.604-0.132-1.174-0.372-1.691h15.78v-0.011h9.1l0.001-3.622H13.352z M4.279,15.75c-1.006,0-1.824-0.813-1.824-1.808
	c0-0.999,0.818-1.812,1.824-1.812c1.003,0,1.823,0.813,1.823,1.812C6.103,14.938,5.283,15.75,4.279,15.75z M9.652,19.378
	c-1.005,0-1.825-0.813-1.825-1.812c0-0.995,0.82-1.813,1.825-1.813c1.004,0,1.822,0.817,1.822,1.813
	C11.474,18.565,10.656,19.378,9.652,19.378z M9.652,12.095c-1.005,0-1.825-0.811-1.825-1.811c0-0.996,0.82-1.811,1.825-1.811
	c1.004,0,1.822,0.815,1.822,1.811C11.474,11.284,10.656,12.095,9.652,12.095z"/>
<path fill="#4D4D4D" d="M84.269,4.691c-4.802,0-8.715,3.9-8.711,8.688c0.005,4.785,3.925,8.689,8.731,8.689
	c4.801,0,8.716-3.904,8.711-8.689C92.994,8.591,89.07,4.691,84.269,4.691z M84.281,18.565c-2.871,0-5.139-2.331-5.141-5.192
	c-0.006-2.862,2.258-5.194,5.131-5.194c2.869,0,5.215,2.333,5.218,5.194S87.152,18.565,84.281,18.565z"/>
<path fill="#4D4D4D" d="M74.125,18.284h-6.633c-3.943-0.236-6.679-3.715-6.454-7.674c0.334-4.057,3.04-6.682,7.205-6.887
	c2.059-0.022,3.745-0.073,5.888-0.073l0.003-1.593L74.13,0.023c-3.121,0.054-6.561-0.157-8.727,0.135
	c-4.638,0.623-8.241,6.131-8.237,10.848c0.005,6.104,4.862,10.974,10.738,10.974c2.016,0.004,4.189-0.017,6.223-0.004
	C74.124,18.225,74.121,19.519,74.125,18.284z"/>
<path fill="#4D4D4D" d="M103.177,4.648c-4.84,0-8.782,3.894-8.78,8.673l0.02,15.283h3.289l-0.027-8.534
	c1.511,1.203,3.43,1.928,5.516,1.928c4.841,0,8.783-3.896,8.779-8.677C111.967,8.542,108.016,4.648,103.177,4.648z M103.027,18.618
	c-3,0-5.101-2.103-5.104-5.065c-0.002-2.959,2.094-5.457,5.092-5.457c3.002,0,5.53,2.415,5.453,5.221
	C108.391,16.123,106.025,18.618,103.027,18.618z"/>
<path fill="#4D4D4D" d="M122.152,4.648c-4.84,0-8.781,3.894-8.776,8.673l0.019,15.283h3.289l-0.029-8.534
	c1.513,1.203,3.433,1.928,5.517,1.928c4.841,0,8.784-3.896,8.778-8.677C130.945,8.542,126.993,4.648,122.152,4.648z M122.005,18.618
	c-2.999,0-5.101-2.103-5.101-5.065c-0.004-2.959,2.091-5.457,5.09-5.457s5.447,2.259,5.451,5.221
	C127.449,16.279,125.004,18.618,122.005,18.618z"/>
<path fill="#4D4D4D" d="M136.107,15.691l6.983-7.035c-0.565-0.252-0.845-0.493-1.909-0.588c-3.086,0-5.625,2.309-5.623,5.282
	C135.559,14.284,135.671,14.924,136.107,15.691z M146.834,9.851l-8.072,8.163c-0.146,0.088,0.76,0.756,2.481,0.699h6.208
	l0.004,3.317h-5.419c-5.315,0.231-9.829-3.577-9.83-8.676c-0.118-4.795,4.008-8.706,9.032-8.706
	c2.854,0.008,5.252,1.971,5.611,2.445C147.575,7.701,147.637,9.321,146.834,9.851z"/>
<path fill="#4D4D4D" d="M148.92,0.158h3.241V13.19c0.178,2.116,0.974,3.428,1.932,4.251c0.62,0.53,1.611,0.779,2.726,0.885
	l4.771-0.01v3.662l-4.075,0.052c-2.182,0.032-4.494-0.36-5.771-1.598c-1.795-1.739-2.917-3.704-2.906-7.807L148.92,0.158z"/>
</svg>
