<?xml version="1.0" encoding="utf-8"?>
<!-- Generator: Adobe Illustrator 16.0.0, SVG Export Plug-In . SVG Version: 6.00 Build 0)  -->
<!DOCTYPE svg PUBLIC "-//W3C//DTD SVG 1.1//EN" "http://www.w3.org/Graphics/SVG/1.1/DTD/svg11.dtd">
<svg version="1.1" id="Layer_1" xmlns="http://www.w3.org/2000/svg" xmlns:xlink="http://www.w3.org/1999/xlink" x="0px" y="0px"
	 width="119px" height="101px" viewBox="0 0 119 101" enable-background="new 0 0 119 101" xml:space="preserve">
<path fill="#4D4D4D" d="M57.5,101c27.891,0,50.5-22.609,50.5-50.5S85.391,0,57.5,0S7,22.609,7,50.5S29.609,101,57.5,101z"/>
<path fill="#4D4D4D" d="M30,93c0,0-21.694-1.863-24-13.464L7.879,72h3.16C11.039,72.085,16.933,86.311,30,93z"/>
<path fill="#4D4D4D" d="M90,11c0,0,9.98,9.063,11.175,12.971c1.195,3.908,6.825-4.573,6.825-4.573S100.919,11.25,90,11z"/>
<path fill="#4D4D4D" d="M100.018,24.298c0.762,0.084,1.438-0.084,1.861-0.76c0.169,0,0.254,0,0.338,0
	c2.37-1.012,3.725-2.869,4.485-5.231c1.524,1.35,2.455,3.122,3.385,4.894c2.285,4.219,3.64,8.691,4.824,13.332
	c2.2,8.522,2.877,17.128,3.047,25.82c0,0.506,0.169,1.013-0.17,1.435c-2.623,2.699-5.669,4.641-9.14,5.906
	c-4.146,1.519-8.463,2.109-12.863,2.193c-4.484,0.085-8.885,0-13.37-0.506c-1.946-0.169-4.147-0.675-5.839,1.097
	c-0.085,0.085-0.254,0.085-0.339,0.085c-2.793,0.675-5.585,0.253-8.378-0.085c0.592-0.084,1.27-0.084,1.861-0.084
	c5.924-0.085,9.647-3.038,11.086-8.86c1.523-5.99,2.709-12.065,3.893-18.141c0.17-1.012,0.762-2.109,0.17-3.206
	c0.084-0.253,0.084-0.506,0.169-0.675c0.593-0.422,0.423-1.012,0.339-1.603c0.423-1.772,0.846-3.544,1.27-5.316
	c0.169-0.844,0.508-1.688,0.592-2.616c0.17-0.928,0-1.603-1.27-1.519c-1.946,0.084-3.977,0.084-6.008,0
	c-1.016-0.084-1.354,0.422-1.607,1.351c-0.848,4.134-1.777,8.354-2.709,12.488c-0.677,2.953-1.438,5.738-3.131,8.353
	c-0.678,1.013-1.439,1.857-2.539,2.279c-1.27,0.506-1.861,0.252-2.285-1.098c-0.338-1.182-0.169-2.362,0-3.544
	c0.932-4.388,1.862-8.775,2.878-13.163c0.339-1.688,0.761-3.291,1.101-4.978c0.254-1.519,0.084-1.688-1.27-1.688
	c-1.947,0-3.894,0.084-5.84,0c-1.1-0.084-1.438,0.338-1.692,1.351c-1.185,5.569-2.454,11.222-3.724,16.791
	c-0.592,2.616-2.2,4.726-4.316,6.329c-1.269,1.012-2.116,0.59-2.37-1.014c-0.084-0.759-0.084-1.519,0.085-2.277
	c0.762-3.713,1.523-7.426,2.285-11.054c0.592-2.785,1.185-5.654,1.777-8.438c0.338-1.604,0.338-1.604-1.185-1.604
	c-1.438,0-2.792,0-4.231,0c-0.592,0-1.185,0-1.693,0.084c-0.761,0.084-0.423,1.097-1.015,1.435
	c-1.185-1.519-2.793-2.194-4.655-2.278c-2.369-0.084-4.654,0.591-6.685,1.856c-6.855,4.219-11.509,15.694-9.478,23.626
	c0.507,2.024,1.354,3.882,3.131,5.063v0.085h0.084c0.169,0.084,0.339,0.253,0.508,0.337c0.254,0.422,0.593,0.76,1.016,0.929
	c2.962,1.35,6.77,0.759,9.14-1.52c0.846-0.844,1.862-1.604,2.792-2.362c0.254,0.844,0.762,1.519,1.27,2.194
	c0,0.168,0,0.168,0.169,0.084c0.084,0.084,0.169,0.169,0.254,0.253v0.085h0.084c0.084,0.084,0.169,0.168,0.254,0.253
	c-0.084,0.422,0.338,0.506,0.592,0.675c2.877,1.856,5.67,1.266,8.378-0.338c1.608-0.928,2.792-2.277,4.062-3.628
	c1.692,3.375,3.47,4.304,7.193,3.966c2.285-0.169,4.146-1.266,5.924-2.615c-0.17,1.181-0.338,2.362-0.592,3.459
	c-0.508,2.278-1.777,3.375-4.063,3.291c-1.777,0-3.555-0.254-5.332-0.254c-2.453-0.084-4.485,0.929-5.669,3.207
	c-0.931-0.338-1.523,0-1.777,0.928c-0.084,0.422-0.254,0.76-0.338,1.098c-0.338,0.844-1.185,0.928-1.692,0.759
	c-0.593-0.169,0-0.844,0.169-1.181c0.339-1.013,0.846-1.941,1.185-2.953c0.169-0.507,0.423-1.098-0.423-1.266
	c0.084-0.592,0-0.844-0.762-0.676c-5.5,1.35-11.001,1.098-16.502,0.422c-5.162-0.59-10.155-1.266-15.148-1.012
	c-0.762-0.085-0.931-0.423-0.762-1.098c2.792-13.163,5.585-26.41,8.462-39.573c0.169-0.844,0.254-1.519-0.169-2.278
	c0-0.675-0.508-0.506-0.931-0.506c-3.131,0-6.262,0-9.394,0c-0.677,0-0.931,0.169-0.846,0.928c0.169,1.35,0,2.616-0.254,3.966
	c-1.946,10.632-4.4,21.095-6.601,31.642c-0.846,4.135-1.777,8.27-2.708,12.488c-0.338,1.688-0.338,1.604,1.354,1.435
	c4.146-0.422,8.378-0.253,12.524-0.422c0.339,0.591,0.931,0.759,1.523,0.759c0.931,0.085,1.862,0.169,2.708,0.254
	c-3.046,0.084-6.093,0.506-9.055,0.76c-1.608,0.084-3.131,0.59-4.485,1.434C10.145,76.021,7.859,78.215,5.998,81
	c-2.37-5.822-3.893-11.813-4.993-18.057c-0.762-5.147-1.185-10.379-0.931-15.61c0.423-7.678,1.862-15.188,5.585-22.022
	c0.762-1.351,2.116-1.941,3.385-2.616c3.047-1.856,6.432-3.038,9.732-4.219c2.708-0.675,5.417-1.181,8.209-1.35
	c6.77-0.422,13.54,0.253,20.226,1.519c5.332,1.012,10.663,2.362,15.995,3.375c5.162,1.097,10.239,2.362,15.486,2.953
	c4.063,0.506,8.209,0.76,12.271,0.844c-0.169,0.844-0.423,1.604-0.593,2.447c-0.254,0.084-0.338,0.253-0.254,0.506
	c-0.084,0.169-0.169,0.338-0.254,0.507h-0.084v0.084c-0.085,0.084-0.085,0.169-0.17,0.253c0.424,0.928,1.27,1.097,2.031,0.928
	c2.116-0.337,4.063-1.097,5.078-3.038C97.479,26.07,98.155,24.635,100.018,24.298z M86.646,60.496l0.084,0.084
	c0.17,0.507,0.593,0.591,1.016,0.76c2.115,1.097,4.485,1.097,6.77,0.928c3.471-0.253,6.687-1.097,9.31-3.543
	c2.877-2.701,3.808-6.751,2.284-9.704c-0.168-0.506-0.338-0.928-0.676-1.35c-1.692-2.531-3.978-4.472-6.263-6.413
	c-0.931-0.759-1.862-1.603-2.285-2.785c1.101-3.459,3.216-4.388,6.263-2.7c3.301,1.856,6.093,0.675,6.938-3.122
	c0,0-0.253-0.084-0.338-0.169c0.169-0.844-0.254-1.266-1.017-1.519c-5.076-1.519-9.984-1.688-14.724,1.097
	c-2.962,1.688-4.909,4.219-4.993,7.932c-0.084,3.712,2.031,6.075,4.57,8.269c1.27,1.097,2.623,2.109,3.808,3.291
	c1.354,1.351,1.523,3.122,0.677,4.304c-0.846,1.182-2.877,1.688-4.484,0.928c-0.847-0.338-1.523-0.844-2.37-1.266
	c-2.116-1.097-3.808-0.844-5.416,0.76c-2.116,2.025-2.031,2.531,0.423,4.135C86.223,60.58,86.393,60.665,86.646,60.496z"/>
<path fill="#FFFFFF" d="M7.525,84c0,0,3.896-9.992,22.786-12.532c18.805-2.54,45.234,1.354,45.234,1.354s35.238,6.352,43.455-8.044
	L118.831,63c0,0-7.031,12.617-41.253,7.282C43.356,64.947,15.318,66.472,6,80.443L7.525,84z"/>
<path fill="#FEFEFD" d="M86.228,41.678c-0.255,0.935-0.51,1.786-0.765,2.636c-1.273,5.953-2.377,11.99-3.906,17.942
	c-1.273,5.188-4.246,8.674-10.53,8.844c-3.142,0.086-6.369-0.085-9.511-0.085c-1.443,0-2.718,0.511-4.077,0.851
	c-0.339,0.085-0.594,0.256-0.849,0c-0.34-0.34,0-0.51,0.085-0.851c0.425-0.935,0.849-1.956,1.104-2.976
	c1.189-2.297,3.227-3.232,5.774-3.232c1.784,0,3.567,0.256,5.351,0.256c2.378,0,3.651-1.021,4.161-3.316
	c0.255-1.105,0.34-2.296,0.595-3.486c-1.784,1.36-3.651,2.466-5.944,2.636c-3.822,0.341-5.52-0.595-7.304-3.997
	c0.085-0.425-0.085-0.765-0.339-0.936c-0.34-0.084-0.595,0.341-0.765,0.596c-3.396,3.826-7.133,5.697-11.974,3.656
	c-0.085-0.084-0.17-0.17-0.255-0.255s-0.17-0.17-0.255-0.255c0-0.085,0-0.17-0.17-0.085c-0.509-0.681-1.019-1.36-1.273-2.211
	c-0.17-1.36-0.68-1.19-1.444-0.341c-2.208,2.552-4.925,4.168-8.492,3.997c-1.104-0.085-2.123-0.595-3.227-0.765
	c-0.17-0.086-0.339-0.256-0.509-0.341v-0.085h-0.085c-1.784-1.275-2.633-3.061-3.142-5.102c-2.038-7.994,2.632-19.559,9.681-23.896
	c2.038-1.275,4.331-1.956,6.793-1.871c1.868,0.085,3.482,0.766,4.671,2.296c0.594-0.34,0.254-1.361,1.019-1.446
	c0.594-0.085,1.188-0.085,1.783-0.085c1.443,0,2.887,0,4.331,0c1.528,0,1.613,0,1.274,1.616c-0.595,2.806-1.189,5.697-1.784,8.503
	c-0.764,3.742-1.528,7.483-2.292,11.14c-0.17,0.766-0.255,1.531-0.085,2.296c0.255,1.616,1.104,2.041,2.378,1.021
	c2.123-1.615,3.737-3.741,4.416-6.377c1.359-5.612,2.548-11.225,3.736-16.922c0.255-1.021,0.595-1.445,1.699-1.36
	c1.953,0.085,3.906,0,5.943,0c1.359,0,1.614,0.17,1.274,1.701c-0.34,1.701-0.765,3.316-1.104,5.017
	c-0.934,4.422-1.953,8.844-2.887,13.266c-0.255,1.19-0.425,2.381,0,3.571c0.425,1.361,1.02,1.615,2.293,1.105
	c1.104-0.425,1.868-1.36,2.547-2.296c1.699-2.551,2.463-5.442,3.143-8.418c0.934-4.167,1.869-8.418,2.718-12.585
	c0.17-0.935,0.509-1.36,1.613-1.36c2.038,0.085,3.991,0.085,6.029,0c1.274-0.085,1.444,0.595,1.274,1.531
	c-0.17,0.85-0.425,1.701-0.595,2.636c-0.425,1.786-0.849,3.572-1.274,5.357c-0.17,0.595-0.254,1.021-0.34,1.616
	C86.313,41.167,86.313,41.422,86.228,41.678z M37.652,53.412c0.679,1.105,1.528,1.445,2.802,0.936
	c2.123-0.766,3.057-2.551,3.907-4.337c1.868-3.826,2.632-7.908,3.312-12.075c0.169-1.19,0-2.381-1.274-3.146
	c-0.17-0.595-0.765-0.595-1.274-0.595c-1.699-0.085-2.887,0.936-3.737,2.211c-2.887,4.252-4.246,9.014-4.416,14.116
	C36.973,51.457,36.633,52.646,37.652,53.412z"/>
<path fill="#FEFEFD" d="M54.979,65.665c-0.51,1.182-0.935,2.278-1.445,3.46c-1.104,2.617-3.144,3.629-5.778,3.799
	c-3.484,0.168-6.968,0.084-10.452-0.507c-3.824-0.591-7.648-1.013-11.472-1.435c-0.85-0.085-1.785-0.254-2.634,0.084
	c-4.249,0.253-8.498,0-12.662,0.422c-1.699,0.169-1.699,0.169-1.359-1.435c0.85-4.136,1.869-8.271,2.719-12.491
	c2.209-10.549,4.673-21.099,6.628-31.648c0.255-1.351,0.425-2.617,0.255-3.967c-0.085-0.76,0.17-0.929,0.85-0.929
	c3.145,0,6.374,0,9.518,0c0.34,0,0.85-0.168,0.935,0.506c-1.274,4.727-2.125,9.622-3.229,14.432
	c-1.955,9.031-3.909,18.146-5.778,27.176c-0.34,1.436-0.17,1.52,1.445,1.436c5.098-0.338,10.112,0.422,15.125,0.928
	c5.608,0.591,11.132,0.929,16.655-0.422C54.895,64.82,55.064,65.074,54.979,65.665z"/>
<path fill="#FEFEFD" d="M97.842,38.368c0.429,1.241,1.457,1.986,2.4,2.731c2.314,1.904,4.629,3.807,6.343,6.29
	c0.258,0.414,0.515,0.828,0.687,1.324c0.514,2.069,0.172,3.972-0.771,5.793c-2.229,4.221-6.086,5.958-10.801,6.372
	c-2.743,0.248-5.572,0.166-8.229-0.744l-0.085-0.083c-0.086-0.249-0.258-0.249-0.43-0.165c-2.485-1.49-2.571-1.986-0.428-4.056
	c1.629-1.573,3.428-1.821,5.571-0.745c0.771,0.414,1.543,0.91,2.4,1.241c1.628,0.662,3.686,0.249,4.543-0.91
	c0.942-1.159,0.687-2.896-0.686-4.221c-1.2-1.159-2.571-2.152-3.857-3.228c-2.657-2.152-4.8-4.469-4.715-8.11
	c0.086-3.642,2.058-6.042,5.144-7.78c4.801-2.648,9.857-2.483,15-1.076c0.858,0.249,1.201,0.662,1.029,1.49
	c-0.514,0-0.686,0.414-0.771,0.745c-1.457,3.311-4.371,2.979-6.601,1.573c-0.601-0.332-1.2-0.662-1.886-0.745
	c-1.457-0.166-2.657,0.248-3.6,1.324C97.414,36.299,96.984,37.292,97.842,38.368z"/>
<path fill="#FFFFFF" d="M22.478,63.978c-1.536,0.084-1.617,0-1.375-1.433c1.859-9.018,3.638-18.118,5.498-27.135
	c0.97-4.804,1.859-9.607,3.072-14.41c0.404,0.758,0.404,1.433,0.162,2.275c-2.587,13.23-5.335,26.46-8.003,39.606
	C21.669,63.641,21.832,63.978,22.478,63.978z"/>
<path fill="#FEFEFD" d="M91.574,25.682c0.742-0.365,0.186-1.641,1.112-1.641c1.667-0.091,3.335,0,4.909,0
	c0.371,0,0.463,0.456,0.371,0.82c-0.927,2.735-4.725,6.017-7.967,4.923c0.093-0.091,0.186-0.183,0.186-0.273
	c0.186,0.091,0.092,0,0.092-0.091c0.094-0.182,0.186-0.365,0.278-0.547c0.278-0.091,0.37-0.274,0.278-0.547
	C91.111,27.505,91.297,26.593,91.574,25.682z"/>
<path fill="#4D4D4D" d="M45.699,35c1.171,0.775,1.422,1.98,1.254,3.186c-0.585,4.219-1.422,8.352-3.262,12.227
	c-0.836,1.809-1.84,3.616-3.848,4.391c-1.254,0.432-2.091,0.173-2.76-0.947c0-0.774-0.083-1.549-0.083-2.324
	c0.167-4.563,1.505-8.782,3.513-12.829C41.6,36.464,43.189,35.086,45.699,35z"/>
<path fill="#FFFFFF" d="M85.339,68v-2.922h0.956c0.316,0,0.555,0.065,0.713,0.197c0.161,0.131,0.241,0.324,0.241,0.581
	c0,0.137-0.038,0.258-0.116,0.363c-0.078,0.104-0.184,0.186-0.316,0.243c0.157,0.044,0.281,0.128,0.373,0.252
	c0.092,0.123,0.139,0.271,0.139,0.441c0,0.263-0.086,0.469-0.256,0.619c-0.17,0.149-0.41,0.225-0.72,0.225H85.339z M85.725,66.633
	v1.052h0.636c0.179,0,0.32-0.046,0.423-0.139c0.105-0.094,0.157-0.222,0.157-0.386c0-0.352-0.191-0.527-0.574-0.527H85.725z
	 M85.725,66.324h0.582c0.168,0,0.303-0.042,0.402-0.127c0.102-0.084,0.152-0.198,0.152-0.343c0-0.16-0.046-0.276-0.14-0.349
	c-0.094-0.074-0.236-0.111-0.427-0.111h-0.57V66.324z"/>
<path fill="#FFFFFF" d="M88.971,66.818h-0.686V68h-0.388v-2.922h0.967c0.329,0,0.582,0.074,0.759,0.225
	c0.178,0.15,0.267,0.368,0.267,0.654c0,0.182-0.05,0.34-0.148,0.476c-0.098,0.135-0.233,0.235-0.409,0.303l0.686,1.24V68h-0.412
	L88.971,66.818z M88.285,66.503h0.592c0.191,0,0.343-0.05,0.455-0.149c0.113-0.098,0.17-0.23,0.17-0.396
	c0-0.181-0.054-0.319-0.162-0.416c-0.107-0.096-0.262-0.145-0.465-0.146h-0.59V66.503z"/>
<path fill="#FFFFFF" d="M92.045,67.237H90.82L90.546,68h-0.397l1.115-2.922h0.338L92.719,68h-0.395L92.045,67.237z M90.938,66.92
	h0.992l-0.497-1.366L90.938,66.92z"/>
<path fill="#FFFFFF" d="M95.357,68h-0.387L93.5,65.748V68h-0.388v-2.922H93.5l1.475,2.262v-2.262h0.383V68z"/>
<path fill="#FFFFFF" d="M96.041,68v-2.922h0.825c0.254,0,0.479,0.057,0.675,0.168c0.195,0.113,0.346,0.273,0.451,0.48
	c0.106,0.207,0.16,0.445,0.162,0.714v0.187c0,0.275-0.054,0.518-0.16,0.725c-0.105,0.207-0.258,0.366-0.456,0.478
	c-0.196,0.11-0.426,0.168-0.688,0.171H96.041z M96.427,65.395v2.29h0.405c0.297,0,0.527-0.093,0.692-0.276
	c0.165-0.186,0.249-0.448,0.249-0.789v-0.171c0-0.331-0.078-0.589-0.235-0.772c-0.155-0.184-0.376-0.277-0.662-0.281H96.427z"/>
<path fill="#4D4D4D" d="M107.451,76.397h-0.578V78h-0.236v-1.603h-0.576v-0.195h1.391V76.397z M106.516,79.202l0.588,1.467
	l0.586-1.467h0.309V81h-0.236v-0.7l0.021-0.755L107.193,81h-0.182l-0.59-1.452l0.023,0.752V81h-0.236v-1.798H106.516z"/>
</svg>
