<?xml version="1.0" encoding="utf-8"?>
<!-- Generator: Adobe Illustrator 16.0.0, SVG Export Plug-In . SVG Version: 6.00 Build 0)  -->
<!DOCTYPE svg PUBLIC "-//W3C//DTD SVG 1.1//EN" "http://www.w3.org/Graphics/SVG/1.1/DTD/svg11.dtd">
<svg version="1.1" id="Layer_1" xmlns="http://www.w3.org/2000/svg" xmlns:xlink="http://www.w3.org/1999/xlink" x="0px" y="0px"
	 width="164px" height="34px" viewBox="0 0 164 34" enable-background="new 0 0 164 34" xml:space="preserve">
<path fill="#4D4D4D" d="M19.599,21.545h-7.197V33H0V0h12.401v11.691h7.197V0H32v33H19.599V21.545z"/>
<path fill="#4D4D4D" d="M44.576,23.178c0,1.82,0.675,3.736,3.521,3.736c1.688,0,3.086-0.814,3.328-2.106h11.093
	C61.649,30.219,56.633,34,48.193,34C38.933,34,33,29.212,33,21.023C33,14.082,37.872,8,47.952,8C58.129,8,63,13.938,63,19.492
	c0,1.293-0.048,2.346-0.289,3.686H44.576z M44.576,18.295h6.849c0-2.154-1.302-3.495-3.424-3.495
	C45.878,14.8,44.576,16.141,44.576,18.295z"/>
<path fill="#4D4D4D" d="M77,0H65v33h12V0z"/>
<path fill="#4D4D4D" d="M91,0H80v33h11V0z"/>
<path fill="#4D4D4D" d="M93,21.023C93,13.794,98.209,8,108,8s15,5.794,15,13.023C123,28.159,117.791,34,108,34S93,28.158,93,21.023z
	 M111.424,21.023c0-2.059-1.35-3.494-3.424-3.494c-2.075,0-3.425,1.436-3.425,3.494c0,2.012,1.35,3.496,3.425,3.496
	C110.074,24.52,111.424,23.035,111.424,21.023z"/>
<path fill="#4D4D4D" d="M142.477,22.427L140.064,33h-10.692L121,9h11.307l3.168,12.585L137.555,9h9.889l2.08,12.585L152.693,9H164
	l-8.373,24h-10.691L142.477,22.427z"/>
</svg>
