<?xml version="1.0" encoding="utf-8"?>
<!-- Generator: Adobe Illustrator 16.0.0, SVG Export Plug-In . SVG Version: 6.00 Build 0)  -->
<!DOCTYPE svg PUBLIC "-//W3C//DTD SVG 1.1//EN" "http://www.w3.org/Graphics/SVG/1.1/DTD/svg11.dtd">
<svg version="1.1" id="Layer_1" xmlns="http://www.w3.org/2000/svg" xmlns:xlink="http://www.w3.org/1999/xlink" x="0px" y="0px"
	 width="409.465px" height="83.215px" viewBox="0 0 409.465 83.215" enable-background="new 0 0 409.465 83.215"
	 xml:space="preserve">
<path fill-rule="evenodd" clip-rule="evenodd" fill="#4D4D4D" d="M153.836,24.375c4.001-0.073,6.547,1.785,8.058,4.63
	c1.96,3.69,3.471,7.632,5.004,11.532c1.728,4.396,3.128,8.927,4.975,13.269c0.532,1.249,2.032,2.688,3.242,2.842
	c0.863,0.109,2.42-1.604,2.908-2.812c1.926-4.767,3.464-9.69,5.32-14.489c1.474-3.81,2.786-7.778,4.905-11.223
	c4.045-6.578,11.296-6.648,15.264-0.013c2.5,4.18,3.929,9.015,5.729,13.598c1.612,4.104,2.94,8.325,4.689,12.366
	c0.501,1.158,1.964,2.471,3.106,2.595c0.854,0.092,2.337-1.435,2.79-2.546c1.9-4.665,3.485-9.456,5.254-14.176
	c1.288-3.44,2.485-6.938,4.086-10.232c1.72-3.54,4.328-6.396,8.663-6.397c4.322-0.002,7.046,2.755,8.662,6.367
	c1.968,4.399,3.468,9.007,5.176,13.523c1.373,3.633,2.612,7.329,4.215,10.859c0.529,1.167,1.934,2.492,3.08,2.64
	c0.825,0.106,2.308-1.445,2.77-2.559c1.847-4.458,3.352-9.054,5.092-13.557c1.551-4.011,2.837-8.201,4.958-11.899
	c4.195-7.313,11.769-7.396,15.95-0.103c2.376,4.145,3.785,8.858,5.508,13.362c1.201,3.139,1.934,6.481,3.372,9.496
	c0.966,2.024,2.8,3.633,4.246,5.428c1.372-1.74,3.178-3.294,4.026-5.261c1.701-3.945,2.755-8.163,4.311-12.178
	c1.4-3.611,2.881-7.232,4.765-10.604c1.525-2.729,3.987-4.598,7.631-4.455c0.198,2.979,0.564,5.451-1.938,8.222
	c-2.398,2.656-3.343,6.688-4.708,10.2c-1.597,4.11-2.813,8.372-4.481,12.45c-0.82,2.006-2.064,3.948-3.512,5.566
	c-3.46,3.868-8.873,4.041-12.165,0.04c-2.217-2.696-3.856-6.006-5.164-9.278c-2.181-5.457-3.708-11.175-5.89-16.633
	c-0.742-1.854-2.626-3.253-3.988-4.86c-1.341,1.645-3.183,3.09-3.929,4.971c-2.169,5.463-3.725,11.169-5.866,16.645
	c-1.21,3.095-2.713,6.229-4.765,8.804c-3.534,4.438-9.323,4.439-12.769-0.058c-2.192-2.862-3.724-6.326-5.081-9.709
	c-1.72-4.283-2.893-8.784-4.44-13.141c-0.7-1.969-1.563-3.925-2.663-5.695c-1.556-2.507-3.39-2.558-4.771,0.045
	c-1.616,3.044-2.827,6.32-4.02,9.567c-1.377,3.747-2.409,7.622-3.846,11.343c-0.901,2.334-2.026,4.663-3.479,6.688
	c-4.022,5.612-10.654,5.737-14.403-0.043c-2.364-3.646-3.824-7.913-5.441-12c-1.852-4.685-3.301-9.532-5.209-14.191
	c-0.526-1.284-2.053-2.962-3.144-2.98c-1.057-0.018-2.604,1.676-3.137,2.953c-1.859,4.453-3.294,9.08-5.041,13.583
	c-1.553,4.006-2.878,8.189-5.06,11.843c-4.044,6.776-11.493,6.865-15.431,0.05c-2.596-4.493-4.076-9.639-5.99-14.517
	c-1.859-4.735-2.706-9.858-6.789-13.651C153.369,29.569,154.013,26.663,153.836,24.375z"/>
<path fill-rule="evenodd" clip-rule="evenodd" fill="#4D4D4D" d="M357.597,29.288c0.107-1.866,0.19-3.287,0.282-4.88
	c1.994,0,3.85,0,5.962,0c0,12.622,0,25.206,0,38.062c-1.85,0-3.78,0-6.028,0c0-1.549,0-3.066,0-5.486
	c-4.892,5.549-10.451,7.425-16.867,6.451c-4.758-0.722-8.727-3.024-11.738-6.819c-6.522-8.224-5.799-20.92,1.563-28.013
	C338.242,21.404,348.583,21.532,357.597,29.288z M344.417,29.423c-7.296-0.049-13.023,5.938-13.109,13.705
	c-0.089,8.178,5.563,14.405,13.086,14.418c7.4,0.014,13.011-6.022,13.099-14.091C357.579,35.48,351.982,29.473,344.417,29.423z"/>
<path fill-rule="evenodd" clip-rule="evenodd" fill="#4D4D4D" d="M63.974,24.39c2.222,0,4.075,0,6.102,0c0,12.755,0,25.34,0,38.137
	c-2.024,0-3.966,0-6.08,0c-0.079-1.667-0.15-3.198-0.249-5.301c-4.437,5.163-9.784,7.036-15.982,6.286
	c-4.771-0.577-8.801-2.731-11.933-6.434c-7.069-8.354-6.399-21.228,1.374-28.661c6.174-5.904,18.176-7.907,26.526,1.02
	C63.822,27.559,63.892,26.096,63.974,24.39z M50.418,29.425c-7.258,0.044-12.932,6.161-12.916,13.925
	c0.017,8.146,5.804,14.303,13.338,14.19c7.326-0.11,12.974-6.356,12.936-14.307C63.739,35.341,57.971,29.378,50.418,29.425z"/>
<path fill-rule="evenodd" clip-rule="evenodd" fill="#4D4D4D" d="M142.202,28.986c0.104-1.533,0.199-2.938,0.308-4.542
	c1.028-0.081,1.942-0.181,2.858-0.215c0.941-0.036,1.884-0.008,3.088-0.008c0,12.813,0,25.464,0,38.298c-1.987,0-3.919,0-6.06,0
	c0-1.667,0-3.116,0-5.372c-4.275,4.741-9.054,6.832-14.794,6.472c-5.677-0.354-10.295-2.769-13.814-7.203
	c-6.349-8.002-5.7-20.275,1.397-27.466C122.511,21.526,132.213,21.487,142.202,28.986z M116.099,42.919
	c-0.221,8.237,5.248,14.477,12.816,14.62c7.374,0.139,13.175-5.895,13.332-13.869c0.154-7.826-5.281-13.975-12.575-14.229
	C122.071,29.178,116.314,34.894,116.099,42.919z"/>
<path fill-rule="evenodd" clip-rule="evenodd" fill="#4D4D4D" d="M409.465,24.634c-1.838,3.842-3.629,7.613-5.442,11.374
	c-6.752,14.004-13.514,28.003-20.267,42.007c-2.63,5.453-2.622,5.457-9.32,5.039c0.486-1.117,0.884-2.127,1.358-3.1
	c2.947-6.042,5.854-12.106,8.911-18.093c0.849-1.662,0.881-2.98,0.045-4.672c-4.845-9.792-9.57-19.642-14.328-29.475
	c-0.45-0.928-0.852-1.879-1.282-2.832c5.103-1.723,6.749-1.063,8.855,3.421c3.661,7.792,7.327,15.583,11.211,23.843
	c0.613-1.053,1.096-1.767,1.463-2.534c3.357-7.011,6.696-14.03,10.037-21.047C403.076,23.588,403.206,23.524,409.465,24.634z"/>
<path fill-rule="evenodd" clip-rule="evenodd" fill="#4D4D4D" d="M25.667,30.08c-1.398,1.038-2.819,2.092-4.719,3.502
	c-0.616-0.809-1.063-1.976-1.877-2.354c-1.918-0.89-4.056-2.013-6.019-1.868c-1.449,0.107-3.582,1.875-3.904,3.254
	c-0.322,1.376,0.802,3.773,2.051,4.693c2.681,1.975,5.869,3.254,8.814,4.88c3.588,1.98,6.191,4.725,6.566,9.042
	c0.719,8.295-6.359,13.955-15.389,12.204C5.838,62.397,2.143,59.264,0,53.864c1.749-0.863,3.405-1.681,5.217-2.575
	c0.655,0.982,1.058,2.042,1.822,2.644c1.768,1.393,3.557,3.021,5.62,3.714c2.988,1.005,6.156-0.703,7.136-3.152
	c1.06-2.651-0.062-5.231-3.224-7.005c-2.752-1.543-5.631-2.859-8.378-4.409c-4.425-2.498-6.373-6.43-5.623-11.03
	c0.672-4.126,4.135-7.462,8.768-8.446C17.205,22.358,22.464,24.675,25.667,30.08z"/>
<path fill-rule="evenodd" clip-rule="evenodd" fill="#4D4D4D" d="M101.917,62.561c-2.044,0-3.796,0-5.734,0
	c0-20.891,0-41.604,0-62.561c1.796,0,3.631,0,5.734,0C101.917,20.708,101.917,41.486,101.917,62.561z"/>
<path fill-rule="evenodd" clip-rule="evenodd" fill="#4D4D4D" d="M85.976,62.558c-2.044,0-3.785,0-5.727,0
	c0-12.745,0-25.305,0-38.103c1.895,0,3.709,0,5.727,0C85.976,37.127,85.976,49.69,85.976,62.558z"/>
<path fill-rule="evenodd" clip-rule="evenodd" fill="#4D4D4D" d="M87.889,7.136c0.001,2.672-2.127,4.75-4.818,4.703
	c-2.57-0.044-4.565-2.012-4.64-4.575c-0.076-2.64,2.041-4.866,4.678-4.918C85.722,2.294,87.889,4.465,87.889,7.136z"/>
</svg>
