<?xml version="1.0" encoding="utf-8"?>
<!-- Generator: Adobe Illustrator 16.0.0, SVG Export Plug-In . SVG Version: 6.00 Build 0)  -->
<!DOCTYPE svg PUBLIC "-//W3C//DTD SVG 1.1//EN" "http://www.w3.org/Graphics/SVG/1.1/DTD/svg11.dtd">
<svg version="1.1" id="Layer_1" xmlns="http://www.w3.org/2000/svg" xmlns:xlink="http://www.w3.org/1999/xlink" x="0px" y="0px"
	 width="119px" height="60px" viewBox="0 0 119 60" enable-background="new 0 0 119 60" xml:space="preserve">
<path fill="#4D4D4D" d="M112.43,0H6.568C2.939,0,0,2.949,0,6.59v0.208h119V6.59C119,2.949,116.057,0,112.43,0z"/>
<path fill="#4D4D4D" d="M0,53.41C0,57.051,2.939,60,6.568,60H112.43c3.627,0,6.57-2.949,6.57-6.59v-0.164H0V53.41z"/>
<path fill="#4D4D4D" d="M82.354,29.927c0,9.215,7.443,16.684,16.625,16.684c9.181,0,16.627-7.469,16.627-16.684
	c0-9.214-7.446-16.682-16.627-16.682C89.797,13.245,82.354,20.713,82.354,29.927z M3.099,29.927c0,9.215,7.442,16.684,16.624,16.684
	c9.182,0,16.624-7.469,16.624-16.684c0-9.214-7.441-16.682-16.624-16.682C10.542,13.245,3.099,20.713,3.099,29.927z M119,50.088
	H37.027c1.479-1.041,2.856-2.463,4.358-4.387l8.348-10.691l3.648,4.623l4.059-5.414l-3.548-4.53l8.498-10.886
	c2.696-3.452-2.464-7.511-5.161-4.056l-7.511,9.618l-7.634-9.745c-2.705-3.446-7.855,0.624-5.152,4.069L45.56,29.69l-9.336,11.955
	c-3.317,4.251-6.631,8.141-13.201,8.442H0V9.954h81.539c-1.406,1.029-2.727,2.41-4.16,4.245L69.03,24.89l-3.649-4.623l-4.057,5.417
	l3.548,4.529L56.373,41.1c-2.696,3.451,2.465,7.51,5.16,4.056l7.512-9.619l7.637,9.745c2.699,3.45,7.854-0.618,5.149-4.067
	l-8.628-11.002l9.334-11.954c3.051-3.908,6.095-7.512,11.672-8.303H119V50.088z M89.028,29.927c0-5.515,4.454-9.984,9.95-9.984
	c5.494,0,9.949,4.47,9.949,9.984c0,5.514-4.455,9.987-9.949,9.987C93.482,39.914,89.028,35.442,89.028,29.927z M9.771,29.927
	c0-5.515,4.455-9.984,9.952-9.984c5.494,0,9.951,4.47,9.951,9.984c0,5.514-4.457,9.987-9.951,9.987
	C14.225,39.914,9.771,35.442,9.771,29.927z"/>
</svg>
