<svg width="119" height="101" viewBox="0 0 119 101" fill="none" xmlns="http://www.w3.org/2000/svg">
<path d="M57.5 101C85.3904 101 108 78.3904 108 50.5C108 22.6096 85.3904 0 57.5 0C29.6096 0 7 22.6096 7 50.5C7 78.3904 29.6096 101 57.5 101Z" fill="black"/>
<path d="M30 93C30 93 8.30605 91.1371 6 79.5363L7.879 72H11.0391C11.0391 72.0847 16.9324 86.3105 30 93Z" fill="black"/>
<path d="M90 11C90 11 99.981 20.063 101.175 23.9709C102.37 27.8788 108 19.3978 108 19.3978C108 19.3978 100.919 11.2494 90 11Z" fill="black"/>
<path d="M100.017 24.2977C100.779 24.3821 101.456 24.2133 101.879 23.5383C102.048 23.5383 102.133 23.5383 102.217 23.5383C104.587 22.5258 105.941 20.6695 106.702 18.3069C108.226 19.6569 109.157 21.4289 110.087 23.2008C112.372 27.4197 113.726 31.8918 114.911 36.5326C117.111 45.0548 117.788 53.6614 117.958 62.3524C117.958 62.8586 118.127 63.3649 117.788 63.7868C115.165 66.4869 112.119 68.4276 108.649 69.6933C104.502 71.2121 100.186 71.8028 95.7857 71.8871C91.3005 71.9715 86.9 71.8871 82.4148 71.3809C80.4684 71.2121 78.2681 70.7058 76.5756 72.4778C76.491 72.5622 76.3218 72.5622 76.2371 72.5622C73.4445 73.2372 70.6518 72.8153 67.8592 72.4778C68.4515 72.3934 69.1285 72.3934 69.7209 72.3934C75.6447 72.309 79.3683 69.3558 80.8069 63.5337C82.3302 57.5428 83.515 51.4676 84.6997 45.3923C84.869 44.3798 85.4613 43.2829 84.869 42.1859C84.9536 41.9328 84.9536 41.6797 85.0382 41.5109C85.6306 41.089 85.4613 40.4984 85.3767 39.9077C85.7998 38.1358 86.223 36.3638 86.6461 34.5919C86.8154 33.7481 87.1539 32.9043 87.2385 31.9762C87.4077 31.048 87.2385 30.373 85.9691 30.4573C84.0227 30.5417 81.9917 30.5417 79.9607 30.4573C78.9451 30.373 78.6067 30.8792 78.3528 31.8074C77.5065 35.9419 76.5756 40.1609 75.6447 44.2954C74.9677 47.2486 74.2061 50.0331 72.5136 52.6489C71.8366 53.6614 71.0749 54.5052 69.9748 54.9271C68.7054 55.4333 68.113 55.1802 67.6899 53.8302C67.3514 52.6489 67.5207 51.4676 67.6899 50.2863C68.6208 45.8986 69.5517 41.5109 70.5672 37.1232C70.9057 35.4357 71.3288 33.8325 71.6673 32.1449C71.9212 30.6261 71.752 30.4573 70.3979 30.4573C68.4515 30.4573 66.5051 30.5417 64.5587 30.4573C63.4586 30.373 63.1201 30.7949 62.8662 31.8074C61.6815 37.3764 60.4121 43.0297 59.1427 48.5987C58.5503 51.2144 56.9424 53.3239 54.8268 54.9271C53.5574 55.9396 52.7111 55.5177 52.4572 53.9145C52.3726 53.1551 52.3726 52.3957 52.5419 51.6363C53.3035 47.9237 54.0651 44.211 54.8268 40.5828C55.4191 37.7983 56.0115 34.9294 56.6039 32.1449C56.9424 30.5417 56.9424 30.5417 55.4191 30.5417C53.9805 30.5417 52.6265 30.5417 51.1879 30.5417C50.5955 30.5417 50.0031 30.5417 49.4953 30.6261C48.7337 30.7105 49.0722 31.723 48.4798 32.0605C47.2951 30.5417 45.6872 29.8667 43.8254 29.7823C41.4559 29.6979 39.171 30.373 37.14 31.6386C30.2853 35.8576 25.6308 47.333 27.6619 55.2646C28.1696 57.2897 29.0159 59.146 30.793 60.3273V60.4117H30.8776C31.0469 60.4961 31.2161 60.6648 31.3854 60.7492C31.6393 61.1711 31.9778 61.5086 32.4009 61.6773C35.3628 63.0274 39.171 62.4368 41.5405 60.1585C42.3868 59.3148 43.4023 58.5553 44.3332 57.7959C44.587 58.6397 45.0948 59.3148 45.6025 59.9898C45.6025 60.1585 45.6025 60.1585 45.7718 60.0742C45.8564 60.1585 45.941 60.2429 46.0257 60.3273V60.4117H46.1103C46.1949 60.4961 46.2796 60.5804 46.3642 60.6648C46.2796 61.0867 46.7027 61.1711 46.9566 61.3398C49.8338 63.1962 52.6265 62.6055 55.3345 61.0023C56.9424 60.0742 58.1272 58.7241 59.3966 57.3741C61.0891 60.7492 62.8662 61.6773 66.5898 61.3398C68.8747 61.1711 70.7364 60.0742 72.5136 58.7241C72.3443 59.9054 72.1751 61.0867 71.9212 62.1836C71.4134 64.4618 70.1441 65.5588 67.8592 65.4744C66.082 65.4744 64.3049 65.2212 62.5277 65.2212C60.0736 65.1369 58.0426 66.1494 56.8578 68.4276C55.9269 68.0901 55.3345 68.4276 55.0806 69.3558C54.996 69.7777 54.8268 70.1152 54.7421 70.4527C54.4036 71.2965 53.5574 71.3809 53.0496 71.2121C52.4572 71.0433 53.0496 70.3683 53.2189 70.0308C53.5574 69.0183 54.0651 68.0901 54.4036 67.0776C54.5729 66.5713 54.8268 65.9806 53.9805 65.8119C54.0651 65.2212 53.9805 64.9681 53.2189 65.1369C47.7182 66.4869 42.2175 66.2338 36.7168 65.5588C31.5546 64.9681 26.5617 64.2931 21.5688 64.5462C20.8072 64.4618 20.6379 64.1243 20.8072 63.4493C23.5998 50.2863 26.3925 37.0389 29.2697 23.8758C29.439 23.032 29.5236 22.357 29.1005 21.5976C29.1005 20.9226 28.5927 21.0913 28.1696 21.0913C25.0384 21.0913 21.9073 21.0913 18.7761 21.0913C18.0991 21.0913 17.8452 21.2601 17.9299 22.0195C18.0991 23.3696 17.9299 24.6352 17.676 25.9853C15.7296 36.617 13.2754 47.0799 11.0752 57.6272C10.2289 61.7617 9.29803 65.8963 8.36715 70.1152C8.02864 71.8028 8.02864 71.7184 9.72116 71.5496C13.8678 71.1277 18.0991 71.2965 22.2458 71.1277C22.5843 71.7184 23.1767 71.8871 23.7691 71.8871C24.6999 71.9715 25.6308 72.0559 26.4771 72.1403C23.4306 72.2247 20.384 72.6465 17.4221 72.8997C15.8142 72.9841 14.291 73.4903 12.9369 74.3341C10.1443 76.0217 7.85939 78.2155 5.99762 81C3.6281 75.1779 2.10483 69.187 1.00469 62.943C0.24306 57.7959 -0.18007 52.5645 0.0738079 47.333C0.496937 39.6546 1.93558 32.1449 5.65912 25.3103C6.42075 23.9602 7.77476 23.3696 9.04415 22.6945C12.0907 20.8382 15.4757 19.6569 18.7761 18.4756C21.4842 17.8006 24.1922 17.2943 26.9848 17.1256C33.7549 16.7037 40.525 17.3787 47.2104 18.6444C52.5419 19.6569 57.8733 21.007 63.2047 22.0195C68.3669 23.1164 73.4445 24.3821 78.6913 24.9728C82.7533 25.479 86.9 25.7322 90.962 25.8165C90.7928 26.6603 90.5389 27.4197 90.3696 28.2635C90.1158 28.3479 90.0311 28.5166 90.1158 28.7698C90.0311 28.9385 89.9465 29.1073 89.8619 29.2761H89.7773V29.3604C89.6926 29.4448 89.6926 29.5292 89.608 29.6136C90.0311 30.5417 90.8774 30.7105 91.639 30.5417C93.7547 30.2042 95.7011 29.4448 96.7166 27.5041C97.4782 26.0697 98.1552 24.6352 100.017 24.2977ZM86.6461 60.496L86.7307 60.5804C86.9 61.0867 87.3231 61.1711 87.7462 61.3398C89.8619 62.4368 92.2314 62.4368 94.5163 62.268C97.986 62.0149 101.202 61.1711 103.825 58.7241C106.702 56.024 107.633 51.9738 106.11 49.0206C105.941 48.5143 105.772 48.0924 105.433 47.6705C103.741 45.1392 101.456 43.1985 99.1707 41.2578C98.2399 40.4984 97.309 39.6546 96.8858 38.4733C97.986 35.0138 100.102 34.0856 103.148 35.7732C106.449 37.6295 109.241 36.4482 110.087 32.6512C110.087 32.6512 109.834 32.5668 109.749 32.4824C109.918 31.6386 109.495 31.2168 108.733 30.9636C103.656 29.4448 98.7476 29.276 94.0086 32.0605C91.0467 33.7481 89.1003 36.2795 89.0156 39.9921C88.931 43.7048 91.0467 46.0673 93.5854 48.2612C94.8548 49.3581 96.2088 50.3706 97.3936 51.5519C98.7476 52.902 98.9169 54.6739 98.0706 55.8552C97.2243 57.0365 95.1933 57.5428 93.5854 56.7834C92.7392 56.4459 92.0622 55.9396 91.2159 55.5177C89.1003 54.4208 87.4077 54.6739 85.7998 56.2771C83.6842 58.3022 83.7688 58.8085 86.223 60.4117C86.223 60.5804 86.3922 60.6648 86.6461 60.496Z" fill="black"/>
<path d="M7.52474 84C7.52474 84 11.4213 74.0081 30.3111 71.4677C49.1162 68.9274 75.545 72.8226 75.545 72.8226C75.545 72.8226 110.783 79.1734 119 64.7782L118.831 63C118.831 63 111.8 75.6169 77.578 70.2823C43.3561 64.9476 15.3178 66.4718 6 80.4435L7.52474 84Z" fill="white"/>
<path d="M86.2275 41.6775C85.9727 42.6129 85.7179 43.4632 85.4632 44.3136C84.1893 50.2661 83.0854 56.3037 81.5568 62.2562C80.2829 67.4434 77.3107 70.9299 71.0265 71.0999C67.8844 71.185 64.6574 71.0149 61.5153 71.0149C60.0716 71.0149 58.7978 71.5251 57.4391 71.8653C57.0994 71.9503 56.8446 72.1204 56.5898 71.8653C56.2502 71.5251 56.5898 71.3551 56.6748 71.0149C57.0994 70.0795 57.524 69.0591 57.7787 68.0386C58.9676 65.7427 61.0058 64.8073 63.5534 64.8073C65.3368 64.8073 67.1201 65.0624 68.9035 65.0624C71.2813 65.0624 72.5551 64.042 73.0646 61.746C73.3194 60.6405 73.4043 59.45 73.6591 58.2595C71.8757 59.6201 70.0074 60.7255 67.7146 60.8956C63.8931 61.2358 62.1947 60.3004 60.4113 56.8989C60.4962 56.4737 60.3264 56.1336 60.0716 55.9635C59.7319 55.8785 59.4772 56.3037 59.3073 56.5588C55.9105 60.3854 52.1739 62.2562 47.3334 60.2153C47.2485 60.1303 47.1635 60.0453 47.0786 59.9602C46.9937 59.8752 46.9088 59.7902 46.8239 59.7051C46.8239 59.6201 46.8239 59.535 46.654 59.6201C46.1445 58.9398 45.635 58.2595 45.3802 57.4091C45.2103 56.0486 44.7008 56.2186 43.9365 57.069C41.7286 59.6201 39.0111 61.2358 35.4444 61.0657C34.3404 60.9807 33.3213 60.4704 32.2173 60.3004C32.0475 60.2153 31.8777 60.0453 31.7078 59.9602V59.8752H31.6229C29.8395 58.5996 28.9903 56.8139 28.4808 54.773C26.4427 46.7796 31.1134 35.2147 38.1619 30.8779C40.2 29.6024 42.4929 28.9221 44.9556 29.0071C46.8239 29.0922 48.4374 29.7724 49.6263 31.3031C50.2207 30.9629 49.881 29.9425 50.6453 29.8575C51.2398 29.7724 51.8342 29.7724 52.4287 29.7724C53.8723 29.7724 55.316 29.7724 56.7597 29.7724C58.2883 29.7724 58.3732 29.7724 58.0335 31.3881C57.4391 34.1943 56.8446 37.0855 56.2501 39.8917C55.4859 43.6333 54.7216 47.3749 53.9573 51.0314C53.7874 51.7968 53.7025 52.5621 53.8723 53.3274C54.1271 54.9431 54.9763 55.3683 56.2501 54.3478C58.3732 52.7322 59.9867 50.6063 60.6661 47.9701C62.0248 42.3578 63.2137 36.7454 64.4026 31.048C64.6574 30.0275 64.9971 29.6024 66.101 29.6874C68.0542 29.7724 70.0074 29.6874 72.0456 29.6874C73.4043 29.6874 73.6591 29.8575 73.3194 31.3881C72.9797 33.0888 72.5551 34.7045 72.2154 36.4052C71.2813 40.8271 70.2622 45.249 69.3281 49.6709C69.0733 50.8614 68.9035 52.0519 69.3281 53.2424C69.7527 54.603 70.3471 54.8581 71.621 54.3478C72.7249 53.9227 73.4892 52.9873 74.1686 52.0519C75.867 49.5008 76.6313 46.6096 77.3107 43.6333C78.2448 39.4665 79.179 35.2147 80.0282 31.048C80.198 30.1126 80.5377 29.6874 81.6417 29.6874C83.6798 29.7724 85.633 29.7724 87.6711 29.6874C88.945 29.6024 89.1148 30.2827 88.945 31.2181C88.7751 32.0684 88.5203 32.9188 88.3505 33.8542C87.9259 35.6399 87.5013 37.4257 87.0767 39.2114C86.9068 39.8067 86.8219 40.2319 86.737 40.8271C86.3124 41.1673 86.3124 41.4224 86.2275 41.6775ZM37.6523 53.4124C38.3317 54.5179 39.1809 54.8581 40.4547 54.3478C42.5778 53.5825 43.5119 51.7968 44.3611 50.011C46.2294 46.1844 46.9937 42.1027 47.6731 37.9359C47.8429 36.7454 47.6731 35.5549 46.3992 34.7896C46.2294 34.1943 45.635 34.1943 45.1254 34.1943C43.427 34.1093 42.2381 35.1297 41.3889 36.4052C38.5015 40.657 37.1428 45.4191 36.973 50.5212C36.973 51.4566 36.6333 52.6471 37.6523 53.4124Z" fill="#FEFEFD"/>
<path d="M54.9795 65.665C54.4696 66.8466 54.0448 67.9438 53.5349 69.1253C52.4302 71.7416 50.3908 72.7544 47.7566 72.9232C44.2726 73.092 40.7886 73.0076 37.3046 72.4168C33.4806 71.826 29.6567 71.404 25.8328 70.9821C24.9831 70.8977 24.0484 70.7289 23.1986 71.0665C18.9498 71.3196 14.701 71.0665 10.5372 71.4884C8.83771 71.6572 8.83771 71.6572 9.17761 70.0537C10.0274 65.9182 11.0471 61.7827 11.8968 57.5629C14.1062 47.0132 16.5705 36.4635 18.5249 25.9138C18.7799 24.5634 18.9498 23.2975 18.7799 21.9471C18.6949 21.1876 18.9498 21.0188 19.6296 21.0188C22.7737 21.0188 26.0028 21.0188 29.1469 21.0188C29.4868 21.0188 29.9966 20.85 30.0816 21.5251C28.807 26.2514 27.9572 31.1465 26.8525 35.9571C24.8981 44.9876 22.9437 54.1026 21.0742 63.1331C20.7343 64.5678 20.9043 64.6522 22.5188 64.5679C27.6173 64.2303 32.6309 64.9898 37.6445 65.4962C43.2528 66.087 48.7763 66.4246 54.2997 65.0742C54.8945 64.821 55.0645 65.0742 54.9795 65.665Z" fill="#FEFEFD"/>
<path d="M97.842 38.3681C98.2706 39.6095 99.2992 40.3543 100.242 41.0992C102.557 43.0027 104.871 44.9062 106.585 47.3891C106.843 47.8029 107.1 48.2167 107.271 48.7133C107.785 50.7823 107.443 52.6859 106.5 54.5066C104.271 58.7275 100.414 60.4655 95.6989 60.8793C92.9559 61.1276 90.1271 61.0448 87.4698 60.1344L87.3841 60.0517C87.2984 59.8034 87.1269 59.8034 86.9555 59.8862C84.4696 58.3964 84.3839 57.8999 86.5269 55.8308C88.1556 54.2583 89.9557 54.0101 92.0987 55.086C92.8702 55.4998 93.6417 55.9963 94.4989 56.3274C96.1275 56.9895 98.1848 56.5757 99.042 55.417C99.985 54.2583 99.7278 52.5203 98.3563 51.1962C97.1562 50.0375 95.7847 49.0443 94.4989 47.9684C91.8415 45.8166 89.6985 43.4993 89.7843 39.8578C89.87 36.2162 91.8415 33.8161 94.9275 32.0781C99.7278 29.4298 104.785 29.5953 109.928 31.0022C110.786 31.2505 111.129 31.6643 110.957 32.492C110.443 32.492 110.271 32.9058 110.186 33.2368C108.728 36.5473 105.814 36.2162 103.585 34.8093C102.985 34.4782 102.385 34.1472 101.699 34.0644C100.242 33.8989 99.042 34.3127 98.0991 35.3886C97.4134 36.299 96.9848 37.2922 97.842 38.3681Z" fill="#FEFEFD"/>
<path d="M22.478 63.9773C20.942 64.0616 20.8612 63.9773 21.1037 62.5447C22.963 53.5279 24.7415 44.4269 26.6009 35.41C27.571 30.6067 28.4602 25.8033 29.6728 21C30.077 21.7584 30.077 22.4326 29.8345 23.2753C27.2476 36.5055 24.499 49.7358 21.8313 62.8818C21.6696 63.6402 21.8313 63.9773 22.478 63.9773Z" fill="white"/>
<path d="M91.5748 25.6815C92.3159 25.3169 91.7601 24.0405 92.6864 24.0405C94.3538 23.9494 96.0213 24.0405 97.596 24.0405C97.9666 24.0405 98.0592 24.4964 97.9666 24.861C97.0402 27.5961 93.2422 30.8781 90 29.7841C90.0926 29.6929 90.1853 29.6017 90.1853 29.5106C90.3705 29.6017 90.2779 29.5106 90.2779 29.4194C90.3705 29.2371 90.4632 29.0547 90.5558 28.8724C90.8337 28.7812 90.9263 28.5989 90.8337 28.3254C91.1116 27.5049 91.2969 26.5932 91.5748 25.6815Z" fill="#FEFEFD"/>
<path d="M45.6986 35C46.8696 35.7749 47.1205 36.9803 46.9532 38.1857C46.3678 42.4047 45.5314 46.5375 43.6913 50.412C42.8549 52.2201 41.8512 54.0283 39.8438 54.8032C38.5892 55.2337 37.7528 54.9754 37.0836 53.8561C37.0836 53.0812 37 52.3062 37 51.5313C37.1673 46.968 38.5055 42.7491 40.5129 38.7023C41.6002 36.4637 43.1894 35.0861 45.6986 35Z" fill="black"/>
<path d="M85.3391 67.9995V65.0781H86.2942C86.6112 65.0781 86.8493 65.1437 87.0085 65.2748C87.169 65.4058 87.2492 65.5998 87.2492 65.8566C87.2492 65.9931 87.2105 66.1141 87.1329 66.2198C87.0553 66.3241 86.9496 66.4051 86.8159 66.4626C86.9737 66.5067 87.0981 66.591 87.1891 66.7154C87.2814 66.8384 87.3275 66.9856 87.3275 67.1568C87.3275 67.419 87.2426 67.625 87.0727 67.7748C86.9028 67.9246 86.6627 67.9995 86.3524 67.9995H85.3391ZM85.7243 66.6331V67.6845H86.3604C86.5396 67.6845 86.6808 67.6383 86.7838 67.5461C86.8881 67.4524 86.9403 67.324 86.9403 67.1608C86.9403 66.809 86.749 66.6331 86.3664 66.6331H85.7243ZM85.7243 66.3241H86.3062C86.4748 66.3241 86.6092 66.282 86.7095 66.1977C86.8112 66.1135 86.862 65.9991 86.862 65.8546C86.862 65.6941 86.8152 65.5777 86.7216 65.5055C86.6279 65.4319 86.4855 65.3951 86.2942 65.3951H85.7243V66.3241Z" fill="white"/>
<path d="M88.9708 66.8177H88.2846V67.9995H87.8973V65.0781H88.8644C89.1935 65.0781 89.4463 65.153 89.6229 65.3028C89.8008 65.4527 89.8897 65.6707 89.8897 65.9569C89.8897 66.1389 89.8402 66.2974 89.7413 66.4325C89.6436 66.5676 89.5072 66.6686 89.3319 66.7354L90.0181 67.9754V67.9995H89.6048L88.9708 66.8177ZM88.2846 66.5027H88.8765C89.0678 66.5027 89.2196 66.4532 89.3319 66.3542C89.4456 66.2552 89.5025 66.1228 89.5025 65.9569C89.5025 65.7764 89.4483 65.6379 89.34 65.5416C89.233 65.4453 89.0778 65.3965 88.8745 65.3951H88.2846V66.5027Z" fill="white"/>
<path d="M92.0447 67.2371H90.8207L90.5458 67.9995H90.1486L91.2641 65.0781H91.6012L92.7188 67.9995H92.3235L92.0447 67.2371ZM90.9371 66.92H91.9303L91.4327 65.5537L90.9371 66.92Z" fill="white"/>
<path d="M95.3573 67.9995H94.97L93.4993 65.7483V67.9995H93.1121V65.0781H93.4993L94.9741 67.3394V65.0781H95.3573V67.9995Z" fill="white"/>
<path d="M96.0415 67.9995V65.0781H96.8661C97.1203 65.0781 97.345 65.1343 97.5403 65.2467C97.7356 65.359 97.8861 65.5189 97.9918 65.7262C98.0988 65.9335 98.1529 66.1716 98.1543 66.4405V66.6271C98.1543 66.9027 98.1008 67.1441 97.9938 67.3514C97.8881 67.5588 97.7363 67.7179 97.5383 67.829C97.3417 67.94 97.1123 67.9968 96.8501 67.9995H96.0415ZM96.4267 65.3951V67.6845H96.832C97.129 67.6845 97.3597 67.5922 97.5243 67.4076C97.6901 67.223 97.7731 66.9602 97.7731 66.6191V66.4485C97.7731 66.1168 97.6948 65.8593 97.5383 65.676C97.3831 65.4915 97.1624 65.3978 96.8762 65.3951H96.4267Z" fill="white"/>
<path d="M107.451 76.3973H106.873V78H106.637V76.3973H106.061V76.2023H107.451V76.3973ZM106.515 79.2023L107.103 80.6691L107.69 79.2023H107.998V81H107.761V80.2999L107.783 79.5443L107.193 81H107.011L106.422 79.548L106.446 80.2999V81H106.209V79.2023H106.515Z" fill="black"/>
</svg>
