<?xml version="1.0" encoding="utf-8"?>
<!-- Generator: Adobe Illustrator 16.0.0, SVG Export Plug-In . SVG Version: 6.00 Build 0)  -->
<!DOCTYPE svg PUBLIC "-//W3C//DTD SVG 1.1//EN" "http://www.w3.org/Graphics/SVG/1.1/DTD/svg11.dtd">
<svg version="1.1" id="Layer_1" xmlns="http://www.w3.org/2000/svg" xmlns:xlink="http://www.w3.org/1999/xlink" x="0px" y="0px"
	 width="138px" height="38px" viewBox="0 0 138 38" enable-background="new 0 0 138 38" xml:space="preserve">
<path fill="#4D4D4D" d="M49.394,0.003L63.227,0l-0.086,0.114L31.694,37.926l-13.587,0.023L49.394,0.003z M82.137,22.985
	l16.406,0.026l0.329,0.111c0.708,0.24,1.265,0.703,1.583,1.318c0.338,0.652,0.318,0.203,0.318,7.153v6.259h-3.709v-5.289
	c0-5.691,0.01-5.479-0.236-5.827c-0.054-0.077-0.197-0.198-0.318-0.271l-0.219-0.131l-3.075-0.027v11.545h-3.614l-0.023-10.765
	l-0.143-0.232c-0.088-0.144-0.229-0.287-0.372-0.376l-0.229-0.145l-2.988-0.027v11.546h-3.709V22.985z M49.952,37.475
	c-1.092-0.289-1.921-1.102-2.255-2.209c-0.081-0.268-0.086-0.563-0.086-4.986v-4.703l0.133-0.379
	c0.186-0.532,0.415-0.896,0.815-1.293c0.253-0.251,0.449-0.395,0.731-0.534c0.776-0.384,0.192-0.354,7.228-0.37l6.279-0.016v3.281
	h-5.478c-5.465,0-5.478,0-5.681,0.1c-0.141,0.068-0.242,0.166-0.332,0.32l-0.128,0.221v3.467c0,3.425,0.001,3.471,0.098,3.658
	c0.054,0.104,0.188,0.254,0.297,0.332l0.199,0.143l11.024,0.025v3.038l-6.255-0.003C50.59,37.563,50.27,37.56,49.952,37.475z
	 M66.522,37.475c-0.438-0.115-0.917-0.365-1.238-0.645c-0.413-0.359-0.619-0.633-0.849-1.131c-0.28-0.604-0.276-0.537-0.276-5.396
	c0-5.008-0.014-4.797,0.357-5.557c0.294-0.602,0.753-1.073,1.333-1.367c0.783-0.396,0.169-0.367,7.722-0.367h6.713l0.024,3.252
	l-12.002,0.025l-0.17,0.117c-0.094,0.065-0.219,0.205-0.278,0.31l-0.108,0.19v3.467c0,3.425,0.001,3.471,0.098,3.658
	c0.054,0.104,0.188,0.254,0.298,0.332l0.199,0.143l11.963,0.025v3.038l-6.725-0.003C67.172,37.563,66.841,37.56,66.522,37.475z
	 M104.998,37.495c-0.452-0.099-1.01-0.396-1.377-0.737c-0.477-0.441-0.778-0.937-0.954-1.564c-0.081-0.289-0.086-0.586-0.086-4.891
	c0-5.121-0.021-4.803,0.337-5.556c0.236-0.501,0.874-1.146,1.376-1.391c0.753-0.368,0.124-0.339,7.664-0.356l6.748-0.016v3.281
	h-5.94c-5.736,0-5.947,0.002-6.115,0.09c-0.215,0.111-0.313,0.219-0.406,0.444c-0.063,0.151-0.072,0.625-0.072,3.598
	c0,2.767,0.012,3.452,0.063,3.576c0.084,0.203,0.361,0.443,0.582,0.505c0.119,0.034,2.092,0.051,6.033,0.051h5.856v3.04
	l-6.701-0.004C106.457,37.563,105.251,37.551,104.998,37.495z M120.35,34.031l0.114-0.249c0.222-0.479,0.399-0.616,2.744-2.103
	c1.216-0.771,2.21-1.412,2.21-1.425c0-0.023-2.924-1.929-3.964-2.583c-0.619-0.389-0.787-0.542-0.942-0.855l-0.115-0.237v-3.591
	h3.613l0.006,2.208l2.541,1.613c1.398,0.888,2.575,1.613,2.615,1.613s1.229-0.737,2.641-1.637l2.568-1.638l0.004-2.16H138v1.708
	c0,1.632-0.005,1.72-0.102,1.983c-0.174,0.477-0.436,0.678-2.809,2.174c-1.175,0.74-2.135,1.363-2.132,1.386
	c0.004,0.037,3.49,2.323,4.149,2.722c0.373,0.224,0.621,0.478,0.748,0.762c0.09,0.202,0.096,0.307,0.097,2.006l0.001,1.793h-0.928
	c-0.51,0-1.323-0.014-1.808-0.031l-0.88-0.031v-2.157l-2.552-1.621c-1.404-0.892-2.579-1.621-2.612-1.621s-1.219,0.743-2.635,1.65
	l-2.575,1.65l-0.001,2.161h-3.613V34.031z M71.152,28.925h9.154v2.944h-9.154V28.925z M109.552,28.925h9.154v2.944h-9.154V28.925z"
	/>
<path fill="#4D4D4D" d="M0.006,37.917L31.231,0.051h13.85l-0.119,0.131L13.503,38H6.72C0.264,38-0.061,37.996,0.006,37.917z"/>
</svg>
