<?xml version="1.0" encoding="utf-8"?>
<!-- Generator: Adobe Illustrator 16.0.0, SVG Export Plug-In . SVG Version: 6.00 Build 0)  -->
<!DOCTYPE svg PUBLIC "-//W3C//DTD SVG 1.1//EN" "http://www.w3.org/Graphics/SVG/1.1/DTD/svg11.dtd">
<svg version="1.1" id="Layer_1" xmlns="http://www.w3.org/2000/svg" xmlns:xlink="http://www.w3.org/1999/xlink" x="0px" y="0px"
	 width="138px" height="138px" viewBox="-12.5 -12.5 138 138" enable-background="new -12.5 -12.5 138 138" xml:space="preserve">
<g>
	<path fill="#4D4D4D" d="M4.397,91.573c-1.205-1.205-1.364-1.433-2.855-0.656c-0.014,0.009-0.028,0.014-0.042,0.022V111.5h20.538
		c0.009-0.019,0.02-0.04,0.029-0.059c0.775-1.485,0.549-1.651-0.65-2.853L4.397,91.573z"/>
	<path fill="#4D4D4D" d="M108.014,106.234c0-0.44-0.379-0.521-0.738-0.521h-0.699v1.103h0.614
		C107.627,106.815,108.014,106.784,108.014,106.234z"/>
	<path fill="#4D4D4D" d="M107.198,109.612c1.331,0,2.38-1.096,2.38-2.584c0-1.464-1.049-2.568-2.38-2.568
		c-1.343,0-2.393,1.104-2.391,2.568C104.808,108.517,105.855,109.612,107.198,109.612z M107.356,105.253
		c0.799,0,1.194,0.312,1.194,1.016c0,0.638-0.379,0.917-0.876,0.98l0.964,1.572h-0.576l-0.895-1.546h-0.591v1.546h-0.51
		l-0.001-3.568H107.356z"/>
	<path fill="#4D4D4D" d="M107.76,16.53l3.74,3.734V1.5H92.286l4.045,4.049c0.164,0.162,0.75,0.814-0.224,1.782
		c-0.553,0.553-1.038,0.391-1.686,0.069c-3.471-1.795-6.716-1.728-10.024,0.668l-1.886-1.882L87.197,1.5H1.5v85.697l7.817-7.817
		c0.13-0.125,1.263-1.134,2.201-0.196c0.455,0.459,0.46,1.039,0.167,1.592c-0.78,1.496-0.553,1.654,0.652,2.859l17.017,17.015
		c1.201,1.205,1.362,1.433,2.855,0.654c0.551-0.293,1.136-0.293,1.59,0.163c0.939,0.944-0.064,2.075-0.193,2.206l-7.829,7.827h31.29
		c0.057-0.127,0.125-0.259,0.192-0.397c0.241-0.452-0.291-0.912-0.563-1.187l-9.569-9.568c-0.275-0.272-0.73-0.802-1.186-0.563
		c-0.493,0.238-0.895,0.53-1.353,0.074c-0.473-0.474-0.072-0.988,0.293-1.35l4.675-4.674l13.656,13.653l-4.012,4.012H111.5V59.203
		l-4.378,4.375c-0.071,0.074-0.712,0.643-1.24,0.109c-0.256-0.253-0.257-0.581-0.092-0.893c0.439-0.838,0.311-0.928-0.362-1.603
		L93.811,49.578l4.474-4.474l11.613,11.612c0.673,0.675,0.768,0.803,1.603,0.368V25.778l-4.697,4.694l-1.879-1.881
		c2.302-2.952,2.519-6.746,0.796-10.217c-0.26-0.715-0.587-1.432-0.003-2.011C106.756,15.326,107.631,16.399,107.76,16.53z
		 M92.736,9.795c1.004-1,2.018,0.328,2.277,0.588l7.011,7.013c0.261,0.259,1.589,1.269,0.588,2.273
		c-0.684,0.684-1.395,0.352-2.113-0.037c-1.526-0.939-3.407-1.586-5.126-0.589l-2.012-2.011c1.003-1.718,0.353-3.599-0.591-5.127
		C92.387,11.194,92.058,10.475,92.736,9.795z M68.909,19.789c0.128-0.128,1.261-1.135,2.202-0.194
		c0.452,0.455,0.452,1.041,0.167,1.59c-0.783,1.495-0.553,1.657,0.65,2.858l17.017,17.015c1.203,1.203,1.363,1.429,2.857,0.653
		c0.553-0.295,1.133-0.288,1.592,0.162c0.938,0.94-0.062,2.074-0.189,2.206l-9.177,9.171c-0.131,0.132-1.266,1.133-2.203,0.194
		c-0.459-0.455-0.464-1.037-0.17-1.59c0.778-1.488,0.552-1.653-0.649-2.856L65.925,33.916l13.142,24.292l-0.939,0.938L51.259,45.819
		c-0.65-0.328-1.3-0.654-1.981-0.817c-0.773-0.197-1.296-0.455-1.882,0.061c-0.419,0.359-1.361,1.17-2.14,0.388
		c-1.006-1.008-0.028-1.979,0.359-2.369l8.228-8.225l13.43,6.498l0.068-0.063l-6.989-12.95L68.909,19.789z M68.598,83.777
		c-0.223-0.404-0.405-0.808-0.019-1.191c0.566-0.563,1.135,0.186,1.279,0.332l3.945,3.945c0.143,0.144,0.894,0.71,0.325,1.276
		c-0.381,0.386-0.783,0.201-1.187-0.02c-0.855-0.526-1.916-0.894-2.883-0.325l-1.135-1.135
		C69.491,85.693,69.126,84.635,68.598,83.777z M70.479,81.2c-0.313,0.312-0.585,0.22-0.952,0.037
		c-1.955-1.004-3.777-0.968-5.644,0.381l-1.058-1.057l4.073-4.069l3.705,3.702C70.696,80.287,71.025,80.652,70.479,81.2z
		 M56.895,72.91L40.078,56.087c-0.813-0.81-1.918-1.654-3.99-0.682l-1.884-1.883c7.484-6.253,16.248-3.911,22.709,2.551
		c6.46,6.463,8.807,15.222,2.553,22.711l-1.88-1.883C58.558,74.828,57.713,73.72,56.895,72.91z M66.13,60.885L55.188,49.941
		l0.066-0.065l7.171,3.544l5.584,5.585c4.578,3.542,5.382,0.205,6.777,1.602c1.008,1.006-0.384,2.266-0.739,2.622l-3.694,3.69
		c-0.354,0.357-1.618,1.752-2.622,0.749C66.333,66.269,69.67,65.461,66.13,60.885z M53.813,22.725c-0.138-0.377-0.31-0.755,0-1.064
		c0.548-0.548,1.012,0.018,1.081,0.086l3.431,3.432l-3.947,3.947l-0.995-0.995C54.602,26.57,54.723,24.561,53.813,22.725z
		 M52.167,23.412c-0.361,0.36-0.739,0.189-1.117-0.017c-0.807-0.497-1.802-0.84-2.711-0.308l-1.064-1.065
		c0.532-0.909,0.188-1.904-0.309-2.711c-0.206-0.377-0.378-0.754-0.017-1.115c0.533-0.532,1.065,0.171,1.201,0.309l3.707,3.707
		C51.995,22.349,52.698,22.881,52.167,23.412z M45.371,12.465l3.484,3.482c0.084,0.086,0.393,0.429-0.121,0.943
		c-0.292,0.292-0.549,0.206-0.892,0.034c-1.838-0.942-3.554-0.909-5.303,0.361l-0.995-0.995L45.371,12.465z M36.24,21.594
		l4.531-4.531l12.837,12.836l-4.53,4.531c-0.068,0.068-0.669,0.6-1.167,0.102c-0.239-0.24-0.239-0.549-0.085-0.84
		c0.412-0.791,0.292-0.875-0.344-1.511l-8.993-8.992c-0.635-0.635-0.722-0.756-1.51-0.344C36.687,23,36.378,23,36.137,22.76
		C35.64,22.263,36.171,21.661,36.24,21.594z M29.766,28.066l4.856-4.856c0.069-0.068,0.67-0.6,1.167-0.102
		c0.239,0.24,0.239,0.547,0.085,0.84c-0.412,0.79-0.292,0.875,0.344,1.511l8.992,8.992c0.635,0.634,0.72,0.754,1.51,0.343
		c0.292-0.155,0.601-0.155,0.841,0.086c0.499,0.497-0.035,1.098-0.102,1.166l-4.856,4.857c-0.068,0.069-0.668,0.601-1.167,0.102
		c-0.239-0.239-0.239-0.548-0.085-0.84c0.412-0.791,0.291-0.875-0.344-1.511l-4.101-4.101l-1.51,1.51L34.4,35.069l1.51-1.51
		l-3.895-3.896c-0.636-0.635-0.722-0.755-1.511-0.343c-0.291,0.155-0.601,0.155-0.841-0.086
		C29.166,28.736,29.698,28.135,29.766,28.066z M23.28,34.554l4.856-4.857c0.069-0.067,0.669-0.6,1.167-0.102
		c0.242,0.241,0.242,0.55,0.084,0.841c-0.411,0.79-0.291,0.875,0.345,1.509l8.992,8.993c0.636,0.636,0.722,0.754,1.511,0.344
		c0.291-0.154,0.601-0.154,0.841,0.085c0.497,0.497-0.036,1.098-0.104,1.167l-4.855,4.856c-0.069,0.069-0.669,0.601-1.167,0.104
		c-0.239-0.242-0.24-0.55-0.085-0.843c0.412-0.788,0.292-0.873-0.343-1.51l-8.994-8.991c-0.635-0.636-0.722-0.756-1.51-0.344
		c-0.292,0.153-0.6,0.153-0.841-0.087C22.679,35.223,23.211,34.622,23.28,34.554z M22.13,35.705l3.998,3.998
		c0.069,0.069,0.446,0.548-0.069,1.064c-0.482,0.481-1.013,0.12-1.441-0.206c-1.064-0.755-2.437-1.648-3.965-1.391l-0.995-0.995
		L22.13,35.705z M18.886,38.947L29.8,49.862c0.636,0.635,0.722,0.755,1.511,0.344c0.291-0.156,0.6-0.156,0.84,0.085
		c0.498,0.496-0.034,1.097-0.102,1.165l-4.856,4.858c-0.069,0.066-0.67,0.6-1.167,0.102c-0.241-0.241-0.241-0.548-0.085-0.841
		c0.411-0.789,0.292-0.875-0.344-1.51L14.683,43.152L18.886,38.947z M11.438,46.395l2.472-2.472l0.995,0.996
		c-0.258,1.527,0.635,2.9,1.391,3.964c0.326,0.43,0.687,0.961,0.206,1.441c-0.516,0.516-0.996,0.138-1.065,0.068L11.438,46.395z
		 M45.856,91.424l-9.173,9.167c-0.132,0.129-1.267,1.133-2.207,0.195c-0.452-0.456-0.453-1.041-0.165-1.591
		c0.782-1.492,0.552-1.654-0.648-2.857l-7.763-7.763l-2.855,2.854l-1.878-1.883l2.848-2.854l-7.375-7.371
		c-1.196-1.2-1.36-1.427-2.854-0.652c-0.547,0.295-1.137,0.289-1.588-0.165c-0.941-0.941,0.064-2.071,0.195-2.204l9.169-9.169
		c0.13-0.13,1.261-1.134,2.203-0.194c0.456,0.456,0.46,1.04,0.167,1.589c-0.779,1.492-0.55,1.654,0.649,2.854l17.016,17.018
		c1.199,1.204,1.363,1.434,2.856,0.65c0.552-0.289,1.133-0.287,1.589,0.167C46.985,90.158,45.985,91.293,45.856,91.424z
		 M35.298,77.689c-6.461-6.464-8.806-15.227-2.554-22.711l1.883,1.884c-0.974,2.073-0.126,3.176,0.686,3.988l16.821,16.821
		c0.812,0.813,1.917,1.656,3.99,0.686l1.883,1.886C50.521,86.494,41.763,84.151,35.298,77.689z M64.035,106.668l-1.058-1.059
		c0.968-1.264-0.02-2.359-0.715-3.049l-7.776-7.78c-0.695-0.692-1.791-1.679-3.048-0.711l-1.061-1.06
		c3.066-3.143,7.813-3.579,12.744,0.917C67.612,98.013,67.065,103.637,64.035,106.668z M70.843,99.859
		c-0.073,0.071-0.714,0.639-1.242,0.11c-0.254-0.256-0.256-0.588-0.092-0.895c0.438-0.84,0.312-0.931-0.361-1.607L59.58,87.9
		c-0.675-0.674-0.77-0.802-1.606-0.366c-0.312,0.17-0.64,0.168-0.897-0.09c-0.53-0.526,0.037-1.171,0.11-1.241l4.817-4.819
		l13.657,13.657L70.843,99.859z M76.486,94.22l-1.062-1.06c1.295-1.659,1.425-3.798,0.456-5.754
		c-0.144-0.401-0.33-0.801-0.001-1.131c0.587-0.583,1.08,0.018,1.151,0.092l3.655,3.654L76.486,94.22z M87.13,83.576l-5.168,5.169
		c-0.072,0.076-0.568,0.497-1.099-0.032c-0.255-0.256-0.301-0.541-0.138-0.853c0.439-0.839,0.21-0.83-0.465-1.507l-9.568-9.565
		c-0.675-0.677-0.767-0.804-1.606-0.367c-0.31,0.166-0.639,0.162-0.894-0.094c-0.529-0.527,0.037-1.167,0.109-1.24l4.82-4.816
		l11.614,11.614c0.673,0.672,0.766,0.804,1.604,0.363c0.312-0.164,0.639-0.165,0.896,0.091
		C87.771,82.866,87.203,83.506,87.13,83.576z M85.882,71.163c-0.247-0.248-0.482-0.504-0.709-0.763
		c0.371,0.962,0.447,2.01,0.148,3.187c-0.367,1.354-1.206,2.559-2.941,4.292l-1.058-1.058c0.875-1.282,0.184-2.084-0.71-2.981
		l-2.757-2.757c-0.821-0.819-1.736-1.404-2.853-0.582l-1.059-1.057c1.735-1.736,2.939-2.578,4.293-2.941
		c2.099-0.534,3.799,0.101,5.305,1.549c-1.646-3.076-1.681-6.564,0.913-9.671l1.063,1.063c-0.549,1.167-0.074,1.787,0.38,2.243
		l9.459,9.456c0.456,0.456,1.078,0.932,2.245,0.383l1.06,1.06C94.445,76.111,89.515,74.798,85.882,71.163z M107.198,103.945
		c1.602,0,2.969,1.308,2.969,3.084c0,1.791-1.369,3.099-2.969,3.099c-1.615,0-2.982-1.308-2.982-3.099
		C104.216,105.253,105.582,103.945,107.198,103.945z M94.052,51.457c-0.275,1.628,0.673,3.086,1.478,4.218
		c0.333,0.439,0.689,0.978,0.267,1.471c0.792,0.515,1.553,1.132,2.262,1.843c3.636,3.633,4.953,8.56,1.429,12.781l-1.062-1.062
		c0.547-1.167,0.072-1.787-0.385-2.246l-9.457-9.455c-0.457-0.459-1.077-0.932-2.246-0.385l-1.058-1.058
		c2.55-2.131,5.358-2.485,7.983-1.636l-2.9-2.9l2.627-2.628L94.052,51.457z M105.916,47.038c-0.509,0.509-1.075,0.129-1.53-0.222
		c-1.134-0.799-2.596-1.748-4.218-1.473l-1.059-1.058l2.628-2.632l4.255,4.254C106.064,45.981,106.467,46.491,105.916,47.038z
		 M105.348,31.928l-8.554,8.559c-0.132,0.13-1.269,1.134-2.208,0.194c-0.455-0.456-0.455-1.043-0.163-1.591
		c0.775-1.492,0.552-1.656-0.651-2.858L76.75,19.215c-1.201-1.198-1.361-1.428-2.854-0.647c-0.552,0.291-1.136,0.291-1.588-0.165
		c-0.943-0.939,0.064-2.078,0.193-2.206l8.55-8.553L105.348,31.928z"/>
</g>
</svg>
