<?xml version="1.0" encoding="utf-8"?>
<!-- Generator: Adobe Illustrator 16.0.0, SVG Export Plug-In . SVG Version: 6.00 Build 0)  -->
<!DOCTYPE svg PUBLIC "-//W3C//DTD SVG 1.1//EN" "http://www.w3.org/Graphics/SVG/1.1/DTD/svg11.dtd">
<svg version="1.1" id="Livello_1" xmlns="http://www.w3.org/2000/svg" xmlns:xlink="http://www.w3.org/1999/xlink" x="0px" y="0px"
	 width="283.46px" height="283.46px" viewBox="0 0 283.46 283.46" enable-background="new 0 0 283.46 283.46" xml:space="preserve">
<path fill="#DBC065" d="M748.723,535.233c0.146,0.892-0.109,1.583-0.975,1.959C747.59,536.291,747.893,535.631,748.723,535.233z"/>
<path fill="#DBC065" d="M746.644,538.963c0.162,0.342,0.211,0.588-0.302,0.358c0.001-0.003-0.065-0.407-0.065-0.407L746.644,538.963
	z"/>
<path fill="#DBC065" d="M744.723,531.233c0.146,0.892-0.109,1.583-0.975,1.959C743.59,532.291,743.893,531.631,744.723,531.233z"/>
<path fill="#DBC065" d="M742.644,534.963c0.162,0.342,0.211,0.588-0.302,0.358c0.001-0.003-0.065-0.407-0.065-0.407L742.644,534.963
	z"/>
<circle cx="136.986" cy="141.73" r="121.148"/>
<path d="M70.652,243.789c0,0-51.404-4.497-56.951-32.225l4.479-17.917h7.465C25.646,193.647,39.515,227.703,70.652,243.789z"/>
<path d="M214.836,45.626c0,0,23.675,21.969,26.446,31.567c2.773,9.598,16.211-11.091,16.211-11.091S240.857,46.266,214.836,45.626z"
	/>
<path d="M238.792,77.871c1.769,0.103,3.362-0.229,4.453-1.812c0.305-0.021,0.641,0.037,0.91-0.075
	c5.659-2.344,8.838-6.844,10.667-12.505c3.721,3.187,5.788,7.555,8.036,11.736c5.418,10.079,8.676,20.908,11.578,31.99
	c5.326,20.349,6.935,41.036,7.349,61.915c0.021,1.139,0.323,2.354-0.42,3.41c-6.18,6.419-13.589,11.103-21.838,14.113
	c-9.879,3.604-20.266,5.108-30.767,5.34c-10.667,0.235-21.311-0.046-31.956-1.175c-4.725-0.502-9.981-1.662-14.04,2.576
	c-0.189,0.197-0.581,0.21-0.886,0.284c-6.691,1.651-13.355,0.563-20.025-0.191c1.473-0.195,2.947-0.186,4.42-0.195
	c14.181-0.107,23.122-7.262,26.617-21.159c3.621-14.396,6.529-28.945,9.238-43.531c0.46-2.477,1.863-5.069,0.482-7.729
	c0.108-0.562,0.217-1.123,0.328-1.686c1.382-1.06,0.911-2.514,0.814-3.889c1.006-4.244,2.004-8.49,3.024-12.731
	c0.496-2.064,1.204-4.092,1.506-6.182c0.318-2.191-0.093-3.786-3.102-3.621c-4.75,0.261-9.53,0.186-14.287-0.021
	c-2.449-0.106-3.293,0.936-3.752,3.139c-2.087,10.01-4.268,20-6.46,29.986c-1.536,6.995-3.47,13.852-7.418,19.943
	c-1.529,2.36-3.374,4.414-6.016,5.513c-3.062,1.273-4.487,0.556-5.456-2.585c-0.879-2.853-0.504-5.727,0.091-8.533
	c2.227-10.519,4.549-21.017,6.853-31.519c0.867-3.954,1.89-7.877,2.635-11.853c0.672-3.579,0.237-4.024-3.06-4.034
	c-4.66-0.015-9.327,0.149-13.975-0.077c-2.547-0.125-3.466,0.826-3.979,3.219c-2.885,13.432-5.791,26.863-8.947,40.233
	c-1.491,6.322-5.347,11.322-10.403,15.247c-3.036,2.354-5.122,1.324-5.73-2.462c-0.291-1.814-0.118-3.613,0.247-5.4
	c1.813-8.865,3.604-17.734,5.441-26.595c1.406-6.775,2.873-13.536,4.304-20.305c0.794-3.756,0.721-3.844-2.932-3.849
	c-3.388-0.004-6.778-0.017-10.166-0.002c-1.375,0.006-2.764-0.03-4.122,0.145c-1.88,0.24-0.947,2.65-2.422,3.436
	c-2.854-3.562-6.626-5.289-11.062-5.465c-5.769-0.228-11.106,1.343-15.992,4.391c-16.587,10.349-27.681,37.834-22.909,56.931
	c1.196,4.786,3.164,9.224,7.439,12.163l0.005,0.239l0.214-0.091c0.396,0.271,0.794,0.54,1.191,0.811
	c0.51,1.111,1.406,1.76,2.488,2.264c7.158,3.333,16.186,1.807,21.849-3.582c2.123-2.021,4.477-3.796,6.726-5.682
	c0.607,1.975,1.82,3.592,3.03,5.211c-0.077,0.309-0.022,0.463,0.32,0.277c0.201,0.203,0.402,0.407,0.603,0.61l-0.095,0.106
	l0.11-0.093c0.215,0.194,0.429,0.386,0.644,0.579c-0.112,0.995,0.765,1.188,1.331,1.557c6.865,4.468,13.521,2.947,20.004-0.882
	c3.769-2.227,6.726-5.446,9.706-8.609c4.127,8.024,8.211,10.293,17.249,9.517c5.371-0.463,9.907-2.945,14.106-6.239
	c-0.457,2.877-0.785,5.604-1.336,8.287c-1.123,5.466-4.203,8.011-9.815,7.926c-4.221-0.063-8.436-0.562-12.656-0.639
	c-5.951-0.109-10.696,2.158-13.585,7.656c-2.262-0.844-3.625-0.089-4.166,2.293c-0.209,0.921-0.606,1.799-0.91,2.7
	c-0.715,2.121-2.863,2.194-4.121,1.779c-1.477-0.486-0.067-1.953,0.307-2.93c0.905-2.364,1.949-4.675,2.83-7.048
	c0.436-1.176,0.921-2.538-0.991-3.006c0.217-1.509-0.096-2.111-1.866-1.667c-13.056,3.289-26.267,2.582-39.445,1.102
	c-11.89-1.337-23.741-3.007-35.753-2.262c-1.753-0.137-2.148-0.939-1.771-2.711c6.765-31.646,13.445-63.31,20.223-94.953
	c0.421-1.964,0.586-3.708-0.5-5.438c-0.082-1.519-1.259-1.197-2.127-1.198c-7.517-0.016-15.034,0.039-22.551,0
	c-1.583-0.008-2.326,0.342-2.058,2.155c0.471,3.196,0.017,6.375-0.561,9.528c-4.658,25.45-10.6,50.629-15.766,75.973
	c-2.034,9.981-4.287,19.915-6.39,29.881c-0.833,3.949-0.745,3.932,3.19,3.536c9.994-1,20.043-0.567,30.057-1.093
	c0.84,1.461,2.174,1.729,3.737,1.805c2.19,0.104,4.371,0.452,6.555,0.697c-7.305,0.266-14.505,1.262-21.738,1.77
	c-3.805,0.265-7.477,1.416-10.752,3.402c-6.674,4.053-12.178,9.389-16.5,15.936C8.553,199.92,4.868,185.438,2.23,170.654
	c-2.207-12.367-3.168-24.873-2.505-37.365c0.979-18.433,4.433-36.382,13.434-52.826c1.789-3.269,5.093-4.585,8.019-6.359
	c7.313-4.434,15.286-7.362,23.322-10.119c6.432-1.613,12.952-2.756,19.566-3.204c16.272-1.102,32.373,0.574,48.314,3.64
	c12.772,2.457,25.417,5.577,38.16,8.195c12.319,2.53,24.507,5.672,37.055,7.132c9.785,1.138,19.569,1.9,29.406,2.122
	c-0.486,1.944-0.971,3.888-1.455,5.832c-0.528,0.255-0.72,0.677-0.615,1.247c-0.237,0.38-0.473,0.759-0.708,1.139l-0.233-0.03
	l0.044,0.258c-0.15,0.215-0.303,0.43-0.453,0.645c0.941,2.303,3.07,2.54,4.94,2.26c5.004-0.749,9.732-2.61,12.231-7.291
	C232.693,82.292,234.371,78.818,238.792,77.871z M206.769,164.868c0.089,0.058,0.178,0.117,0.269,0.174
	c0.419,1.117,1.482,1.424,2.392,1.908c5.099,2.714,10.63,2.656,16.128,2.293c8.277-0.548,16.019-2.58,22.326-8.562
	c6.797-6.445,9.173-16.118,5.496-23.377c-0.401-1.149-0.892-2.207-1.581-3.264c-3.998-6.119-9.454-10.763-14.893-15.447
	c-2.228-1.919-4.547-3.779-5.555-6.727c2.625-8.329,7.775-10.568,14.979-6.517c7.975,4.485,14.499,1.556,16.679-7.526
	c0.021-0.074-0.585-0.3-0.899-0.455c0.313-2.003-0.51-3.094-2.473-3.685c-12.053-3.627-23.944-3.979-35.154,2.537
	c-7.121,4.14-11.78,10.172-12.023,19.005c-0.245,8.862,4.808,14.573,10.968,19.751c3.079,2.59,6.288,5.056,9.131,7.892
	c3.256,3.25,3.711,7.481,1.589,10.417c-2.103,2.907-6.796,3.989-10.677,2.299c-1.934-0.842-3.723-2.019-5.61-2.972
	c-5.047-2.548-9.151-1.929-13.052,1.918c-4.993,4.923-4.876,6.099,0.969,9.833C205.885,164.975,206.238,165.096,206.769,164.868z"/>
<path fill="#FFFFFF" d="M17.544,222.016c0,0,9.384-23.889,54.389-29.86c45.003-5.973,108.136,3.2,108.136,3.2
	s84.251,15.143,103.873-19.197l-0.427-4.266c0,0-16.849,30.074-98.539,17.491c-81.69-12.585-148.876-9.173-171.059,24.313
	L17.544,222.016z"/>
<g>
	<g>
		<path fill="#58595B" d="M129.052,178.111c-0.387,0.097-0.776,0.178-1.163,0.269c-0.982,2.358-1.968,4.717-2.938,7.081
			c-2.535,6.188-7.522,8.777-13.824,9.049c-8.305,0.355-16.581,0.106-24.846-1.169c-9.1-1.401-18.267-2.376-27.414-3.453
			c-2.091-0.247-4.235-0.548-6.322,0.184c-10.082,0.526-20.199,0.093-30.26,1.094c-0.317,0.031-0.601,0.059-0.871,0.083
			c-0.561,2.872-0.135,2.83,3.43,2.477c10.062-1,20.179-0.567,30.26-1.093c2.086-0.731,4.231-0.432,6.322-0.187
			c9.147,1.08,18.314,2.055,27.414,3.456c8.265,1.273,16.542,1.524,24.846,1.166c6.303-0.271,11.29-2.858,13.825-9.046
			c1.128-2.754,2.278-5.498,3.419-8.245C131.149,178.268,130.833,177.665,129.052,178.111z"/>
		<path fill="#58595B" d="M61.262,105.836c-4.646,21.715-9.247,43.44-13.849,65.165c-0.656,3.096-0.478,3.592,2.384,3.451
			c0.048-0.272,0.106-0.563,0.175-0.892c4.602-21.724,9.204-43.45,13.849-65.166c2.467-11.533,4.651-23.13,7.598-34.552
			c-0.083-1.512-1.268-1.191-2.142-1.193c-0.253,0-0.506,0.001-0.759,0.001C65.745,83.631,63.631,94.761,61.262,105.836z"/>
	</g>
</g>
<path fill="#58595B" d="M233.597,80.279c-0.675-0.028-1.349-0.052-2.024-0.077c-1.864,4.82-7.441,10.069-13.083,10.683
	c-0.058,0.037-0.121,0.069-0.188,0.099c-0.233,0.374-0.471,0.753-0.708,1.133c0.104,0.22,0.134,0.377-0.194,0.229
	c-0.149,0.213-0.302,0.428-0.454,0.643c7.05,2.534,15.486-4.75,17.43-10.912C234.614,81.32,234.462,80.314,233.597,80.279z"/>
<g>
	<g>
		<path fill="#58595B" d="M256.062,136.401c-2.194-3.335-4.833-6.227-7.66-8.932c1.856,1.969,3.584,4.065,5.101,6.373
			c0.695,1.057,1.188,2.114,1.589,3.259c1.295,4.961,0.492,9.73-1.811,14.165c-5.32,10.24-14.43,14.516-25.419,15.496
			c-6.575,0.588-13.108,0.326-19.423-1.917c-0.091-0.06-0.182-0.117-0.271-0.174c-0.121-0.585-0.516-0.631-0.998-0.504
			c-0.685-0.436-1.283-0.831-1.812-1.206c0.507,1.114,1.938,2.222,4.371,3.766c0.482-0.129,0.878-0.083,0.998,0.504
			c0.089,0.058,0.181,0.115,0.271,0.172c6.313,2.246,12.848,2.507,19.423,1.92c10.987-0.982,20.099-5.257,25.416-15.497
			c2.306-4.434,3.108-9.204,1.812-14.164C257.248,138.517,256.756,137.459,256.062,136.401z"/>
		<path fill="#58595B" d="M224.938,134.78c-0.826-0.69-1.631-1.39-2.405-2.104c1.498,1.639,3.183,3.175,4.964,4.664
			c2.51,2.096,5.094,4.12,7.508,6.315c-0.267-0.335-0.554-0.665-0.874-0.983C231.268,139.836,228.037,137.369,224.938,134.78z"/>
		<path fill="#58595B" d="M263.951,96.046c-0.012-0.003-0.021-0.007-0.033-0.01c0.035,0.343,0.031,0.714-0.034,1.134
			c-1.226,0.047-1.534,1.078-1.89,1.917c-3.479,8.187-10.422,7.193-15.517,3.9c-1.382-0.894-2.811-1.638-4.375-1.835
			c-3.368-0.424-6.367,0.512-8.484,3.308c-1.673,2.205-2.758,4.585-0.702,7.208c0.82,2.384,2.507,4.055,4.308,5.623
			c-0.729-0.898-1.346-1.893-1.747-3.063c-2.057-2.623-0.971-5.002,0.699-7.208c2.119-2.795,5.118-3.731,8.485-3.307
			c1.565,0.196,2.995,0.942,4.377,1.835c5.092,3.292,12.037,4.286,15.515-3.901c0.357-0.839,0.664-1.87,1.89-1.917
			C266.757,97.729,265.928,96.638,263.951,96.046z"/>
	</g>
</g>
<g>
	<g>
		<path fill="#58595B" d="M109.001,104.438c-0.444-1.591-1.833-1.589-3.037-1.641c-4.086-0.178-6.828,2.241-8.911,5.287
			c-6.9,10.094-10.058,21.469-10.504,33.556c-0.083,2.244-0.839,5.142,1.57,7.049c0.671,1.154,1.451,1.945,2.361,2.382
			c-2.158-1.903-1.452-4.694-1.372-6.871c0.447-12.087,3.604-23.463,10.504-33.556c2.083-3.046,4.826-5.465,8.912-5.288
			c0.67,0.03,1.397,0.042,1.988,0.323C110.103,105.223,109.608,104.804,109.001,104.438z"/>
		<path fill="#58595B" d="M76.161,166.766l0.187-0.039c0,0,0.037,0.189,0.036,0.188c0.398,0.27,0.798,0.54,1.198,0.809
			c2.595,0.388,4.972,1.598,7.658,1.752c8.491,0.486,14.897-3.337,20.205-9.497c0.396-0.461,0.763-0.834,1.101-1.105
			c-0.091-0.23-0.175-0.466-0.249-0.705c-0.484-3.219-1.678-2.76-3.411-0.749c-5.308,6.161-11.714,9.982-20.205,9.496
			c-2.687-0.154-5.063-1.363-7.659-1.749c-0.399-0.271-0.799-0.542-1.197-0.811c-0.002,0-0.217,0.089-0.217,0.089l-0.006-0.237
			c-0.306-0.21-0.597-0.427-0.88-0.652C73.668,164.75,74.797,165.833,76.161,166.766z"/>
		<path fill="#58595B" d="M141.956,158.795c0.249-0.276,0.476-0.65,0.731-0.952c-0.166-0.303-0.333-0.6-0.498-0.92
			c0.148-0.913-0.111-1.907-0.909-2.133c-0.899-0.255-1.335,0.832-1.884,1.447c-8.131,9.102-16.879,13.488-28.223,8.714
			c0.241,0.33,0.485,0.656,0.73,0.984c0.351-0.188,0.33,0.056,0.325,0.279c0.201,0.199,0.402,0.405,0.605,0.608l0.016,0.014
			c0.217,0.192,0.433,0.386,0.648,0.579C124.957,172.351,133.769,167.96,141.956,158.795z"/>
		<path fill="#58595B" d="M206.543,123.225c0.108-0.562,0.22-1.123,0.328-1.686c0.313-1.465,0.433-2.504,0.82-3.888
			c1.014-4.245,2.019-8.491,3.046-12.732c0.499-2.063,1.212-4.091,1.517-6.181c0.295-2.022-0.039-3.532-2.471-3.625
			c-0.002,0.334-0.034,0.69-0.087,1.065c-0.305,2.09-1.019,4.118-1.519,6.181c-1.026,4.242-2.03,8.488-3.044,12.731
			c-0.376,1.312-0.803,2.165-1.177,3.764c-0.108,0.563-0.21,1.25-0.318,1.811c-0.693,2.829-0.953,4.217-1.421,6.349
			c-3.132,14.209-5.726,28.549-9.312,42.638c-3.121,12.271-10.129,20.637-25.199,21c-7.552,0.185-15.119-0.221-22.679-0.267
			c-2.924-0.018-5.701,0.851-8.459,1.718c-0.156,0.344-0.314,0.69-0.476,1.032c-0.311,0.668-0.976,1.233-0.243,1.965
			c0.66,0.658,1.266,0.186,2-0.039c3.181-0.977,6.36-2.138,9.738-2.115c7.56,0.043,15.125,0.45,22.679,0.267
			c15.069-0.364,22.075-8.73,25.199-21c3.586-14.09,6.18-28.431,9.309-42.64C205.246,127.442,205.904,125.354,206.543,123.225z"/>
		<path fill="#58595B" d="M136.187,96.456c-1.44,6.769-2.917,13.531-4.332,20.306c-1.85,8.859-3.654,17.729-5.479,26.594
			c-0.368,1.787-0.542,3.587-0.249,5.401c0.388,2.397,1.374,3.687,2.821,3.713c-0.104-0.353-0.193-0.733-0.261-1.155
			c-0.292-1.813-0.119-3.611,0.249-5.398c1.824-8.866,3.628-17.735,5.478-26.596c1.415-6.775,2.891-13.536,4.333-20.305
			c0.748-3.52,0.73-3.819-2.299-3.846C136.379,95.542,136.292,95.966,136.187,96.456z"/>
		<path fill="#58595B" d="M147.614,164.052c3.4,4.308,7.453,5.547,14.498,4.944c4.029-0.344,7.592-1.811,10.896-3.898
			c0.251-1.598,0.479-3.223,0.745-4.898c-4.227,3.293-8.795,5.776-14.201,6.238C154.176,166.896,150.546,166.277,147.614,164.052z"
			/>
		<path fill="#58595B" d="M172.535,96.629c-0.754,3.976-1.781,7.899-2.653,11.852c-2.319,10.503-4.657,21.001-6.901,31.52
			c-0.597,2.806-0.975,5.68-0.089,8.532c0.627,2.017,1.445,3.031,2.766,3.163c-0.071-0.191-0.141-0.392-0.208-0.604
			c-0.886-2.851-0.506-5.726,0.091-8.532c2.242-10.519,4.581-21.017,6.899-31.519c0.874-3.954,1.902-7.877,2.653-11.853
			c0.623-3.288,0.295-3.929-2.333-4.02C172.715,95.588,172.64,96.065,172.535,96.629z"/>
	</g>
</g>
<g>
	<path fill="#FEFEFD" d="M203.982,120.863c-0.697,2.211-1.297,4.217-1.765,6.349c-3.132,14.208-5.726,28.549-9.312,42.64
		c-3.121,12.269-10.129,20.635-25.199,21.001c-7.552,0.182-15.119-0.224-22.679-0.269c-3.376-0.021-6.556,1.141-9.737,2.115
		c-0.734,0.225-1.34,0.699-2,0.039c-0.733-0.731-0.069-1.295,0.243-1.963c1.076-2.301,2.09-4.634,2.575-7.148
		c2.909-5.498,7.685-7.766,13.677-7.656c4.248,0.077,8.492,0.575,12.74,0.639c5.65,0.085,8.75-2.46,9.883-7.926
		c0.554-2.683,0.886-5.41,1.344-8.287c-4.227,3.294-8.795,5.776-14.201,6.239c-9.098,0.776-13.21-1.492-17.363-9.513
		c0.148-0.915-0.111-1.91-0.909-2.135c-0.899-0.256-1.335,0.832-1.884,1.446c-8.187,9.165-17,13.554-28.457,8.619
		c-0.217-0.193-0.433-0.385-0.648-0.577l-0.016-0.016c-0.203-0.203-0.405-0.407-0.606-0.608c0.006-0.222,0.026-0.465-0.324-0.279
		c-1.218-1.619-2.439-3.236-3.048-5.209c-0.484-3.218-1.678-2.76-3.411-0.749c-5.308,6.162-11.714,9.983-20.205,9.497
		c-2.687-0.152-5.063-1.364-7.659-1.75c-0.399-0.271-0.799-0.539-1.197-0.811c0.001,0.002-0.036-0.188-0.036-0.188l-0.188,0.039
		c-4.304-2.939-6.285-7.377-7.488-12.163c-4.804-19.097,6.364-46.582,23.064-56.931c4.918-3.047,10.292-4.618,16.1-4.391
		c4.465,0.176,8.263,1.903,11.136,5.465c1.486-0.786,0.547-3.195,2.439-3.436c1.367-0.174,2.765-0.139,4.149-0.145
		c3.412-0.015,6.823-0.002,10.235,0.002c3.676,0.005,3.75,0.093,2.951,3.849c-1.44,6.769-2.917,13.53-4.332,20.305
		c-1.85,8.86-3.654,17.729-5.479,26.595c-0.368,1.787-0.542,3.586-0.249,5.4c0.612,3.786,2.712,4.816,5.769,2.462
		c5.09-3.925,8.972-8.925,10.475-15.247c3.176-13.371,6.102-26.801,9.005-40.233c0.519-2.393,1.443-3.344,4.007-3.219
		c4.68,0.227,9.379,0.063,14.07,0.077c3.318,0.01,3.758,0.455,3.079,4.034c-0.751,3.976-1.778,7.899-2.65,11.853
		c-2.319,10.502-4.657,21-6.901,31.519c-0.597,2.806-0.975,5.68-0.089,8.533c0.975,3.141,2.407,3.858,5.491,2.585
		c2.659-1.099,4.516-3.152,6.058-5.513c3.974-6.091,5.919-12.948,7.467-19.943c2.208-9.986,4.4-19.977,6.504-29.986
		c0.462-2.203,1.311-3.245,3.777-3.139c4.788,0.207,9.602,0.281,14.384,0.021c3.029-0.165,3.442,1.429,3.124,3.621
		c-0.305,2.09-1.019,4.118-1.519,6.182c-1.026,4.241-2.03,8.487-3.044,12.731c-0.39,1.366-0.629,2.466-0.821,3.889
		C204.202,119.74,204.092,120.302,203.982,120.863z M88.119,148.888c1.541,2.65,3.648,3.386,6.605,2.324
		c4.989-1.793,7.322-5.976,9.395-10.288c4.374-9.1,6.36-18.904,7.844-28.797c0.428-2.857-0.075-5.749-2.962-7.491
		c-0.444-1.59-1.833-1.589-3.037-1.642c-4.086-0.177-6.828,2.242-8.911,5.288c-6.9,10.093-10.058,21.469-10.504,33.556
		C86.466,144.082,85.71,146.979,88.119,148.888z"/>
	<path fill="#FEFEFD" d="M129.011,177.416c-1.141,2.747-2.291,5.491-3.419,8.245c-2.535,6.188-7.522,8.775-13.825,9.046
		c-8.305,0.356-16.581,0.107-24.846-1.166c-9.1-1.403-18.267-2.378-27.414-3.456c-2.09-0.247-4.235-0.545-6.322,0.185
		c-10.083,0.525-20.199,0.093-30.26,1.093c-3.961,0.396-4.051,0.413-3.212-3.536c2.117-9.966,4.386-19.899,6.434-29.881
		c5.2-25.344,11.182-50.523,15.873-75.973c0.58-3.153,1.038-6.332,0.563-9.528c-0.27-1.813,0.478-2.163,2.073-2.155
		c7.567,0.039,15.135-0.016,22.703,0c0.873,0.001,2.059-0.32,2.142,1.192c-2.948,11.421-5.131,23.019-7.598,34.552
		c-4.646,21.716-9.247,43.441-13.849,65.167c-0.725,3.42-0.443,3.669,3.373,3.389c12.095-0.745,24.025,0.925,35.996,2.262
		c13.266,1.48,26.566,2.188,39.71-1.102C128.914,175.305,129.229,175.907,129.011,177.416z"/>
	<path fill="#FEFEFD" d="M232.916,111.867c1.015,2.948,3.35,4.807,5.593,6.727c5.476,4.684,10.97,9.329,14.993,15.447
		c0.695,1.057,1.188,2.114,1.589,3.259c1.295,4.96,0.492,9.729-1.811,14.163c-5.32,10.24-14.43,14.517-25.419,15.497
		c-6.575,0.587-13.108,0.328-19.423-1.918c-0.091-0.057-0.182-0.116-0.271-0.172c-0.121-0.587-0.516-0.633-0.998-0.506
		c-5.888-3.734-6.004-4.91-0.977-9.833c3.928-3.847,8.06-4.466,13.14-1.918c1.902,0.953,3.701,2.13,5.648,2.972
		c3.906,1.69,8.631,0.608,10.748-2.299c2.137-2.936,1.681-7.167-1.6-10.417c-2.862-2.836-6.093-5.302-9.192-7.892
		c-6.203-5.178-11.288-10.889-11.043-19.751c0.245-8.833,4.937-14.865,12.106-19.005c11.286-6.516,23.256-6.165,35.391-2.537
		c1.977,0.591,2.805,1.682,2.492,3.683c-1.226,0.047-1.534,1.078-1.89,1.918c-3.479,8.186-10.422,7.193-15.517,3.9
		c-1.382-0.894-2.811-1.639-4.375-1.835c-3.368-0.424-6.367,0.512-8.484,3.307C231.945,106.865,230.86,109.244,232.916,111.867z"/>
	<path fill="#FFFFFF" d="M51.425,174.589c-3.815,0.28-4.097,0.031-3.373-3.389c4.603-21.726,9.204-43.451,13.849-65.167
		c2.467-11.533,4.65-23.13,7.598-34.552c1.092,1.735,0.926,3.479,0.502,5.443c-6.823,31.643-13.548,63.307-20.358,94.953
		C49.263,173.649,49.661,174.452,51.425,174.589z"/>
	<path fill="#FEFEFD" d="M218.47,81.872c1.579-0.754,0.425-3.568,2.413-3.688c3.584-0.217,7.198-0.078,10.794,0.068
		c0.866,0.036,1.019,1.041,0.779,1.798c-1.943,6.161-10.381,13.446-17.431,10.912c0.152-0.214,0.305-0.429,0.455-0.643
		c0.328,0.147,0.299-0.01,0.193-0.229c0.237-0.379,0.475-0.759,0.708-1.132c0.554-0.24,0.716-0.683,0.623-1.253
		C217.493,85.76,217.981,83.816,218.47,81.872z"/>
	<path fill="#DBC065" d="M217.005,87.704c0.093,0.57-0.069,1.013-0.623,1.253C216.279,88.381,216.473,87.959,217.005,87.704z"/>
	<path fill="#DBC065" d="M215.674,90.09c0.105,0.22,0.135,0.377-0.193,0.229c0.002-0.002-0.042-0.26-0.042-0.26L215.674,90.09z"/>
	<path fill="#DBC065" d="M109.345,163.573c0.35-0.186,0.33,0.058,0.324,0.279C109.322,164.036,109.267,163.882,109.345,163.573z"/>
	<path fill="#DBC065" d="M207.17,164.364c0.482-0.127,0.877-0.081,0.998,0.506C207.634,165.096,207.278,164.975,207.17,164.364z"/>
	<polygon fill="#DBC065" points="73.601,164.403 73.789,164.364 73.824,164.552 73.607,164.643 	"/>
	<polygon fill="#DBC065" points="110.275,164.461 110.291,164.477 110.178,164.567 	"/>
	<path d="M109.001,104.637c2.887,1.742,3.39,4.634,2.962,7.491c-1.484,9.893-3.471,19.697-7.844,28.797
		c-2.073,4.312-4.406,8.495-9.395,10.288c-2.957,1.062-5.064,0.326-6.604-2.32c-0.071-1.787-0.271-3.582-0.197-5.367
		c0.442-10.72,3.568-20.672,8.521-30.147C99.151,108.197,102.951,104.874,109.001,104.637z"/>
</g>
<path fill="#AB9764" d="M111.904,165.936c0.351-0.188,0.33,0.058,0.325,0.279C111.881,166.396,111.827,166.242,111.904,165.936z"/>
<polygon fill="#AB9764" points="76.161,166.766 76.348,166.727 76.383,166.914 76.166,167.003 "/>
<polygon fill="#AB9764" points="112.834,166.823 112.85,166.837 112.738,166.931 "/>
<path fill="#AB9764" d="M109.345,163.376c0.35-0.187,0.33,0.058,0.324,0.278C109.322,163.838,109.267,163.685,109.345,163.376z"/>
<polygon fill="#AB9764" points="73.601,164.206 73.789,164.167 73.824,164.354 73.607,164.443 "/>
<polygon fill="#AB9764" points="110.275,164.264 110.291,164.277 110.178,164.37 "/>
<text transform="matrix(1 0 0 1 200.9707 182.6816)" fill="#FFFFFF" font-family="'MyriadPro-SemiboldIt'" font-size="8.3183">BRAND</text>
<text transform="matrix(1 0 0 1 252.1621 207.8506)" font-family="'MyriadPro-Regular'" font-size="5.1189">TM</text>
</svg>
