<?xml version="1.0" encoding="utf-8" standalone="yes"?>
<!DOCTYPE svg PUBLIC "-//W3C//DTD SVG 1.1//EN" "http://www.w3.org/Graphics/SVG/1.1/DTD/svg11.dtd">
<!-- Generator: Adobe Illustrator 16.0.0, SVG Export Plug-In . SVG Version: 6.00 Build 0)  --><svg xmlns="http://www.w3.org/2000/svg" xmlns:xlink="http://www.w3.org/1999/xlink" version="1.1" id="Layer_1" x="0px" y="0px" width="902.701px" height="523.474px" viewBox="0 0 902.701 523.474" enable-background="new 0 0 902.701 523.474" xml:space="preserve" style="zoom: 1;"><rect x="-906.788" y="-372.445" width="145.333" height="159.162"></rect><path stroke="#FFFFFF" stroke-miterlimit="10" d="M-558.648-355.063l6.179,3.155c0.558,0.285,1.15,0.419,1.734,0.419 c1.388,0,2.728-0.762,3.403-2.082c0.959-1.879,0.215-4.179-1.665-5.139l-0.733-0.377c-7.146-4.332-15.517-6.834-24.465-6.834 c-26.094,0-47.322,21.229-47.322,47.322v71.537c0,18.387-14.958,33.345-33.346,33.345c-18.384,0-33.343-14.958-33.343-33.345 c0-2.109-1.71-3.819-3.818-3.819c-2.111,0-3.822,1.71-3.822,3.819c0,22.598,18.386,40.98,40.982,40.98 c22.245,0,40.395-17.815,40.957-39.928c0.017-0.144,0.025-0.289,0.025-0.438v-72.152c0-21.88,17.804-39.683,39.686-39.683 c5.419,0,10.586,1.096,15.295,3.074C-558.818-355.157-558.735-355.109-558.648-355.063"></path><path stroke="#000000" stroke-width="1.6318" stroke-miterlimit="10" d="M-558.648-355.063l6.179,3.155 c0.558,0.285,1.15,0.419,1.734,0.419c1.388,0,2.728-0.762,3.403-2.082c0.959-1.879,0.215-4.179-1.665-5.139l-0.733-0.377 c-7.146-4.332-15.517-6.834-24.465-6.834c-26.094,0-47.322,21.229-47.322,47.322v71.537c0,18.387-14.958,33.345-33.346,33.345 c-18.384,0-33.343-14.958-33.343-33.345c0-2.109-1.71-3.819-3.818-3.819c-2.111,0-3.822,1.71-3.822,3.819 c0,22.598,18.386,40.98,40.982,40.98c22.245,0,40.395-17.815,40.957-39.928c0.017-0.144,0.025-0.289,0.025-0.438v-72.152 c0-21.88,17.804-39.683,39.686-39.683c5.419,0,10.586,1.096,15.295,3.074C-558.818-355.157-558.735-355.109-558.648-355.063z"></path><path stroke="#FFFFFF" stroke-miterlimit="10" d="M-539.343-337.389c0.103,0.178,0.221,0.341,0.349,0.496 c2.15,4.119,3.593,8.657,4.184,13.457c-0.013,0.202-0.013,0.407,0.009,0.615l0.248,2.48c0.005,0.109,0.016,0.218,0.018,0.326 c0.006-0.002,0.011-0.004,0.015-0.006l0.266,2.63c0.199,1.968,1.859,3.436,3.795,3.436c0.129,0,0.259-0.006,0.389-0.019 c2.097-0.211,3.627-2.084,3.416-4.183l-0.288-2.861c-0.442-8.742-3.264-16.868-7.837-23.734c-0.002,0-0.002,0.002-0.002,0.002 l-1.436-2.474c-1.061-1.825-3.398-2.446-5.221-1.386c-1.825,1.06-2.446,3.394-1.386,5.22L-539.343-337.389z"></path><path stroke="#FFFFFF" stroke-width="1.6318" stroke-miterlimit="10" d="M-539.343-337.389c0.103,0.178,0.221,0.341,0.349,0.496 c2.15,4.119,3.593,8.657,4.184,13.457c-0.013,0.202-0.013,0.407,0.009,0.615l0.248,2.48c0.005,0.109,0.016,0.218,0.018,0.326 c0.006-0.002,0.011-0.004,0.015-0.006l0.266,2.63c0.199,1.968,1.859,3.436,3.795,3.436c0.129,0,0.259-0.006,0.389-0.019 c2.097-0.211,3.627-2.084,3.416-4.183l-0.288-2.861c-0.442-8.742-3.264-16.868-7.837-23.734c-0.002,0-0.002,0.002-0.002,0.002 l-1.436-2.474c-1.061-1.825-3.398-2.446-5.221-1.386c-1.825,1.06-2.446,3.394-1.386,5.22L-539.343-337.389z"></path><path fill="#80B04E" d="M-561.697-310.854c0-1.09,0.206-2.132,0.562-3.1c-6.173,0.561-11.009,5.75-11.009,12.069 c0,6.695,5.427,12.121,12.122,12.121c6.692,0,12.119-5.426,12.119-12.121c0-0.457-0.027-0.91-0.076-1.354 c-1.377,0.859-2.998,1.362-4.738,1.362C-557.677-301.877-561.697-305.896-561.697-310.854"></path><path fill="none" stroke="#80B04E" stroke-width="1.6318" stroke-miterlimit="10" d="M-561.697-310.854 c0-1.09,0.206-2.132,0.562-3.1c-6.173,0.561-11.009,5.75-11.009,12.069c0,6.695,5.427,12.121,12.122,12.121 c6.692,0,12.119-5.426,12.119-12.121c0-0.457-0.027-0.91-0.076-1.354c-1.377,0.859-2.998,1.362-4.738,1.362 C-557.677-301.877-561.697-305.896-561.697-310.854z"></path><path d="M-456.363-227.247c-2.556,0-4.636,2.082-4.636,4.636c0,17.938-14.593,32.53-32.527,32.53 c-17.938,0-32.53-14.593-32.53-32.53l-0.002-36.716v-24.816v-9.147l0.011-0.233l-0.047-3.818l-0.02,0.007l-0.027-1.676 c-0.02-1.235-0.524-2.391-1.415-3.253c-0.895-0.864-1.986-1.296-3.298-1.306c-1.236,0.022-2.393,0.523-3.253,1.412 c-0.86,0.89-1.323,2.063-1.303,3.301l0.023,14.713v25.974h0.007l0.056,37.218c0,0.325,0.031,0.643,0.08,0.82 c1.296,22.047,19.62,39.318,41.718,39.318c23.047,0,41.798-18.751,41.798-41.798C-451.729-225.165-453.807-227.247-456.363-227.247"></path><path d="M-499.676-207.419c8.734,0,15.842-7.107,15.842-15.843c0-2.192-1.778-3.969-3.969-3.969s-3.969,1.776-3.969,3.969 c0,4.36-3.547,7.904-7.904,7.904s-7.904-3.544-7.904-7.904c0-0.11-0.008-0.212-0.017-0.318c0.009-0.108,0.017-0.212,0.017-0.32 v-19.078c0-2.191-1.778-3.969-3.969-3.969s-3.969,1.777-3.969,3.969v19.078c0,0.108,0.008,0.212,0.017,0.32 c-0.009,0.106-0.017,0.208-0.017,0.318C-515.518-214.526-508.41-207.419-499.676-207.419"></path><path d="M-648.538-229.359c-8.736,0-15.841-7.107-15.841-15.84c0-2.194,1.777-3.969,3.968-3.969c2.191,0,3.969,1.775,3.969,3.969 c0,4.358,3.546,7.904,7.904,7.904s7.904-3.546,7.904-7.904c0-0.109,0.009-0.216,0.018-0.32c-0.009-0.107-0.018-0.213-0.018-0.32 v-19.077c0-2.191,1.778-3.969,3.969-3.969c2.191,0,3.969,1.777,3.969,3.969v19.077c0,0.106-0.01,0.212-0.018,0.32 c0.008,0.104,0.018,0.21,0.018,0.32C-632.695-236.467-639.802-229.359-648.538-229.359"></path><path d="M-588.642-168.396v-41.084c0-1.988-2.037-3.548-4.634-3.548c-2.601,0-4.637,1.56-4.637,3.548v43.392l-0.041,1.919 c-0.02,0.797,0.293,1.549,0.903,2.178c0.861,0.891,2.195,1.411,3.659,1.428l0.01-0.813l0.062,0.815c2.463,0,4.443-1.421,4.622-3.274 l0.056,0.023l0.043-4.132C-588.596-168.137-588.613-168.335-588.642-168.396"></path><path d="M-526.779-136.587c-2.556,0-4.634,2.08-4.634,4.637c0,6.69-5.439,12.132-12.126,12.132s-12.126-5.441-12.126-12.132 c0-0.17-0.011-0.338-0.027-0.504l0.002,0.002c0.017,0,0.025-0.163,0.025-0.327l0.02-7.35l0.002-0.675h0.017l0.009-3.269h0.007 v-21.939v-6.271c0-2.518-2.076-4.562-4.633-4.562c-2.558,0-4.632,2.044-4.632,4.562v6.271v19.855l-0.053,5.353v0.675v7.35 c0,0.17,0.011,0.338,0.027,0.504v-0.004c-0.017,0-0.027,0.165-0.027,0.329c0,11.801,9.596,21.402,21.39,21.402 c11.795,0,21.392-9.602,21.392-21.402C-522.147-134.507-524.225-136.587-526.779-136.587"></path><path d="M-591.703-152.31l0.013-0.018c0,0-0.052-0.027-0.137-0.065c-0.459-0.295-0.97-0.506-1.527-0.625l0.002-0.021 c-0.081-0.018-0.151-0.011-0.229-0.023c-0.101-0.016-0.192-0.049-0.292-0.058c-0.093-0.009-0.183,0.004-0.274,0 c-0.158-0.007-0.313-0.009-0.461,0c-0.131,0.006-0.257,0.021-0.382,0.04c-0.218,0.03-0.425,0.068-0.621,0.126 c-0.04,0.011-0.081,0.021-0.12,0.033c-0.997,0.311-1.703,0.858-2.047,1.188c-0.028,0.025-0.054,0.053-0.083,0.078 c-0.102,0.104-0.174,0.183-0.174,0.183l0.024,0.011c-1.495,1.724-1.142,4.532-1.142,4.532v0.378l-0.288,3.034 c-0.008,0.085-0.008,0.17,0.004,0.155c-1.196,5.55-6.183,9.578-11.857,9.578c-6.691,0-12.135-5.443-12.135-12.134 c0-2.557-2.078-4.635-4.634-4.635s-4.634,2.078-4.634,4.635c0,11.803,9.602,21.404,21.403,21.404s21.402-9.602,21.396-21.424 l0.2-2.133C-589.531-149.801-590.362-151.386-591.703-152.31"></path><path fill="#FFFFFF" stroke="#FFFFFF" stroke-width="0.4967" stroke-miterlimit="10" d="M-825.926-355.298l3.069,1.567 c0.276,0.142,0.571,0.208,0.861,0.208c0.689,0,1.354-0.378,1.69-1.034c0.477-0.933,0.107-2.076-0.827-2.552l-0.364-0.188 c-3.549-2.151-7.707-3.395-12.151-3.395c-12.96,0-23.503,10.544-23.503,23.503v35.53c0,9.132-7.429,16.562-16.562,16.562 c-9.131,0-16.56-7.429-16.56-16.562c0-1.047-0.85-1.896-1.896-1.896c-1.049,0-1.898,0.849-1.898,1.896 c0,11.224,9.132,20.354,20.354,20.354c11.049,0,20.063-8.848,20.342-19.831c0.008-0.071,0.013-0.144,0.013-0.217v-35.836 c0-10.867,8.842-19.709,19.71-19.709c2.692,0,5.258,0.544,7.597,1.527C-826.011-355.344-825.969-355.32-825.926-355.298"></path><path fill="#FFFFFF" stroke="#FFFFFF" stroke-width="0.8105" stroke-miterlimit="10" d="M-825.926-355.298l3.069,1.567 c0.276,0.142,0.571,0.208,0.861,0.208c0.689,0,1.354-0.378,1.69-1.034c0.477-0.933,0.107-2.076-0.827-2.552l-0.364-0.188 c-3.549-2.151-7.707-3.395-12.151-3.395c-12.96,0-23.503,10.544-23.503,23.503v35.53c0,9.132-7.429,16.562-16.562,16.562 c-9.131,0-16.56-7.429-16.56-16.562c0-1.047-0.85-1.896-1.896-1.896c-1.049,0-1.898,0.849-1.898,1.896 c0,11.224,9.132,20.354,20.354,20.354c11.049,0,20.063-8.848,20.342-19.831c0.008-0.071,0.013-0.144,0.013-0.217v-35.836 c0-10.867,8.842-19.709,19.71-19.709c2.692,0,5.258,0.544,7.597,1.527C-826.011-355.344-825.969-355.32-825.926-355.298z"></path><path fill="#FFFFFF" stroke="#FFFFFF" stroke-width="0.4967" stroke-miterlimit="10" d="M-816.338-346.52 c0.051,0.089,0.109,0.169,0.173,0.247c1.067,2.046,1.784,4.3,2.078,6.684c-0.006,0.101-0.006,0.202,0.004,0.306l0.123,1.232 c0.002,0.055,0.008,0.108,0.009,0.162c0.002,0,0.005-0.001,0.007-0.002l0.132,1.306c0.099,0.978,0.924,1.706,1.885,1.706 c0.063,0,0.128-0.002,0.192-0.009c1.042-0.105,1.802-1.035,1.697-2.077l-0.143-1.421c-0.219-4.342-1.621-8.378-3.892-11.788 c-0.001,0-0.001,0.001-0.001,0.001l-0.713-1.229c-0.526-0.907-1.688-1.215-2.593-0.688c-0.906,0.526-1.215,1.686-0.688,2.593 L-816.338-346.52z"></path><path fill="#FFFFFF" stroke="#FFFFFF" stroke-width="0.8105" stroke-miterlimit="10" d="M-816.338-346.52 c0.051,0.089,0.109,0.169,0.173,0.247c1.067,2.046,1.784,4.3,2.078,6.684c-0.006,0.101-0.006,0.202,0.004,0.306l0.123,1.232 c0.002,0.055,0.008,0.108,0.009,0.162c0.002,0,0.005-0.001,0.007-0.002l0.132,1.306c0.099,0.978,0.924,1.706,1.885,1.706 c0.063,0,0.128-0.002,0.192-0.009c1.042-0.105,1.802-1.035,1.697-2.077l-0.143-1.421c-0.219-4.342-1.621-8.378-3.892-11.788 c-0.001,0-0.001,0.001-0.001,0.001l-0.713-1.229c-0.526-0.907-1.688-1.215-2.593-0.688c-0.906,0.526-1.215,1.686-0.688,2.593 L-816.338-346.52z"></path><path fill="#769F4C" d="M-827.44-333.34c0-0.542,0.102-1.059,0.278-1.54c-3.066,0.279-5.467,2.856-5.467,5.995 c0,3.325,2.695,6.02,6.021,6.02c3.324,0,6.019-2.695,6.019-6.02c0-0.227-0.014-0.452-0.038-0.672 c-0.684,0.427-1.489,0.677-2.353,0.677C-825.444-328.881-827.44-330.878-827.44-333.34"></path><path fill="none" stroke="#80B04E" stroke-width="0.8105" stroke-miterlimit="10" d="M-827.44-333.34 c0-0.542,0.102-1.059,0.278-1.54c-3.066,0.279-5.467,2.856-5.467,5.995c0,3.325,2.695,6.02,6.021,6.02 c3.324,0,6.019-2.695,6.019-6.02c0-0.227-0.014-0.452-0.038-0.672c-0.684,0.427-1.489,0.677-2.353,0.677 C-825.444-328.881-827.44-330.878-827.44-333.34z"></path><path fill="#FFFFFF" d="M-775.125-291.815c-1.269,0-2.302,1.034-2.302,2.303c0,8.909-7.248,16.156-16.156,16.156 c-8.909,0-16.157-7.248-16.157-16.156l-0.001-18.236v-12.326v-4.543l0.005-0.116l-0.023-1.896l-0.01,0.003l-0.014-0.833 c-0.009-0.613-0.26-1.187-0.702-1.615c-0.445-0.429-0.987-0.644-1.638-0.648c-0.614,0.011-1.188,0.26-1.615,0.701 c-0.428,0.442-0.658,1.025-0.647,1.64l0.012,7.307v12.9h0.003l0.028,18.485c0,0.162,0.015,0.319,0.04,0.408 c0.644,10.95,9.745,19.528,20.72,19.528c11.447,0,20.76-9.313,20.76-20.759C-772.823-290.781-773.855-291.815-775.125-291.815"></path><path fill="#FFFFFF" d="M-753.586-440.896c4.338,0,7.868-3.529,7.868-7.868c0-1.089-0.883-1.971-1.971-1.971 s-1.971,0.882-1.971,1.971c0,2.166-1.762,3.926-3.926,3.926s-3.926-1.76-3.926-3.926c0-0.055-0.004-0.105-0.008-0.158 c0.004-0.054,0.008-0.105,0.008-0.159v-9.475c0-1.088-0.883-1.971-1.971-1.971s-1.971,0.883-1.971,1.971v9.475 c0,0.054,0.003,0.105,0.008,0.159c-0.004,0.053-0.008,0.104-0.008,0.158C-761.454-444.426-757.924-440.896-753.586-440.896"></path><path fill="#FFFFFF" d="M-880.787-431.081c-4.339,0-7.868-3.53-7.868-7.868c0-1.089,0.883-1.971,1.971-1.971 c1.088,0,1.971,0.882,1.971,1.971c0,2.165,1.761,3.926,3.926,3.926c2.164,0,3.925-1.762,3.925-3.926 c0-0.054,0.005-0.107,0.009-0.158c-0.004-0.054-0.009-0.106-0.009-0.159v-9.475c0-1.088,0.883-1.971,1.971-1.971 c1.088,0,1.972,0.883,1.972,1.971v9.475c0,0.053-0.005,0.105-0.009,0.159c0.003,0.051,0.009,0.104,0.009,0.158 C-872.919-434.611-876.449-431.081-880.787-431.081"></path><path fill="#FFFFFF" d="M-840.823-262.586v-20.405c0-0.988-1.012-1.762-2.302-1.762c-1.292,0-2.303,0.774-2.303,1.762v21.551 l-0.02,0.953c-0.01,0.396,0.145,0.769,0.448,1.082c0.427,0.442,1.09,0.701,1.817,0.709l0.005-0.404l0.03,0.405 c1.224,0,2.207-0.706,2.295-1.626l0.028,0.012l0.021-2.052C-840.801-262.457-840.809-262.556-840.823-262.586"></path><path fill="#FFFFFF" d="M-810.098-246.788c-1.27,0-2.301,1.033-2.301,2.303c0,3.323-2.702,6.025-6.023,6.025 c-3.321,0-6.022-2.703-6.022-6.025c0-0.084-0.005-0.168-0.014-0.25l0.001,0.001c0.008,0,0.012-0.081,0.012-0.163l0.01-3.65 l0.001-0.335h0.008l0.004-1.624h0.003v-10.896v-3.114c0-1.251-1.031-2.266-2.301-2.266c-1.271,0-2.301,1.015-2.301,2.266v3.114 v9.861l-0.026,2.658v0.335v3.65c0,0.084,0.005,0.167,0.014,0.25v-0.001c-0.008,0-0.014,0.082-0.014,0.163 c0,5.861,4.766,10.63,10.624,10.63c5.858,0,10.625-4.769,10.625-10.63C-807.797-245.754-808.829-246.788-810.098-246.788"></path><path fill="#FFFFFF" d="M-842.805-254.596l0.007-0.009c0,0-0.026-0.013-0.068-0.033c-0.228-0.146-0.482-0.251-0.758-0.311 l0.001-0.01c-0.041-0.009-0.075-0.005-0.114-0.012c-0.05-0.008-0.095-0.024-0.145-0.028c-0.046-0.005-0.091,0.002-0.136,0 c-0.079-0.004-0.156-0.005-0.229,0c-0.064,0.002-0.127,0.01-0.189,0.02c-0.108,0.015-0.211,0.034-0.309,0.063 c-0.02,0.005-0.04,0.01-0.06,0.016c-0.495,0.154-0.846,0.426-1.017,0.59c-0.014,0.012-0.027,0.026-0.041,0.039 c-0.051,0.052-0.086,0.091-0.086,0.091l0.012,0.005c-0.742,0.856-0.567,2.251-0.567,2.251v0.188l-0.143,1.507 c-0.004,0.042-0.004,0.084,0.002,0.077c-0.594,2.757-3.071,4.758-5.889,4.758c-3.323,0-6.027-2.704-6.027-6.026 c0-1.27-1.032-2.302-2.301-2.302s-2.302,1.032-2.302,2.302c0,5.862,4.769,10.631,10.63,10.631c5.861,0,10.63-4.769,10.627-10.641 l0.099-1.059C-841.727-253.35-842.139-254.137-842.805-254.596"></path><path fill="#80B04E" d="M-301.433-316.694c-1.274-2.926-3.026-5.516-5.207-7.697c-2.182-2.182-4.771-3.934-7.698-5.209 c-2.957-1.288-6.142-1.94-9.47-1.94c-4.178,0-8.135,1.027-11.701,3.021c-0.904,0.452-1.56,1.249-1.842,2.241 c-0.268,0.929-0.185,1.864,0.271,2.773l0.125,0.206c0.514,0.772,1.256,1.315,2.143,1.567c0.924,0.266,1.828,0.205,2.813-0.292 c2.494-1.394,5.25-2.1,8.191-2.1c2.313,0,4.515,0.444,6.543,1.321c2.053,0.888,3.867,2.112,5.394,3.639 c1.528,1.529,2.753,3.344,3.64,5.395c0.877,2.026,1.32,4.228,1.32,6.543c0,2.318-0.445,4.533-1.324,6.582 c-0.885,2.068-2.109,3.892-3.636,5.418c-1.528,1.529-3.342,2.753-5.394,3.639c-2.026,0.877-4.229,1.321-6.543,1.321 c-2.317,0-4.533-0.445-6.582-1.325c-2.072-0.887-3.896-2.11-5.418-3.635c-1.525-1.524-2.748-3.347-3.636-5.418 c-0.879-2.049-1.323-4.264-1.323-6.582c0-1.429,0.186-2.849,0.551-4.221c0.367-1.379,0.918-2.73,1.666-4.076 c0.421-0.84,0.503-1.775,0.236-2.709c-0.287-0.994-0.933-1.784-1.779-2.206c-1.801-0.961-3.83-0.449-4.967,1.323l-0.08,0.139 c-0.939,1.783-1.676,3.675-2.192,5.622c-0.524,1.975-0.789,4.036-0.789,6.128c0,3.365,0.64,6.559,1.903,9.489 c1.254,2.911,3.008,5.504,5.213,7.708c2.205,2.207,4.799,3.961,7.707,5.213c2.931,1.264,6.125,1.904,9.49,1.904 c3.319,0,6.5-0.64,9.453-1.901c2.938-1.256,5.536-3.014,7.725-5.225c2.175-2.198,3.923-4.783,5.195-7.683 c1.289-2.937,1.942-6.136,1.942-9.506C-299.492-310.55-300.146-313.736-301.433-316.694"></path><path fill="#FFFFFF" d="M-227.851-321.645c-0.696,0.695-1.079,1.642-1.079,2.663v32.394c0,0.983,0.383,1.906,1.075,2.596 c0.695,0.698,1.642,1.082,2.666,1.082c0.98,0,1.902-0.383,2.599-1.079c0.696-0.695,1.078-1.618,1.078-2.599v-32.394 c0-1.019-0.383-1.966-1.082-2.666C-224.018-323.066-226.493-323.006-227.851-321.645"></path><path fill="#FFFFFF" d="M-204.964-330.47c-0.697-0.69-1.617-1.07-2.59-1.07h-35.332c-0.979,0-1.902,0.384-2.602,1.081 c-0.694,0.694-1.077,1.617-1.077,2.597c0,1.023,0.383,1.969,1.076,2.659c0.694,0.697,1.618,1.081,2.603,1.081h35.332 c0.981,0,1.904-0.384,2.6-1.08c0.695-0.695,1.078-1.64,1.078-2.66C-203.876-328.853-204.249-329.751-204.964-330.47"></path><path fill="#FFFFFF" d="M-161.76-288.09l-18.455-41.388c-0.661-1.311-1.877-2.063-3.335-2.063c-1.503,0-2.752,0.771-3.455,2.178 l-11.24,25.294l-7.18,16.024l-0.07,0.191c-0.254,0.759-0.265,1.553-0.035,2.359c0.297,1.036,1.043,1.878,2.096,2.329l0.154,0.058 c0.393,0.13,0.818,0.196,1.266,0.196c1.464,0,2.689-0.771,3.388-2.176l6.152-13.798h10.01c1.022,0,1.969-0.384,2.667-1.082 c0.693-0.695,1.074-1.616,1.074-2.595c0-1.033-0.372-1.953-1.084-2.671c-0.696-0.69-1.639-1.07-2.657-1.07h-6.68l5.593-12.566 l15.061,33.881c0.655,1.32,1.873,2.077,3.342,2.077c0.631,0,1.141-0.103,1.474-0.275c0.956-0.412,1.674-1.176,2.022-2.152 C-161.312-286.299-161.36-287.299-161.76-288.09"></path><path fill="#FFFFFF" d="M-121.961-330.467c-0.696-0.692-1.617-1.073-2.595-1.073h-35.332c-0.979,0-1.902,0.383-2.602,1.081 c-0.694,0.695-1.075,1.617-1.075,2.596c0,1.024,0.382,1.97,1.072,2.659c0.695,0.697,1.62,1.082,2.604,1.082h35.332 c0.979,0,1.903-0.383,2.604-1.081c0.692-0.696,1.073-1.641,1.073-2.66C-120.879-328.852-121.251-329.75-121.961-330.467"></path><path fill="#FFFFFF" d="M-142.189-322.723c-1.024,0-1.971,0.384-2.661,1.078c-0.696,0.693-1.08,1.641-1.08,2.663v32.394 c0,0.982,0.383,1.905,1.072,2.593c0.694,0.7,1.643,1.085,2.669,1.085c0.98,0,1.903-0.384,2.601-1.081 c0.694-0.696,1.077-1.618,1.077-2.597v-32.394c0-1.031-0.372-1.951-1.082-2.665C-140.289-322.341-141.21-322.723-142.189-322.723"></path><path fill="#FFFFFF" d="M-104.03-290.329c-0.591,0-1.104-0.104-1.618-0.329c-0.526-0.229-0.987-0.54-1.375-0.927 c-0.383-0.382-0.695-0.845-0.926-1.373c-0.223-0.512-0.326-1.025-0.326-1.617v-33.288c0-0.99-0.372-1.889-1.085-2.605 c-1.368-1.358-3.834-1.415-5.258,0.009c-0.693,0.695-1.075,1.617-1.075,2.597v33.288c0,1.581,0.305,3.104,0.907,4.524 c0.598,1.412,1.44,2.667,2.502,3.729c1.065,1.065,2.32,1.908,3.729,2.502c1.422,0.604,2.945,0.909,4.525,0.909 c0.979,0,1.903-0.383,2.599-1.079c0.696-0.694,1.079-1.618,1.079-2.599c0-1.02-0.383-1.966-1.081-2.665 C-102.129-289.947-103.052-290.329-104.03-290.329"></path><path fill="#FFFFFF" d="M-82.078-330.468c-0.696-0.691-1.617-1.072-2.593-1.072c-1.068,0-2.036,0.417-2.731,1.185 c-0.618,0.694-0.946,1.556-0.946,2.493v33.288c0,0.572-0.109,1.117-0.325,1.614c-0.227,0.518-0.539,0.972-0.928,1.347 c-0.415,0.4-0.898,0.723-1.438,0.957c-0.501,0.218-1.045,0.328-1.618,0.328c-0.984,0-1.907,0.383-2.595,1.073 c-0.697,0.695-1.082,1.643-1.082,2.667c0,0.984,0.383,1.907,1.072,2.595c0.695,0.698,1.62,1.083,2.604,1.083 c1.579,0,3.1-0.306,4.523-0.907c1.414-0.599,2.67-1.441,3.729-2.503c1.063-1.063,1.905-2.316,2.504-3.73 c0.602-1.422,0.906-2.943,0.906-4.523v-33.288C-80.994-328.853-81.366-329.751-82.078-330.468"></path><path fill="#FFFFFF" d="M-19.993-286.583c0,1.777-1.396,3.173-3.212,3.173c-1.796,0-3.229-1.396-3.229-3.173 c0-1.739,1.434-3.135,3.229-3.135C-21.389-289.718-19.993-288.323-19.993-286.583 M-25.632-286.583c0,1.395,1.032,2.504,2.446,2.504 c1.376,0,2.39-1.109,2.39-2.485c0-1.396-1.014-2.522-2.409-2.522C-24.6-289.087-25.632-287.96-25.632-286.583 M-23.702-284.94 h-0.726v-3.135c0.286-0.058,0.688-0.096,1.204-0.096c0.593,0,0.86,0.096,1.09,0.229c0.172,0.134,0.305,0.382,0.305,0.688 c0,0.344-0.267,0.611-0.649,0.726v0.037c0.306,0.116,0.479,0.346,0.573,0.766c0.096,0.479,0.153,0.669,0.229,0.784h-0.783 c-0.096-0.115-0.153-0.401-0.249-0.765c-0.058-0.344-0.248-0.497-0.649-0.497h-0.345V-284.94z M-23.683-286.718h0.344 c0.402,0,0.727-0.134,0.727-0.458c0-0.287-0.21-0.479-0.669-0.479c-0.191,0-0.325,0.02-0.401,0.039V-286.718z"></path><path fill="#FFFFFF" d="M-31.227-330.406c-1.247-1.237-3.313-1.463-4.983-0.275l-15.498,16.244l-15.233-16.03 c-1.395-1.386-3.861-1.387-5.258,0.008c-0.694,0.695-1.076,1.617-1.076,2.597c0,0.983,0.377,1.9,1.031,2.55l3.679,3.877l2.627,2.767 l0.638,0.672l0.18,0.189l10.622,11.191c0.666,0.784,1.657,1.216,2.791,1.216c1.035,0,1.962-0.38,2.709-1.126l11.44-12.037v31.976 c0,0.984,0.383,1.908,1.073,2.596c0.695,0.697,1.619,1.082,2.604,1.082c1.021,0,1.967-0.383,2.662-1.079 c0.695-0.695,1.078-1.618,1.078-2.599v-41.211C-30.142-328.79-30.514-329.688-31.227-330.406"></path><path fill="#FFFFFF" d="M-65.897-313.809c-0.091-0.734-0.439-1.416-1.034-1.94c-0.694-0.617-1.619-0.958-2.604-0.958 c-1.021,0-1.966,0.339-2.662,0.955c-0.597,0.53-0.947,1.212-1.039,1.943h-0.032h-0.007v0.013v0.346v2.899v2.43v16.625v5.33 c0,0.871,0.384,1.688,1.074,2.298c0.695,0.617,1.619,0.958,2.604,0.958c1.021,0,1.967-0.339,2.662-0.955s1.078-1.434,1.078-2.301 v-5.33v-16.625v-2.43v-2.899v-0.346v-0.013h-0.007H-65.897z"></path><path fill="#FFFFFF" d="M-280.843-320.697c0.979,0.212,1.967,0.024,2.834-0.555c2.785-1.905,5.946-2.871,9.398-2.871 c3.904,0,7.421,1.21,10.454,3.597c0.462,0.41,1.24,0.877,2.39,0.877c1.188,0,2.238-0.531,2.895-1.462 c0.628-0.76,0.896-1.718,0.756-2.713c-0.123-0.849-0.508-1.618-1.157-2.271l-0.194-0.167c-2.17-1.698-4.555-3.016-7.088-3.915 c-4.754-1.686-10.191-1.811-15.154-0.329c-2.314,0.692-4.5,1.742-6.48,3.108c-0.81,0.542-1.367,1.364-1.572,2.313 c-0.225,1.051,0.026,2.103,0.653,2.887C-282.563-321.417-281.781-320.898-280.843-320.697"></path><path fill="#FFFFFF" d="M-252.794-293.581c-0.615-0.767-1.427-1.251-2.354-1.401c-1.006-0.161-2.021,0.12-2.856,0.792 c-0.431,0.346-0.873,0.666-1.325,0.963l-0.017-0.017c-1.785,1.154-3.704,1.97-5.72,2.405c-2.106,0.457-4.295,0.504-6.504,0.139 c-2.177-0.359-4.268-1.179-6.216-2.433c-1.001-0.646-1.928-1.377-2.755-2.174c-0.285-0.273-0.559-0.561-0.822-0.86 c-1.152-1.328-2.1-2.843-2.824-4.517c-0.875-2.025-1.319-4.227-1.319-6.542c0-1.191,0.112-2.366,0.334-3.493 c0.217-1.102,0.567-2.195,1.046-3.265c0.874-1.999,0.087-4.006-1.913-4.882c-1.979-0.863-4.03-0.036-4.896,1.951 c-1.32,3.158-1.99,6.418-1.99,9.688c0,3.365,0.641,6.558,1.904,9.489c1.254,2.911,3.008,5.505,5.211,7.708 c2.207,2.207,4.802,3.961,7.709,5.213c2.849,1.229,5.947,1.862,9.209,1.897v0.005c0,0,4.432,0.245,9.092-1.773l-0.012-0.011 c0.31-0.12,0.621-0.23,0.926-0.362c0.078-0.035,0.152-0.078,0.23-0.113c1.284-0.577,2.531-1.25,3.721-2.05 c0.317-0.214,0.611-0.461,0.918-0.69l-0.006-0.007c0.223-0.167,0.451-0.316,0.67-0.491c0.838-0.674,1.328-1.607,1.384-2.622 C-251.917-291.965-252.202-292.847-252.794-293.581"></path><path fill="#FFFFFF" stroke="#FFFFFF" stroke-width="6.1974" stroke-miterlimit="10" d="M456.578,19.401l7.58,3.872 c0.684,0.349,1.41,0.513,2.127,0.513c1.703,0,3.348-0.933,4.178-2.555c1.176-2.305,0.264-5.125-2.043-6.304l-0.9-0.465 c-8.768-5.313-19.039-8.384-30.018-8.384c-32.023,0-58.068,26.05-58.068,58.066v87.777c0,22.563-18.354,40.916-40.916,40.916 c-22.559,0-40.912-18.354-40.912-40.916c0-2.586-2.1-4.686-4.686-4.686c-2.592,0-4.688,2.1-4.688,4.686 c0,27.729,22.557,50.286,50.285,50.286c27.295,0,49.564-21.861,50.256-48.993c0.02-0.178,0.031-0.355,0.031-0.537V64.146 c0-26.849,21.846-48.69,48.697-48.69c6.646,0,12.986,1.345,18.766,3.77C456.369,19.287,456.471,19.345,456.578,19.401"></path><path d="M456.578,19.401 l7.58,3.872 c0.684,0.349 1.41,0.513 2.127,0.513 c1.703,0 3.348,-0.933 4.178,-2.555 c1.176,-2.305 0.264,-5.125 -2.043,-6.304 l-0.9,-0.465 c-8.768,-5.313 -19.039,-8.384 -30.018,-8.384 c-32.023,0 -58.068,26.05 -58.068,58.066 v87.777 c0,22.563 -18.354,40.916 -40.916,40.916 c-22.559,0 -40.912,-18.354 -40.912,-40.916 c0,-2.586 -2.1,-4.686 -4.686,-4.686 c-2.592,0 -4.688,2.1 -4.688,4.686 c0,27.729 22.557,50.286 50.285,50.286 c27.295,0 49.564,-21.861 50.256,-48.993 c0.02,-0.178 0.031,-0.355 0.031,-0.537 V64.146 c0,-26.849 21.846,-48.69 48.697,-48.69 c6.646,0 12.986,1.345 18.766,3.77 C456.369,19.287 456.471,19.345 456.578,19.401  z " stroke-width="6.1974" stroke="black" stroke-miterlimit="10" fill="black"></path><path d="M480.266,41.088c0.125,0.219,0.271,0.419,0.428,0.61c2.639,5.052,4.408,10.621,5.133,16.514 c-0.016,0.244-0.016,0.497,0.012,0.753l0.305,3.043c0.004,0.135,0.018,0.269,0.02,0.401c0.008-0.003,0.014-0.005,0.02-0.008 l0.326,3.228c0.244,2.414,2.281,4.215,4.654,4.215c0.16,0,0.32-0.007,0.479-0.022c2.572-0.259,4.449-2.558,4.193-5.134l-0.355-3.509 c-0.543-10.727-4.004-20.698-9.615-29.122c-0.002,0-0.002,0-0.002,0l-1.764-3.035c-1.301-2.239-4.168-3.001-6.406-1.699 c-2.238,1.298-3,4.163-1.699,6.403L480.266,41.088z"></path><path d="M480.266,44.187 c0.125,0.219 0.271,0.419 0.428,0.61 c2.639,5.052 4.408,10.621 5.133,16.514 c-0.016,0.244 -0.016,0.497 0.012,0.753 l0.305,3.043 c0.004,0.135 0.018,0.269 0.02,0.401 c0.008,-0.003 0.014,-0.005 0.02,-0.008 l0.326,3.228 c0.244,2.414 2.281,4.215 4.654,4.215 c0.16,0 0.32,-0.007 0.479,-0.022 c2.572,-0.259 4.449,-2.558 4.193,-5.134 l-0.355,-3.509 c-0.543,-10.727 -4.004,-20.698 -9.615,-29.122 c-0.002,0 -0.002,0 -0.002,0 l-1.764,-3.035 c-1.301,-2.239 -4.168,-3.001 -6.406,-1.699 c-2.238,1.298 -3,4.164 -1.699,6.403 L480.266,44.187  z " stroke-width="6.1974" stroke="black" stroke-miterlimit="10" fill="black"></path><path fill="black" d="M452.836,73.648 c0,-1.337 0.254,-2.615 0.688,-3.805 c-7.574,0.689 -13.506,7.055 -13.506,14.809 c0,8.216 6.658,14.871 14.873,14.871 c8.211,0 14.871,-6.655 14.871,-14.871 c0,-0.56 -0.035,-1.115 -0.094,-1.66 c-1.691,1.057 -3.68,1.672 -5.814,1.672 C457.768,84.664 452.836,79.731 452.836,73.648 "></path><path d="M582.084,182.434 c-3.135,0 -5.688,2.556 -5.688,5.688 c0,22.01 -17.906,39.916 -39.914,39.916 s-39.914,-17.906 -39.914,-39.916 l-0.002,-45.051 V112.62 v-11.225 l0.012,-0.283 l-0.057,-4.688 l-0.025,0.01 l-0.033,-2.058 c-0.021,-1.514 -0.645,-2.932 -1.734,-3.991 c-1.098,-1.058 -2.439,-1.59 -4.047,-1.601 c-1.518,0.026 -2.936,0.642 -3.992,1.731 c-1.057,1.093 -1.623,2.531 -1.6,4.052 l0.029,18.052 v31.869 h0.01 l0.066,45.67 c0,0.398 0.039,0.787 0.1,1.007 c1.59,27.051 24.074,48.244 51.188,48.244 c28.279,0 51.289,-23.009 51.289,-51.288 C587.771,184.989 585.221,182.434 582.084,182.434 " stroke-width="6.1974" stroke="black" stroke-miterlimit="10" fill="black"></path><path d="M528.938,206.764 c10.719,0 19.439,-8.721 19.439,-19.439 c0,-2.689 -2.182,-4.87 -4.871,-4.87 c-2.688,0 -4.869,2.181 -4.869,4.87 c0,5.351 -4.352,9.699 -9.699,9.699 c-5.346,0 -9.697,-4.349 -9.697,-9.699 c0,-0.135 -0.012,-0.26 -0.021,-0.39 c0.01,-0.134 0.021,-0.262 0.021,-0.395 v-23.41 c0,-2.687 -2.182,-4.869 -4.871,-4.869 c-2.688,0 -4.871,2.183 -4.871,4.869 v23.41 c0,0.133 0.012,0.261 0.021,0.395 c-0.01,0.13 -0.021,0.255 -0.021,0.39 C509.498,198.043 518.221,206.764 528.938,206.764 " stroke-width="6.1974" stroke="black" stroke-miterlimit="10" fill="black"></path><path d="M346.279,173.645 c-10.719,0 -19.436,-8.72 -19.436,-19.437 c0,-2.692 2.18,-4.869 4.867,-4.869 s4.871,2.177 4.871,4.869 c0,5.349 4.35,9.7 9.697,9.7 s9.699,-4.352 9.699,-9.7 c0,-0.132 0.014,-0.263 0.023,-0.393 c-0.01,-0.131 -0.023,-0.261 -0.023,-0.392 v-23.407 c0,-2.689 2.182,-4.869 4.869,-4.869 c2.689,0 4.871,2.18 4.871,4.869 v23.407 c0,0.131 -0.014,0.261 -0.023,0.392 c0.01,0.13 0.023,0.261 0.023,0.393 C365.719,164.925 356.998,173.645 346.279,173.645 " stroke-width="6.1974" stroke="black" stroke-miterlimit="10" fill="black"></path><path d="M419.771,248.448 v-50.41 c0,-2.441 -2.496,-4.354 -5.684,-4.354 c-3.191,0 -5.689,1.913 -5.689,4.354 v53.242 l-0.051,2.354 c-0.025,0.978 0.359,1.9 1.107,2.673 c1.057,1.091 2.693,1.73 4.49,1.751 l0.014,-0.999 l0.074,1.002 c3.021,0 5.451,-1.744 5.67,-4.018 l0.068,0.028 l0.055,-5.071 C419.828,248.768 419.809,248.524 419.771,248.448 " stroke-width="6.1974" stroke="black" stroke-miterlimit="10" fill="black"></path><path d="M495.682,287.48 c-3.137,0 -5.688,2.552 -5.688,5.688 c0,8.211 -6.672,14.887 -14.877,14.887 s-14.879,-6.676 -14.879,-14.887 c0,-0.208 -0.014,-0.414 -0.035,-0.617 l0.004,0.002 c0.02,0 0.031,-0.2 0.031,-0.401 l0.023,-9.018 l0.002,-0.829 h0.021 l0.01,-4.01 h0.008 v-26.922 v-7.693 c0,-3.09 -2.547,-5.599 -5.684,-5.599 c-3.139,0 -5.684,2.509 -5.684,5.599 v7.693 v24.363 l-0.064,6.568 v0.829 v9.018 c0,0.208 0.012,0.414 0.033,0.618 v-0.005 c-0.021,0 -0.033,0.203 -0.033,0.403 c0,14.48 11.773,26.262 26.246,26.262 c14.471,0 26.248,-11.781 26.248,-26.262 C501.365,290.032 498.814,287.48 495.682,287.48 " stroke-width="6.1974" stroke="black" stroke-miterlimit="10" fill="black"></path><path d="M415.912,272.319 l0.016,-0.021 c0,0 -0.066,-0.033 -0.17,-0.08 c-0.563,-0.362 -1.189,-0.621 -1.873,-0.767 l0.004,-0.026 c-0.1,-0.021 -0.186,-0.014 -0.279,-0.028 c-0.125,-0.019 -0.236,-0.06 -0.359,-0.071 c-0.115,-0.01 -0.225,0.006 -0.336,0 c-0.197,-0.007 -0.385,-0.01 -0.566,0 c-0.162,0.009 -0.316,0.026 -0.469,0.05 c-0.268,0.036 -0.521,0.084 -0.762,0.154 c-0.047,0.014 -0.1,0.026 -0.146,0.042 c-1.225,0.381 -2.092,1.053 -2.514,1.457 c-0.037,0.031 -0.068,0.065 -0.102,0.097 c-0.125,0.127 -0.213,0.224 -0.213,0.224 l0.027,0.014 c-1.832,2.114 -1.4,5.561 -1.4,5.561 v0.464 l-0.352,3.724 c-0.01,0.104 -0.01,0.209 0.006,0.19 c-1.471,6.81 -7.586,11.752 -14.551,11.752 c-8.209,0 -14.889,-6.68 -14.889,-14.889 c0,-3.137 -2.551,-5.687 -5.686,-5.687 c-3.137,0 -5.688,2.55 -5.688,5.687 c0,14.482 11.783,26.265 26.262,26.265 c14.48,0 26.262,-11.782 26.254,-26.288 l0.246,-2.617 C418.576,275.397 417.557,273.453 415.912,272.319 " stroke-width="6.1974" stroke="black" stroke-miterlimit="10" fill="black"></path><path fill="black" d="M124.645,424.926 c-3.402,-7.811 -8.08,-14.725 -13.902,-20.55 c-5.824,-5.824 -12.738,-10.501 -20.551,-13.905 c-7.895,-3.438 -16.396,-5.181 -25.281,-5.181 c-11.154,0 -21.719,2.742 -31.24,8.066 c-2.414,1.207 -4.162,3.335 -4.916,5.983 c-0.715,2.479 -0.492,4.977 0.725,7.403 l0.334,0.551 c1.371,2.063 3.352,3.512 5.721,4.185 c2.465,0.709 4.879,0.548 7.508,-0.78 c6.658,-3.72 14.016,-5.604 21.869,-5.604 c6.174,0 12.053,1.186 17.467,3.527 c5.48,2.37 10.324,5.64 14.4,9.714 c4.08,4.084 7.348,8.928 9.717,14.402 c2.34,5.409 3.523,11.286 3.523,17.468 c0,6.188 -1.188,12.102 -3.535,17.572 c-2.361,5.521 -5.631,10.389 -9.705,14.464 c-4.08,4.082 -8.922,7.35 -14.4,9.715 c-5.41,2.34 -11.289,3.527 -17.467,3.527 c-6.188,0 -12.104,-1.189 -17.572,-3.538 c-5.533,-2.367 -10.4,-5.634 -14.465,-9.704 c-4.072,-4.069 -7.336,-8.935 -9.707,-14.464 c-2.346,-5.471 -3.533,-11.384 -3.533,-17.572 c0,-3.814 0.496,-7.604 1.471,-11.269 c0.98,-3.681 2.451,-7.29 4.449,-10.882 c1.123,-2.242 1.342,-4.739 0.631,-7.231 c-0.768,-2.654 -2.49,-4.765 -4.75,-5.891 c-4.809,-2.564 -10.227,-1.199 -13.26,3.533 l-0.215,0.37 c-2.508,4.761 -4.473,9.811 -5.852,15.009 C0.707,439.117 0,444.62 0,450.205 c0,8.984 1.707,17.51 5.082,25.334 c3.346,7.771 8.029,14.693 13.916,20.578 c5.887,5.892 12.811,10.574 20.574,13.917 c7.826,3.373 16.354,5.083 25.338,5.083 c8.861,0 17.354,-1.707 25.236,-5.075 c7.842,-3.354 14.779,-8.047 20.623,-13.949 c5.805,-5.868 10.473,-12.769 13.869,-20.51 c3.441,-7.839 5.186,-16.381 5.186,-25.378 C129.824,441.327 128.08,432.823 124.645,424.926 "></path><path fill="black" d="M321.086,411.708 c-1.857,1.856 -2.881,4.383 -2.881,7.109 v86.481 c0,2.626 1.023,5.089 2.871,6.93 c1.857,1.864 4.383,2.889 7.117,2.889 c2.619,0 5.08,-1.021 6.938,-2.881 c1.859,-1.855 2.879,-4.319 2.879,-6.938 v-86.481 c0,-2.72 -1.021,-5.248 -2.889,-7.117 C331.32,407.915 324.711,408.074 321.086,411.708 "></path><path fill="black" d="M382.188,388.147 c-1.861,-1.844 -4.318,-2.857 -6.914,-2.857 h-94.326 c-2.613,0 -5.078,1.024 -6.945,2.886 c-1.854,1.854 -2.875,4.318 -2.875,6.933 c0,2.732 1.021,5.256 2.873,7.099 c1.854,1.862 4.32,2.887 6.947,2.887 h94.326 c2.621,0 5.084,-1.024 6.939,-2.883 c1.857,-1.857 2.879,-4.378 2.879,-7.103 C385.092,392.465 384.096,390.066 382.188,388.147 "></path><path fill="black" d="M497.529,501.289 l-49.27,-110.493 c-1.764,-3.499 -5.01,-5.506 -8.902,-5.506 c-4.014,0 -7.348,2.057 -9.225,5.813 l-30.008,67.527 l-19.168,42.78 l-0.188,0.512 c-0.678,2.025 -0.707,4.145 -0.094,6.299 c0.791,2.767 2.783,5.014 5.594,6.218 l0.412,0.153 c1.049,0.348 2.186,0.524 3.379,0.524 c3.908,0 7.182,-2.06 9.045,-5.809 l16.424,-36.836 h26.725 c2.73,0 5.256,-1.025 7.119,-2.889 c1.852,-1.856 2.869,-4.314 2.869,-6.927 c0,-2.759 -0.994,-5.215 -2.895,-7.131 c-1.859,-1.844 -4.375,-2.857 -7.094,-2.857 H424.42 l14.932,-33.549 l40.207,90.452 c1.75,3.524 5,5.545 8.922,5.545 c1.684,0 3.045,-0.274 3.934,-0.735 c2.553,-1.1 4.469,-3.139 5.4,-5.746 C498.727,506.07 498.596,503.4 497.529,501.289 "></path><path fill="black" d="M603.781,388.155 c-1.859,-1.849 -4.318,-2.865 -6.928,-2.865 h-94.326 c-2.615,0 -5.078,1.021 -6.945,2.886 c-1.854,1.856 -2.869,4.318 -2.869,6.93 c0,2.735 1.018,5.259 2.861,7.1 c1.857,1.861 4.326,2.889 6.953,2.889 h94.326 c2.615,0 5.082,-1.022 6.951,-2.887 c1.848,-1.858 2.865,-4.379 2.865,-7.102 C606.67,392.468 605.678,390.071 603.781,388.155 "></path><path fill="black" d="M549.777,408.829 c-2.734,0 -5.262,1.025 -7.105,2.879 c-1.857,1.852 -2.883,4.38 -2.883,7.109 v86.481 c0,2.623 1.021,5.087 2.861,6.922 c1.855,1.87 4.387,2.896 7.127,2.896 c2.617,0 5.082,-1.024 6.941,-2.886 c1.855,-1.858 2.877,-4.32 2.877,-6.933 v-86.481 c0,-2.753 -0.994,-5.209 -2.889,-7.114 C554.85,409.85 552.393,408.829 549.777,408.829 "></path><path fill="black" d="M662.33,495.314 c-1.578,0 -2.949,-0.276 -4.32,-0.879 c-1.406,-0.61 -2.637,-1.442 -3.67,-2.475 c-1.023,-1.02 -1.857,-2.255 -2.473,-3.665 c-0.594,-1.367 -0.869,-2.738 -0.869,-4.318 v-88.869 c0,-2.644 -0.996,-5.042 -2.898,-6.956 c-3.652,-3.626 -10.236,-3.777 -14.037,0.023 c-1.85,1.856 -2.869,4.318 -2.869,6.933 v88.869 c0,4.222 0.813,8.285 2.422,12.079 c1.596,3.771 3.846,7.12 6.68,9.954 c2.844,2.845 6.193,5.095 9.953,6.68 c3.797,1.611 7.863,2.427 12.082,2.427 c2.615,0 5.08,-1.021 6.938,-2.881 c1.859,-1.854 2.881,-4.319 2.881,-6.938 c0,-2.722 -1.021,-5.248 -2.887,-7.115 C667.406,496.333 664.941,495.314 662.33,495.314 "></path><path fill="black" d="M720.936,388.152 c-1.857,-1.846 -4.318,-2.862 -6.922,-2.862 c-2.854,0 -5.436,1.113 -7.293,3.162 c-1.65,1.854 -2.525,4.153 -2.525,6.656 v88.869 c0,1.528 -0.293,2.982 -0.869,4.311 c-0.604,1.382 -1.439,2.594 -2.477,3.595 c-1.107,1.069 -2.398,1.93 -3.838,2.555 c-1.338,0.581 -2.789,0.877 -4.32,0.877 c-2.627,0 -5.092,1.021 -6.926,2.864 c-1.861,1.857 -2.889,4.386 -2.889,7.12 c0,2.628 1.021,5.092 2.861,6.928 c1.857,1.864 4.326,2.891 6.953,2.891 c4.217,0 8.275,-0.815 12.078,-2.422 c3.773,-1.599 7.127,-3.848 9.957,-6.683 c2.836,-2.836 5.086,-6.184 6.684,-9.958 c1.605,-3.797 2.42,-7.858 2.42,-12.077 v-88.869 C723.83,392.465 722.836,390.066 720.936,388.152 "></path><path fill="#FFFFFF" d="M902.701,505.313c0,4.744-3.725,8.47-8.572,8.47c-4.797,0-8.623-3.726-8.623-8.47 c0-4.644,3.826-8.369,8.623-8.369C898.977,496.943,902.701,500.669,902.701,505.313 M887.648,505.313 c0,3.723,2.756,6.685,6.531,6.685c3.674,0,6.381-2.962,6.381-6.636c0-3.726-2.707-6.733-6.432-6.733 S887.648,501.636,887.648,505.313 M892.801,509.7h-1.938v-8.369c0.764-0.153,1.836-0.256,3.215-0.256 c1.582,0,2.297,0.256,2.91,0.612c0.459,0.357,0.813,1.021,0.813,1.838c0,0.918-0.711,1.633-1.734,1.938v0.099 c0.818,0.311,1.279,0.923,1.531,2.043c0.256,1.278,0.41,1.787,0.613,2.095h-2.092c-0.256-0.308-0.41-1.071-0.664-2.042 c-0.154-0.918-0.662-1.326-1.734-1.326h-0.92V509.7z M892.854,504.952h0.916c1.074,0,1.939-0.357,1.939-1.223 c0-0.767-0.561-1.277-1.785-1.277c-0.51,0-0.867,0.052-1.07,0.104V504.952z"></path><path fill="black" d="M872.713,388.319 c-3.33,-3.303 -8.846,-3.905 -13.305,-0.735 l-41.375,43.367 l-40.668,-42.796 c-3.725,-3.699 -10.309,-3.703 -14.037,0.021 c-1.854,1.856 -2.873,4.318 -2.873,6.933 c0,2.626 1.006,5.073 2.752,6.808 l9.822,10.35 l7.014,7.386 l1.701,1.794 l0.48,0.506 l28.357,29.878 c1.777,2.094 4.424,3.245 7.451,3.245 c2.764,0 5.238,-1.014 7.232,-3.006 l30.543,-32.136 v85.366 c0,2.628 1.021,5.094 2.865,6.93 c1.855,1.862 4.322,2.889 6.949,2.889 c2.725,0 5.252,-1.021 7.107,-2.881 c1.857,-1.855 2.879,-4.319 2.879,-6.938 V395.278 C875.609,392.634 874.617,390.235 872.713,388.319 "></path><path fill="black" d="M780.15,432.627 c-0.242,-1.96 -1.172,-3.78 -2.76,-5.181 c-1.854,-1.646 -4.322,-2.557 -6.951,-2.557 c-2.723,0 -5.248,0.905 -7.107,2.55 c-1.592,1.415 -2.527,3.235 -2.773,5.188 h-0.086 h-0.018 v0.035 v0.923 v7.74 v6.487 v44.383 v14.229 c0,2.326 1.023,4.509 2.867,6.135 c1.855,1.648 4.322,2.558 6.951,2.558 c2.725,0 5.25,-0.904 7.107,-2.55 c1.855,-1.645 2.877,-3.827 2.877,-6.143 v-14.229 v-44.383 v-6.487 v-7.74 v-0.923 v-0.035 h-0.018 H780.15  z "></path><path fill="black" d="M179.613,414.239 c2.611,0.565 5.25,0.065 7.566,-1.48 c7.434,-5.086 15.873,-7.665 25.09,-7.665 c10.424,0 19.813,3.23 27.91,9.603 c1.232,1.094 3.311,2.341 6.379,2.341 c3.174,0 5.977,-1.418 7.729,-3.903 c1.676,-2.027 2.393,-4.586 2.018,-7.242 c-0.328,-2.266 -1.355,-4.32 -3.09,-6.062 l-0.52,-0.446 c-5.793,-4.533 -12.158,-8.051 -18.922,-10.451 c-12.691,-4.5 -27.207,-4.834 -40.457,-0.879 c-6.18,1.848 -12.014,4.651 -17.301,8.299 c-2.162,1.446 -3.65,3.642 -4.197,6.176 c-0.6,2.805 0.07,5.613 1.744,7.706 C175.02,412.318 177.107,413.702 179.613,414.239 "></path><path fill="black" d="M254.496,486.632 c-1.645,-2.047 -3.809,-3.34 -6.283,-3.742 c-2.688,-0.43 -5.398,0.321 -7.627,2.115 c-1.15,0.924 -2.33,1.778 -3.537,2.57 l-0.045,-0.044 c-4.766,3.081 -9.889,5.259 -15.27,6.421 c-5.625,1.221 -11.467,1.346 -17.365,0.37 c-5.811,-0.959 -11.393,-3.146 -16.594,-6.493 c-2.672,-1.725 -5.146,-3.676 -7.354,-5.805 c-0.762,-0.729 -1.492,-1.496 -2.195,-2.297 c-3.076,-3.545 -5.605,-7.589 -7.541,-12.058 c-2.336,-5.407 -3.521,-11.284 -3.521,-17.465 c0,-3.181 0.301,-6.316 0.891,-9.325 c0.58,-2.941 1.516,-5.862 2.793,-8.717 c2.334,-5.337 0.232,-10.693 -5.107,-13.033 c-5.285,-2.305 -10.76,-0.096 -13.07,5.21 c-3.523,8.431 -5.313,17.134 -5.313,25.865 c0,8.984 1.711,17.507 5.084,25.334 c3.348,7.771 8.029,14.696 13.912,20.578 c5.893,5.892 12.818,10.574 20.58,13.917 c7.605,3.279 15.879,4.972 24.586,5.065 v0.013 c0,0 11.83,0.655 24.271,-4.734 l-0.031,-0.029 c0.828,-0.32 1.658,-0.615 2.473,-0.967 c0.207,-0.095 0.406,-0.208 0.615,-0.303 c3.428,-1.541 6.758,-3.337 9.934,-5.473 c0.846,-0.571 1.631,-1.23 2.449,-1.843 l-0.016,-0.019 c0.596,-0.445 1.205,-0.844 1.789,-1.311 c2.236,-1.799 3.545,-4.292 3.695,-7.001 C256.836,490.944 256.074,488.59 254.496,486.632 "></path></svg>