<?xml version="1.0" encoding="utf-8"?>
<!-- Generator: Adobe Illustrator 16.0.0, SVG Export Plug-In . SVG Version: 6.00 Build 0)  -->
<!DOCTYPE svg PUBLIC "-//W3C//DTD SVG 1.1//EN" "http://www.w3.org/Graphics/SVG/1.1/DTD/svg11.dtd">
<svg version="1.1" id="Layer_1" xmlns="http://www.w3.org/2000/svg" xmlns:xlink="http://www.w3.org/1999/xlink" x="0px" y="0px"
	 width="955px" height="440px" viewBox="0 0 955 440" enable-background="new 0 0 955 440" xml:space="preserve">
<path d="M0.165,29.639c0-16.351,13.376-29.726,29.727-29.726h895.208c16.353,0,29.728,13.375,29.728,29.726v380.548
	c0,16.353-13.375,29.728-29.728,29.728H29.891c-16.351,0-29.727-13.375-29.727-29.728V29.639L0.165,29.639z"/>
<path fill="#FFFFFF" d="M0.165,43.113h954.664v353.595H0.165L0.165,43.113L0.165,43.113z"/>
<path d="M809.217,134.947c-43.678,0-79.283,35.61-79.283,79.288c0,43.662,35.605,79.277,79.283,79.277
	c43.669,0,79.276-35.615,79.276-79.277C888.493,170.557,852.886,134.947,809.217,134.947L809.217,134.947z"/>
<path d="M155.738,134.947c-43.682,0-79.292,35.61-79.292,79.288c0,43.662,35.61,79.277,79.292,79.277
	c43.662,0,79.273-35.615,79.273-79.277C235.012,170.557,199.4,134.947,155.738,134.947z"/>
<path d="M802.994,65.17c-73.393-1.686-107.898,45.375-157.977,103.422l-47.24,54.747l74.807,89.555
	c17.822,27.517-16.193,54.825-37.297,29.646l-69.162-82.503l-67.396,78.128c-21.462,24.869-55.091-2.913-36.888-30.172
	l73.163-85.079l-47.932-57.18l30.833-38.187l48.747,58.557l42.021-48.879c20.618-23.966,41.646-55.725,68.897-72.056H0.166v309.487
	h158.38c73.403,0,106.725-43.887,155.445-103.067l45.972-55.839l-76.866-87.793c-18.436-27.101,14.932-55.178,36.614-30.496
	l71.038,80.892l65.595-79.667c20.878-25.37,55.132,1.644,37.565,29.317l-71.186,86.752l49.242,56.061l-31.026,36.741l-49.013-55.28
	l-40.877,49.823c-20.063,24.437-40.373,55.603-67.246,72.557h671.025V65.17H802.994z M280.986,214.235
	c0,68.994-56.257,125.257-125.248,125.257c-69.007,0-125.265-56.264-125.265-125.257c0-69.005,56.257-125.264,125.265-125.264
	C224.729,88.971,280.986,145.229,280.986,214.235z M809.217,339.492c-68.995,0-125.265-56.264-125.265-125.257
	c0-69.005,56.27-125.264,125.265-125.264c68.999,0,125.255,56.259,125.255,125.264C934.472,283.229,878.216,339.492,809.217,339.492
	z"/>
<rect x="-262" y="-92.5" width="97" height="92.5"/>
</svg>
